<?xml version="1.0" standalone="no"?>
<!DOCTYPE svg PUBLIC "-//W3C//DTD SVG 1.1//EN" "http://www.w3.org/Graphics/SVG/1.1/DTD/svg11.dtd" >
<svg>
<metadata>
Created by FontForge 20090914 at Thu Feb 27 03:28:25 2014
 By www-data
&#194;&#169; 2011 Sergiy S. Tkachenko / 4th february
&#194;&#169; 2011 Movavi.com
http://creativecommons.org/licenses/by-nc-nd/3.0
http://creativecommons.org/licenses/by-nc-nd/3.0/deed.ru
</metadata>
<defs>
<font id="MovaviGrotesqueBlack" horiz-adv-x="630" >
  <font-face 
    font-family="Movavi Grotesque Black"
    font-weight="900"
    font-stretch="normal"
    units-per-em="1000"
    panose-1="2 11 8 3 3 0 0 2 0 4"
    ascent="775"
    descent="-225"
    x-height="529.999"
    cap-height="710"
    bbox="-119.965 -415.002 1154 1158"
    underline-thickness="50"
    underline-position="-50"
    unicode-range="U+0020-U+FB01"
  />
<missing-glyph horiz-adv-x="653" 
d="M333 0v137.997h-293v32c0 34.667 4.83301 66.334 14.5 95.001s21.167 59.334 34.5 92.001l139 353h240l-176 -377h53c8 40.667 26.333 80.334 55 119.001l57 78h96v-182h85v-210h-85v-138h-220zM412 308.997v14c0 2.66699 0.5 5 1.5 7s3.5 3 7.5 3s6.33301 -1 7 -3
s1 -4.33301 1 -7v-14h-17zM456 308.997v18c0 2.66699 0.5 5 1.5 7s3.5 3 7.5 3s6.33301 -1 7 -3s1 -4.33301 1 -7v-18h-17zM515 76.9971h-51v48h-40v-48h-10v52h-41v-96h142v44zM515 244.997h-41v-52h-10v48h-40v-48h-10v52h-41v-96h142v96zM515 332.997l-0.00292969 13.5
c0 5.66699 -1.16699 11 -3.5 16s-6.16602 9.33301 -11.499 13s-13.333 5.5 -24 5.5c-16.667 0 -27 -6.33301 -31 -19h-1c-3.33301 4 -7.5 7.5 -12.5 10.5s-11.167 4.5 -18.5 4.5c-10.667 0 -18.667 -1.83301 -24 -5.5s-9.16602 -8 -11.499 -13
s-3.66602 -10.333 -3.99902 -16s-0.5 -10.167 -0.5 -13.5v-64h142v68z" />
    <glyph glyph-name="fi" unicode="fi" horiz-adv-x="665" 
d="M425 0v359.999h-166v-360h-190v360h-64v170h66c1.33301 30.667 4.5 60.667 9.5 90s17 55.5 36 78.5s47.667 41.5 86 55.5s91.5 21 159.5 21c32.667 0 61.5 -1.66699 86.5 -5s47.5 -8 67.5 -14s38 -13 54 -21s31.667 -16.667 47 -26l-64 -160
c-14 6 -29.167 11.5 -45.5 16.5s-32.166 9 -47.499 12s-30 5.33301 -44 7s-26 2.5 -36 2.5c-24 0 -43.5 -0.5 -58.5 -1.5s-26.833 -3.5 -35.5 -7.5s-14.834 -9.66699 -18.501 -17s-6.5 -17.666 -8.5 -30.999h356v-530h-190z" />
    <glyph glyph-name=".notdef" horiz-adv-x="653" 
d="M333 0v137.997h-293v32c0 34.667 4.83301 66.334 14.5 95.001s21.167 59.334 34.5 92.001l139 353h240l-176 -377h53c8 40.667 26.333 80.334 55 119.001l57 78h96v-182h85v-210h-85v-138h-220zM412 308.997v14c0 2.66699 0.5 5 1.5 7s3.5 3 7.5 3s6.33301 -1 7 -3
s1 -4.33301 1 -7v-14h-17zM456 308.997v18c0 2.66699 0.5 5 1.5 7s3.5 3 7.5 3s6.33301 -1 7 -3s1 -4.33301 1 -7v-18h-17zM515 76.9971h-51v48h-40v-48h-10v52h-41v-96h142v44zM515 244.997h-41v-52h-10v48h-40v-48h-10v52h-41v-96h142v96zM515 332.997l-0.00292969 13.5
c0 5.66699 -1.16699 11 -3.5 16s-6.16602 9.33301 -11.499 13s-13.333 5.5 -24 5.5c-16.667 0 -27 -6.33301 -31 -19h-1c-3.33301 4 -7.5 7.5 -12.5 10.5s-11.167 4.5 -18.5 4.5c-10.667 0 -18.667 -1.83301 -24 -5.5s-9.16602 -8 -11.499 -13
s-3.66602 -10.333 -3.99902 -16s-0.5 -10.167 -0.5 -13.5v-64h142v68z" />
    <glyph glyph-name="space" unicode=" " horiz-adv-x="300" 
 />
    <glyph glyph-name="exclam" unicode="!" horiz-adv-x="314" 
d="M81 259l-32 451h216l-32 -451h-152zM158 -10c-14.667 0 -28.5 1.33301 -41.5 4s-24.333 8 -34 16s-17.334 19 -23.001 33s-8.5 32 -8.5 54s2.83301 40 8.5 54s13.334 24.833 23.001 32.5s21 12.834 34 15.501s26.833 4 41.5 4s28.5 -1.33301 41.5 -4
s24.167 -7.83398 33.5 -15.501s16.833 -18.5 22.5 -32.5s8.5 -32 8.5 -54s-2.83301 -40 -8.5 -54s-13.167 -25 -22.5 -33s-20.5 -13.333 -33.5 -16s-26.833 -4 -41.5 -4z" />
    <glyph glyph-name="quotedbl" unicode="&#x22;" horiz-adv-x="380" 
d="M210 560v190h120l-30 -190h-90zM50 560v190h120l-30 -190h-90z" />
    <glyph glyph-name="numbersign" unicode="#" horiz-adv-x="700" 
d="M348 0l28 203h-96l-28 -203h-96l28 203l-133 1v95h147l16 114h-134v96h148l27 201h96l-27 -201h96l27 201h96l-27 -201h135v-96h-149l-16 -114h134v-96h-148l-28 -203h-96zM406 413h-95l-16 -114h95z" />
    <glyph glyph-name="dollar" unicode="$" horiz-adv-x="629" 
d="M224 -100l0.00195312 95c-43.333 6 -81.666 14.167 -114.999 24.5s-56.333 19.5 -69 27.5l76 187c12.667 -6 28.667 -11.167 48 -15.5s38.833 -8 58.5 -11s38.167 -5.16699 55.5 -6.5s30.333 -2 39 -2c17.333 0 28.166 2.5 32.499 7.5s6.5 10.167 6.5 15.5
c0 9.33301 -2.33301 16.333 -7 21s-10.667 8.33398 -18 11.001c-10.667 4 -24.834 6.5 -42.501 7.5s-36.5 3.16699 -56.5 6.5s-40.167 8.83301 -60.5 16.5s-38.833 19.5 -55.5 35.5s-30.167 37.167 -40.5 63.5s-15.5 60.5 -15.5 102.5c0 28 2.83301 54.333 8.5 79
s15 46.667 28 66s29.833 35.833 50.5 49.5s46.334 24.167 77.001 31.5v98h180v-93c40 -5.33301 75.667 -12.5 107 -21.5s54 -18.167 68 -27.5l-66 -187c-12.667 6 -28.167 11.167 -46.5 15.5s-37 8 -56 11s-37.333 4.83301 -55 5.5s-32.5 0 -44.5 -2
c-11.333 -2 -18.833 -5 -22.5 -9s-5.5 -9 -5.5 -15c0 -8 2.33301 -13.833 7 -17.5s10.667 -6.5 18 -8.5c10.667 -2.66699 25.167 -4.66699 43.5 -6s37.833 -3.83301 58.5 -7.5s41.667 -9.66699 63 -18s40.666 -20.833 57.999 -37.5s31.333 -38.334 42 -65.001
s16 -60.667 16 -102c0 -30 -3.33301 -57.667 -10 -83s-17.334 -48 -32.001 -68s-33.667 -36.667 -57 -50s-52 -23 -86 -29v-95h-180z" />
    <glyph glyph-name="percent" unicode="%" horiz-adv-x="730" 
d="M256 555c0 12 -1.33301 21.5 -4 28.5s-6.33398 12.167 -11.001 15.5s-10.167 5.33301 -16.5 6s-12.833 1 -19.5 1c-7.33301 0 -14 -0.333008 -20 -1s-11.333 -2.66699 -16 -6s-8.33398 -8.5 -11.001 -15.5s-4 -16.5 -4 -28.5s1.33301 -21.5 4 -28.5
s6.33398 -12.167 11.001 -15.5s10 -5.33301 16 -6s12.667 -1 20 -1c6.66699 0 13.167 0.333008 19.5 1s11.833 2.66699 16.5 6s8.33398 8.5 11.001 15.5s4 16.5 4 28.5zM205 390c-22.667 0 -44 2 -64 6s-37.5 11.833 -52.5 23.5s-26.833 28.334 -35.5 50.001
s-13 50.167 -13 85.5s4.33301 63.833 13 85.5s20.5 38.334 35.5 50.001s32.5 19.5 52.5 23.5s41.333 6 64 6s44 -2 64 -6s37.5 -11.833 52.5 -23.5s26.833 -28.334 35.5 -50.001s13 -50.167 13 -85.5s-4.33301 -63.833 -13 -85.5s-20.5 -38.334 -35.5 -50.001
s-32.5 -19.5 -52.5 -23.5s-41.333 -6 -64 -6zM576 155c0 12 -1.33301 21.5 -4 28.5s-6.33398 12.167 -11.001 15.5s-10.167 5.33301 -16.5 6s-12.833 1 -19.5 1c-7.33301 0 -14 -0.333008 -20 -1s-11.333 -2.66699 -16 -6s-8.33398 -8.5 -11.001 -15.5s-4 -16.5 -4 -28.5
s1.33301 -21.5 4 -28.5s6.33398 -12.167 11.001 -15.5s10 -5.33301 16 -6s12.667 -1 20 -1c6.66699 0 13.167 0.333008 19.5 1s11.833 2.66699 16.5 6s8.33398 8.5 11.001 15.5s4 16.5 4 28.5zM525 -10c-22.667 0 -44 2 -64 6s-37.5 11.833 -52.5 23.5
s-26.833 28.334 -35.5 50.001s-13 50.167 -13 85.5s4.33301 63.833 13 85.5s20.5 38.334 35.5 50.001s32.5 19.5 52.5 23.5s41.333 6 64 6s44 -2 64 -6s37.5 -11.833 52.5 -23.5s26.833 -28.334 35.5 -50.001s13 -50.167 13 -85.5s-4.33301 -63.833 -13 -85.5
s-20.5 -38.334 -35.5 -50.001s-32.5 -19.5 -52.5 -23.5s-41.333 -6 -64 -6zM30 -7v190l310 200v-190zM390 327v190l310 200v-190z" />
    <glyph glyph-name="ampersand" unicode="&#x26;" horiz-adv-x="730" 
d="M650 -2c-27.333 3.33301 -56.166 9.33301 -86.499 18s-59.833 21.334 -88.5 38.001c-26 -20 -53.333 -35.667 -82 -47s-61.334 -17 -98.001 -17c-33.333 0 -64.833 2.5 -94.5 7.5s-55.667 15.333 -78 31s-40 38 -53 67s-19.5 67.833 -19.5 116.5
c0 32.667 2.66699 59 8 79s12.666 36.333 21.999 49s20.333 23.334 33 32.001l42 30c-11.333 14.667 -20 30.167 -26 46.5s-9 35.166 -9 56.499c0 40.667 6.33301 73 19 97s29.167 42.333 49.5 55s43.5 20.834 69.5 24.501s52.333 5.5 79 5.5
c23.333 0 47.5 -1.66699 72.5 -5s47.833 -10.833 68.5 -22.5s37.667 -29 51 -52s20 -54.167 20 -93.5c0 -32.667 -8.16699 -62 -24.5 -88s-36.166 -48 -59.499 -66l30 -33c15.333 9.33301 29.5 19.666 42.5 30.999s25.5 24.666 37.5 39.999l115 -125
c-18 -25.333 -36.333 -44 -55 -56c7.33301 -3.33301 16 -6.33301 26 -9s20.333 -5 31 -7zM277 268c-7.33301 -6 -13.166 -11.668 -17.499 -17.001s-6.5 -14.666 -6.5 -27.999c0 -20 4.16699 -31.667 12.5 -35s19.166 -5 32.499 -5c9.33301 0 17.333 1 24 3s13.667 5 21 9z
M338 468.999c10 7.33301 17.667 14.1689 23 20.502s8 13.166 8 20.499s-4.33301 12 -13 14s-16.667 3 -24 3c-5.33301 0 -10.333 -2 -15 -6s-6.33398 -8.66699 -5.00098 -14c2.66699 -8.66699 6.33398 -15.834 11.001 -21.501s9.66699 -11.167 15 -16.5z" />
    <glyph glyph-name="quotesingle" unicode="'" horiz-adv-x="220" 
d="M50 560v190h120l-30 -190h-90z" />
    <glyph glyph-name="parenleft" unicode="(" horiz-adv-x="328" 
d="M196 -214c-10.667 12 -21.334 27.6689 -32.001 47.002s-20.5 38.5 -29.5 57.5s-16.5 35.833 -22.5 50.5s-9.33301 23.334 -10 26.001c-19.333 52.667 -33 104.334 -41 155.001s-12 104 -12 160s4 109.167 12 159.5s21.667 102.166 41 155.499
c0.666992 2.66699 4 11.334 10 26.001s13.5 31.5 22.5 50.5s18.833 38.167 29.5 57.5s21.334 35 32.001 47l143 -125c-5.33301 -6 -11.166 -15.333 -17.499 -28s-12.5 -25.834 -18.5 -39.501l-15.5 -36.5c-4.33301 -10.667 -6.83301 -17 -7.5 -19
c-15.333 -40.667 -26 -80.834 -32 -120.501s-9 -82.167 -9 -127.5s3 -87.833 9 -127.5s16.667 -79.834 32 -120.501c0.666992 -2 3.16699 -8.33301 7.5 -19l15.5 -36.5c6 -13.667 12.167 -26.834 18.5 -39.501s12.166 -22 17.499 -28l-143 -125v0z" />
    <glyph glyph-name="parenright" unicode=")" horiz-adv-x="328" 
d="M-8 -89c4.66699 6 10.167 14.833 16.5 26.5s12.333 24 18 37s10.667 25 15 36s7.5 18.833 9.5 23.5c15.333 40.667 26 80.834 32 120.501s9 82.167 9 127.5s-3 87.833 -9 127.5s-16.667 79.834 -32 120.501c-0.666992 2 -3.16699 8.33301 -7.5 19l-15.5 36.5
c-6 13.667 -12.167 26.834 -18.5 39.501s-12.166 22 -17.499 28l143 125c10 -11.333 20.333 -26.5 31 -45.5s20.5 -38 29.5 -57s16.5 -36 22.5 -51l11 -27.5c19.333 -50.667 33 -102.834 41 -156.501s12 -106.5 12 -158.5s-4 -104.833 -12 -158.5
s-21.667 -105.834 -41 -156.501c-1.33301 -2.66699 -4.83301 -11.334 -10.5 -26.001s-13 -31.5 -22 -50.5s-18.833 -38.167 -29.5 -57.5s-21.334 -35 -32.001 -47l-143 125v0z" />
    <glyph glyph-name="asterisk" unicode="*" horiz-adv-x="472" 
d="M363 390c-3.33301 2 -8.83301 6.16699 -16.5 12.5l-24.5 20.5l-25 21l-18 15c0.666992 -5.33301 1.33398 -13.166 2.00098 -23.499s1.5 -21.166 2.5 -32.499s1.83301 -22 2.5 -32s1 -17 1 -21h-102c0 4 0.333008 11 1 21s1.5 20.667 2.5 32s1.83301 22.166 2.5 32.499
s1.33398 18.166 2.00098 23.499l-18 -15l-25 -21l-24.5 -20.5c-7.66699 -6.33301 -13.167 -10.5 -16.5 -12.5l-59 84l17.5 11c8.33301 5.33301 17.5 10.833 27.5 16.5l28.5 16.5l20.5 12l-20.5 12l-28.5 16.5c-10 5.66699 -19.167 11.167 -27.5 16.5l-17.5 11l59 84
c3.33301 -2 8.83301 -6.16699 16.5 -12.5l24.5 -20.5l25 -21l18 -15c-0.666992 5.33301 -1.33398 13.166 -2.00098 23.499s-1.5 21.166 -2.5 32.499s-1.83301 22 -2.5 32s-1 17 -1 21h102c0 -4 -0.333008 -11 -1 -21s-1.5 -20.667 -2.5 -32s-1.83301 -22.166 -2.5 -32.499
s-1.33398 -18.166 -2.00098 -23.499l18 15l25 21l24.5 20.5c7.66699 6.33301 13.167 10.5 16.5 12.5l59 -84l-17.5 -11c-8.33301 -5.33301 -17.5 -10.833 -27.5 -16.5l-28.5 -16.5l-20.5 -12l20.5 -12l28.5 -16.5c10 -5.66699 19.167 -11.167 27.5 -16.5l17.5 -11z" />
    <glyph glyph-name="plus" unicode="+" horiz-adv-x="625" 
d="M231 102v171h-171v163h171v171h164v-171h170v-163h-170v-171h-164z" />
    <glyph glyph-name="comma" unicode="," horiz-adv-x="313" 
d="M4 -31l30.0029 11.002c13.333 5.33301 26.166 11 38.499 17s22.166 8 29.499 6l11 -3l5 4c-20 4.66699 -36.333 14.167 -49 28.5s-19 37.5 -19 69.5c0 20.667 2.83301 37.667 8.5 51s13.5 23.666 23.5 30.999s21.5 12.333 34.5 15s26.833 4 41.5 4
c17.333 0 32.666 -1.66699 45.999 -5s24.333 -9.33301 33 -18s15.167 -20.334 19.5 -35.001s6.5 -33.334 6.5 -56.001c0 -26 -4 -53.5 -12 -82.5s-24.667 -56.833 -50 -83.5c-24 -23.333 -48.667 -41.666 -74 -54.999s-52 -24 -80 -32z" />
    <glyph glyph-name="hyphen" unicode="-" horiz-adv-x="359" 
d="M50 273v163h259v-163h-259z" />
    <glyph glyph-name="period" unicode="." horiz-adv-x="313" 
d="M157 -10c-14.667 0 -28.5 1.33301 -41.5 4s-24.333 8 -34 16s-17.334 19 -23.001 33s-8.5 32 -8.5 54s2.83301 40 8.5 54s13.334 24.833 23.001 32.5s21 12.834 34 15.501s26.833 4 41.5 4s28.5 -1.33301 41.5 -4s24.167 -7.83398 33.5 -15.501s16.833 -18.5 22.5 -32.5
s8.5 -32 8.5 -54s-2.83301 -40 -8.5 -54s-13.167 -25 -22.5 -33s-20.5 -13.333 -33.5 -16s-26.833 -4 -41.5 -4z" />
    <glyph glyph-name="slash" unicode="/" horiz-adv-x="474" 
d="M-10 -45l315 865l179 -65l-315 -865z" />
    <glyph glyph-name="zero" unicode="0" horiz-adv-x="631" 
d="M315 197c24 0 38.6689 13.334 44.002 40.001s8 66 8 118s-2.66699 91.667 -8 119s-20 41 -44 41c-12 0 -21.333 -3.5 -28 -10.5s-11.834 -17.333 -15.501 -31s-5.83398 -30.334 -6.50098 -50.001s-1 -42.5 -1 -68.5c0 -52 2.5 -91.333 7.5 -118s19.5 -40 43.5 -40z
M315.002 -9.99902c-52.667 0 -96.5 6.66992 -131.5 20.0029s-63.167 34.666 -84.5 63.999s-36.5 67.166 -45.5 113.499s-13.5 102.166 -13.5 167.499s4.5 121.166 13.5 167.499s24.167 84.333 45.5 114s49.5 51.334 84.5 65.001s78.833 20.5 131.5 20.5
s96.667 -6.83301 132 -20.5s63.666 -35.334 84.999 -65.001s36.5 -67.667 45.5 -114s13.5 -102.166 13.5 -167.499s-4.5 -121 -13.5 -167s-24.167 -83.667 -45.5 -113s-49.666 -50.833 -84.999 -64.5s-79.333 -20.5 -132 -20.5z" />
    <glyph glyph-name="one" unicode="1" horiz-adv-x="385" 
d="M116 0v501h-111v104l161 105h169v-710h-219z" />
    <glyph glyph-name="two" unicode="2" horiz-adv-x="631" 
d="M57 0l0.99707 150c0.666992 44 9.83398 81.667 27.501 113s39.167 58.666 64.5 81.999c20.667 18.667 45 36.334 73 53.001l102 62c7.33301 4.66699 13.333 8.83398 18 12.501s7 9.16699 7 16.5c0 5.33301 -2 9.5 -6 12.5s-9 5.33301 -15 7s-12.5 2.83398 -19.5 3.50098
s-13.167 1 -18.5 1c-13.333 0 -27.666 -0.833008 -42.999 -2.5s-30.833 -3.83398 -46.5 -6.50098s-30.5 -6 -44.5 -10s-26.333 -8.33301 -37 -13l-66 187c8.66699 6 22.167 12.167 40.5 18.5s38.833 12.166 61.5 17.499s46.334 9.66602 71.001 12.999s47.667 5 69 5
c34.667 0 68.167 -5 100.5 -15s61 -24.5 86 -43.5s45 -42.167 60 -69.5s22.5 -58.666 22.5 -93.999s-6 -66 -18 -92s-27.833 -48.833 -47.5 -68.5s-42.167 -37 -67.5 -52s-51.333 -29.5 -78 -43.5c-11.333 -5.33301 -22.333 -10.833 -33 -16.5l-33 -17.5h293v-210h-524z" />
    <glyph glyph-name="three" unicode="3" horiz-adv-x="629" 
d="M210 299v127.003l70 74h-195v210h476v-150l-89 -117c34.667 -21.333 62.834 -50.166 84.501 -86.499s32.5 -76.833 32.5 -121.5c0 -25.333 -4.5 -52.333 -13.5 -81s-23.833 -55.334 -44.5 -80.001s-48.167 -45.167 -82.5 -61.5s-76.5 -24.5 -126.5 -24.5
c-30.667 0 -61 2 -91 6s-57.833 9 -83.5 15s-47.834 12.5 -66.501 19.5s-32.334 13.167 -41.001 18.5l76 187c12 -5.33301 26.5 -10 43.5 -14s34.5 -7.5 52.5 -10.5s35.333 -5.33301 52 -7s30.334 -2.83398 41.001 -3.50098c13.333 1.33301 24.333 6.66602 33 15.999
s13 20.666 13 33.999c0 14 -4.83301 25.833 -14.5 35.5s-21.5 14.5 -35.5 14.5h-91z" />
    <glyph glyph-name="four" unicode="4" horiz-adv-x="618" 
d="M303 0v137.997h-293v32c0 34.667 4.83301 66.334 14.5 95.001s21.167 59.334 34.5 92.001l139 353h240l-176 -377h53c8 40.667 26.333 80.334 55 119.001l57 78h96v-182h85v-210h-85v-138h-220z" />
    <glyph glyph-name="five" unicode="5" horiz-adv-x="635" 
d="M313 499l-0.000976562 -27.999h26c32 0 62.833 -5.83301 92.5 -17.5s55.834 -27.834 78.501 -48.501s40.834 -45.5 54.501 -74.5s20.5 -60.833 20.5 -95.5c0 -25.333 -4.5 -52.333 -13.5 -81s-23.833 -55.334 -44.5 -80.001s-48.167 -45.167 -82.5 -61.5
s-76.5 -24.5 -126.5 -24.5c-30.667 0 -61 2 -91 6s-57.833 9 -83.5 15s-47.834 12.5 -66.501 19.5s-32.334 13.167 -41.001 18.5l76 187c12 -5.33301 26.5 -10.166 43.5 -14.499s34.5 -8 52.5 -11s35.333 -5.33301 52 -7s30.334 -2.5 41.001 -2.5c13.333 0 24.333 5 33 15
s13 21.667 13 35c0 14 -4.83301 25.833 -14.5 35.5s-21.5 14.5 -35.5 14.5c-17.333 0 -35.333 -1.5 -54 -4.5s-35 -6.5 -49 -10.5l-97 86l32 340h425v-211h-241z" />
    <glyph glyph-name="six" unicode="6" horiz-adv-x="628" 
d="M387 236c0 12 -1.33301 21.333 -4 28s-6.16699 11.667 -10.5 15s-9.66602 5.33301 -15.999 6s-12.833 1 -19.5 1c-7.33301 0 -14 -0.333008 -20 -1s-11.167 -2.66699 -15.5 -6s-7.83301 -8.33301 -10.5 -15s-4 -16 -4 -28s1.33301 -21.333 4 -28
s6.16699 -11.667 10.5 -15s9.5 -5.33301 15.5 -6s12.667 -1 20 -1c6.66699 0 13.167 0.333008 19.5 1s11.666 2.66699 15.999 6s7.83301 8.33301 10.5 15s4 16 4 28zM503 476c-10.667 4.66699 -22.002 9.16797 -34.002 13.501s-23.833 8 -35.5 11s-22.667 5.33301 -33 7
s-19.166 2.83398 -26.499 3.50098c-20 1.33301 -37.833 -0.333984 -53.5 -5.00098s-29 -10.5 -40 -17.5s-19.333 -14 -25 -21s-8.5 -12.5 -8.5 -16.5c0 -4.66699 3.83301 -6.16699 11.5 -4.5s16.667 4.33398 27 8.00098l32 11.5c11 4 19.833 6 26.5 6
c32.667 0 63.834 -3 93.501 -9s55.667 -17.5 78 -34.5s40 -40.5 53 -70.5s19.5 -68.667 19.5 -116s-6.5 -87 -19.5 -119s-31.167 -57.833 -54.5 -77.5s-50.833 -33.834 -82.5 -42.501s-66.5 -13 -104.5 -13c-46 0 -86.833 6.33301 -122.5 19s-65.667 33.167 -90 61.5
s-42.833 65.5 -55.5 111.5s-19 102 -19 168c0 72.667 7.5 133 22.5 181s36.167 86.167 63.5 114.5s60.333 48.166 99 59.499s81.667 17 129 17c32 0 60.167 -2 84.5 -6s45.5 -9 63.5 -15s33.167 -12.5 45.5 -19.5l31.5 -18.5z" />
    <glyph glyph-name="seven" unicode="7" horiz-adv-x="560" 
d="M76 0v45.002c0 35.333 3.66699 67.666 11 96.999s19.333 59.666 36 90.999l144 267h-257v210h540v-107c0 -12.667 -2.16699 -24.667 -6.5 -36s-9.5 -23 -15.5 -35l-66 -126l-75.5 -142l-74.5 -141l-62 -123h-174z" />
    <glyph glyph-name="eight" unicode="8" horiz-adv-x="600" 
d="M491 390c21.333 -19.333 38.1689 -42.167 50.502 -68.5s18.5 -55.5 18.5 -87.5c0 -50 -7 -90.833 -21 -122.5s-32.833 -56.5 -56.5 -74.5s-51.334 -30.333 -83.001 -37s-65.167 -10 -100.5 -10c-36 0 -69.833 3.33301 -101.5 10s-59.167 19 -82.5 37
s-41.666 42.833 -54.999 74.5s-20 72.5 -20 122.5c0 32 6 61 18 87s28.333 48.667 49 68c-13.333 16.667 -23.5 34.667 -30.5 54s-10.5 41.666 -10.5 66.999c0 44.667 6.16699 81 18.5 109s29 49.5 50 64.5s45.667 25.167 74 30.5s58.5 8 90.5 8
c31.333 0 61.166 -2.66699 89.499 -8s53.166 -15.5 74.499 -30.5s38.333 -36.5 51 -64.5s19 -64.333 19 -109c0 -22 -3.5 -43.167 -10.5 -63.5s-17.5 -39.166 -31.5 -56.499zM354.003 233.999c0 12.667 -1.33301 22.667 -4 30s-6.5 12.833 -11.5 16.5s-10.833 6 -17.5 7
s-14 1.5 -22 1.5s-15.333 -0.5 -22 -1.5s-12.5 -3.33301 -17.5 -7s-8.83301 -9.16699 -11.5 -16.5s-4 -17.333 -4 -30s1.33301 -22.667 4 -30s6.5 -12.833 11.5 -16.5s10.833 -6 17.5 -7s14 -1.5 22 -1.5s15.333 0.5 22 1.5s12.5 3.33301 17.5 7s8.83301 9.16699 11.5 16.5
s4 17.333 4 30zM254.003 509.999c0 -11.333 1.16699 -20 3.5 -26s5.5 -10.5 9.5 -13.5s8.83301 -4.66699 14.5 -5s11.5 -0.5 17.5 -0.5s11.833 0.166992 17.5 0.5s10.5 2 14.5 5s7.16699 7.5 9.5 13.5s3.5 14.667 3.5 26s-1.16699 20 -3.5 26s-5.5 10.5 -9.5 13.5
s-8.83301 4.66699 -14.5 5s-11.5 0.5 -17.5 0.5s-11.833 -0.166992 -17.5 -0.5s-10.5 -2 -14.5 -5s-7.16699 -7.5 -9.5 -13.5s-3.5 -14.667 -3.5 -26z" />
    <glyph glyph-name="nine" unicode="9" horiz-adv-x="628" 
d="M341 476c0 12 -1.33301 21.333 -4 28s-6.16699 11.667 -10.5 15s-9.66602 5.33301 -15.999 6s-12.833 1 -19.5 1c-7.33301 0 -14 -0.333008 -20 -1s-11.167 -2.66699 -15.5 -6s-7.83301 -8.33301 -10.5 -15s-4 -16 -4 -28s1.33301 -21.333 4 -28
s6.16699 -11.667 10.5 -15s9.5 -5.33301 15.5 -6s12.667 -1 20 -1c6.66699 0 13.167 0.333008 19.5 1s11.666 2.66699 15.999 6s7.83301 8.33301 10.5 15s4 16 4 28zM125 236c10.667 -5.33301 21.999 -10.001 33.999 -14.001s23.833 -7.5 35.5 -10.5s22.667 -5.33301 33 -7
s19.166 -2.83398 26.499 -3.50098c20 -1.33301 37.833 0.333984 53.5 5.00098s29 10.5 40 17.5s19.333 14 25 21s8.5 12.5 8.5 16.5c0 4.66699 -3.83301 6.16699 -11.5 4.5s-16.667 -4.33398 -27 -8.00098l-32 -11.5c-11 -4 -19.833 -6 -26.5 -6
c-33.333 0 -64.666 3 -93.999 9s-55.166 17.5 -77.499 34.5s-40 40.5 -53 70.5s-19.5 68.667 -19.5 116c0 46.667 6.5 86.167 19.5 118.5s31.167 58.333 54.5 78s50.833 33.834 82.5 42.501s66.5 13 104.5 13c46 0 86.833 -6.33301 122.5 -19s65.667 -33.167 90 -61.5
s42.833 -65.5 55.5 -111.5s19 -102 19 -168c0 -73.333 -7.5 -133.833 -22.5 -181.5s-36.167 -85.667 -63.5 -114s-60.333 -48.166 -99 -59.499s-81.667 -17 -129 -17c-32 0 -60.167 2 -84.5 6s-45.5 9 -63.5 15s-33.167 12.5 -45.5 19.5l-31.5 18.5z" />
    <glyph glyph-name="colon" unicode=":" horiz-adv-x="313" 
d="M157 -10c-14.667 0 -28.5 1.33301 -41.5 4s-24.333 8 -34 16s-17.334 19 -23.001 33s-8.5 32 -8.5 54s2.83301 40 8.5 54s13.334 24.833 23.001 32.5s21 12.834 34 15.501s26.833 4 41.5 4s28.5 -1.33301 41.5 -4s24.167 -7.83398 33.5 -15.501s16.833 -18.5 22.5 -32.5
s8.5 -32 8.5 -54s-2.83301 -40 -8.5 -54s-13.167 -25 -22.5 -33s-20.5 -13.333 -33.5 -16s-26.833 -4 -41.5 -4zM157 258c-14.667 0 -28.5 1.33301 -41.5 4s-24.333 8 -34 16s-17.334 19 -23.001 33s-8.5 32 -8.5 54s2.83301 40 8.5 54s13.334 24.833 23.001 32.5
s21 12.834 34 15.501s26.833 4 41.5 4s28.5 -1.33301 41.5 -4s24.167 -7.83398 33.5 -15.501s16.833 -18.5 22.5 -32.5s8.5 -32 8.5 -54s-2.83301 -40 -8.5 -54s-13.167 -25 -22.5 -33s-20.5 -13.333 -33.5 -16s-26.833 -4 -41.5 -4z" />
    <glyph glyph-name="semicolon" unicode=";" horiz-adv-x="313" 
d="M157 258c-14.667 0 -28.5 1.33301 -41.5 4s-24.333 8 -34 16s-17.334 19 -23.001 33s-8.5 32 -8.5 54s2.83301 40 8.5 54s13.334 24.833 23.001 32.5s21 12.834 34 15.501s26.833 4 41.5 4s28.5 -1.33301 41.5 -4s24.167 -7.83398 33.5 -15.501s16.833 -18.5 22.5 -32.5
s8.5 -32 8.5 -54s-2.83301 -40 -8.5 -54s-13.167 -25 -22.5 -33s-20.5 -13.333 -33.5 -16s-26.833 -4 -41.5 -4zM-3 -10l30.001 11.002c13.333 5.33301 25.833 8 37.5 8s24.167 -2 37.5 -6l11 -3l5 4c-20 4.66699 -36.333 14.167 -49 28.5s-19 37.5 -19 69.5
c0 20.667 2.83301 37.667 8.5 51s13.5 23.666 23.5 30.999s21.5 12.333 34.5 15s26.833 4 41.5 4c17.333 0 32.666 -1.66699 45.999 -5s24.333 -9.33301 33 -18s15.167 -20.334 19.5 -35.001s6.5 -33.334 6.5 -56.001c0 -26 -4 -53.5 -12 -82.5s-24.667 -56.833 -50 -83.5
c-24 -23.333 -48.667 -41.666 -74 -54.999s-52 -24 -80 -32z" />
    <glyph glyph-name="less" unicode="&#x3c;" horiz-adv-x="534" 
d="M494 137c-22.667 0 -43.667 2.16699 -63 6.5s-39.333 11.166 -60 20.499l-341 136v108l341 136c20.667 9.33301 40.667 16.166 60 20.499s40.333 6.5 63 6.5h10v-143l-123 -39c-21.333 -6.66699 -41.833 -12.167 -61.5 -16.5s-40.5 -8.16602 -62.5 -11.499l-57 -7l57 -7
c22 -3.33301 42.833 -7.16602 62.5 -11.499s40.167 -9.83301 61.5 -16.5l123 -39v-143h-10z" />
    <glyph glyph-name="equal" unicode="=" horiz-adv-x="605" 
d="M50 386v140h505v-140h-505zM50 183v140h505v-140h-505z" />
    <glyph glyph-name="greater" unicode="&#x3e;" horiz-adv-x="534" 
d="M163 164c-20.667 -9.33301 -40.667 -16.166 -60 -20.499s-40.333 -6.5 -63 -6.5h-10v143l123 39c21.333 6.66699 41.833 12.167 61.5 16.5s40.5 8.16602 62.5 11.499l57 7l-57 7c-22 3.33301 -42.833 7.16602 -62.5 11.499s-40.167 9.83301 -61.5 16.5l-123 39v143h10
c22.667 0 43.667 -2.16699 63 -6.5s39.333 -11.166 60 -20.499l341 -136v-108z" />
    <glyph glyph-name="question" unicode="?" horiz-adv-x="581" 
d="M175 249c0 23.333 4 45.3379 12 66.0049s18.5 39.667 31.5 57s27.167 32.666 42.5 45.999s30.666 24.666 45.999 33.999c7.33301 4.66699 12.333 10.167 15 16.5s4 13.166 4 20.499c0 5.33301 -2 9.5 -6 12.5s-9 5.33301 -15 7s-12.5 2.83398 -19.5 3.50098
s-13.167 1 -18.5 1c-13.333 0 -27.666 -0.833008 -42.999 -2.5s-30.833 -3.83398 -46.5 -6.50098s-30.5 -6 -44.5 -10s-26.333 -8.33301 -37 -13l-66 187c8.66699 6 22.167 12.167 40.5 18.5s38.833 12.166 61.5 17.499s46.334 9.66602 71.001 12.999s47.667 5 69 5
c34.667 0 68.167 -5 100.5 -15s61 -24.5 86 -43.5s45 -42.167 60 -69.5s22.5 -58.666 22.5 -93.999c0 -28.667 -3.66699 -53.167 -11 -73.5s-16.5 -38 -27.5 -53s-23 -27.833 -36 -38.5s-24.667 -20.667 -35 -30s-18.833 -18.333 -25.5 -27
s-9.33398 -18.334 -8.00098 -29.001h-223zM292 -9.99512c-14.667 0 -28.5 1.33301 -41.5 4s-24.333 8 -34 16s-17.334 19 -23.001 33s-8.5 32 -8.5 54s2.83301 40 8.5 54s13.334 24.833 23.001 32.5s21 12.834 34 15.501s26.833 4 41.5 4s28.5 -1.33301 41.5 -4
s24.167 -7.83398 33.5 -15.501s16.833 -18.5 22.5 -32.5s8.5 -32 8.5 -54s-2.83301 -40 -8.5 -54s-13.167 -25 -22.5 -33s-20.5 -13.333 -33.5 -16s-26.833 -4 -41.5 -4z" />
    <glyph glyph-name="at" unicode="@" horiz-adv-x="777" 
d="M736 30c-39.333 -8 -84.1689 -16.668 -134.502 -26.001s-110.5 -14 -180.5 -14c-54 0 -104.333 4.5 -151 13.5s-87 26.833 -121 53.5s-60.667 63.834 -80 111.501s-29 110.167 -29 187.5c0 68.667 8 126.5 24 173.5s39.667 84.667 71 113s70.166 48.666 116.499 60.999
s99.5 18.5 159.5 18.5c76.667 0 136.834 -8.83301 180.501 -26.5s76.167 -42.5 97.5 -74.5s34.5 -70.5 39.5 -115.5s7.5 -94.5 7.5 -148.5v-88c0 -49.333 -11.333 -84.666 -34 -105.999s-57 -32 -103 -32c-29.333 0 -53.333 4 -72 12
c-6.66699 2.66699 -13.5 6.16699 -20.5 10.5s-19.167 12.833 -36.5 25.5c-9.33301 -9.33301 -18 -16.833 -26 -22.5s-15.833 -10 -23.5 -13s-15.667 -5 -24 -6s-17.5 -1.5 -27.5 -1.5c-37.333 0 -68.666 5 -93.999 15s-45.833 24.5 -61.5 43.5s-27 42 -34 69
s-10.5 57.5 -10.5 91.5s3.33301 64.5 10 91.5s18 50 34 69s36.833 33.5 62.5 43.5s57.5 15 95.5 15c12.667 0 28.834 -0.5 48.501 -1.5s40.5 -2.33301 62.5 -4l64.5 -5c21 -1.66699 39.167 -3.16699 54.5 -4.5v-348c0 -8 2.66699 -12.667 8 -14s11 -1.33301 17 0
c20 3.33301 33.333 10.333 40 21s10 27.667 10 51v142c0 36.667 -2.66699 70.334 -8 101.001s-17.166 57.167 -35.499 79.5s-45.166 39.666 -80.499 51.999s-83 18.5 -143 18.5c-50.667 0 -95.334 -5 -134.001 -15s-71 -26.833 -97 -50.5s-45.5 -55 -58.5 -94
s-19.5 -87.167 -19.5 -144.5c0 -66 8.16699 -119.167 24.5 -159.5s38.833 -71.5 67.5 -93.5s62.167 -36.667 100.5 -44s79.166 -11 122.499 -11c34.667 0 67.667 1.5 99 4.5s60.833 6.5 88.5 10.5s52.667 8.33301 75 13l58.5 12v-60zM413.997 286.999
c9.33301 0 16.5 1.83301 21.5 5.5s8.5 8.66699 10.5 15s3.16699 13.5 3.5 21.5s0.5 16.667 0.5 26v52c0 10.667 -5.33301 16 -16 16h-45c-15.333 0 -27.5 -0.666992 -36.5 -2s-15.833 -4.33301 -20.5 -9s-7.66699 -11.5 -9 -20.5s-2 -21.167 -2 -36.5
s0.666992 -27.5 2 -36.5s4.33301 -15.833 9 -20.5s11.5 -7.66699 20.5 -9s21.167 -2 36.5 -2h25z" />
    <glyph glyph-name="A" unicode="A" horiz-adv-x="636" 
d="M447 0l-30 100h-192l-29 -100h-186v43c0 35.333 2.66699 68.166 8 98.499s14.333 62.166 27 95.499l174 473h202l171 -472c12 -33.333 20.667 -65.166 26 -95.499s8 -63.166 8 -98.499v-44h-179zM356 310c-7.33301 32.667 -13.333 66 -18 100l-18 118l-19 -118
c-4.66699 -34 -10.667 -67.333 -18 -100h73z" />
    <glyph glyph-name="B" unicode="B" horiz-adv-x="670" 
d="M50 0l-0.000976562 710h322h41.5c16.333 0 33.333 -1.33301 51 -4s35.167 -7.66699 52.5 -15s32.833 -18.333 46.5 -33s24.834 -33.667 33.501 -57s13 -52.333 13 -87c0 -38 -7 -69.5 -21 -94.5s-31.333 -45.833 -52 -62.5v-3c32.667 -11.333 56.334 -31 71.001 -59
s22 -61 22 -99c0 -34.667 -4.33301 -63.667 -13 -87s-19.834 -42.333 -33.501 -57s-29.167 -25.667 -46.5 -33s-34.833 -12.333 -52.5 -15s-34.667 -4 -51 -4h-41.5h-342zM269.999 255v-60h70c14 0 25.833 1 35.5 3s14.5 11 14.5 27s-4.83301 25 -14.5 27s-21.5 3 -35.5 3
h-70zM269.999 514v-60h70c14 0 25.833 1 35.5 3s14.5 11 14.5 27s-4.83301 25 -14.5 27s-21.5 3 -35.5 3h-70z" />
    <glyph glyph-name="C" unicode="C" horiz-adv-x="657" 
d="M617 56c-8 -5.33301 -19.499 -11.834 -34.499 -19.501s-32.5 -15 -52.5 -22s-42.333 -12.833 -67 -17.5s-50.334 -7 -77.001 -7c-56 0 -105.5 7 -148.5 21s-79.167 35.667 -108.5 65s-51.5 67.166 -66.5 113.499s-22.5 101.833 -22.5 166.5s7.5 120.167 22.5 166.5
s37.167 84.166 66.5 113.499s65.5 51 108.5 65s92.5 21 148.5 21c28 0 54.333 -2.5 79 -7.5s47 -11 67 -18s37.167 -14.167 51.5 -21.5s25.5 -13.666 33.5 -18.999l-76 -187c-13.333 6 -27.5 11.167 -42.5 15.5s-29.833 8 -44.5 11s-28.5 5.16699 -41.5 6.5
s-23.833 2 -32.5 2c-19.333 0 -36.333 -1.5 -51 -4.5s-27.334 -9.5 -38.001 -19.5s-18.667 -24.833 -24 -44.5s-8 -46.167 -8 -79.5s2.66699 -59.666 8 -78.999s13.333 -34.166 24 -44.499s23.334 -17 38.001 -20s31.667 -4.5 51 -4.5c8.66699 0 19.5 0.666992 32.5 2
s26.833 3.5 41.5 6.5s29.5 6.66699 44.5 11s29.167 9.5 42.5 15.5z" />
    <glyph glyph-name="D" unicode="D" horiz-adv-x="710" 
d="M313 208c18 0 35.499 1.50098 52.499 4.50098s31.833 9.5 44.5 19.5s22.834 24.833 30.501 44.5s11.5 46.167 11.5 79.5s-3.83301 59.666 -11.5 78.999s-18.167 34 -31.5 44s-29 16.333 -47 19s-37 4 -57 4h-36v-294h44zM49.999 0.000976562l0.000976562 709.999h255
c60.667 0 113.834 -6.33301 159.501 -19s83.667 -33 114 -61s53.166 -64.5 68.499 -109.5s23 -99.833 23 -164.5s-7.16699 -119.667 -21.5 -165s-36 -82.166 -65 -110.499s-65.833 -48.833 -110.5 -61.5s-97.334 -19 -158.001 -19h-265z" />
    <glyph glyph-name="E" unicode="E" horiz-adv-x="579" 
d="M50 0v710h479v-205h-259v-50h239v-200h-239v-50h259v-205h-479z" />
    <glyph glyph-name="F" unicode="F" horiz-adv-x="539" 
d="M50 0v710h479v-205h-259v-50h239v-200h-239v-255h-220z" />
    <glyph glyph-name="G" unicode="G" horiz-adv-x="714" 
d="M662 55c-8.66699 -5.33301 -21.501 -11.834 -38.501 -19.501s-37 -14.834 -60 -21.501s-48 -12.167 -75 -16.5s-54.5 -6.5 -82.5 -6.5c-61.333 0 -114.833 7 -160.5 21s-83.667 35.667 -114 65s-53.166 67.166 -68.499 113.499s-23 101.833 -23 166.5s7.66699 120 23 166
s38.5 83.833 69.5 113.5s69.667 51.334 116 65.001s100.833 20.5 163.5 20.5c28 0 54.333 -2.5 79 -7.5s47 -11 67 -18s37.167 -14.167 51.5 -21.5s25.5 -13.666 33.5 -18.999l-76 -187c-13.333 6 -27.5 11.167 -42.5 15.5s-29.833 8 -44.5 11s-28.5 5.16699 -41.5 6.5
s-23.833 2 -32.5 2c-20.667 0 -39.834 -1.33301 -57.501 -4s-33.167 -9 -46.5 -19s-23.833 -24.833 -31.5 -44.5s-11.5 -46.167 -11.5 -79.5s3.83301 -59.666 11.5 -78.999s18.167 -34 31.5 -44s28.833 -16.5 46.5 -19.5s36.834 -4.5 57.501 -4.5v-2
c6.66699 0 15 0.333008 25 1s21 1.66699 33 3v58h-58v170h258v-384z" />
    <glyph glyph-name="H" unicode="H" horiz-adv-x="728" 
d="M458 0v250h-188v-250h-220v710h220v-250h188v250h220v-710h-220z" />
    <glyph glyph-name="I" unicode="I" horiz-adv-x="320" 
d="M50 0v710h220v-710h-220z" />
    <glyph glyph-name="J" unicode="J" horiz-adv-x="482" 
d="M212 710h219.999v-491c0 -45.333 -6.66699 -82.833 -20 -112.5s-30.5 -53.167 -51.5 -70.5s-44.5 -29.5 -70.5 -36.5s-51.667 -10.5 -77 -10.5c-48 0 -87.833 4.5 -119.5 13.5s-59.5 21.167 -83.5 36.5l69 188c24.667 -11.333 45.334 -18.666 62.001 -21.999
s34.667 -5 54 -5c6.66699 0 11.167 1.66699 13.5 5s3.5 6.66602 3.5 9.99902v495z" />
    <glyph glyph-name="K" unicode="K" horiz-adv-x="685" 
d="M441 0l-118 250h-53v-250h-220v710h220v-250h53l118 250h234l-168 -356l168 -354h-234z" />
    <glyph glyph-name="L" unicode="L" horiz-adv-x="498" 
d="M50 0v710h220v-500h218v-210h-438z" />
    <glyph glyph-name="M" unicode="M" horiz-adv-x="958" 
d="M688 0l0.00390625 110c0 35.333 1.5 68.5 4.5 99.5s7.5 63.833 13.5 98.5l12 62h-4l-155 -370h-160l-155 370h-4l12 -62c6 -34.667 10.5 -67.5 13.5 -98.5s4.5 -64.167 4.5 -99.5v-110h-220v710h232l129 -260c15.333 -32 27.666 -62.833 36.999 -92.5
s16.666 -61.834 21.999 -96.501l9 -58l9 58c5.33301 34.667 12.666 66.834 21.999 96.501s21.666 60.5 36.999 92.5l129 260h232v-710h-220z" />
    <glyph glyph-name="N" unicode="N" horiz-adv-x="722" 
d="M501 0l-251 364l10 -85c3.33301 -28 5.83301 -54.5 7.5 -79.5s2.5 -51.5 2.5 -79.5v-120h-220v710h171l251 -367l-10 88c-3.33301 28 -5.83301 54.5 -7.5 79.5s-2.5 51.5 -2.5 79.5v120h220v-710h-171z" />
    <glyph glyph-name="O" unicode="O" horiz-adv-x="771" 
d="M386 -10c-56 0 -105.5 7 -148.5 21s-79.167 35.667 -108.5 65s-51.5 67.166 -66.5 113.499s-22.5 101.833 -22.5 166.5s7.5 120.167 22.5 166.5s37.167 84.166 66.5 113.499s65.5 51 108.5 65s92.5 21 148.5 21s105.333 -7 148 -21s78.667 -35.667 108 -65
s51.5 -67.166 66.5 -113.499s22.5 -101.833 22.5 -166.5s-7.5 -120.167 -22.5 -166.5s-37.167 -84.166 -66.5 -113.499s-65.333 -51 -108 -65s-92 -21 -148 -21zM386 209c20 0 38 1.5 54 4.5s29.333 9.5 40 19.5s18.834 24.667 24.501 44s8.5 45.666 8.5 78.999
s-2.83301 59.833 -8.5 79.5s-13.834 34.5 -24.501 44.5s-24 16.333 -40 19s-34 4 -54 4c-20.667 0 -38.834 -1.33301 -54.501 -4s-28.834 -9 -39.501 -19s-18.834 -24.833 -24.501 -44.5s-8.5 -46.167 -8.5 -79.5s2.83301 -59.666 8.5 -78.999s13.834 -34 24.501 -44
s23.834 -16.5 39.501 -19.5s33.834 -4.5 54.501 -4.5z" />
    <glyph glyph-name="P" unicode="P" horiz-adv-x="650" 
d="M50 0l0.000976562 710h322c30 0 59.167 -1.5 87.5 -4.5s53.666 -12.333 75.999 -28s40.333 -40 54 -73s20.5 -79.5 20.5 -139.5s-6.83301 -106.833 -20.5 -140.5s-31.667 -58.5 -54 -74.5s-47.833 -25.833 -76.5 -29.5s-57.667 -5.5 -87 -5.5h-102v-215h-220z
M340.001 415c6.66699 0 13.167 0.333008 19.5 1s11.666 2.66699 15.999 6s7.83301 8.33301 10.5 15s4 16 4 28s-1.33301 21.333 -4 28s-6.16699 11.667 -10.5 15s-9.66602 5.33301 -15.999 6s-12.833 1 -19.5 1h-70v-100h70z" />
    <glyph glyph-name="Q" unicode="Q" horiz-adv-x="771" 
d="M213 20l-7 3.00098c-54 24.667 -95.167 64 -123.5 118s-42.5 125.667 -42.5 215c0 64.667 7.5 120.167 22.5 166.5s37.167 84.166 66.5 113.499s65.5 51 108.5 65s92.5 21 148.5 21s105.333 -7 148 -21s78.667 -35.667 108 -65s51.5 -67.166 66.5 -113.499
s22.5 -101.833 22.5 -166.5c0 -58 -6.16699 -105.333 -18.5 -142s-30.333 -65.334 -54 -86.001s-53 -35 -88 -43s-75.167 -12.667 -120.5 -14v-11h28c35.333 0 68.333 -2.33301 99 -7s63 -12 97 -22l56 -17l-66 -187zM386 209.001c20 0 38 1.5 54 4.5s29.333 9.5 40 19.5
s18.834 24.667 24.501 44s8.5 45.666 8.5 78.999s-2.83301 59.833 -8.5 79.5s-13.834 34.5 -24.501 44.5s-24 16.333 -40 19s-34 4 -54 4c-20.667 0 -38.834 -1.33301 -54.501 -4s-28.834 -9 -39.501 -19s-18.834 -24.833 -24.501 -44.5s-8.5 -46.167 -8.5 -79.5
s2.83301 -59.666 8.5 -78.999s13.834 -34 24.501 -44s23.834 -16.5 39.501 -19.5s33.834 -4.5 54.501 -4.5z" />
    <glyph glyph-name="R" unicode="R" horiz-adv-x="685" 
d="M411 0l-84 225h-57v-225h-220v710h342c30 0 59.167 -1.5 87.5 -4.5s53.666 -12.333 75.999 -28s40.333 -40 54 -73s20.5 -79.5 20.5 -139.5c0 -54.667 -8.16699 -98 -24.5 -130s-37.166 -56.667 -62.499 -74l102 -261h-234zM360 415c6.66699 0 13.167 0.333008 19.5 1
s11.666 2.66699 15.999 6s7.83301 8.33301 10.5 15s4 16 4 28s-1.33301 21.333 -4 28s-6.16699 11.667 -10.5 15s-9.66602 5.33301 -15.999 6s-12.833 1 -19.5 1h-90v-100h90z" />
    <glyph glyph-name="S" unicode="S" horiz-adv-x="629" 
d="M116 234c12.667 -6 28.6709 -11.1689 48.0039 -15.502s38.833 -8 58.5 -11s38.167 -5.16699 55.5 -6.5s30.333 -2 39 -2c17.333 0 28.166 2.5 32.499 7.5s6.5 10.167 6.5 15.5c0 9.33301 -2.33301 16.333 -7 21s-10.667 8.33398 -18 11.001
c-10.667 4 -24.834 6.5 -42.501 7.5s-36.5 3.16699 -56.5 6.5s-40.167 8.83301 -60.5 16.5s-38.833 19.5 -55.5 35.5s-30.167 37.167 -40.5 63.5s-15.5 60.5 -15.5 102.5c0 34.667 4.33301 66.5 13 95.5s23.334 54 44.001 75s47.834 37.167 81.501 48.5s75.167 17 124.5 17
c27.333 0 54.333 -1.66699 81 -5s51.5 -7.66602 74.5 -12.999s43.167 -11.166 60.5 -17.499s30.666 -12.5 39.999 -18.5l-66 -187c-12.667 6 -28.167 11.167 -46.5 15.5s-37 8 -56 11s-37.333 4.83301 -55 5.5s-32.5 0 -44.5 -2c-11.333 -2 -18.833 -5 -22.5 -9
s-5.5 -9 -5.5 -15c0 -8 2.33301 -13.833 7 -17.5s10.667 -6.5 18 -8.5c10.667 -2.66699 25.167 -4.66699 43.5 -6s37.833 -3.83301 58.5 -7.5s41.667 -9.66699 63 -18s40.666 -20.833 57.999 -37.5s31.333 -38.334 42 -65.001s16 -60.667 16 -102
c0 -35.333 -4.66699 -67.5 -14 -96.5s-24.5 -54 -45.5 -75s-48.5 -37.167 -82.5 -48.5s-75.667 -17 -125 -17c-30.667 0 -61 2 -91 6s-57.833 9 -83.5 15s-47.834 12.5 -66.501 19.5s-32.334 13.167 -41.001 18.5z" />
    <glyph glyph-name="T" unicode="T" horiz-adv-x="558" 
d="M169 0v500h-159v210h538v-210h-159v-500h-220z" />
    <glyph glyph-name="U" unicode="U" horiz-adv-x="738" 
d="M460 710h217.995v-419c0 -60 -8.16699 -109.5 -24.5 -148.5s-38.666 -69.833 -66.999 -92.5s-61.166 -38.5 -98.499 -47.5s-77 -13.5 -119 -13.5s-81.833 4.5 -119.5 13.5s-70.5 24.833 -98.5 47.5s-50.167 53.5 -66.5 92.5s-24.5 88.5 -24.5 148.5v419h218v-412
c0 -24.667 1.83301 -43.834 5.5 -57.501s9.33398 -23.667 17.001 -30s17 -10 28 -11s24.167 -1.5 39.5 -1.5c14.667 0 27.834 0.5 39.501 1.5s21.334 4.66699 29.001 11s13.5 16.333 17.5 30s6 32.834 6 57.501v412z" />
    <glyph glyph-name="V" unicode="V" horiz-adv-x="636" 
d="M219 0l-174 473c-12.667 33.333 -21.667 65.166 -27 95.499s-8 63.166 -8 98.499v43h186l62 -215c10 -34 18.333 -66.333 25 -97s12.667 -63.334 18 -98.001l19 -118l18 118c5.33301 34.667 11.5 67.334 18.5 98.001s15.5 63 25.5 97l65 215h179v-44
c0 -35.333 -2.66699 -68.166 -8 -98.499s-14 -62.166 -26 -95.499l-171 -472h-202z" />
    <glyph glyph-name="W" unicode="W" horiz-adv-x="888" 
d="M532 0l-29.001 92c-10 34 -18.833 66.167 -26.5 96.5s-14.834 62.833 -21.501 97.5l-12 122l-12 -122c-6 -34.667 -12.833 -67.167 -20.5 -97.5s-16.5 -62.5 -26.5 -96.5l-28 -92h-209l-114 494c-8 34 -13.833 66.5 -17.5 97.5s-5.5 64.167 -5.5 99.5v19h199l17 -81
c7.33301 -34.667 13.5 -67.5 18.5 -98.5s9.83301 -63.833 14.5 -98.5l10 -134l14 135c6.66699 34.667 13.834 67.167 21.501 97.5l25.5 96.5l25 83h175l26 -84c10 -34 18.833 -66.167 26.5 -96.5s14.834 -62.833 21.501 -97.5l15 -134l10 133
c4.66699 34.667 9.5 67.5 14.5 98.5s11.167 63.833 18.5 98.5l16 82h200v-19c0 -35.333 -1.83301 -68.5 -5.5 -99.5s-9.5 -63.5 -17.5 -97.5l-115 -494h-208z" />
    <glyph glyph-name="X" unicode="X" horiz-adv-x="594" 
d="M390 0l-57 134c-7.33301 16 -13 31.5 -17 46.5s-7.66699 31.167 -11 48.5l-8 49l-8 -49c-3.33301 -17.333 -7 -33.5 -11 -48.5s-9.66699 -30.5 -17 -46.5l-57 -134h-194v33c0 35.333 4.16699 67.5 12.5 96.5s21.5 58.5 39.5 88.5l84 137l-84 137
c-18 30 -31.167 59.5 -39.5 88.5s-12.5 61.167 -12.5 96.5v33h194l57 -134c7.33301 -16 13 -31.5 17 -46.5s7.66699 -31.167 11 -48.5l8 -49l8 49c3.33301 17.333 7 33.5 11 48.5s9.66699 30.5 17 46.5l57 134h194v-33c0 -35.333 -4.16699 -67.5 -12.5 -96.5
s-21.5 -58.5 -39.5 -88.5l-84 -137l84 -137c18 -30 31.167 -59.5 39.5 -88.5s12.5 -61.167 12.5 -96.5v-33h-194z" />
    <glyph glyph-name="Y" unicode="Y" horiz-adv-x="614" 
d="M197 0l-0.000976562 221.001l-129 269l-21.5 45.5c-7 14.333 -13.167 28.666 -18.5 42.999s-9.66602 29.166 -12.999 44.499s-5 31.666 -5 48.999v38h179l39 -88c14.667 -32.667 26.667 -63.834 36 -93.501s18 -61.5 26 -95.5l17 -83l17 83c8 34 16.833 66 26.5 96
s21.5 61 35.5 93l38 88h180v-39c0 -17.333 -1.5 -33.666 -4.5 -48.999s-7.16699 -30.166 -12.5 -44.499s-11.5 -28.666 -18.5 -42.999l-22.5 -45.5l-129 -268v-221h-220z" />
    <glyph glyph-name="Z" unicode="Z" horiz-adv-x="666" 
d="M50 0v48c0 35.333 4.66699 67.166 14 95.499s24 56.833 44 85.5l195 271h-245v210h542v-49c0 -35.333 -4.5 -67.166 -13.5 -95.499s-23.833 -56.833 -44.5 -85.5l-194 -270h268v-210h-566z" />
    <glyph glyph-name="bracketleft" unicode="[" horiz-adv-x="470" 
d="M50 -105v915h370v-170h-180v-575h180v-170h-370z" />
    <glyph glyph-name="backslash" unicode="\" horiz-adv-x="474" 
d="M305 -110l-315 865l179 65l315 -865z" />
    <glyph glyph-name="bracketright" unicode="]" horiz-adv-x="470" 
d="M50 -105v170h180v575h-180v170h370v-915h-370z" />
    <glyph glyph-name="asciicircum" unicode="^" horiz-adv-x="490" 
d="M316 387l-70.9961 170l-71 -170l-144 94l110 200l12.5 24c4.33301 8 9.16602 15.333 14.499 22s11.166 12.167 17.499 16.5s13.833 6.5 22.5 6.5h76c8.66699 0 16.167 -2.16699 22.5 -6.5s12.166 -9.83301 17.499 -16.5s10.166 -14 14.499 -22l12.5 -24l110 -200z" />
    <glyph glyph-name="underscore" unicode="_" horiz-adv-x="578" 
d="M0 -155v125h578v-125h-578z" />
    <glyph glyph-name="grave" unicode="`" horiz-adv-x="357" 
d="M50 629l61 129l196 -124l-30 -64z" />
    <glyph glyph-name="a" unicode="a" horiz-adv-x="563" 
d="M428 0l-69.001 45.001c-8 -11.333 -16.667 -20.5 -26 -27.5s-18.5 -12.667 -27.5 -17s-17.667 -7.33301 -26 -9s-15.166 -2.5 -20.499 -2.5c-44 0 -80.667 2.33301 -110 7s-53.333 12.667 -72 24s-32.167 26.833 -40.5 46.5s-13.5 44.5 -15.5 74.5
c-2 30.667 0 56.334 6 77.001s16.167 37.334 30.5 50.001s33.5 21.667 57.5 27s53.333 8 88 8h122c-0.666992 11.333 -3.16699 20.166 -7.5 26.499s-10 11 -17 14s-15 4.66699 -24 5s-18.5 0.5 -28.5 0.5c-16 0 -29.667 -0.333008 -41 -1s-22.166 -1.66699 -32.499 -3
s-21.333 -3.33301 -33 -6s-25.5 -6.33398 -41.5 -11.001l-56 172c20 7.33301 46.667 15.666 80 24.999s75.666 14 126.999 14c90 0 157.833 -21.5 203.5 -64.5s68.5 -113.167 68.5 -210.5v-264h-95zM241.999 183.001c-12.667 0 -20.334 -2.66797 -23.001 -8.00098
s-4 -11.666 -4 -18.999s1.33301 -13.666 4 -18.999s10.334 -8 23.001 -8h22c8 0 16 0.5 24 1.5s14.833 3.16699 20.5 6.5s10 8.66602 13 15.999s3.83301 17.333 2.5 30h-82z" />
    <glyph glyph-name="b" unicode="b" horiz-adv-x="640" 
d="M145 0l-94.9971 0.000976562v710l21 9c26 11.333 51.167 19.333 75.5 24s50.5 7 78.5 7h15v-231c9.33301 4 17.666 7.33301 24.999 10s14.833 4.66699 22.5 6s15.5 2.33301 23.5 3s17.333 1 28 1c46 0 85.333 -4.83301 118 -14.5s59.667 -25.334 81 -47.001
s37 -49.5 47 -83.5s15 -75.333 15 -124c0 -100 -20.833 -171.5 -62.5 -214.5s-104.834 -64.5 -189.501 -64.5c-15.333 0 -28.833 0.666992 -40.5 2s-22.667 4 -33 8s-20.333 9.5 -30 16.5s-19.834 16.167 -30.501 27.5zM325.003 181.001
c19.333 0 34.666 0.832031 45.999 2.49902s19.833 5.33398 25.5 11.001s9.33398 14.167 11.001 25.5s2.5 26.666 2.5 45.999s-0.833008 34.666 -2.5 45.999s-5.33398 19.833 -11.001 25.5s-14.167 9.33398 -25.5 11.001s-26.666 2.5 -45.999 2.5h-41
c-11.333 0 -20.166 -2.5 -26.499 -7.5s-10.833 -11.5 -13.5 -19.5s-4.16699 -17.333 -4.5 -28s-0.5 -21.667 -0.5 -33s0.166992 -22 0.5 -32s1.83301 -18.667 4.5 -26s7.16699 -13.166 13.5 -17.499s15.166 -6.5 26.499 -6.5h41z" />
    <glyph glyph-name="c" unicode="c" horiz-adv-x="552" 
d="M512 42c-12 -7.33301 -24.335 -14.1709 -37.002 -20.5039s-26.5 -11.666 -41.5 -15.999s-31.833 -7.66602 -50.5 -9.99902s-40 -3.5 -64 -3.5c-49.333 0 -91.666 5.5 -126.999 16.5s-64.333 27.667 -87 50s-39.167 50.833 -49.5 85.5s-15.5 75.667 -15.5 123
s5.33301 88.333 16 123s27.334 63.167 50.001 85.5s51.667 38.833 87 49.5s77.666 16 126.999 16c26.667 0 49.834 -1.5 69.501 -4.5s37 -6.66699 52 -11s28 -9.5 39 -15.5l31.5 -18l-67 -164c-12.667 5.33301 -24 9.83301 -34 13.5s-19.5 6.5 -28.5 8.5
s-17.667 3.33301 -26 4s-17.5 1 -27.5 1c-22 0 -39.667 -1.66699 -53 -5s-23.333 -8.66602 -30 -15.999s-11 -16.5 -13 -27.5s-3 -24.167 -3 -39.5s1 -28.5 3 -39.5s6.33301 -20.167 13 -27.5s16.667 -12.666 30 -15.999s31 -5 53 -5c10 0 19.167 0.333008 27.5 1s17 2 26 4
s18.5 4.83301 28.5 8.5s21.333 8.16699 34 13.5z" />
    <glyph glyph-name="d" unicode="d" horiz-adv-x="640" 
d="M495 0l-68.998 45.001c-10.667 -11.333 -20.834 -20.5 -30.501 -27.5s-19.667 -12.5 -30 -16.5s-21.333 -6.66699 -33 -8s-25.167 -2 -40.5 -2c-42.667 0 -79.667 5.16699 -111 15.5s-57.5 26.666 -78.5 48.999s-36.667 51.166 -47 86.499s-15.5 78 -15.5 128
c0 48.667 5 90 15 124s25.667 61.833 47 83.5s48.333 37.334 81 47.001s72 14.5 118 14.5c10.667 0 20 -0.333008 28 -1s15.833 -1.66699 23.5 -3s15.167 -3.33301 22.5 -6s15.666 -6 24.999 -10v191l21 9c26 11.333 51.167 19.333 75.5 24s50.5 7 78.5 7h15v-750h-95z
M356.002 181.001c11.333 0 20.166 2.16797 26.499 6.50098s10.833 10.166 13.5 17.499s4.16699 16 4.5 26s0.5 20.667 0.5 32s-0.166992 22.333 -0.5 33s-1.83301 20 -4.5 28s-7.16699 14.5 -13.5 19.5s-15.166 7.5 -26.499 7.5h-41
c-19.333 0 -34.666 -1.83301 -45.999 -5.5s-19.833 -9 -25.5 -16s-9.33398 -15.833 -11.001 -26.5s-2.5 -23 -2.5 -37s0.833008 -26.333 2.5 -37s5.33398 -19.5 11.001 -26.5s14.167 -12.333 25.5 -16s26.666 -5.5 45.999 -5.5h41z" />
    <glyph glyph-name="e" unicode="e" horiz-adv-x="590" 
d="M539 30c-10 -4 -22.6719 -8.33691 -38.0049 -13.0039s-32.666 -9 -51.999 -13s-40.5 -7.5 -63.5 -10.5s-47.5 -4.5 -73.5 -4.5c-90 0 -157.833 21.5 -203.5 64.5s-68.5 113.167 -68.5 210.5c0 48.667 5.66699 90.334 17 125.001s27.833 63.167 49.5 85.5
s48.334 38.666 80.001 48.999s67.834 15.5 108.501 15.5s76.834 -5.16699 108.501 -15.5s58.334 -26.666 80.001 -48.999s38.167 -50.833 49.5 -85.5s17 -76.334 17 -125.001c-32 -17.333 -62.833 -28.166 -92.5 -32.499s-62.167 -6.5 -97.5 -6.5h-122
c0.666992 -11.333 3.16699 -20.166 7.5 -26.499s10 -11 17 -14s15 -4.66699 24 -5s18.5 -0.5 28.5 -0.5c16 0 30.667 0.5 44 1.5s26.5 2.33301 39.5 4s26.333 3.83398 40 6.50098s28.5 6.33398 44.5 11.001zM350.995 304.996c0.666992 14 -0.666992 24.668 -4 32.001
s-7.83301 12.666 -13.5 15.999s-11.667 5.16602 -18 5.49902s-11.833 0.5 -16.5 0.5c-8 0 -16 -0.5 -24 -1.5s-14.833 -3.16699 -20.5 -6.5s-10 -8.66602 -13 -15.999s-3.83301 -17.333 -2.5 -30h112z" />
    <glyph glyph-name="f" unicode="f" horiz-adv-x="427" 
d="M74 0v360.001h-64v170h64c1.33301 48.667 6.33301 88.667 15 120s21 56.333 37 75s36 31.667 60 39s52.667 11 86 11c12 0 25.5 -0.5 40.5 -1.5s30.333 -2.83301 46 -5.5s31 -6.5 46 -11.5s29.167 -11.167 42.5 -18.5l-67 -164c-14 4.66699 -27.5 7.66699 -40.5 9
s-25.5 2 -37.5 2c-7.33301 0 -13.5 -0.5 -18.5 -1.5s-9 -3.16699 -12 -6.5s-5 -8.83301 -6 -16.5s-1.5 -17.834 -1.5 -30.501h142v-170h-142v-360h-190z" />
    <glyph glyph-name="g" unicode="g" horiz-adv-x="640" 
d="M155 -16c12 -5.33301 25.4971 -9.66699 40.4971 -13s30 -6 45 -8s29 -3.5 42 -4.5s23.167 -1.5 30.5 -1.5c32.667 0 54.834 4.83301 66.501 14.5s18.167 25.834 19.5 48.501c-18 -8 -33.667 -13.167 -47 -15.5s-30.333 -3.5 -51 -3.5c-46 0 -85.333 4.33301 -118 13
s-59.667 23.167 -81 43.5s-37 47 -47 80s-15 73.833 -15 122.5c0 50 5.16699 92.667 15.5 128s26 64.166 47 86.499s47.167 38.666 78.5 48.999s68.333 15.5 111 15.5c15.333 0 28.833 -0.833008 40.5 -2.5s22.667 -4.5 33 -8.5s20.333 -9.5 30 -16.5
s19.834 -15.833 30.501 -26.5l69 45h95v-486c0 -95.333 -20.833 -164.833 -62.5 -208.5s-108.5 -65.5 -200.5 -65.5c-24 0 -47.833 1.33301 -71.5 4s-46.167 6.33398 -67.5 11.001s-40.666 10 -57.999 16s-31.333 12.333 -42 19zM355.997 178.999
c11.333 0 20.166 2.50098 26.499 7.50098s10.833 11.5 13.5 19.5s4.16699 17.333 4.5 28s0.5 21.667 0.5 33s-0.166992 22 -0.5 32s-1.83301 18.667 -4.5 26s-7.16699 13.166 -13.5 17.499s-15.166 6.5 -26.499 6.5h-41c-19.333 0 -34.666 -0.833008 -45.999 -2.5
s-19.833 -5.33398 -25.5 -11.001s-9.33398 -14.167 -11.001 -25.5s-2.5 -26.666 -2.5 -45.999s0.833008 -34.666 2.5 -45.999s5.33398 -19.833 11.001 -25.5s14.167 -9.33398 25.5 -11.001s26.666 -2.5 45.999 -2.5h41z" />
    <glyph glyph-name="h" unicode="h" horiz-adv-x="620" 
d="M390 0v266.001c0 14 -0.833008 26.333 -2.5 37s-5.33398 19.5 -11.001 26.5s-14.167 12.333 -25.5 16s-26.666 5.5 -45.999 5.5h-21c-11.333 0 -20.166 -2.5 -26.499 -7.5s-10.833 -11.5 -13.5 -19.5s-4.16699 -17.333 -4.5 -28s-0.5 -21.667 -0.5 -33v-263h-189v710
l21 9c26 11.333 51.167 19.333 75.5 24s50.5 7 78.5 7h15v-231c18.667 8 33.667 13.333 45 16s22.666 4 33.999 4c46 0 85.333 -4.83301 118 -14.5s59.667 -25.334 81 -47.001s37 -49.5 47 -83.5s15 -75.333 15 -124v-270h-190z" />
    <glyph glyph-name="i" unicode="i" horiz-adv-x="290" 
d="M50 0v490l21 9c26 11.333 51.167 19.333 75.5 24s50.5 7 78.5 7h15v-530h-190zM145 550c-13.333 0 -25.666 1.16699 -36.999 3.5s-21.333 6.83301 -30 13.5s-15.5 16.167 -20.5 28.5s-7.5 28.833 -7.5 49.5s2.5 37.167 7.5 49.5s11.833 21.833 20.5 28.5
s18.667 11.167 30 13.5s23.666 3.5 36.999 3.5c12.667 0 24.834 -1.16699 36.501 -3.5s21.834 -6.83301 30.501 -13.5s15.5 -16.167 20.5 -28.5s7.5 -28.833 7.5 -49.5s-2.5 -37.167 -7.5 -49.5s-11.833 -21.833 -20.5 -28.5s-18.834 -11.167 -30.501 -13.5
s-23.834 -3.5 -36.501 -3.5z" />
    <glyph glyph-name="j" unicode="j" horiz-adv-x="357" 
d="M42 -29c9.33301 -4.66699 16.5 -7.66699 21.5 -9s11.833 -2 20.5 -2c6.66699 0 12.167 0.5 16.5 1.5s7.83301 3.33301 10.5 7s4.5 9.16699 5.5 16.5s1.5 17.333 1.5 30v475l21 9c26 11.333 51.167 19.333 75.5 24s50.5 7 78.5 7h15v-515
c0 -48.667 -4.16699 -88.834 -12.5 -120.501s-20.666 -56.667 -36.999 -75s-37 -31.166 -62 -38.499s-53.833 -11 -86.5 -11c-24.667 0 -46.834 2.33301 -66.501 7s-42.5 14.667 -68.5 30zM213 550c-13.333 0 -25.666 1.16699 -36.999 3.5s-21.333 6.83301 -30 13.5
s-15.5 16.167 -20.5 28.5s-7.5 28.833 -7.5 49.5s2.5 37.167 7.5 49.5s11.833 21.833 20.5 28.5s18.667 11.167 30 13.5s23.666 3.5 36.999 3.5c12.667 0 24.834 -1.16699 36.501 -3.5s21.834 -6.83301 30.501 -13.5s15.5 -16.167 20.5 -28.5s7.5 -28.833 7.5 -49.5
s-2.5 -37.167 -7.5 -49.5s-11.833 -21.833 -20.5 -28.5s-18.834 -11.167 -30.501 -13.5s-23.834 -3.5 -36.501 -3.5z" />
    <glyph glyph-name="k" unicode="k" horiz-adv-x="611" 
d="M365 0l-105 175h-20v-175h-190v710l21 9c26 11.333 51.167 19.333 75.5 24s50.5 7 78.5 7h15v-394h20l107 174h229l-184 -265l184 -265h-231z" />
    <glyph glyph-name="l" unicode="l" horiz-adv-x="383" 
d="M383 27c-26 -15.333 -48.833 -25.333 -68.5 -30s-41.834 -7 -66.501 -7c-33.333 0 -62.333 3.66699 -87 11s-45.167 20.166 -61.5 38.499s-28.666 43.333 -36.999 75s-12.5 71.834 -12.5 120.501v475l21 9c26 11.333 51.167 19.333 75.5 24s50.5 7 78.5 7h15v-515
c0 -12.667 0.5 -22.667 1.5 -30s2.83301 -12.833 5.5 -16.5s6.16699 -6 10.5 -7s9.83301 -1.5 16.5 -1.5c8.66699 0 15.5 0.666992 20.5 2s12.167 4.33301 21.5 9z" />
    <glyph glyph-name="m" unicode="m" horiz-adv-x="922" 
d="M692 0l-0.00195312 266.002c0 19.333 -0.833008 34.666 -2.5 45.999s-5.33398 19.833 -11.001 25.5s-14.167 9.33398 -25.5 11.001s-26.666 2.5 -45.999 2.5c-12 0 -21 -2.5 -27 -7.5s-10.5 -11.5 -13.5 -19.5s-4.83301 -17 -5.5 -27s-1 -20.333 -1 -31v-266h-190v266
c0 19.333 -0.833008 34.666 -2.5 45.999s-5.33398 19.833 -11.001 25.5s-14.167 9.33398 -25.5 11.001s-26.666 2.5 -45.999 2.5c-12 0 -21 -2.5 -27 -7.5s-10.5 -11.5 -13.5 -19.5s-4.66699 -17.333 -5 -28s-0.5 -21.667 -0.5 -33v-263h-189v530h95l69 -45
c10.667 11.333 20.167 20.666 28.5 27.999s16.333 13 24 17s15.334 6.83301 23.001 8.5s16.167 2.5 25.5 2.5c80 0 140.667 -21 182 -63c4.66699 8.66699 10.334 17 17.001 25s15.5 14.667 26.5 20s24.333 9.66602 40 12.999s34.5 5 56.5 5c40 0 75.333 -5 106 -15
s56.167 -26 76.5 -48s35.833 -50.5 46.5 -85.5s16 -77.167 16 -126.5v-266h-190z" />
    <glyph glyph-name="n" unicode="n" horiz-adv-x="620" 
d="M390 0l-0.00292969 266.001c0 19.333 -0.833008 34.666 -2.5 45.999s-5.33398 19.833 -11.001 25.5s-14.167 9.33398 -25.5 11.001s-26.666 2.5 -45.999 2.5h-21c-11.333 0 -20.166 -2.5 -26.499 -7.5s-10.833 -11.5 -13.5 -19.5s-4.16699 -17.333 -4.5 -28
s-0.5 -21.667 -0.5 -33v-263h-189v530h95l69 -45c10.667 11.333 20.334 20.666 29.001 27.999s17.334 13 26.001 17s18.167 6.83301 28.5 8.5s22.833 2.5 37.5 2.5c40 0 75.333 -5 106 -15s56.167 -26 76.5 -48s35.833 -50.5 46.5 -85.5s16 -77.167 16 -126.5v-266h-190z
" />
    <glyph glyph-name="o" unicode="o" 
d="M315 -11c-91.333 0 -160 21.5 -206 64.5s-69 113.167 -69 210.5s23 167.5 69 210.5s114.667 64.5 206 64.5s160 -21.5 206 -64.5s69 -113.167 69 -210.5s-23 -167.5 -69 -210.5s-114.667 -64.5 -206 -64.5zM400 264c0 19.333 -2.16699 34.666 -6.5 45.999
s-10.333 19.833 -18 25.5s-16.667 9.33398 -27 11.001s-21.5 2.5 -33.5 2.5s-23.167 -0.833008 -33.5 -2.5s-19.333 -5.33398 -27 -11.001s-13.667 -14.167 -18 -25.5s-6.5 -26.666 -6.5 -45.999s2.16699 -34.666 6.5 -45.999s10.333 -19.833 18 -25.5
s16.667 -9.33398 27 -11.001s21.5 -2.5 33.5 -2.5s23.167 0.833008 33.5 2.5s19.333 5.33398 27 11.001s13.667 14.167 18 25.5s6.5 26.666 6.5 45.999z" />
    <glyph glyph-name="p" unicode="p" horiz-adv-x="640" 
d="M50 -220l-0.00292969 750.001h95l69 -45c10.667 10.667 20.834 19.5 30.501 26.5s19.667 12.5 30 16.5s21.333 6.83301 33 8.5s25.167 2.5 40.5 2.5c84.667 0 147.834 -21.5 189.501 -64.5s62.5 -114.5 62.5 -214.5c0 -48.667 -5 -90 -15 -124s-25.667 -61.833 -47 -83.5
s-48.333 -37.334 -81 -47.001s-72 -14.5 -118 -14.5c-10.667 0 -20 0.333008 -28 1s-15.833 1.66699 -23.5 3s-15.167 3.33301 -22.5 6s-15.666 6 -24.999 10v-231h-190zM324.997 179.001c19.333 0 34.666 1.83203 45.999 5.49902s19.833 9 25.5 16
s9.33398 15.833 11.001 26.5s2.5 23 2.5 37s-0.833008 26.333 -2.5 37s-5.33398 19.5 -11.001 26.5s-14.167 12.333 -25.5 16s-26.666 5.5 -45.999 5.5h-41c-11.333 0 -20.166 -2.16699 -26.499 -6.5s-10.833 -10.166 -13.5 -17.499s-4.16699 -16 -4.5 -26
s-0.5 -20.667 -0.5 -32s0.166992 -22.333 0.5 -33s1.83301 -20 4.5 -28s7.16699 -14.5 13.5 -19.5s15.166 -7.5 26.499 -7.5h41z" />
    <glyph glyph-name="q" unicode="q" horiz-adv-x="640" 
d="M400 -220l-0.00195312 231.001c-9.33301 -4 -17.666 -7.33301 -24.999 -10s-14.833 -4.66699 -22.5 -6s-15.5 -2.33301 -23.5 -3s-17.333 -1 -28 -1c-46 0 -85.333 4.83301 -118 14.5s-59.667 25.334 -81 47.001s-37 49.5 -47 83.5s-15 75.333 -15 124
c0 50 5.16699 92.667 15.5 128s26 64.166 47 86.499s47.167 38.666 78.5 48.999s68.333 15.5 111 15.5c15.333 0 28.833 -0.833008 40.5 -2.5s22.667 -4.5 33 -8.5s20.333 -9.5 30 -16.5s19.834 -15.833 30.501 -26.5l69 45h95v-750h-190zM355.998 179.001
c11.333 0 20.166 2.50098 26.499 7.50098s10.833 11.5 13.5 19.5s4.16699 17.333 4.5 28s0.5 21.667 0.5 33s-0.166992 22 -0.5 32s-1.83301 18.667 -4.5 26s-7.16699 13.166 -13.5 17.499s-15.166 6.5 -26.499 6.5h-41c-19.333 0 -34.666 -1.83301 -45.999 -5.5
s-19.833 -9 -25.5 -16s-9.33398 -15.833 -11.001 -26.5s-2.5 -23 -2.5 -37s0.833008 -26.333 2.5 -37s5.33398 -19.5 11.001 -26.5s14.167 -12.333 25.5 -16s26.666 -5.5 45.999 -5.5h41z" />
    <glyph glyph-name="r" unicode="r" horiz-adv-x="390" 
d="M50 0l-0.000976562 530h95l69 -45c11.333 13.333 27.333 25.666 48 36.999s44.667 17 72 17c11.333 0 20.333 -1 27 -3s13 -4 19 -6l-30 -181h-65c-11.333 0 -20.166 -2.16699 -26.499 -6.5s-10.833 -10.166 -13.5 -17.499s-4.16699 -16 -4.5 -26s-0.5 -20.667 -0.5 -32
v-267h-190z" />
    <glyph glyph-name="s" unicode="s" horiz-adv-x="520" 
d="M93 186c7.33301 -1.33301 16.8369 -3.66602 28.5039 -6.99902s25 -6.5 40 -9.5s30.833 -5.66699 47.5 -8s33.667 -3.5 51 -3.5c12.667 0 21.167 0.833008 25.5 2.5s6.5 4.16699 6.5 7.5s-1.16699 6.66602 -3.5 9.99902s-4.5 5.33301 -6.5 6
c-36 8.66699 -68.5 16 -97.5 22s-53.5 14.5 -73.5 25.5s-35.333 26.333 -46 46s-16 47.834 -16 84.501c0 34 4.66699 62.5 14 85.5s23 41.333 41 55s40.167 23.334 66.5 29.001s56.166 8.5 89.499 8.5c24 0 47.667 -1.16699 71 -3.5s45 -5.33301 65 -9
s37.667 -7.83398 53 -12.501s27 -9.33398 35 -14.001l-53 -153c-10.667 4.66699 -24.834 8.83398 -42.501 12.501s-35.5 6.66699 -53.5 9s-34.833 3.66602 -50.5 3.99902s-26.834 -0.166992 -33.501 -1.5c-5.33301 -1.33301 -8.83301 -3.16602 -10.5 -5.49902
s-2.5 -4.16602 -2.5 -5.49902c0 -2.66699 1.33301 -5.16699 4 -7.5s5 -3.83301 7 -4.5l98 -22c29.333 -6.66699 54.666 -15.834 75.999 -27.501s37.833 -27.667 49.5 -48s17.5 -48.833 17.5 -85.5c0 -34 -5 -62.167 -15 -84.5s-24.333 -40.333 -43 -54
s-41.167 -23.334 -67.5 -29.001s-55.833 -8.5 -88.5 -8.5c-26.667 0 -53 1.5 -79 4.5s-50.167 6.66699 -72.5 11s-41.833 9 -58.5 14s-28.667 9.5 -36 13.5z" />
    <glyph glyph-name="t" unicode="t" horiz-adv-x="447" 
d="M437 42c-25.333 -14 -51.501 -25.3301 -78.501 -33.9971s-57.5 -13 -91.5 -13c-32 0 -60 4.66699 -84 14s-44 24.666 -60 45.999s-28.167 49.666 -36.5 84.999s-12.5 78.666 -12.5 129.999v90h-64v170h64v84l21 9c26 11.333 51.167 19.333 75.5 24s50.5 7 78.5 7h15v-124
h142v-170h-142v-94c0 -17.333 0.333008 -31.166 1 -41.499s2.33398 -18.5 5.00098 -24.5s6.5 -10 11.5 -12s11.833 -3 20.5 -3c11.333 0 21.5 1.66699 30.5 5s21.5 8.66602 37.5 15.999z" />
    <glyph glyph-name="u" unicode="u" 
d="M485 0l-68.9971 45c-10 -11.333 -19.333 -20.5 -28 -27.5s-17.334 -12.667 -26.001 -17s-17.667 -7.33301 -27 -9s-20 -2.5 -32 -2.5c-43.333 0 -80.833 5.16699 -112.5 15.5s-57.834 26.5 -78.501 48.5s-36.167 50.333 -46.5 85s-15.5 76.667 -15.5 126v266h190v-266
c0 -19.333 0.833008 -34.666 2.5 -45.999s5.33398 -19.833 11.001 -25.5s14.167 -9.33398 25.5 -11.001s26.666 -2.5 45.999 -2.5h21c11.333 0 20.166 2.5 26.499 7.5s10.833 11.5 13.5 19.5s4.16699 17.333 4.5 28s0.5 21.667 0.5 33v263h189v-530h-95z" />
    <glyph glyph-name="v" unicode="v" horiz-adv-x="562" 
d="M188 0l-145.002 364c-11.333 25.333 -19.666 50.166 -24.999 74.499s-8 50.5 -8 78.5v13h178l49 -154c8.66699 -26.667 15.667 -52.167 21 -76.5s10 -50.5 14 -78.5l9 -71l9 71c4 28 8.66699 54.167 14 78.5s12.333 49.833 21 76.5l49 154h178v-13
c0 -28 -2.66699 -54.167 -8 -78.5s-13.666 -49.166 -24.999 -74.499l-145 -364h-186z" />
    <glyph glyph-name="w" unicode="w" horiz-adv-x="791" 
d="M462 0l-21.998 67c-7.33301 25.333 -13.833 49.5 -19.5 72.5s-11.167 47.167 -16.5 72.5l-9 92l-9 -92c-4.66699 -25.333 -9.83398 -49.5 -15.501 -72.5s-12.167 -47.167 -19.5 -72.5l-21 -67h-187l-115 368c-6 25.333 -10.5 49.833 -13.5 73.5s-4.5 48.5 -4.5 74.5v14
h180l12 -60c5.33301 -26 10 -50.667 14 -74s7.66699 -48 11 -74l8 -101l10 102l16 72.5c5.33301 23 11.666 47.167 18.999 72.5l19 62h191l20 -63c7.33301 -25.333 13.833 -49.333 19.5 -72s11.167 -47 16.5 -73l11 -101l8 100c3.33301 26 6.83301 50.667 10.5 74
s8.16699 48 13.5 74l12 61h180v-14c0 -26 -1.33301 -50.833 -4 -74.5s-7 -48.167 -13 -73.5l-116 -368h-186z" />
    <glyph glyph-name="x" unicode="x" horiz-adv-x="542" 
d="M374 0l-32.999 40.999c-16.667 20.667 -30 41.334 -40 62.001s-17.667 44 -23 70l-7 31l-7 -32c-6 -25.333 -14 -48.333 -24 -69s-23.333 -41.667 -40 -63l-33 -40h-157v29c0 26.667 3.5 50.5 10.5 71.5s18.5 42.167 34.5 63.5l88 119l-64 84
c-16 21.333 -27.5 42.5 -34.5 63.5s-10.5 44.833 -10.5 71.5v28h160l5 -9c10 -19.333 18.833 -37.666 26.5 -54.999s15.167 -35.666 22.5 -54.999l23 -67l23 67c7.33301 19.333 14.833 37.666 22.5 54.999s16.5 35.666 26.5 54.999l5 9h159v-28
c0 -26.667 -3.5 -50.5 -10.5 -71.5s-18.5 -42.167 -34.5 -63.5l-63 -84l88 -119c15.333 -21.333 26.666 -42.5 33.999 -63.5s11 -44.833 11 -71.5v-29h-158z" />
    <glyph glyph-name="y" unicode="y" horiz-adv-x="558" 
d="M77 -50c6.66699 -3.33301 12 -5.16406 16 -5.49707s9.66699 -1.16602 17 -2.49902c4.66699 -0.666992 8.83398 -0.833984 12.501 -0.500977s7 1.66602 10 3.99902s6 6 9 11s6.16699 12.167 9.5 21.5l30 77l-128 271c-15.333 32 -26.333 63 -33 93s-10 62.667 -10 98v13
h157l65 -139c15.333 -32 26.5 -63 33.5 -93s11.167 -62.667 12.5 -98h2c1.33301 35.333 5.5 68 12.5 98s18.167 61 33.5 93l65 139h157v-13c0 -35.333 -3.33301 -68 -10 -98s-17.334 -61 -32.001 -93l-167 -361c-13.333 -28.667 -26 -54.334 -38 -77.001
s-25.5 -42 -40.5 -58s-32.5 -28.167 -52.5 -36.5s-44.667 -12.5 -74 -12.5c-16 0 -33.333 1.66699 -52 5s-37.667 10.666 -57 21.999z" />
    <glyph glyph-name="z" unicode="z" horiz-adv-x="537" 
d="M40 0v85c0 12.667 2.66699 24 8 34s11.666 19.667 18.999 29l176 212h-203v170h457v-85c0 -12.667 -2.66699 -24 -8 -34s-11.666 -19.667 -18.999 -29l-176 -212h203v-170h-457z" />
    <glyph glyph-name="braceleft" unicode="{" horiz-adv-x="383" 
d="M383 -173c-26 -15.333 -48.833 -25.333 -68.5 -30s-41.834 -7 -66.501 -7c-33.333 0 -62.333 3.66699 -87 11s-45.167 20.166 -61.5 38.499s-28.666 43.333 -36.999 75s-12.5 71.834 -12.5 120.501v183h-70v163h70v124c0 48.667 4.16699 88.667 12.5 120
s20.666 56.333 36.999 75s36.833 31.667 61.5 39s53.667 11 87 11c24.667 0 46.834 -2.33301 66.501 -7s42.5 -14.667 68.5 -30l-67 -164c-9.33301 4.66699 -16.5 7.66699 -21.5 9s-11.833 2 -20.5 2c-6.66699 0 -12.167 -0.5 -16.5 -1.5s-7.83301 -3.33301 -10.5 -7
s-4.5 -9.16699 -5.5 -16.5s-1.5 -17.333 -1.5 -30v-470c0 -12.667 0.5 -22.667 1.5 -30s2.83301 -12.833 5.5 -16.5s6.16699 -6 10.5 -7s9.83301 -1.5 16.5 -1.5c8.66699 0 15.5 0.666992 20.5 2s12.167 4.33301 21.5 9z" />
    <glyph glyph-name="bar" unicode="|" horiz-adv-x="290" 
d="M50 -105v920h190v-920h-190z" />
    <glyph glyph-name="braceright" unicode="}" horiz-adv-x="383" 
d="M313 218v-183c0 -48.667 -4.16699 -88.834 -12.5 -120.501s-20.666 -56.667 -36.999 -75s-37 -31.166 -62 -38.499s-53.833 -11 -86.5 -11c-24.667 0 -46.834 2.33301 -66.501 7s-42.5 14.667 -68.5 30l67 164c9.33301 -4.66699 16.5 -7.66699 21.5 -9s11.833 -2 20.5 -2
c6.66699 0 12.167 0.5 16.5 1.5s7.83301 3.33301 10.5 7s4.5 9.16699 5.5 16.5s1.5 17.333 1.5 30v470c0 24.667 -2.5 40 -7.5 46s-13.833 9 -26.5 9c-8.66699 0 -15.5 -0.666992 -20.5 -2s-12.167 -4.33301 -21.5 -9l-67 164c26 15.333 48.833 25.333 68.5 30
s41.834 7 66.501 7c32.667 0 61.5 -3.66699 86.5 -11s45.667 -20.333 62 -39s28.666 -43.667 36.999 -75s12.5 -71.333 12.5 -120v-124h70v-163h-70z" />
    <glyph glyph-name="asciitilde" unicode="~" horiz-adv-x="609" 
d="M531 198c-13.333 -19.333 -31.667 -35 -55 -47s-51 -18 -83 -18c-21.333 0 -42.166 3.83301 -62.499 11.5s-39.833 15.5 -58.5 23.5l-32 14.5c-10 4.33301 -17.667 6.5 -23 6.5c-4 0 -8.16699 -1.5 -12.5 -4.5s-8.16602 -6.83301 -11.499 -11.5l-47 -58l-116 124l48 68
c13.333 19.333 31.666 35 54.999 47s51 18 83 18c22 0 43.167 -3.83301 63.5 -11.5s39.5 -15.5 57.5 -23.5l33 -14.5c10 -4.33301 17.333 -6.5 22 -6.5c4 0 8.16699 1.5 12.5 4.5s8.16602 6.83301 11.499 11.5l47 58l116 -124z" />
    <glyph glyph-name="nonbreakingspace" unicode="&#xa0;" horiz-adv-x="500" 
 />
    <glyph glyph-name="exclamdown" unicode="&#xa1;" horiz-adv-x="314" 
d="M49 -223l32 451h152l32 -451h-216zM264 390c0 -22 -2.83301 -40 -8.5 -54s-13.167 -24.833 -22.5 -32.5s-20.5 -12.834 -33.5 -15.501s-26.833 -4 -41.5 -4s-28.5 1.33301 -41.5 4s-24.333 7.83398 -34 15.501s-17.334 18.5 -23.001 32.5s-8.5 32 -8.5 54
s2.83301 40 8.5 54s13.334 25 23.001 33s21 13.333 34 16s26.833 4 41.5 4s28.5 -1.33301 41.5 -4s24.167 -8 33.5 -16s16.833 -19 22.5 -33s8.5 -32 8.5 -54z" />
    <glyph glyph-name="cent" unicode="&#xa2;" horiz-adv-x="552" 
d="M224 -100l0.00195312 99.999c-65.333 13.333 -112.333 41.5 -141 84.5s-43 103.833 -43 182.5c0 78 14.5 138.5 43.5 181.5s75.833 70.833 140.5 83.5v108h180v-106c25.333 -4.66699 46.166 -10.834 62.499 -18.501s31.5 -15.5 45.5 -23.5l-67 -164
c-12.667 5.33301 -24 9.83301 -34 13.5s-19.5 6.5 -28.5 8.5s-17.667 3.33301 -26 4s-17.5 1 -27.5 1c-22 0 -39.667 -1.66699 -53 -5s-23.333 -8.66602 -30 -15.999s-11 -16.5 -13 -27.5s-3 -24.167 -3 -39.5s1 -28.5 3 -39.5s6.33301 -20.167 13 -27.5
s16.667 -12.666 30 -15.999s31 -5 53 -5c10 0 19.167 0.333008 27.5 1s17 2 26 4s18.5 4.83301 28.5 8.5s21.333 8.16699 34 13.5l67 -164c-16 -10 -32.333 -18.667 -49 -26s-36.334 -13 -59.001 -17v-99h-180z" />
    <glyph glyph-name="brokenbar" unicode="&#xa6;" horiz-adv-x="290" 
d="M50 -105v378h190v-378h-190zM50 436v379h190v-379h-190z" />
    <glyph glyph-name="dieresis" unicode="&#xa8;" horiz-adv-x="489" 
d="M348 568c-12.667 0 -24.5 1 -35.5 3s-20.667 6.16699 -29 12.5s-14.833 15.5 -19.5 27.5s-7 28 -7 48s2.33301 36 7 48s11.167 21.167 19.5 27.5s18 10.5 29 12.5s22.833 3 35.5 3s24.5 -1 35.5 -3s20.667 -6.16699 29 -12.5s14.833 -15.5 19.5 -27.5s7 -28 7 -48
s-2.33301 -36 -7 -48s-11.167 -21.167 -19.5 -27.5s-18 -10.5 -29 -12.5s-22.833 -3 -35.5 -3zM141 568c-12.667 0 -24.5 1 -35.5 3s-20.667 6.16699 -29 12.5s-14.833 15.5 -19.5 27.5s-7 28 -7 48s2.33301 36 7 48s11.167 21.167 19.5 27.5s18 10.5 29 12.5
s22.833 3 35.5 3s24.5 -1 35.5 -3s20.667 -6.16699 29 -12.5s14.833 -15.5 19.5 -27.5s7 -28 7 -48s-2.33301 -36 -7 -48s-11.167 -21.167 -19.5 -27.5s-18 -10.5 -29 -12.5s-22.833 -3 -35.5 -3z" />
    <glyph glyph-name="copyright" unicode="&#xa9;" horiz-adv-x="836" 
d="M418 -12c-50.667 0 -98.334 9.66699 -143.001 29s-83.667 45.666 -117 78.999s-59.666 72.333 -78.999 117s-29 92.334 -29 143.001s9.66699 98.334 29 143.001s45.666 83.667 78.999 117s72.333 59.666 117 78.999s92.334 29 143.001 29s98.334 -9.66699 143.001 -29
s83.667 -45.666 117 -78.999s59.666 -72.333 78.999 -117s29 -92.334 29 -143.001s-9.66699 -98.334 -29 -143.001s-45.666 -83.667 -78.999 -117s-72.333 -59.666 -117 -78.999s-92.334 -29 -143.001 -29zM696 356c0 38.667 -7.33301 74.834 -22 108.501s-34.5 63 -59.5 88
s-54.333 44.833 -88 59.5s-69.834 22 -108.501 22s-74.834 -7.33301 -108.501 -22s-63 -34.5 -88 -59.5s-44.833 -54.333 -59.5 -88s-22 -69.834 -22 -108.501s7.33301 -74.834 22 -108.501s34.5 -63 59.5 -88s54.333 -44.833 88 -59.5s69.834 -22 108.501 -22
s74.834 7.33301 108.501 22s63 34.5 88 59.5s44.833 54.333 59.5 88s22 69.834 22 108.501zM548 203c-8 -5.33301 -22.5 -12.167 -43.5 -20.5s-44.833 -12.5 -71.5 -12.5c-56.667 0 -99.667 14.167 -129 42.5s-44 75.166 -44 140.499c0 64.667 14.667 111.334 44 140.001
s72.333 43 129 43c28 0 52.333 -4.16699 73 -12.5s34.667 -15.166 42 -20.499l-38 -94c-13.333 6 -27.833 10.5 -43.5 13.5s-27.834 4.5 -36.501 4.5c-9.33301 0 -17.833 -0.833008 -25.5 -2.5s-14.167 -5 -19.5 -10s-9.33301 -12.333 -12 -22s-4 -22.834 -4 -39.501
s1.33301 -30 4 -40s6.66699 -17.5 12 -22.5s11.833 -8.16699 19.5 -9.5s16.167 -2 25.5 -2c8.66699 0 20.834 1.5 36.501 4.5s30.167 7.16699 43.5 12.5z" />
    <glyph glyph-name="guillemotleft" unicode="&#xab;" horiz-adv-x="614" 
d="M130 93l-100 186l110 188l164 -95l-56 -96l50 -94zM400 93l-100 186l110 188l164 -95l-56 -96l50 -94z" />
    <glyph glyph-name="logicalnot" unicode="&#xac;" 
d="M460 78v227h-410v120h530v-347h-120z" />
    <glyph glyph-name="registered" unicode="&#xae;" horiz-adv-x="836" 
d="M418 -12c-50.667 0 -98.334 9.66699 -143.001 29s-83.667 45.666 -117 78.999s-59.666 72.333 -78.999 117s-29 92.334 -29 143.001s9.66699 98.334 29 143.001s45.666 83.667 78.999 117s72.333 59.666 117 78.999s92.334 29 143.001 29s98.334 -9.66699 143.001 -29
s83.667 -45.666 117 -78.999s59.666 -72.333 78.999 -117s29 -92.334 29 -143.001s-9.66699 -98.334 -29 -143.001s-45.666 -83.667 -78.999 -117s-72.333 -59.666 -117 -78.999s-92.334 -29 -143.001 -29zM696 356c0 38.667 -7.33301 74.834 -22 108.501s-34.5 63 -59.5 88
s-54.333 44.833 -88 59.5s-69.834 22 -108.501 22s-74.834 -7.33301 -108.501 -22s-63 -34.5 -88 -59.5s-44.833 -54.333 -59.5 -88s-22 -69.834 -22 -108.501s7.33301 -74.834 22 -108.501s34.5 -63 59.5 -88s54.333 -44.833 88 -59.5s69.834 -22 108.501 -22
s74.834 7.33301 108.501 22s63 34.5 88 59.5s44.833 54.333 59.5 88s22 69.834 22 108.501zM450 175l-42 112.002h-28v-112h-110v355h171c14.667 0 29.167 -0.833008 43.5 -2.5s27 -6.33398 38 -14.001s20 -19.834 27 -36.501s10.5 -40 10.5 -70c0 -27.333 -4 -49 -12 -65
s-18.667 -28.333 -32 -37l51 -130h-117zM425 382.002c7.33301 0 13.333 1.16699 18 3.5s7 9.5 7 21.5s-2.33301 19.167 -7 21.5s-10.667 3.5 -18 3.5h-45v-50h45z" />
    <glyph glyph-name="degree" unicode="&#xb0;" horiz-adv-x="422" 
d="M294 563c0 22.667 -8.16699 42.167 -24.5 58.5s-35.833 24.5 -58.5 24.5s-42.167 -8.16699 -58.5 -24.5s-24.5 -35.833 -24.5 -58.5s8.16699 -42.167 24.5 -58.5s35.833 -24.5 58.5 -24.5s42.167 8.16699 58.5 24.5s24.5 35.833 24.5 58.5zM211 402
c-22 0 -42.833 4.16699 -62.5 12.5s-36.834 19.833 -51.501 34.5s-26.167 31.834 -34.5 51.501s-12.5 40.5 -12.5 62.5s4.16699 42.833 12.5 62.5s19.833 36.834 34.5 51.501s31.834 26.167 51.501 34.5s40.5 12.5 62.5 12.5s42.833 -4.16699 62.5 -12.5
s36.834 -19.833 51.501 -34.5s26.167 -31.834 34.5 -51.501s12.5 -40.5 12.5 -62.5s-4.16699 -42.833 -12.5 -62.5s-19.833 -36.834 -34.5 -51.501s-31.834 -26.167 -51.501 -34.5s-40.5 -12.5 -62.5 -12.5z" />
    <glyph glyph-name="plusminus" unicode="&#xb1;" 
d="M375 354v-124h-120v124h-205v120h205v124h120v-124h205v-120h-205zM50 80v120h530v-120h-530z" />
    <glyph glyph-name="acute" unicode="&#xb4;" horiz-adv-x="357" 
d="M80 570l-30 64l196 124l61 -129z" />
    <glyph glyph-name="paragraph" unicode="&#xb6;" horiz-adv-x="660" 
d="M490 -152v774h-97v-774h-120v515c-72.667 0 -128 15 -166 45s-57 72 -57 126c0 36 6.33301 65.5 19 88.5s30 41.167 52 54.5s48 22.5 78 27.5s62.333 7.5 97 7.5h314v-864h-120z" />
    <glyph glyph-name="periodcentered" unicode="&#xb7;" horiz-adv-x="256" 
d="M128 203c-10.667 0 -20.834 1 -30.501 3s-18 6 -25 12s-12.5 14 -16.5 24s-6 23 -6 39s2 29 6 39s9.5 18 16.5 24s15.333 10 25 12s19.834 3 30.501 3s20.834 -1 30.501 -3s18 -6 25 -12s12.5 -14 16.5 -24s6 -23 6 -39s-2 -29 -6 -39s-9.5 -18 -16.5 -24
s-15.333 -10 -25 -12s-19.834 -3 -30.501 -3z" />
    <glyph glyph-name="cedilla" unicode="&#xb8;" horiz-adv-x="288" 
d="M76 -156c10 -4 18.333 -6.66699 25 -8s14 -2 22 -2c17.333 0 28.166 1 32.499 3s6.5 9.33301 6.5 22c0 12 -2.16699 19.167 -6.5 21.5s-15.166 3.5 -32.499 3.5h-7h-23.5c-7 0 -12.833 1.5 -17.5 4.5s-7.83398 8 -9.50098 15s-1.5 17.167 0.5 30.5l14 107l9 4
c10.667 4 20.667 7 30 9s19.666 3 30.999 3h6l-14 -99c34 -2.66699 58.5 -11 73.5 -25s22.5 -38.667 22.5 -74c0 -38 -8.5 -64.167 -25.5 -78.5s-45.5 -21.5 -85.5 -21.5c-19.333 0 -34.666 1.83301 -45.999 5.5s-21.666 8.5 -30.999 14.5z" />
    <glyph glyph-name="guillemotright" unicode="&#xbb;" horiz-adv-x="614" 
d="M316 182l50 94l-56 96l164 95l110 -188l-100 -186zM46 182l50 94l-56 96l164 95l110 -188l-100 -186z" />
    <glyph glyph-name="questiondown" unicode="&#xbf;" horiz-adv-x="581" 
d="M551 -179c-8.66699 -6 -22.166 -12.1689 -40.499 -18.502s-38.833 -12.166 -61.5 -17.499s-46.334 -9.66602 -71.001 -12.999s-47.667 -5 -69 -5c-34.667 0 -68.167 5 -100.5 15s-61 24.5 -86 43.5s-45 42.167 -60 69.5s-22.5 58.666 -22.5 93.999
c0 28.667 3.66699 53.167 11 73.5s16.5 38 27.5 53s23 27.833 36 38.5s24.667 20.667 35 30s18.833 18.333 25.5 27s9.33398 18.334 8.00098 29.001h223c0 -23.333 -4 -45.333 -12 -66s-18.5 -39.667 -31.5 -57s-27.333 -32.833 -43 -46.5s-30.834 -24.834 -45.501 -33.501
c-7.33301 -4.66699 -12.333 -10.167 -15 -16.5s-4 -13.166 -4 -20.499c0 -5.33301 2 -9.5 6 -12.5s9 -5.33301 15 -7s12.5 -2.83398 19.5 -3.50098s13.167 -1 18.5 -1c12.667 0 26.834 0.833008 42.501 2.5s31.167 3.83398 46.5 6.50098s30.166 6 44.499 10
s26.833 8.33301 37.5 13zM396.001 391.998c0 -22 -2.83301 -40 -8.5 -54s-13.334 -24.833 -23.001 -32.5s-21 -12.834 -34 -15.501s-26.833 -4 -41.5 -4s-28.5 1.33301 -41.5 4s-24.167 7.83398 -33.5 15.501s-16.833 18.5 -22.5 32.5s-8.5 32 -8.5 54s2.83301 40 8.5 54
s13.167 25 22.5 33s20.5 13.333 33.5 16s26.833 4 41.5 4s28.5 -1.33301 41.5 -4s24.333 -8 34 -16s17.334 -19 23.001 -33s8.5 -32 8.5 -54z" />
    <glyph glyph-name="Agrave" unicode="&#xc0;" horiz-adv-x="636" 
d="M447 0l-30 100h-192l-29 -100h-186v43c0 35.333 2.66699 68.166 8 98.499s14.333 62.166 27 95.499l174 473h202l171 -472c12 -33.333 20.667 -65.166 26 -95.499s8 -63.166 8 -98.499v-44h-179zM356 310c-7.33301 32.667 -13.333 66 -18 100l-18 118l-19 -118
c-4.66699 -34 -10.667 -67.333 -18 -100h73zM189 809l61 129l196 -124l-30 -64z" />
    <glyph glyph-name="Aacute" unicode="&#xc1;" horiz-adv-x="636" 
d="M447 0l-30 100h-192l-29 -100h-186v43c0 35.333 2.66699 68.166 8 98.499s14.333 62.166 27 95.499l174 473h202l171 -472c12 -33.333 20.667 -65.166 26 -95.499s8 -63.166 8 -98.499v-44h-179zM356 310c-7.33301 32.667 -13.333 66 -18 100l-18 118l-19 -118
c-4.66699 -34 -10.667 -67.333 -18 -100h73zM219 750l-30 64l196 124l61 -129z" />
    <glyph glyph-name="Acircumflex" unicode="&#xc2;" horiz-adv-x="636" 
d="M447 0l-30 100h-192l-29 -100h-186v43c0 35.333 2.66699 68.166 8 98.499s14.333 62.166 27 95.499l174 473h202l171 -472c12 -33.333 20.667 -65.166 26 -95.499s8 -63.166 8 -98.499v-44h-179zM356 310c-7.33301 32.667 -13.333 66 -18 100l-18 118l-19 -118
c-4.66699 -34 -10.667 -67.333 -18 -100h73zM318 825l-126 -75l-61 129l187 59l187 -59l-61 -129z" />
    <glyph glyph-name="Atilde" unicode="&#xc3;" horiz-adv-x="636" 
d="M447 0l-30 100h-192l-29 -100h-186v43c0 35.333 2.66699 68.166 8 98.499s14.333 62.166 27 95.499l174 473h202l171 -472c12 -33.333 20.667 -65.166 26 -95.499s8 -63.166 8 -98.499v-44h-179zM356 310c-7.33301 32.667 -13.333 66 -18 100l-18 118l-19 -118
c-4.66699 -34 -10.667 -67.333 -18 -100h73zM455 803c-8.66699 -12 -20.334 -21.499 -35.001 -28.499s-30 -10.5 -46 -10.5c-10 0 -21.167 1.66699 -33.5 5s-26.166 8.66602 -41.499 15.999l-19.5 9c-5.66699 2.66699 -10.167 4 -13.5 4c-2.66699 0 -5.16699 -1 -7.5 -3
s-4.5 -4.33301 -6.5 -7l-29 -35l-70 86l29 40c8.66699 11.333 20 20.666 34 27.999s29.667 11 47 11c14.667 0 28.167 -2.16699 40.5 -6.5s23.833 -9.16602 34.5 -14.499l20 -9c6 -2.66699 10.333 -4 13 -4c2 0 4.33301 1 7 3s5 4.33301 7 7l29 35l69 -86z" />
    <glyph glyph-name="Adieresis" unicode="&#xc4;" horiz-adv-x="636" 
d="M447 0l-30 100h-192l-29 -100h-186v43c0 35.333 2.66699 68.166 8 98.499s14.333 62.166 27 95.499l174 473h202l171 -472c12 -33.333 20.667 -65.166 26 -95.499s8 -63.166 8 -98.499v-44h-179zM356 310c-7.33301 32.667 -13.333 66 -18 100l-18 118l-19 -118
c-4.66699 -34 -10.667 -67.333 -18 -100h73zM421 748c-12.667 0 -24.5 1 -35.5 3s-20.667 6.16699 -29 12.5s-14.833 15.5 -19.5 27.5s-7 28 -7 48s2.33301 36 7 48s11.167 21.167 19.5 27.5s18 10.5 29 12.5s22.833 3 35.5 3s24.5 -1 35.5 -3s20.667 -6.16699 29 -12.5
s14.833 -15.5 19.5 -27.5s7 -28 7 -48s-2.33301 -36 -7 -48s-11.167 -21.167 -19.5 -27.5s-18 -10.5 -29 -12.5s-22.833 -3 -35.5 -3zM214 748c-12.667 0 -24.5 1 -35.5 3s-20.667 6.16699 -29 12.5s-14.833 15.5 -19.5 27.5s-7 28 -7 48s2.33301 36 7 48
s11.167 21.167 19.5 27.5s18 10.5 29 12.5s22.833 3 35.5 3s24.5 -1 35.5 -3s20.667 -6.16699 29 -12.5s14.833 -15.5 19.5 -27.5s7 -28 7 -48s-2.33301 -36 -7 -48s-11.167 -21.167 -19.5 -27.5s-18 -10.5 -29 -12.5s-22.833 -3 -35.5 -3z" />
    <glyph glyph-name="Aring" unicode="&#xc5;" horiz-adv-x="636" 
d="M447 0l-30 100h-192l-29 -100h-186v43c0 35.333 2.66699 68.166 8 98.499s14.333 62.166 27 95.499l174 473h202l171 -472c12 -33.333 20.667 -65.166 26 -95.499s8 -63.166 8 -98.499v-44h-179zM356 310c-7.33301 32.667 -13.333 66 -18 100l-18 118l-19 -118
c-4.66699 -34 -10.667 -67.333 -18 -100h73zM318 749c-10.667 0 -20.5 0.833008 -29.5 2.5s-17 5.16699 -24 10.5s-12.5 13 -16.5 23s-6 23.333 -6 40s2 30 6 40s9.5 17.667 16.5 23s15 8.83301 24 10.5s18.833 2.5 29.5 2.5s20.5 -0.833008 29.5 -2.5s17 -5.16699 24 -10.5
s12.5 -13 16.5 -23s6 -23.333 6 -40s-2 -30 -6 -40s-9.5 -17.667 -16.5 -23s-15 -8.83301 -24 -10.5s-18.833 -2.5 -29.5 -2.5zM318 779c12.667 0 23.5 2.66699 32.5 8s13.5 18 13.5 38s-4.5 32.667 -13.5 38s-19.833 8 -32.5 8s-23.5 -2.66699 -32.5 -8
s-13.5 -18 -13.5 -38s4.5 -32.667 13.5 -38s19.833 -8 32.5 -8z" />
    <glyph glyph-name="AE" unicode="&#xc6;" horiz-adv-x="801" 
d="M322 0v100.002h-97l-29 -100h-186v43c0 35.333 2.66699 68.166 8 98.499s14.333 62.166 27 95.499l174 473h542v-205h-219v-50h199v-200h-199v-50h219v-205h-439zM322 515.002l-2 13l-19 -118c-4.66699 -34 -10.667 -67.333 -18 -100h39v205z" />
    <glyph glyph-name="Ccedilla" unicode="&#xc7;" horiz-adv-x="657" 
d="M320 -156c10 -4 18.334 -6.66797 25.001 -8.00098s14 -2 22 -2c17.333 0 28.166 1 32.499 3s6.5 9.33301 6.5 22c0 12 -2.16699 19.167 -6.5 21.5s-15.166 3.5 -32.499 3.5h-7h-23.5c-7 0 -12.833 1.5 -17.5 4.5s-7.83398 8 -9.50098 15s-1.5 17.167 0.5 30.5l8 60
c-90.667 10.667 -159.667 44.667 -207 102s-71 144 -71 260c0 64.667 7.5 120.167 22.5 166.5s37.167 84.166 66.5 113.499s65.5 51 108.5 65s92.5 21 148.5 21c28 0 54.333 -2.5 79 -7.5s47 -11 67 -18s37.167 -14.167 51.5 -21.5s25.5 -13.666 33.5 -18.999l-76 -187
c-13.333 6 -27.5 11.167 -42.5 15.5s-29.833 8 -44.5 11s-28.5 5.16699 -41.5 6.5s-23.833 2 -32.5 2c-19.333 0 -36.333 -1.5 -51 -4.5s-27.334 -9.5 -38.001 -19.5s-18.667 -24.833 -24 -44.5s-8 -46.167 -8 -79.5s2.66699 -59.666 8 -78.999s13.333 -34.166 24 -44.499
s23.334 -17 38.001 -20s31.667 -4.5 51 -4.5c8.66699 0 19.5 0.666992 32.5 2s26.833 3.5 41.5 6.5s29.5 6.66699 44.5 11s29.167 9.5 42.5 15.5l76 -187c-8 -5.33301 -19.5 -11.833 -34.5 -19.5s-32.333 -14.834 -52 -21.501s-41.334 -12.5 -65.001 -17.5
s-48.834 -7.5 -75.501 -7.5l-4 -32c34 -2.66699 58.5 -11 73.5 -25s22.5 -38.667 22.5 -74c0 -38 -8.5 -64.167 -25.5 -78.5s-45.5 -21.5 -85.5 -21.5c-19.333 0 -34.666 1.83301 -45.999 5.5s-21.666 8.5 -30.999 14.5z" />
    <glyph glyph-name="Egrave" unicode="&#xc8;" horiz-adv-x="579" 
d="M50 0v710h479v-205h-259v-50h239v-200h-239v-50h259v-205h-479zM161 809l61 129l196 -124l-30 -64z" />
    <glyph glyph-name="Eacute" unicode="&#xc9;" horiz-adv-x="579" 
d="M50 0v710h479v-205h-259v-50h239v-200h-239v-50h259v-205h-479zM191 750l-30 64l196 124l61 -129z" />
    <glyph glyph-name="Ecircumflex" unicode="&#xca;" horiz-adv-x="579" 
d="M50 0v710h479v-205h-259v-50h239v-200h-239v-50h259v-205h-479zM289 825l-126 -75l-61 129l187 59l187 -59l-61 -129z" />
    <glyph glyph-name="Edieresis" unicode="&#xcb;" horiz-adv-x="579" 
d="M50 0v710h479v-205h-259v-50h239v-200h-239v-50h259v-205h-479zM388 748c-12.667 0 -24.5 1 -35.5 3s-20.667 6.16699 -29 12.5s-14.833 15.5 -19.5 27.5s-7 28 -7 48s2.33301 36 7 48s11.167 21.167 19.5 27.5s18 10.5 29 12.5s22.833 3 35.5 3s24.5 -1 35.5 -3
s20.667 -6.16699 29 -12.5s14.833 -15.5 19.5 -27.5s7 -28 7 -48s-2.33301 -36 -7 -48s-11.167 -21.167 -19.5 -27.5s-18 -10.5 -29 -12.5s-22.833 -3 -35.5 -3zM181 748c-12.667 0 -24.5 1 -35.5 3s-20.667 6.16699 -29 12.5s-14.833 15.5 -19.5 27.5s-7 28 -7 48
s2.33301 36 7 48s11.167 21.167 19.5 27.5s18 10.5 29 12.5s22.833 3 35.5 3s24.5 -1 35.5 -3s20.667 -6.16699 29 -12.5s14.833 -15.5 19.5 -27.5s7 -28 7 -48s-2.33301 -36 -7 -48s-11.167 -21.167 -19.5 -27.5s-18 -10.5 -29 -12.5s-22.833 -3 -35.5 -3z" />
    <glyph glyph-name="Igrave" unicode="&#xcc;" horiz-adv-x="320" 
d="M50 0v710h220v-710h-220zM33 809l61 129l196 -124l-30 -64z" />
    <glyph glyph-name="Iacute" unicode="&#xcd;" horiz-adv-x="320" 
d="M50 0v710h220v-710h-220zM63 750l-30 64l196 124l61 -129z" />
    <glyph glyph-name="Icircumflex" unicode="&#xce;" horiz-adv-x="320" 
d="M50 0v710h220v-710h-220zM161 825l-126 -75l-61 129l187 59l187 -59l-61 -129z" />
    <glyph glyph-name="Idieresis" unicode="&#xcf;" horiz-adv-x="320" 
d="M50 0v710h220v-710h-220zM265 748c-12.667 0 -24.5 1 -35.5 3s-20.667 6.16699 -29 12.5s-14.833 15.5 -19.5 27.5s-7 28 -7 48s2.33301 36 7 48s11.167 21.167 19.5 27.5s18 10.5 29 12.5s22.833 3 35.5 3s24.5 -1 35.5 -3s20.667 -6.16699 29 -12.5
s14.833 -15.5 19.5 -27.5s7 -28 7 -48s-2.33301 -36 -7 -48s-11.167 -21.167 -19.5 -27.5s-18 -10.5 -29 -12.5s-22.833 -3 -35.5 -3zM58 748c-12.667 0 -24.5 1 -35.5 3s-20.667 6.16699 -29 12.5s-14.833 15.5 -19.5 27.5s-7 28 -7 48s2.33301 36 7 48
s11.167 21.167 19.5 27.5s18 10.5 29 12.5s22.833 3 35.5 3s24.5 -1 35.5 -3s20.667 -6.16699 29 -12.5s14.833 -15.5 19.5 -27.5s7 -28 7 -48s-2.33301 -36 -7 -48s-11.167 -21.167 -19.5 -27.5s-18 -10.5 -29 -12.5s-22.833 -3 -35.5 -3z" />
    <glyph glyph-name="Eth" unicode="&#xd0;" horiz-adv-x="710" 
d="M50 0l0.000976562 272.999h-50v163h50v274h255c60.667 0 113.834 -6.33301 159.501 -19s83.667 -33 114 -61s53.166 -64.5 68.499 -109.5s23 -99.833 23 -164.5s-7.16699 -119.667 -21.5 -165s-36 -82.166 -65 -110.499s-65.833 -48.833 -110.5 -61.5
s-97.334 -19 -158.001 -19h-265zM269.001 272.999l-0.000976562 -64.999h44c18 0 35.5 1.5 52.5 4.5s31.833 9.5 44.5 19.5s22.834 24.833 30.501 44.5s11.5 46.167 11.5 79.5s-3.83301 59.666 -11.5 78.999s-18.167 34 -31.5 44s-29 16.333 -47 19s-37 4 -57 4h-36v-66h67
v-163h-67z" />
    <glyph glyph-name="Ntilde" unicode="&#xd1;" horiz-adv-x="722" 
d="M501 0l-251 364l10 -85c3.33301 -28 5.83301 -54.5 7.5 -79.5s2.5 -51.5 2.5 -79.5v-120h-220v710h171l251 -367l-10 88c-3.33301 28 -5.83301 54.5 -7.5 79.5s-2.5 51.5 -2.5 79.5v120h220v-710h-171zM498 803c-8.66699 -12 -20.334 -21.499 -35.001 -28.499
s-30 -10.5 -46 -10.5c-10 0 -21.167 1.66699 -33.5 5s-26.166 8.66602 -41.499 15.999l-19.5 9c-5.66699 2.66699 -10.167 4 -13.5 4c-2.66699 0 -5.16699 -1 -7.5 -3s-4.5 -4.33301 -6.5 -7l-29 -35l-70 86l29 40c8.66699 11.333 20 20.666 34 27.999s29.667 11 47 11
c14.667 0 28.167 -2.16699 40.5 -6.5s23.833 -9.16602 34.5 -14.499l20 -9c6 -2.66699 10.333 -4 13 -4c2 0 4.33301 1 7 3s5 4.33301 7 7l29 35l69 -86z" />
    <glyph glyph-name="Ograve" unicode="&#xd2;" horiz-adv-x="771" 
d="M386 -10c-56 0 -105.5 7 -148.5 21s-79.167 35.667 -108.5 65s-51.5 67.166 -66.5 113.499s-22.5 101.833 -22.5 166.5s7.5 120.167 22.5 166.5s37.167 84.166 66.5 113.499s65.5 51 108.5 65s92.5 21 148.5 21s105.333 -7 148 -21s78.667 -35.667 108 -65
s51.5 -67.166 66.5 -113.499s22.5 -101.833 22.5 -166.5s-7.5 -120.167 -22.5 -166.5s-37.167 -84.166 -66.5 -113.499s-65.333 -51 -108 -65s-92 -21 -148 -21zM386 209c20 0 38 1.5 54 4.5s29.333 9.5 40 19.5s18.834 24.667 24.501 44s8.5 45.666 8.5 78.999
s-2.83301 59.833 -8.5 79.5s-13.834 34.5 -24.501 44.5s-24 16.333 -40 19s-34 4 -54 4c-20.667 0 -38.834 -1.33301 -54.501 -4s-28.834 -9 -39.501 -19s-18.834 -24.833 -24.501 -44.5s-8.5 -46.167 -8.5 -79.5s2.83301 -59.666 8.5 -78.999s13.834 -34 24.501 -44
s23.834 -16.5 39.501 -19.5s33.834 -4.5 54.501 -4.5zM257 809l61 129l196 -124l-30 -64z" />
    <glyph glyph-name="Oacute" unicode="&#xd3;" horiz-adv-x="771" 
d="M386 -10c-56 0 -105.5 7 -148.5 21s-79.167 35.667 -108.5 65s-51.5 67.166 -66.5 113.499s-22.5 101.833 -22.5 166.5s7.5 120.167 22.5 166.5s37.167 84.166 66.5 113.499s65.5 51 108.5 65s92.5 21 148.5 21s105.333 -7 148 -21s78.667 -35.667 108 -65
s51.5 -67.166 66.5 -113.499s22.5 -101.833 22.5 -166.5s-7.5 -120.167 -22.5 -166.5s-37.167 -84.166 -66.5 -113.499s-65.333 -51 -108 -65s-92 -21 -148 -21zM386 209c20 0 38 1.5 54 4.5s29.333 9.5 40 19.5s18.834 24.667 24.501 44s8.5 45.666 8.5 78.999
s-2.83301 59.833 -8.5 79.5s-13.834 34.5 -24.501 44.5s-24 16.333 -40 19s-34 4 -54 4c-20.667 0 -38.834 -1.33301 -54.501 -4s-28.834 -9 -39.501 -19s-18.834 -24.833 -24.501 -44.5s-8.5 -46.167 -8.5 -79.5s2.83301 -59.666 8.5 -78.999s13.834 -34 24.501 -44
s23.834 -16.5 39.501 -19.5s33.834 -4.5 54.501 -4.5zM287 750l-30 64l196 124l61 -129z" />
    <glyph glyph-name="Ocircumflex" unicode="&#xd4;" horiz-adv-x="771" 
d="M386 -10c-56 0 -105.5 7 -148.5 21s-79.167 35.667 -108.5 65s-51.5 67.166 -66.5 113.499s-22.5 101.833 -22.5 166.5s7.5 120.167 22.5 166.5s37.167 84.166 66.5 113.499s65.5 51 108.5 65s92.5 21 148.5 21s105.333 -7 148 -21s78.667 -35.667 108 -65
s51.5 -67.166 66.5 -113.499s22.5 -101.833 22.5 -166.5s-7.5 -120.167 -22.5 -166.5s-37.167 -84.166 -66.5 -113.499s-65.333 -51 -108 -65s-92 -21 -148 -21zM386 209c20 0 38 1.5 54 4.5s29.333 9.5 40 19.5s18.834 24.667 24.501 44s8.5 45.666 8.5 78.999
s-2.83301 59.833 -8.5 79.5s-13.834 34.5 -24.501 44.5s-24 16.333 -40 19s-34 4 -54 4c-20.667 0 -38.834 -1.33301 -54.501 -4s-28.834 -9 -39.501 -19s-18.834 -24.833 -24.501 -44.5s-8.5 -46.167 -8.5 -79.5s2.83301 -59.666 8.5 -78.999s13.834 -34 24.501 -44
s23.834 -16.5 39.501 -19.5s33.834 -4.5 54.501 -4.5zM385 825l-126 -75l-61 129l187 59l187 -59l-61 -129z" />
    <glyph glyph-name="Otilde" unicode="&#xd5;" horiz-adv-x="771" 
d="M386 -10c-56 0 -105.5 7 -148.5 21s-79.167 35.667 -108.5 65s-51.5 67.166 -66.5 113.499s-22.5 101.833 -22.5 166.5s7.5 120.167 22.5 166.5s37.167 84.166 66.5 113.499s65.5 51 108.5 65s92.5 21 148.5 21s105.333 -7 148 -21s78.667 -35.667 108 -65
s51.5 -67.166 66.5 -113.499s22.5 -101.833 22.5 -166.5s-7.5 -120.167 -22.5 -166.5s-37.167 -84.166 -66.5 -113.499s-65.333 -51 -108 -65s-92 -21 -148 -21zM386 209c20 0 38 1.5 54 4.5s29.333 9.5 40 19.5s18.834 24.667 24.501 44s8.5 45.666 8.5 78.999
s-2.83301 59.833 -8.5 79.5s-13.834 34.5 -24.501 44.5s-24 16.333 -40 19s-34 4 -54 4c-20.667 0 -38.834 -1.33301 -54.501 -4s-28.834 -9 -39.501 -19s-18.834 -24.833 -24.501 -44.5s-8.5 -46.167 -8.5 -79.5s2.83301 -59.666 8.5 -78.999s13.834 -34 24.501 -44
s23.834 -16.5 39.501 -19.5s33.834 -4.5 54.501 -4.5zM522 803c-8.66699 -12 -20.334 -21.499 -35.001 -28.499s-30 -10.5 -46 -10.5c-10 0 -21.167 1.66699 -33.5 5s-26.166 8.66602 -41.499 15.999l-19.5 9c-5.66699 2.66699 -10.167 4 -13.5 4
c-2.66699 0 -5.16699 -1 -7.5 -3s-4.5 -4.33301 -6.5 -7l-29 -35l-70 86l29 40c8.66699 11.333 20 20.666 34 27.999s29.667 11 47 11c14.667 0 28.167 -2.16699 40.5 -6.5s23.833 -9.16602 34.5 -14.499l20 -9c6 -2.66699 10.333 -4 13 -4c2 0 4.33301 1 7 3s5 4.33301 7 7
l29 35l69 -86z" />
    <glyph glyph-name="Odieresis" unicode="&#xd6;" horiz-adv-x="791" 
d="M396 -10c-56 0 -105.5 7 -148.5 21s-79.167 35.667 -108.5 65s-51.5 67.166 -66.5 113.499s-22.5 101.833 -22.5 166.5s7.5 120.167 22.5 166.5s37.167 84.166 66.5 113.499s65.5 51 108.5 65s92.5 21 148.5 21s105.333 -7 148 -21s78.667 -35.667 108 -65
s51.5 -67.166 66.5 -113.499s22.5 -101.833 22.5 -166.5s-7.5 -120.167 -22.5 -166.5s-37.167 -84.166 -66.5 -113.499s-65.333 -51 -108 -65s-92 -21 -148 -21zM396 209c20 0 38 1.5 54 4.5s29.333 9.5 40 19.5s18.834 24.667 24.501 44s8.5 45.666 8.5 78.999
s-2.83301 59.833 -8.5 79.5s-13.834 34.5 -24.501 44.5s-24 16.333 -40 19s-34 4 -54 4c-20.667 0 -38.834 -1.33301 -54.501 -4s-28.834 -9 -39.501 -19s-18.834 -24.833 -24.501 -44.5s-8.5 -46.167 -8.5 -79.5s2.83301 -59.666 8.5 -78.999s13.834 -34 24.501 -44
s23.834 -16.5 39.501 -19.5s33.834 -4.5 54.501 -4.5zM499 748c-12.667 0 -24.5 1 -35.5 3s-20.667 6.16699 -29 12.5s-14.833 15.5 -19.5 27.5s-7 28 -7 48s2.33301 36 7 48s11.167 21.167 19.5 27.5s18 10.5 29 12.5s22.833 3 35.5 3s24.5 -1 35.5 -3
s20.667 -6.16699 29 -12.5s14.833 -15.5 19.5 -27.5s7 -28 7 -48s-2.33301 -36 -7 -48s-11.167 -21.167 -19.5 -27.5s-18 -10.5 -29 -12.5s-22.833 -3 -35.5 -3zM292 748c-12.667 0 -24.5 1 -35.5 3s-20.667 6.16699 -29 12.5s-14.833 15.5 -19.5 27.5s-7 28 -7 48
s2.33301 36 7 48s11.167 21.167 19.5 27.5s18 10.5 29 12.5s22.833 3 35.5 3s24.5 -1 35.5 -3s20.667 -6.16699 29 -12.5s14.833 -15.5 19.5 -27.5s7 -28 7 -48s-2.33301 -36 -7 -48s-11.167 -21.167 -19.5 -27.5s-18 -10.5 -29 -12.5s-22.833 -3 -35.5 -3z" />
    <glyph glyph-name="multiply" unicode="&#xd7;" horiz-adv-x="573" 
d="M286 239l-120 -121l-116 116l121 120l-121 121l116 116l121 -121l120 121l116 -116l-121 -120l121 -121l-116 -116z" />
    <glyph glyph-name="Oslash" unicode="&#xd8;" horiz-adv-x="771" 
d="M16 64l66.002 78c-28 54.667 -42 126 -42 214c0 64.667 7.5 120.167 22.5 166.5s37.167 84.166 66.5 113.499s65.5 51 108.5 65s92.5 21 148.5 21c31.333 0 60.166 -2 86.499 -6s51.166 -10.667 74.499 -20l61 73l146 -123l-65 -77c28 -55.333 42 -126.333 42 -213
c0 -64.667 -7.5 -120.167 -22.5 -166.5s-37.167 -84.166 -66.5 -113.499s-65.333 -51 -108 -65s-92 -21 -148 -21c-62.667 0 -116.667 8.33301 -162 25l-62 -74zM386.002 209c20 0 38 1.5 54 4.5s29.333 9.5 40 19.5s18.834 24.667 24.501 44s8.5 45.666 8.5 78.999
s-2.83301 59.833 -8.5 79.5s-13.834 34.5 -24.501 44.5s-24 16.333 -40 19s-34 4 -54 4c-20.667 0 -38.834 -1.33301 -54.501 -4s-28.834 -9 -39.501 -19s-18.834 -24.833 -24.501 -44.5s-8.5 -46.167 -8.5 -79.5s2.83301 -59.666 8.5 -78.999s13.834 -34 24.501 -44
s23.834 -16.5 39.501 -19.5s33.834 -4.5 54.501 -4.5z" />
    <glyph glyph-name="Ugrave" unicode="&#xd9;" horiz-adv-x="738" 
d="M460 710h217.995v-419c0 -60 -8.16699 -109.5 -24.5 -148.5s-38.666 -69.833 -66.999 -92.5s-61.166 -38.5 -98.499 -47.5s-77 -13.5 -119 -13.5s-81.833 4.5 -119.5 13.5s-70.5 24.833 -98.5 47.5s-50.167 53.5 -66.5 92.5s-24.5 88.5 -24.5 148.5v419h218v-412
c0 -24.667 1.83301 -43.834 5.5 -57.501s9.33398 -23.667 17.001 -30s17 -10 28 -11s24.167 -1.5 39.5 -1.5c14.667 0 27.834 0.5 39.501 1.5s21.334 4.66699 29.001 11s13.5 16.333 17.5 30s6 32.834 6 57.501v412zM239.995 809l61 129l196 -124l-30 -64z" />
    <glyph glyph-name="Uacute" unicode="&#xda;" horiz-adv-x="738" 
d="M460 710h217.995v-419c0 -60 -8.16699 -109.5 -24.5 -148.5s-38.666 -69.833 -66.999 -92.5s-61.166 -38.5 -98.499 -47.5s-77 -13.5 -119 -13.5s-81.833 4.5 -119.5 13.5s-70.5 24.833 -98.5 47.5s-50.167 53.5 -66.5 92.5s-24.5 88.5 -24.5 148.5v419h218v-412
c0 -24.667 1.83301 -43.834 5.5 -57.501s9.33398 -23.667 17.001 -30s17 -10 28 -11s24.167 -1.5 39.5 -1.5c14.667 0 27.834 0.5 39.501 1.5s21.334 4.66699 29.001 11s13.5 16.333 17.5 30s6 32.834 6 57.501v412zM269.995 750l-30 64l196 124l61 -129z" />
    <glyph glyph-name="Ucircumflex" unicode="&#xdb;" horiz-adv-x="738" 
d="M460 710h217.995v-419c0 -60 -8.16699 -109.5 -24.5 -148.5s-38.666 -69.833 -66.999 -92.5s-61.166 -38.5 -98.499 -47.5s-77 -13.5 -119 -13.5s-81.833 4.5 -119.5 13.5s-70.5 24.833 -98.5 47.5s-50.167 53.5 -66.5 92.5s-24.5 88.5 -24.5 148.5v419h218v-412
c0 -24.667 1.83301 -43.834 5.5 -57.501s9.33398 -23.667 17.001 -30s17 -10 28 -11s24.167 -1.5 39.5 -1.5c14.667 0 27.834 0.5 39.501 1.5s21.334 4.66699 29.001 11s13.5 16.333 17.5 30s6 32.834 6 57.501v412zM368.995 825l-126 -75l-61 129l187 59l187 -59l-61 -129z
" />
    <glyph glyph-name="Udieresis" unicode="&#xdc;" horiz-adv-x="738" 
d="M460 710h217.995v-419c0 -60 -8.16699 -109.5 -24.5 -148.5s-38.666 -69.833 -66.999 -92.5s-61.166 -38.5 -98.499 -47.5s-77 -13.5 -119 -13.5s-81.833 4.5 -119.5 13.5s-70.5 24.833 -98.5 47.5s-50.167 53.5 -66.5 92.5s-24.5 88.5 -24.5 148.5v419h218v-412
c0 -24.667 1.83301 -43.834 5.5 -57.501s9.33398 -23.667 17.001 -30s17 -10 28 -11s24.167 -1.5 39.5 -1.5c14.667 0 27.834 0.5 39.501 1.5s21.334 4.66699 29.001 11s13.5 16.333 17.5 30s6 32.834 6 57.501v412zM471.995 748c-12.667 0 -24.5 1 -35.5 3
s-20.667 6.16699 -29 12.5s-14.833 15.5 -19.5 27.5s-7 28 -7 48s2.33301 36 7 48s11.167 21.167 19.5 27.5s18 10.5 29 12.5s22.833 3 35.5 3s24.5 -1 35.5 -3s20.667 -6.16699 29 -12.5s14.833 -15.5 19.5 -27.5s7 -28 7 -48s-2.33301 -36 -7 -48
s-11.167 -21.167 -19.5 -27.5s-18 -10.5 -29 -12.5s-22.833 -3 -35.5 -3zM264.995 748c-12.667 0 -24.5 1 -35.5 3s-20.667 6.16699 -29 12.5s-14.833 15.5 -19.5 27.5s-7 28 -7 48s2.33301 36 7 48s11.167 21.167 19.5 27.5s18 10.5 29 12.5s22.833 3 35.5 3
s24.5 -1 35.5 -3s20.667 -6.16699 29 -12.5s14.833 -15.5 19.5 -27.5s7 -28 7 -48s-2.33301 -36 -7 -48s-11.167 -21.167 -19.5 -27.5s-18 -10.5 -29 -12.5s-22.833 -3 -35.5 -3z" />
    <glyph glyph-name="Yacute" unicode="&#xdd;" horiz-adv-x="614" 
d="M197 0l-0.000976562 221.001l-129 269l-21.5 45.5c-7 14.333 -13.167 28.666 -18.5 42.999s-9.66602 29.166 -12.999 44.499s-5 31.666 -5 48.999v38h179l39 -88c14.667 -32.667 26.667 -63.834 36 -93.501s18 -61.5 26 -95.5l17 -83l17 83c8 34 16.833 66 26.5 96
s21.5 61 35.5 93l38 88h180v-39c0 -17.333 -1.5 -33.666 -4.5 -48.999s-7.16699 -30.166 -12.5 -44.499s-11.5 -28.666 -18.5 -42.999l-22.5 -45.5l-129 -268v-221h-220zM207.999 750.001l-30 64l196 124l61 -129z" />
    <glyph glyph-name="Thorn" unicode="&#xde;" horiz-adv-x="625" 
d="M50 0l0.000976562 710h220v-100h102c30 0 59.167 -1.5 87.5 -4.5s53.666 -12.333 75.999 -28s40.333 -40 54 -73s20.5 -79.5 20.5 -139.5s-6.83301 -106.833 -20.5 -140.5s-31.667 -58.5 -54 -74.5s-47.833 -25.833 -76.5 -29.5s-57.667 -5.5 -87 -5.5h-102v-115h-220z
M340.001 315c6.66699 0 13.167 0.333008 19.5 1s11.666 2.66699 15.999 6s7.83301 8.33301 10.5 15s4 16 4 28s-1.33301 21.333 -4 28s-6.16699 11.667 -10.5 15s-9.66602 5.33301 -15.999 6s-12.833 1 -19.5 1h-70v-100h70z" />
    <glyph glyph-name="germandbls" unicode="&#xdf;" horiz-adv-x="620" 
d="M310 0l0.00195312 194.998h30c6.66699 0 13.167 0.333008 19.5 1s11.666 2.5 15.999 5.5s7.83301 7.5 10.5 13.5s4 14.333 4 25c0 20.667 -4.83301 33.334 -14.5 38.001s-21.5 7 -35.5 7h-30v189h30h19.5c6.33301 0 11.666 1 15.999 3s7.83301 5.16699 10.5 9.5
s4 10.5 4 18.5c0 14 -3.66699 22.333 -11 25s-17.666 4 -30.999 4c-18.667 0 -34.834 -1.16699 -48.501 -3.5s-25 -7.5 -34 -15.5s-15.667 -19.667 -20 -35s-6.5 -36.333 -6.5 -63v-417h-189v356c0 68 5 125.333 15 172s27.167 84.334 51.5 113.001
s56.833 49.334 97.5 62.001s91.334 19 152.001 19c7.33301 0 17.166 -0.333008 29.499 -1s25.666 -3 39.999 -7s28.833 -10 43.5 -18s28 -19.333 40 -34s21.833 -33.334 29.5 -56.001s11.5 -50.334 11.5 -83.001c0 -23.333 -2 -42.666 -6 -57.999
s-9.16699 -28.5 -15.5 -39.5s-14 -20.5 -23 -28.5l-28.5 -25v-3c32.667 -11.333 56.334 -33.333 71.001 -66s22 -70 22 -112c0 -48 -8 -84.833 -24 -110.5s-36 -44.5 -60 -56.5s-49.833 -19 -77.5 -21s-53.167 -3 -76.5 -3h-32z" />
    <glyph glyph-name="agrave" unicode="&#xe0;" horiz-adv-x="563" 
d="M428 0l-69.001 45.001c-8 -11.333 -16.667 -20.5 -26 -27.5s-18.5 -12.667 -27.5 -17s-17.667 -7.33301 -26 -9s-15.166 -2.5 -20.499 -2.5c-44 0 -80.667 2.33301 -110 7s-53.333 12.667 -72 24s-32.167 26.833 -40.5 46.5s-13.5 44.5 -15.5 74.5
c-2 30.667 0 56.334 6 77.001s16.167 37.334 30.5 50.001s33.5 21.667 57.5 27s53.333 8 88 8h122c-0.666992 11.333 -3.16699 20.166 -7.5 26.499s-10 11 -17 14s-15 4.66699 -24 5s-18.5 0.5 -28.5 0.5c-16 0 -29.667 -0.333008 -41 -1s-22.166 -1.66699 -32.499 -3
s-21.333 -3.33301 -33 -6s-25.5 -6.33398 -41.5 -11.001l-56 172c20 7.33301 46.667 15.666 80 24.999s75.666 14 126.999 14c90 0 157.833 -21.5 203.5 -64.5s68.5 -113.167 68.5 -210.5v-264h-95zM241.999 183.001c-12.667 0 -20.334 -2.66797 -23.001 -8.00098
s-4 -11.666 -4 -18.999s1.33301 -13.666 4 -18.999s10.334 -8 23.001 -8h22c8 0 16 0.5 24 1.5s14.833 3.16699 20.5 6.5s10 8.66602 13 15.999s3.83301 17.333 2.5 30h-82zM152.999 629l61 129l196 -124l-30 -64z" />
    <glyph glyph-name="aacute" unicode="&#xe1;" horiz-adv-x="563" 
d="M428 0l-69.001 45.001c-8 -11.333 -16.667 -20.5 -26 -27.5s-18.5 -12.667 -27.5 -17s-17.667 -7.33301 -26 -9s-15.166 -2.5 -20.499 -2.5c-44 0 -80.667 2.33301 -110 7s-53.333 12.667 -72 24s-32.167 26.833 -40.5 46.5s-13.5 44.5 -15.5 74.5
c-2 30.667 0 56.334 6 77.001s16.167 37.334 30.5 50.001s33.5 21.667 57.5 27s53.333 8 88 8h122c-0.666992 11.333 -3.16699 20.166 -7.5 26.499s-10 11 -17 14s-15 4.66699 -24 5s-18.5 0.5 -28.5 0.5c-16 0 -29.667 -0.333008 -41 -1s-22.166 -1.66699 -32.499 -3
s-21.333 -3.33301 -33 -6s-25.5 -6.33398 -41.5 -11.001l-56 172c20 7.33301 46.667 15.666 80 24.999s75.666 14 126.999 14c90 0 157.833 -21.5 203.5 -64.5s68.5 -113.167 68.5 -210.5v-264h-95zM241.999 183.001c-12.667 0 -20.334 -2.66797 -23.001 -8.00098
s-4 -11.666 -4 -18.999s1.33301 -13.666 4 -18.999s10.334 -8 23.001 -8h22c8 0 16 0.5 24 1.5s14.833 3.16699 20.5 6.5s10 8.66602 13 15.999s3.83301 17.333 2.5 30h-82zM182.999 570l-30 64l196 124l61 -129z" />
    <glyph glyph-name="acircumflex" unicode="&#xe2;" horiz-adv-x="563" 
d="M428 0l-69.001 45.001c-8 -11.333 -16.667 -20.5 -26 -27.5s-18.5 -12.667 -27.5 -17s-17.667 -7.33301 -26 -9s-15.166 -2.5 -20.499 -2.5c-44 0 -80.667 2.33301 -110 7s-53.333 12.667 -72 24s-32.167 26.833 -40.5 46.5s-13.5 44.5 -15.5 74.5
c-2 30.667 0 56.334 6 77.001s16.167 37.334 30.5 50.001s33.5 21.667 57.5 27s53.333 8 88 8h122c-0.666992 11.333 -3.16699 20.166 -7.5 26.499s-10 11 -17 14s-15 4.66699 -24 5s-18.5 0.5 -28.5 0.5c-16 0 -29.667 -0.333008 -41 -1s-22.166 -1.66699 -32.499 -3
s-21.333 -3.33301 -33 -6s-25.5 -6.33398 -41.5 -11.001l-56 172c20 7.33301 46.667 15.666 80 24.999s75.666 14 126.999 14c90 0 157.833 -21.5 203.5 -64.5s68.5 -113.167 68.5 -210.5v-264h-95zM241.999 183.001c-12.667 0 -20.334 -2.66797 -23.001 -8.00098
s-4 -11.666 -4 -18.999s1.33301 -13.666 4 -18.999s10.334 -8 23.001 -8h22c8 0 16 0.5 24 1.5s14.833 3.16699 20.5 6.5s10 8.66602 13 15.999s3.83301 17.333 2.5 30h-82zM280.999 645l-126 -75l-61 129l187 59l187 -59l-61 -129z" />
    <glyph glyph-name="atilde" unicode="&#xe3;" horiz-adv-x="563" 
d="M428 0l-69.001 45.001c-8 -11.333 -16.667 -20.5 -26 -27.5s-18.5 -12.667 -27.5 -17s-17.667 -7.33301 -26 -9s-15.166 -2.5 -20.499 -2.5c-44 0 -80.667 2.33301 -110 7s-53.333 12.667 -72 24s-32.167 26.833 -40.5 46.5s-13.5 44.5 -15.5 74.5
c-2 30.667 0 56.334 6 77.001s16.167 37.334 30.5 50.001s33.5 21.667 57.5 27s53.333 8 88 8h122c-0.666992 11.333 -3.16699 20.166 -7.5 26.499s-10 11 -17 14s-15 4.66699 -24 5s-18.5 0.5 -28.5 0.5c-16 0 -29.667 -0.333008 -41 -1s-22.166 -1.66699 -32.499 -3
s-21.333 -3.33301 -33 -6s-25.5 -6.33398 -41.5 -11.001l-56 172c20 7.33301 46.667 15.666 80 24.999s75.666 14 126.999 14c90 0 157.833 -21.5 203.5 -64.5s68.5 -113.167 68.5 -210.5v-264h-95zM241.999 183.001c-12.667 0 -20.334 -2.66797 -23.001 -8.00098
s-4 -11.666 -4 -18.999s1.33301 -13.666 4 -18.999s10.334 -8 23.001 -8h22c8 0 16 0.5 24 1.5s14.833 3.16699 20.5 6.5s10 8.66602 13 15.999s3.83301 17.333 2.5 30h-82zM417.999 623c-8.66699 -12 -20.334 -21.499 -35.001 -28.499s-30 -10.5 -46 -10.5
c-10 0 -21.167 1.66699 -33.5 5s-26.166 8.66602 -41.499 15.999l-19.5 9c-5.66699 2.66699 -10.167 4 -13.5 4c-2.66699 0 -5.16699 -1 -7.5 -3s-4.5 -4.33301 -6.5 -7l-29 -35l-70 86l29 40c8.66699 11.333 20 20.666 34 27.999s29.667 11 47 11
c14.667 0 28.167 -2.16699 40.5 -6.5s23.833 -9.16602 34.5 -14.499l20 -9c6 -2.66699 10.333 -4 13 -4c2 0 4.33301 1 7 3s5 4.33301 7 7l29 35l69 -86z" />
    <glyph glyph-name="adieresis" unicode="&#xe4;" horiz-adv-x="563" 
d="M428 0l-69.001 45.001c-8 -11.333 -16.667 -20.5 -26 -27.5s-18.5 -12.667 -27.5 -17s-17.667 -7.33301 -26 -9s-15.166 -2.5 -20.499 -2.5c-44 0 -80.667 2.33301 -110 7s-53.333 12.667 -72 24s-32.167 26.833 -40.5 46.5s-13.5 44.5 -15.5 74.5
c-2 30.667 0 56.334 6 77.001s16.167 37.334 30.5 50.001s33.5 21.667 57.5 27s53.333 8 88 8h122c-0.666992 11.333 -3.16699 20.166 -7.5 26.499s-10 11 -17 14s-15 4.66699 -24 5s-18.5 0.5 -28.5 0.5c-16 0 -29.667 -0.333008 -41 -1s-22.166 -1.66699 -32.499 -3
s-21.333 -3.33301 -33 -6s-25.5 -6.33398 -41.5 -11.001l-56 172c20 7.33301 46.667 15.666 80 24.999s75.666 14 126.999 14c90 0 157.833 -21.5 203.5 -64.5s68.5 -113.167 68.5 -210.5v-264h-95zM241.999 183.001c-12.667 0 -20.334 -2.66797 -23.001 -8.00098
s-4 -11.666 -4 -18.999s1.33301 -13.666 4 -18.999s10.334 -8 23.001 -8h22c8 0 16 0.5 24 1.5s14.833 3.16699 20.5 6.5s10 8.66602 13 15.999s3.83301 17.333 2.5 30h-82zM374.999 568c-12.667 0 -24.5 1 -35.5 3s-20.667 6.16699 -29 12.5s-14.833 15.5 -19.5 27.5
s-7 28 -7 48s2.33301 36 7 48s11.167 21.167 19.5 27.5s18 10.5 29 12.5s22.833 3 35.5 3s24.5 -1 35.5 -3s20.667 -6.16699 29 -12.5s14.833 -15.5 19.5 -27.5s7 -28 7 -48s-2.33301 -36 -7 -48s-11.167 -21.167 -19.5 -27.5s-18 -10.5 -29 -12.5s-22.833 -3 -35.5 -3z
M167.999 568c-12.667 0 -24.5 1 -35.5 3s-20.667 6.16699 -29 12.5s-14.833 15.5 -19.5 27.5s-7 28 -7 48s2.33301 36 7 48s11.167 21.167 19.5 27.5s18 10.5 29 12.5s22.833 3 35.5 3s24.5 -1 35.5 -3s20.667 -6.16699 29 -12.5s14.833 -15.5 19.5 -27.5s7 -28 7 -48
s-2.33301 -36 -7 -48s-11.167 -21.167 -19.5 -27.5s-18 -10.5 -29 -12.5s-22.833 -3 -35.5 -3z" />
    <glyph glyph-name="aring" unicode="&#xe5;" horiz-adv-x="563" 
d="M428 0l-69.001 45.001c-8 -11.333 -16.667 -20.5 -26 -27.5s-18.5 -12.667 -27.5 -17s-17.667 -7.33301 -26 -9s-15.166 -2.5 -20.499 -2.5c-44 0 -80.667 2.33301 -110 7s-53.333 12.667 -72 24s-32.167 26.833 -40.5 46.5s-13.5 44.5 -15.5 74.5
c-2 30.667 0 56.334 6 77.001s16.167 37.334 30.5 50.001s33.5 21.667 57.5 27s53.333 8 88 8h122c-0.666992 11.333 -3.16699 20.166 -7.5 26.499s-10 11 -17 14s-15 4.66699 -24 5s-18.5 0.5 -28.5 0.5c-16 0 -29.667 -0.333008 -41 -1s-22.166 -1.66699 -32.499 -3
s-21.333 -3.33301 -33 -6s-25.5 -6.33398 -41.5 -11.001l-56 172c20 7.33301 46.667 15.666 80 24.999s75.666 14 126.999 14c90 0 157.833 -21.5 203.5 -64.5s68.5 -113.167 68.5 -210.5v-264h-95zM241.999 183.001c-12.667 0 -20.334 -2.66797 -23.001 -8.00098
s-4 -11.666 -4 -18.999s1.33301 -13.666 4 -18.999s10.334 -8 23.001 -8h22c8 0 16 0.5 24 1.5s14.833 3.16699 20.5 6.5s10 8.66602 13 15.999s3.83301 17.333 2.5 30h-82zM280.999 569c-10.667 0 -20.5 0.833008 -29.5 2.5s-17 5.16699 -24 10.5s-12.5 13 -16.5 23
s-6 23.333 -6 40s2 30 6 40s9.5 17.667 16.5 23s15 8.83301 24 10.5s18.833 2.5 29.5 2.5s20.5 -0.833008 29.5 -2.5s17 -5.16699 24 -10.5s12.5 -13 16.5 -23s6 -23.333 6 -40s-2 -30 -6 -40s-9.5 -17.667 -16.5 -23s-15 -8.83301 -24 -10.5s-18.833 -2.5 -29.5 -2.5z
M280.999 599c12.667 0 23.5 2.66699 32.5 8s13.5 18 13.5 38s-4.5 32.667 -13.5 38s-19.833 8 -32.5 8s-23.5 -2.66699 -32.5 -8s-13.5 -18 -13.5 -38s4.5 -32.667 13.5 -38s19.833 -8 32.5 -8z" />
    <glyph glyph-name="ae" unicode="&#xe6;" horiz-adv-x="895" 
d="M844 30c-10 -4 -22.6699 -8.33496 -38.0029 -13.002s-32.666 -9 -51.999 -13s-40.5 -7.5 -63.5 -10.5s-47.5 -4.5 -73.5 -4.5c-36.667 0 -70.667 3.66699 -102 11h-67l-69 45c-8 -11.333 -16.667 -20.5 -26 -27.5s-18.5 -12.667 -27.5 -17s-17.667 -7.33301 -26 -9
s-15.166 -2.5 -20.499 -2.5c-44 0 -80.667 2.33301 -110 7s-53.333 12.667 -72 24s-32.167 26.833 -40.5 46.5s-13.5 44.5 -15.5 74.5c-2 30.667 0 56.334 6 77.001s16.167 37.334 30.5 50.001s33.5 21.667 57.5 27s53.333 8 88 8h122
c-0.666992 11.333 -3.16699 20.166 -7.5 26.499s-10 11 -17 14s-15 4.66699 -24 5s-18.5 0.5 -28.5 0.5c-16 0 -30.667 -0.5 -44 -1.5s-26.5 -2.33301 -39.5 -4s-26.333 -3.83398 -40 -6.50098s-28.5 -6.33398 -44.5 -11.001l-56 172c10 4 22.667 8.33301 38 13
s32.666 9 51.999 13s40.5 7.5 63.5 10.5s47.5 4.5 73.5 4.5c71.333 0 128.333 -13 171 -39c20.667 13.333 44.167 23.166 70.5 29.499s55.5 9.5 87.5 9.5c40.667 0 76.834 -5.16699 108.501 -15.5s58.334 -26.666 80.001 -48.999s38.167 -50.833 49.5 -85.5
s17 -76.334 17 -125.001c-32 -17.333 -62.833 -28.166 -92.5 -32.499s-62.167 -6.5 -97.5 -6.5h-122c0.666992 -11.333 3.16699 -20.166 7.5 -26.499s10 -11 17 -14s15 -4.66699 24 -5s18.5 -0.5 28.5 -0.5c16 0 30.667 0.5 44 1.5s26.5 2.33301 39.5 4
s26.333 3.83398 40 6.50098s28.5 6.33398 44.5 11.001zM655.997 304.998c0.666992 14 -0.666992 24.668 -4 32.001s-7.83301 12.666 -13.5 15.999s-11.667 5.16602 -18 5.49902s-11.833 0.5 -16.5 0.5c-8 0 -16 -0.5 -24 -1.5s-14.833 -3.16699 -20.5 -6.5
s-10 -8.66602 -13 -15.999s-3.83301 -17.333 -2.5 -30h112zM261.996 182.999c-12.667 0 -20.334 -2.66797 -23.001 -8.00098s-4 -11.666 -4 -18.999s1.33301 -13.666 4 -18.999s10.334 -8 23.001 -8h22c8 0 16 0.5 24 1.5s14.833 3.16699 20.5 6.5s10 8.66602 13 15.999
s3.83301 17.333 2.5 30h-82z" />
    <glyph glyph-name="ccedilla" unicode="&#xe7;" horiz-adv-x="552" 
d="M250 -156c10 -4 18.3301 -6.66895 24.9971 -8.00195s14 -2 22 -2c17.333 0 28.166 1 32.499 3s6.5 9.33301 6.5 22c0 12 -2.16699 19.167 -6.5 21.5s-15.166 3.5 -32.499 3.5h-7h-23.5c-7 0 -12.833 1.5 -17.5 4.5s-7.83398 8 -9.50098 15s-1.5 17.167 0.5 30.5l8 63
c-73.333 9.33301 -126.333 36 -159 80s-49 107.333 -49 190c0 47.333 5.33301 88.333 16 123s27.334 63.167 50.001 85.5s51.667 38.833 87 49.5s77.666 16 126.999 16c26.667 0 49.834 -1.5 69.501 -4.5s37 -6.66699 52 -11s28 -9.5 39 -15.5l31.5 -18l-67 -164
c-12.667 5.33301 -24 9.83301 -34 13.5s-19.5 6.5 -28.5 8.5s-17.667 3.33301 -26 4s-17.5 1 -27.5 1c-22 0 -39.667 -1.66699 -53 -5s-23.333 -8.66602 -30 -15.999s-11 -16.5 -13 -27.5s-3 -24.167 -3 -39.5s1 -28.5 3 -39.5s6.33301 -20.167 13 -27.5
s16.667 -12.666 30 -15.999s31 -5 53 -5c10 0 19.167 0.333008 27.5 1s17 2 26 4s18.5 4.83301 28.5 8.5s21.333 8.16699 34 13.5l67 -164c-12 -7.33301 -24.333 -14 -37 -20s-26.5 -11.167 -41.5 -15.5s-31.667 -7.83301 -50 -10.5s-39.166 -4 -62.499 -4l-5 -34
c34 -2.66699 58.5 -11 73.5 -25s22.5 -38.667 22.5 -74c0 -38 -8.5 -64.167 -25.5 -78.5s-45.5 -21.5 -85.5 -21.5c-19.333 0 -34.666 1.83301 -45.999 5.5s-21.666 8.5 -30.999 14.5z" />
    <glyph glyph-name="egrave" unicode="&#xe8;" horiz-adv-x="590" 
d="M539 30c-10 -4 -22.6719 -8.33691 -38.0049 -13.0039s-32.666 -9 -51.999 -13s-40.5 -7.5 -63.5 -10.5s-47.5 -4.5 -73.5 -4.5c-90 0 -157.833 21.5 -203.5 64.5s-68.5 113.167 -68.5 210.5c0 48.667 5.66699 90.334 17 125.001s27.833 63.167 49.5 85.5
s48.334 38.666 80.001 48.999s67.834 15.5 108.501 15.5s76.834 -5.16699 108.501 -15.5s58.334 -26.666 80.001 -48.999s38.167 -50.833 49.5 -85.5s17 -76.334 17 -125.001c-32 -17.333 -62.833 -28.166 -92.5 -32.499s-62.167 -6.5 -97.5 -6.5h-122
c0.666992 -11.333 3.16699 -20.166 7.5 -26.499s10 -11 17 -14s15 -4.66699 24 -5s18.5 -0.5 28.5 -0.5c16 0 30.667 0.5 44 1.5s26.5 2.33301 39.5 4s26.333 3.83398 40 6.50098s28.5 6.33398 44.5 11.001zM350.995 304.996c0.666992 14 -0.666992 24.668 -4 32.001
s-7.83301 12.666 -13.5 15.999s-11.667 5.16602 -18 5.49902s-11.833 0.5 -16.5 0.5c-8 0 -16 -0.5 -24 -1.5s-14.833 -3.16699 -20.5 -6.5s-10 -8.66602 -13 -15.999s-3.83301 -17.333 -2.5 -30h112zM165.994 628.997l61 129l196 -124l-30 -64z" />
    <glyph glyph-name="eacute" unicode="&#xe9;" horiz-adv-x="590" 
d="M539 30c-10 -4 -22.6719 -8.33691 -38.0049 -13.0039s-32.666 -9 -51.999 -13s-40.5 -7.5 -63.5 -10.5s-47.5 -4.5 -73.5 -4.5c-90 0 -157.833 21.5 -203.5 64.5s-68.5 113.167 -68.5 210.5c0 48.667 5.66699 90.334 17 125.001s27.833 63.167 49.5 85.5
s48.334 38.666 80.001 48.999s67.834 15.5 108.501 15.5s76.834 -5.16699 108.501 -15.5s58.334 -26.666 80.001 -48.999s38.167 -50.833 49.5 -85.5s17 -76.334 17 -125.001c-32 -17.333 -62.833 -28.166 -92.5 -32.499s-62.167 -6.5 -97.5 -6.5h-122
c0.666992 -11.333 3.16699 -20.166 7.5 -26.499s10 -11 17 -14s15 -4.66699 24 -5s18.5 -0.5 28.5 -0.5c16 0 30.667 0.5 44 1.5s26.5 2.33301 39.5 4s26.333 3.83398 40 6.50098s28.5 6.33398 44.5 11.001zM350.995 304.996c0.666992 14 -0.666992 24.668 -4 32.001
s-7.83301 12.666 -13.5 15.999s-11.667 5.16602 -18 5.49902s-11.833 0.5 -16.5 0.5c-8 0 -16 -0.5 -24 -1.5s-14.833 -3.16699 -20.5 -6.5s-10 -8.66602 -13 -15.999s-3.83301 -17.333 -2.5 -30h112zM229.994 569.997l-30 64l196 124l61 -129z" />
    <glyph glyph-name="ecircumflex" unicode="&#xea;" horiz-adv-x="590" 
d="M539 30c-10 -4 -22.6719 -8.33691 -38.0049 -13.0039s-32.666 -9 -51.999 -13s-40.5 -7.5 -63.5 -10.5s-47.5 -4.5 -73.5 -4.5c-90 0 -157.833 21.5 -203.5 64.5s-68.5 113.167 -68.5 210.5c0 48.667 5.66699 90.334 17 125.001s27.833 63.167 49.5 85.5
s48.334 38.666 80.001 48.999s67.834 15.5 108.501 15.5s76.834 -5.16699 108.501 -15.5s58.334 -26.666 80.001 -48.999s38.167 -50.833 49.5 -85.5s17 -76.334 17 -125.001c-32 -17.333 -62.833 -28.166 -92.5 -32.499s-62.167 -6.5 -97.5 -6.5h-122
c0.666992 -11.333 3.16699 -20.166 7.5 -26.499s10 -11 17 -14s15 -4.66699 24 -5s18.5 -0.5 28.5 -0.5c16 0 30.667 0.5 44 1.5s26.5 2.33301 39.5 4s26.333 3.83398 40 6.50098s28.5 6.33398 44.5 11.001zM350.995 304.996c0.666992 14 -0.666992 24.668 -4 32.001
s-7.83301 12.666 -13.5 15.999s-11.667 5.16602 -18 5.49902s-11.833 0.5 -16.5 0.5c-8 0 -16 -0.5 -24 -1.5s-14.833 -3.16699 -20.5 -6.5s-10 -8.66602 -13 -15.999s-3.83301 -17.333 -2.5 -30h112zM294.994 644.997l-126 -75l-61 129l187 59l187 -59l-61 -129z" />
    <glyph glyph-name="edieresis" unicode="&#xeb;" horiz-adv-x="590" 
d="M539 30c-10 -4 -22.6719 -8.33691 -38.0049 -13.0039s-32.666 -9 -51.999 -13s-40.5 -7.5 -63.5 -10.5s-47.5 -4.5 -73.5 -4.5c-90 0 -157.833 21.5 -203.5 64.5s-68.5 113.167 -68.5 210.5c0 48.667 5.66699 90.334 17 125.001s27.833 63.167 49.5 85.5
s48.334 38.666 80.001 48.999s67.834 15.5 108.501 15.5s76.834 -5.16699 108.501 -15.5s58.334 -26.666 80.001 -48.999s38.167 -50.833 49.5 -85.5s17 -76.334 17 -125.001c-32 -17.333 -62.833 -28.166 -92.5 -32.499s-62.167 -6.5 -97.5 -6.5h-122
c0.666992 -11.333 3.16699 -20.166 7.5 -26.499s10 -11 17 -14s15 -4.66699 24 -5s18.5 -0.5 28.5 -0.5c16 0 30.667 0.5 44 1.5s26.5 2.33301 39.5 4s26.333 3.83398 40 6.50098s28.5 6.33398 44.5 11.001zM350.995 304.996c0.666992 14 -0.666992 24.668 -4 32.001
s-7.83301 12.666 -13.5 15.999s-11.667 5.16602 -18 5.49902s-11.833 0.5 -16.5 0.5c-8 0 -16 -0.5 -24 -1.5s-14.833 -3.16699 -20.5 -6.5s-10 -8.66602 -13 -15.999s-3.83301 -17.333 -2.5 -30h112zM397.994 567.997c-12.667 0 -24.5 1 -35.5 3s-20.667 6.16699 -29 12.5
s-14.833 15.5 -19.5 27.5s-7 28 -7 48s2.33301 36 7 48s11.167 21.167 19.5 27.5s18 10.5 29 12.5s22.833 3 35.5 3s24.5 -1 35.5 -3s20.667 -6.16699 29 -12.5s14.833 -15.5 19.5 -27.5s7 -28 7 -48s-2.33301 -36 -7 -48s-11.167 -21.167 -19.5 -27.5s-18 -10.5 -29 -12.5
s-22.833 -3 -35.5 -3zM190.994 567.997c-12.667 0 -24.5 1 -35.5 3s-20.667 6.16699 -29 12.5s-14.833 15.5 -19.5 27.5s-7 28 -7 48s2.33301 36 7 48s11.167 21.167 19.5 27.5s18 10.5 29 12.5s22.833 3 35.5 3s24.5 -1 35.5 -3s20.667 -6.16699 29 -12.5
s14.833 -15.5 19.5 -27.5s7 -28 7 -48s-2.33301 -36 -7 -48s-11.167 -21.167 -19.5 -27.5s-18 -10.5 -29 -12.5s-22.833 -3 -35.5 -3z" />
    <glyph glyph-name="igrave" unicode="&#xec;" horiz-adv-x="290" 
d="M50 0v490l21 9c26 11.333 51.167 19.333 75.5 24s50.5 7 78.5 7h15v-530h-190zM18 629l61 129l196 -124l-30 -64z" />
    <glyph glyph-name="iacute" unicode="&#xed;" horiz-adv-x="290" 
d="M50 0v490l21 9c26 11.333 51.167 19.333 75.5 24s50.5 7 78.5 7h15v-530h-190zM48 570l-30 64l196 124l61 -129z" />
    <glyph glyph-name="icircumflex" unicode="&#xee;" horiz-adv-x="290" 
d="M50 0v490l21 9c26 11.333 51.167 19.333 75.5 24s50.5 7 78.5 7h15v-530h-190zM146 645l-126 -75l-61 129l187 59l187 -59l-61 -129z" />
    <glyph glyph-name="idieresis" unicode="&#xef;" horiz-adv-x="290" 
d="M50 0v490l21 9c26 11.333 51.167 19.333 75.5 24s50.5 7 78.5 7h15v-530h-190zM250 568c-12.667 0 -24.5 1 -35.5 3s-20.667 6.16699 -29 12.5s-14.833 15.5 -19.5 27.5s-7 28 -7 48s2.33301 36 7 48s11.167 21.167 19.5 27.5s18 10.5 29 12.5s22.833 3 35.5 3
s24.5 -1 35.5 -3s20.667 -6.16699 29 -12.5s14.833 -15.5 19.5 -27.5s7 -28 7 -48s-2.33301 -36 -7 -48s-11.167 -21.167 -19.5 -27.5s-18 -10.5 -29 -12.5s-22.833 -3 -35.5 -3zM43 568c-12.667 0 -24.5 1 -35.5 3s-20.667 6.16699 -29 12.5s-14.833 15.5 -19.5 27.5
s-7 28 -7 48s2.33301 36 7 48s11.167 21.167 19.5 27.5s18 10.5 29 12.5s22.833 3 35.5 3s24.5 -1 35.5 -3s20.667 -6.16699 29 -12.5s14.833 -15.5 19.5 -27.5s7 -28 7 -48s-2.33301 -36 -7 -48s-11.167 -21.167 -19.5 -27.5s-18 -10.5 -29 -12.5s-22.833 -3 -35.5 -3z" />
    <glyph glyph-name="ntilde" unicode="&#xf1;" horiz-adv-x="620" 
d="M390 0l-0.00292969 266.001c0 19.333 -0.833008 34.666 -2.5 45.999s-5.33398 19.833 -11.001 25.5s-14.167 9.33398 -25.5 11.001s-26.666 2.5 -45.999 2.5h-21c-11.333 0 -20.166 -2.5 -26.499 -7.5s-10.833 -11.5 -13.5 -19.5s-4.16699 -17.333 -4.5 -28
s-0.5 -21.667 -0.5 -33v-263h-189v530h95l69 -45c10.667 11.333 20.334 20.666 29.001 27.999s17.334 13 26.001 17s18.167 6.83301 28.5 8.5s22.833 2.5 37.5 2.5c40 0 75.333 -5 106 -15s56.167 -26 76.5 -48s35.833 -50.5 46.5 -85.5s16 -77.167 16 -126.5v-266h-190z
M446.997 623.001c-8.66699 -12 -20.334 -21.499 -35.001 -28.499s-30 -10.5 -46 -10.5c-10 0 -21.167 1.66699 -33.5 5s-26.166 8.66602 -41.499 15.999l-19.5 9c-5.66699 2.66699 -10.167 4 -13.5 4c-2.66699 0 -5.16699 -1 -7.5 -3s-4.5 -4.33301 -6.5 -7l-29 -35l-70 86
l29 40c8.66699 11.333 20 20.666 34 27.999s29.667 11 47 11c14.667 0 28.167 -2.16699 40.5 -6.5s23.833 -9.16602 34.5 -14.499l20 -9c6 -2.66699 10.333 -4 13 -4c2 0 4.33301 1 7 3s5 4.33301 7 7l29 35l69 -86z" />
    <glyph glyph-name="ograve" unicode="&#xf2;" 
d="M315 -11c-91.333 0 -160 21.5 -206 64.5s-69 113.167 -69 210.5s23 167.5 69 210.5s114.667 64.5 206 64.5s160 -21.5 206 -64.5s69 -113.167 69 -210.5s-23 -167.5 -69 -210.5s-114.667 -64.5 -206 -64.5zM400 264c0 19.333 -2.16699 34.666 -6.5 45.999
s-10.333 19.833 -18 25.5s-16.667 9.33398 -27 11.001s-21.5 2.5 -33.5 2.5s-23.167 -0.833008 -33.5 -2.5s-19.333 -5.33398 -27 -11.001s-13.667 -14.167 -18 -25.5s-6.5 -26.666 -6.5 -45.999s2.16699 -34.666 6.5 -45.999s10.333 -19.833 18 -25.5
s16.667 -9.33398 27 -11.001s21.5 -2.5 33.5 -2.5s23.167 0.833008 33.5 2.5s19.333 5.33398 27 11.001s13.667 14.167 18 25.5s6.5 26.666 6.5 45.999zM186 629l61 129l196 -124l-30 -64z" />
    <glyph glyph-name="oacute" unicode="&#xf3;" 
d="M315 -11c-91.333 0 -160 21.5 -206 64.5s-69 113.167 -69 210.5s23 167.5 69 210.5s114.667 64.5 206 64.5s160 -21.5 206 -64.5s69 -113.167 69 -210.5s-23 -167.5 -69 -210.5s-114.667 -64.5 -206 -64.5zM400 264c0 19.333 -2.16699 34.666 -6.5 45.999
s-10.333 19.833 -18 25.5s-16.667 9.33398 -27 11.001s-21.5 2.5 -33.5 2.5s-23.167 -0.833008 -33.5 -2.5s-19.333 -5.33398 -27 -11.001s-13.667 -14.167 -18 -25.5s-6.5 -26.666 -6.5 -45.999s2.16699 -34.666 6.5 -45.999s10.333 -19.833 18 -25.5
s16.667 -9.33398 27 -11.001s21.5 -2.5 33.5 -2.5s23.167 0.833008 33.5 2.5s19.333 5.33398 27 11.001s13.667 14.167 18 25.5s6.5 26.666 6.5 45.999zM216 570l-30 64l196 124l61 -129z" />
    <glyph glyph-name="ocircumflex" unicode="&#xf4;" 
d="M315 -11c-91.333 0 -160 21.5 -206 64.5s-69 113.167 -69 210.5s23 167.5 69 210.5s114.667 64.5 206 64.5s160 -21.5 206 -64.5s69 -113.167 69 -210.5s-23 -167.5 -69 -210.5s-114.667 -64.5 -206 -64.5zM400 264c0 19.333 -2.16699 34.666 -6.5 45.999
s-10.333 19.833 -18 25.5s-16.667 9.33398 -27 11.001s-21.5 2.5 -33.5 2.5s-23.167 -0.833008 -33.5 -2.5s-19.333 -5.33398 -27 -11.001s-13.667 -14.167 -18 -25.5s-6.5 -26.666 -6.5 -45.999s2.16699 -34.666 6.5 -45.999s10.333 -19.833 18 -25.5
s16.667 -9.33398 27 -11.001s21.5 -2.5 33.5 -2.5s23.167 0.833008 33.5 2.5s19.333 5.33398 27 11.001s13.667 14.167 18 25.5s6.5 26.666 6.5 45.999zM315 645l-126 -75l-61 129l187 59l187 -59l-61 -129z" />
    <glyph glyph-name="otilde" unicode="&#xf5;" 
d="M315 -11c-91.333 0 -160 21.5 -206 64.5s-69 113.167 -69 210.5s23 167.5 69 210.5s114.667 64.5 206 64.5s160 -21.5 206 -64.5s69 -113.167 69 -210.5s-23 -167.5 -69 -210.5s-114.667 -64.5 -206 -64.5zM400 264c0 19.333 -2.16699 34.666 -6.5 45.999
s-10.333 19.833 -18 25.5s-16.667 9.33398 -27 11.001s-21.5 2.5 -33.5 2.5s-23.167 -0.833008 -33.5 -2.5s-19.333 -5.33398 -27 -11.001s-13.667 -14.167 -18 -25.5s-6.5 -26.666 -6.5 -45.999s2.16699 -34.666 6.5 -45.999s10.333 -19.833 18 -25.5
s16.667 -9.33398 27 -11.001s21.5 -2.5 33.5 -2.5s23.167 0.833008 33.5 2.5s19.333 5.33398 27 11.001s13.667 14.167 18 25.5s6.5 26.666 6.5 45.999zM452 623c-8.66699 -12 -20.334 -21.499 -35.001 -28.499s-30 -10.5 -46 -10.5c-10 0 -21.167 1.66699 -33.5 5
s-26.166 8.66602 -41.499 15.999l-19.5 9c-5.66699 2.66699 -10.167 4 -13.5 4c-2.66699 0 -5.16699 -1 -7.5 -3s-4.5 -4.33301 -6.5 -7l-29 -35l-70 86l29 40c8.66699 11.333 20 20.666 34 27.999s29.667 11 47 11c14.667 0 28.167 -2.16699 40.5 -6.5
s23.833 -9.16602 34.5 -14.499l20 -9c6 -2.66699 10.333 -4 13 -4c2 0 4.33301 1 7 3s5 4.33301 7 7l29 35l69 -86z" />
    <glyph glyph-name="odieresis" unicode="&#xf6;" 
d="M315 -11c-91.333 0 -160 21.5 -206 64.5s-69 113.167 -69 210.5s23 167.5 69 210.5s114.667 64.5 206 64.5s160 -21.5 206 -64.5s69 -113.167 69 -210.5s-23 -167.5 -69 -210.5s-114.667 -64.5 -206 -64.5zM400 264c0 19.333 -2.16699 34.666 -6.5 45.999
s-10.333 19.833 -18 25.5s-16.667 9.33398 -27 11.001s-21.5 2.5 -33.5 2.5s-23.167 -0.833008 -33.5 -2.5s-19.333 -5.33398 -27 -11.001s-13.667 -14.167 -18 -25.5s-6.5 -26.666 -6.5 -45.999s2.16699 -34.666 6.5 -45.999s10.333 -19.833 18 -25.5
s16.667 -9.33398 27 -11.001s21.5 -2.5 33.5 -2.5s23.167 0.833008 33.5 2.5s19.333 5.33398 27 11.001s13.667 14.167 18 25.5s6.5 26.666 6.5 45.999zM418 568c-12.667 0 -24.5 1 -35.5 3s-20.667 6.16699 -29 12.5s-14.833 15.5 -19.5 27.5s-7 28 -7 48s2.33301 36 7 48
s11.167 21.167 19.5 27.5s18 10.5 29 12.5s22.833 3 35.5 3s24.5 -1 35.5 -3s20.667 -6.16699 29 -12.5s14.833 -15.5 19.5 -27.5s7 -28 7 -48s-2.33301 -36 -7 -48s-11.167 -21.167 -19.5 -27.5s-18 -10.5 -29 -12.5s-22.833 -3 -35.5 -3zM211 568
c-12.667 0 -24.5 1 -35.5 3s-20.667 6.16699 -29 12.5s-14.833 15.5 -19.5 27.5s-7 28 -7 48s2.33301 36 7 48s11.167 21.167 19.5 27.5s18 10.5 29 12.5s22.833 3 35.5 3s24.5 -1 35.5 -3s20.667 -6.16699 29 -12.5s14.833 -15.5 19.5 -27.5s7 -28 7 -48
s-2.33301 -36 -7 -48s-11.167 -21.167 -19.5 -27.5s-18 -10.5 -29 -12.5s-22.833 -3 -35.5 -3z" />
    <glyph glyph-name="divide" unicode="&#xf7;" 
d="M50 193v120h530v-120h-530zM315 -32c-21.333 0 -39.666 7.66699 -54.999 23s-23 33.666 -23 54.999s7.66699 39.666 23 54.999s33.666 23 54.999 23s39.666 -7.66699 54.999 -23s23 -33.666 23 -54.999s-7.66699 -39.666 -23 -54.999s-33.666 -23 -54.999 -23zM315 382
c-21.333 0 -39.666 7.66699 -54.999 23s-23 33.666 -23 54.999s7.66699 39.666 23 54.999s33.666 23 54.999 23s39.666 -7.66699 54.999 -23s23 -33.666 23 -54.999s-7.66699 -39.666 -23 -54.999s-33.666 -23 -54.999 -23z" />
    <glyph glyph-name="oslash" unicode="&#xf8;" 
d="M400 264c0 19.333 -2.16699 34.666 -6.5 45.999s-10.333 19.833 -18 25.5s-16.667 9.33398 -27 11.001s-21.5 2.5 -33.5 2.5s-23.167 -0.833008 -33.5 -2.5s-19.333 -5.33398 -27 -11.001s-13.667 -14.167 -18 -25.5s-6.5 -26.666 -6.5 -45.999
s2.16699 -34.666 6.5 -45.999s10.333 -19.833 18 -25.5s16.667 -9.33398 27 -11.001s21.5 -2.5 33.5 -2.5s23.167 0.833008 33.5 2.5s19.333 5.33398 27 11.001s13.667 14.167 18 25.5s6.5 26.666 6.5 45.999zM580 365c6.66699 -28.667 10 -62.334 10 -101.001
c0 -97.333 -23 -167.5 -69 -210.5s-114.667 -64.5 -206 -64.5c-56.667 0 -105 8 -145 24l-66 -66l-135 135l81 81c-6.66699 28.667 -10 62.334 -10 101.001c0 97.333 23 167.5 69 210.5s114.667 64.5 206 64.5c56.667 0 105 -8 145 -24l66 66l135 -135z" />
    <glyph glyph-name="ugrave" unicode="&#xf9;" 
d="M485 0l-68.9971 45c-10 -11.333 -19.333 -20.5 -28 -27.5s-17.334 -12.667 -26.001 -17s-17.667 -7.33301 -27 -9s-20 -2.5 -32 -2.5c-43.333 0 -80.833 5.16699 -112.5 15.5s-57.834 26.5 -78.501 48.5s-36.167 50.333 -46.5 85s-15.5 76.667 -15.5 126v266h190v-266
c0 -19.333 0.833008 -34.666 2.5 -45.999s5.33398 -19.833 11.001 -25.5s14.167 -9.33398 25.5 -11.001s26.666 -2.5 45.999 -2.5h21c11.333 0 20.166 2.5 26.499 7.5s10.833 11.5 13.5 19.5s4.16699 17.333 4.5 28s0.5 21.667 0.5 33v263h189v-530h-95zM186.003 629l61 129
l196 -124l-30 -64z" />
    <glyph glyph-name="uacute" unicode="&#xfa;" 
d="M485 0l-68.9971 45c-10 -11.333 -19.333 -20.5 -28 -27.5s-17.334 -12.667 -26.001 -17s-17.667 -7.33301 -27 -9s-20 -2.5 -32 -2.5c-43.333 0 -80.833 5.16699 -112.5 15.5s-57.834 26.5 -78.501 48.5s-36.167 50.333 -46.5 85s-15.5 76.667 -15.5 126v266h190v-266
c0 -19.333 0.833008 -34.666 2.5 -45.999s5.33398 -19.833 11.001 -25.5s14.167 -9.33398 25.5 -11.001s26.666 -2.5 45.999 -2.5h21c11.333 0 20.166 2.5 26.499 7.5s10.833 11.5 13.5 19.5s4.16699 17.333 4.5 28s0.5 21.667 0.5 33v263h189v-530h-95zM216.003 570l-30 64
l196 124l61 -129z" />
    <glyph glyph-name="ucircumflex" unicode="&#xfb;" 
d="M485 0l-68.9971 45c-10 -11.333 -19.333 -20.5 -28 -27.5s-17.334 -12.667 -26.001 -17s-17.667 -7.33301 -27 -9s-20 -2.5 -32 -2.5c-43.333 0 -80.833 5.16699 -112.5 15.5s-57.834 26.5 -78.501 48.5s-36.167 50.333 -46.5 85s-15.5 76.667 -15.5 126v266h190v-266
c0 -19.333 0.833008 -34.666 2.5 -45.999s5.33398 -19.833 11.001 -25.5s14.167 -9.33398 25.5 -11.001s26.666 -2.5 45.999 -2.5h21c11.333 0 20.166 2.5 26.499 7.5s10.833 11.5 13.5 19.5s4.16699 17.333 4.5 28s0.5 21.667 0.5 33v263h189v-530h-95zM315.003 645
l-126 -75l-61 129l187 59l187 -59l-61 -129z" />
    <glyph glyph-name="udieresis" unicode="&#xfc;" 
d="M485 0l-68.9971 45c-10 -11.333 -19.333 -20.5 -28 -27.5s-17.334 -12.667 -26.001 -17s-17.667 -7.33301 -27 -9s-20 -2.5 -32 -2.5c-43.333 0 -80.833 5.16699 -112.5 15.5s-57.834 26.5 -78.501 48.5s-36.167 50.333 -46.5 85s-15.5 76.667 -15.5 126v266h190v-266
c0 -19.333 0.833008 -34.666 2.5 -45.999s5.33398 -19.833 11.001 -25.5s14.167 -9.33398 25.5 -11.001s26.666 -2.5 45.999 -2.5h21c11.333 0 20.166 2.5 26.499 7.5s10.833 11.5 13.5 19.5s4.16699 17.333 4.5 28s0.5 21.667 0.5 33v263h189v-530h-95zM418.003 568
c-12.667 0 -24.5 1 -35.5 3s-20.667 6.16699 -29 12.5s-14.833 15.5 -19.5 27.5s-7 28 -7 48s2.33301 36 7 48s11.167 21.167 19.5 27.5s18 10.5 29 12.5s22.833 3 35.5 3s24.5 -1 35.5 -3s20.667 -6.16699 29 -12.5s14.833 -15.5 19.5 -27.5s7 -28 7 -48
s-2.33301 -36 -7 -48s-11.167 -21.167 -19.5 -27.5s-18 -10.5 -29 -12.5s-22.833 -3 -35.5 -3zM211.003 568c-12.667 0 -24.5 1 -35.5 3s-20.667 6.16699 -29 12.5s-14.833 15.5 -19.5 27.5s-7 28 -7 48s2.33301 36 7 48s11.167 21.167 19.5 27.5s18 10.5 29 12.5
s22.833 3 35.5 3s24.5 -1 35.5 -3s20.667 -6.16699 29 -12.5s14.833 -15.5 19.5 -27.5s7 -28 7 -48s-2.33301 -36 -7 -48s-11.167 -21.167 -19.5 -27.5s-18 -10.5 -29 -12.5s-22.833 -3 -35.5 -3z" />
    <glyph glyph-name="yacute" unicode="&#xfd;" horiz-adv-x="558" 
d="M77 -50c6.66699 -3.33301 12 -5.16406 16 -5.49707s9.66699 -1.16602 17 -2.49902c4.66699 -0.666992 8.83398 -0.833984 12.501 -0.500977s7 1.66602 10 3.99902s6 6 9 11s6.16699 12.167 9.5 21.5l30 77l-128 271c-15.333 32 -26.333 63 -33 93s-10 62.667 -10 98v13
h157l65 -139c15.333 -32 26.5 -63 33.5 -93s11.167 -62.667 12.5 -98h2c1.33301 35.333 5.5 68 12.5 98s18.167 61 33.5 93l65 139h157v-13c0 -35.333 -3.33301 -68 -10 -98s-17.334 -61 -32.001 -93l-167 -361c-13.333 -28.667 -26 -54.334 -38 -77.001
s-25.5 -42 -40.5 -58s-32.5 -28.167 -52.5 -36.5s-44.667 -12.5 -74 -12.5c-16 0 -33.333 1.66699 -52 5s-37.667 10.666 -57 21.999zM180 570.002l-30 64l196 124l61 -129z" />
    <glyph glyph-name="thorn" unicode="&#xfe;" horiz-adv-x="611" 
d="M50 -222l-0.00195312 932.001l21 9c26 11.333 51.167 19.333 75.5 24s50.5 7 78.5 7h16v-231c9.33301 4 17.666 7.33301 24.999 10s14.833 4.66699 22.5 6s15.5 2.33301 23.5 3s17.333 1 28 1c40.667 0 75.667 -4.83301 105 -14.5s53.333 -25.334 72 -47.001
s32.334 -49.5 41.001 -83.5s13 -75.333 13 -124c0 -97.333 -18.167 -167.833 -54.5 -211.5s-95.166 -65.5 -176.499 -65.5c-10.667 0 -20 0.333008 -28 1s-15.833 1.66699 -23.5 3s-15.167 3.33301 -22.5 6s-15.666 6 -24.999 10v-235h-191zM295.998 181.001
c19.333 0 34.666 1.83203 45.999 5.49902s19.833 9 25.5 16s9.33398 15.833 11.001 26.5s2.5 23 2.5 37s-0.833008 26.333 -2.5 37s-5.33398 19.5 -11.001 26.5s-14.167 12.333 -25.5 16s-26.666 5.5 -45.999 5.5h-11c-11.333 0 -20.166 -2.16699 -26.499 -6.5
s-10.833 -10.166 -13.5 -17.499s-4.16699 -16 -4.5 -26s-0.5 -20.667 -0.5 -32s0.166992 -22.333 0.5 -33s1.83301 -20 4.5 -28s7.16699 -14.5 13.5 -19.5s15.166 -7.5 26.499 -7.5h11z" />
    <glyph glyph-name="ydieresis" unicode="&#xff;" horiz-adv-x="568" 
d="M82 -50c6.66699 -3.33301 12 -5.16406 16 -5.49707s9.66699 -1.16602 17 -2.49902c4.66699 -0.666992 8.83398 -0.833984 12.501 -0.500977s7 1.66602 10 3.99902s6 6 9 11s6.16699 12.167 9.5 21.5l30 77l-128 271c-15.333 32 -26.333 63 -33 93s-10 62.667 -10 98v13
h157l65 -139c15.333 -32 26.5 -63 33.5 -93s11.167 -62.667 12.5 -98h2c1.33301 35.333 5.5 68 12.5 98s18.167 61 33.5 93l65 139h157v-13c0 -35.333 -3.33301 -68 -10 -98s-17.334 -61 -32.001 -93l-167 -361c-13.333 -28.667 -26 -54.334 -38 -77.001
s-25.5 -42 -40.5 -58s-32.5 -28.167 -52.5 -36.5s-44.667 -12.5 -74 -12.5c-16 0 -33.333 1.66699 -52 5s-37.667 10.666 -57 21.999zM387 568.002c-12.667 0 -24.5 1 -35.5 3s-20.667 6.16699 -29 12.5s-14.833 15.5 -19.5 27.5s-7 28 -7 48s2.33301 36 7 48
s11.167 21.167 19.5 27.5s18 10.5 29 12.5s22.833 3 35.5 3s24.5 -1 35.5 -3s20.667 -6.16699 29 -12.5s14.833 -15.5 19.5 -27.5s7 -28 7 -48s-2.33301 -36 -7 -48s-11.167 -21.167 -19.5 -27.5s-18 -10.5 -29 -12.5s-22.833 -3 -35.5 -3zM180 568.002
c-12.667 0 -24.5 1 -35.5 3s-20.667 6.16699 -29 12.5s-14.833 15.5 -19.5 27.5s-7 28 -7 48s2.33301 36 7 48s11.167 21.167 19.5 27.5s18 10.5 29 12.5s22.833 3 35.5 3s24.5 -1 35.5 -3s20.667 -6.16699 29 -12.5s14.833 -15.5 19.5 -27.5s7 -28 7 -48
s-2.33301 -36 -7 -48s-11.167 -21.167 -19.5 -27.5s-18 -10.5 -29 -12.5s-22.833 -3 -35.5 -3z" />
    <glyph glyph-name="Amacron" unicode="&#x100;" horiz-adv-x="636" 
d="M447 0l-30 100h-192l-29 -100h-186v43c0 35.333 2.66699 68.166 8 98.499s14.333 62.166 27 95.499l174 473h202l171 -472c12 -33.333 20.667 -65.166 26 -95.499s8 -63.166 8 -98.499v-44h-179zM356 310c-7.33301 32.667 -13.333 66 -18 100l-18 118l-19 -118
c-4.66699 -34 -10.667 -67.333 -18 -100h73zM118 790v100h400v-100h-400z" />
    <glyph glyph-name="amacron" unicode="&#x101;" horiz-adv-x="563" 
d="M428 0l-69.001 45.001c-8 -11.333 -16.667 -20.5 -26 -27.5s-18.5 -12.667 -27.5 -17s-17.667 -7.33301 -26 -9s-15.166 -2.5 -20.499 -2.5c-44 0 -80.667 2.33301 -110 7s-53.333 12.667 -72 24s-32.167 26.833 -40.5 46.5s-13.5 44.5 -15.5 74.5
c-2 30.667 0 56.334 6 77.001s16.167 37.334 30.5 50.001s33.5 21.667 57.5 27s53.333 8 88 8h122c-0.666992 11.333 -3.16699 20.166 -7.5 26.499s-10 11 -17 14s-15 4.66699 -24 5s-18.5 0.5 -28.5 0.5c-16 0 -29.667 -0.333008 -41 -1s-22.166 -1.66699 -32.499 -3
s-21.333 -3.33301 -33 -6s-25.5 -6.33398 -41.5 -11.001l-56 172c20 7.33301 46.667 15.666 80 24.999s75.666 14 126.999 14c90 0 157.833 -21.5 203.5 -64.5s68.5 -113.167 68.5 -210.5v-264h-95zM241.999 183.001c-12.667 0 -20.334 -2.66797 -23.001 -8.00098
s-4 -11.666 -4 -18.999s1.33301 -13.666 4 -18.999s10.334 -8 23.001 -8h22c8 0 16 0.5 24 1.5s14.833 3.16699 20.5 6.5s10 8.66602 13 15.999s3.83301 17.333 2.5 30h-82zM80.999 610v100h400v-100h-400z" />
    <glyph glyph-name="Abreve" unicode="&#x102;" horiz-adv-x="636" 
d="M447 0l-30 100h-192l-29 -100h-186v43c0 35.333 2.66699 68.166 8 98.499s14.333 62.166 27 95.499l174 473h202l171 -472c12 -33.333 20.667 -65.166 26 -95.499s8 -63.166 8 -98.499v-44h-179zM356 310c-7.33301 32.667 -13.333 66 -18 100l-18 118l-19 -118
c-4.66699 -34 -10.667 -67.333 -18 -100h73zM499 803l-24.498 -14c-10.333 -6 -23 -11.833 -38 -17.5s-32.333 -10.667 -52 -15s-41.834 -6.5 -66.501 -6.5s-46.834 2.16699 -66.501 6.5s-37 9.33301 -52 15s-27.667 11.5 -38 17.5l-24.5 14l49 120l56 -24
c22 -9.33301 47.333 -14 76 -14s54 4.66699 76 14l56 24z" />
    <glyph glyph-name="abreve" unicode="&#x103;" horiz-adv-x="563" 
d="M428 0l-69.001 45.001c-8 -11.333 -16.667 -20.5 -26 -27.5s-18.5 -12.667 -27.5 -17s-17.667 -7.33301 -26 -9s-15.166 -2.5 -20.499 -2.5c-44 0 -80.667 2.33301 -110 7s-53.333 12.667 -72 24s-32.167 26.833 -40.5 46.5s-13.5 44.5 -15.5 74.5
c-2 30.667 0 56.334 6 77.001s16.167 37.334 30.5 50.001s33.5 21.667 57.5 27s53.333 8 88 8h122c-0.666992 11.333 -3.16699 20.166 -7.5 26.499s-10 11 -17 14s-15 4.66699 -24 5s-18.5 0.5 -28.5 0.5c-16 0 -29.667 -0.333008 -41 -1s-22.166 -1.66699 -32.499 -3
s-21.333 -3.33301 -33 -6s-25.5 -6.33398 -41.5 -11.001l-56 172c20 7.33301 46.667 15.666 80 24.999s75.666 14 126.999 14c90 0 157.833 -21.5 203.5 -64.5s68.5 -113.167 68.5 -210.5v-264h-95zM241.999 183.001c-12.667 0 -20.334 -2.66797 -23.001 -8.00098
s-4 -11.666 -4 -18.999s1.33301 -13.666 4 -18.999s10.334 -8 23.001 -8h22c8 0 16 0.5 24 1.5s14.833 3.16699 20.5 6.5s10 8.66602 13 15.999s3.83301 17.333 2.5 30h-82zM461.999 623l-24.498 -14c-10.333 -6 -23 -11.833 -38 -17.5s-32.333 -10.667 -52 -15
s-41.834 -6.5 -66.501 -6.5s-46.834 2.16699 -66.501 6.5s-37 9.33301 -52 15s-27.667 11.5 -38 17.5l-24.5 14l49 120l56 -24c22 -9.33301 47.333 -14 76 -14s54 4.66699 76 14l56 24z" />
    <glyph glyph-name="Aogonek" unicode="&#x104;" horiz-adv-x="636" 
d="M622 -220c-9.33301 -6 -19.668 -10.8301 -31.001 -14.4971s-26.666 -5.5 -45.999 -5.5c-40 0 -68.667 8.83301 -86 26.5s-26 45.5 -26 83.5c0 18.667 2.33301 34.167 7 46.5s11.667 22.666 21 30.999s21 15.5 35 21.5l49 20c4 1.33301 8.66699 2.66602 14 3.99902
s11 3.66602 17 6.99902h-129l-30 100h-192l-29 -100h-186v43c0 35.333 2.66699 68.166 8 98.499s14.333 62.166 27 95.499l174 473h202l171 -472c12 -33.333 20.667 -65.166 26 -95.499s8 -63.166 8 -98.499v-50c0 -17.333 -3.5 -31.5 -10.5 -42.5
s-19.167 -19.5 -36.5 -25.5l-30 -11c-17.333 -6 -28.333 -12 -33 -18s-7 -15 -7 -27c0 -12.667 2.16699 -21.667 6.5 -27s15.5 -8 33.5 -8c7.33301 0 14.333 0.666992 21 2s15 4 25 8zM355.998 310.003c-7.33301 32.667 -13.333 66 -18 100l-18 118l-19 -118
c-4.66699 -34 -10.667 -67.333 -18 -100h73z" />
    <glyph glyph-name="aogonek" unicode="&#x105;" horiz-adv-x="563" 
d="M519 -220c-9.33301 -6 -19.6689 -10.8291 -31.002 -14.4961s-26.666 -5.5 -45.999 -5.5c-40 0 -68.667 8.83301 -86 26.5s-26 45.5 -26 83.5c0 18.667 2.33301 34.167 7 46.5s11.667 22.666 21 30.999s21 15.5 35 21.5l49 20c4 1.33301 8.66699 2.66602 14 3.99902
s11 3.66602 17 6.99902h-45l-69 45c-8 -11.333 -16.667 -20.5 -26 -27.5s-18.5 -12.667 -27.5 -17s-17.667 -7.33301 -26 -9s-15.166 -2.5 -20.499 -2.5c-44 0 -80.667 2.33301 -110 7s-53.333 12.667 -72 24s-32.167 26.833 -40.5 46.5s-13.5 44.5 -15.5 74.5
c-2 30.667 0 56.334 6 77.001s16.167 37.334 30.5 50.001s33.5 21.667 57.5 27s53.333 8 88 8h122c-0.666992 11.333 -3.16699 20.166 -7.5 26.499s-10 11 -17 14s-15 4.66699 -24 5s-18.5 0.5 -28.5 0.5c-16 0 -29.667 -0.333008 -41 -1s-22.166 -1.66699 -32.499 -3
s-21.333 -3.33301 -33 -6s-25.5 -6.33398 -41.5 -11.001l-56 172c20 7.33301 46.667 15.666 80 24.999s75.666 14 126.999 14c90 0 157.833 -21.5 203.5 -64.5s68.5 -113.167 68.5 -210.5v-270c0 -17.333 -3.5 -31.5 -10.5 -42.5s-19.167 -19.5 -36.5 -25.5l-30 -11
c-17.333 -6 -28.333 -12 -33 -18s-7 -15 -7 -27c0 -12.667 2.16699 -21.667 6.5 -27s15.5 -8 33.5 -8c7.33301 0 14.333 0.666992 21 2s15 4 25 8zM241.997 183.004c-12.667 0 -20.334 -2.66797 -23.001 -8.00098s-4 -11.666 -4 -18.999s1.33301 -13.666 4 -18.999
s10.334 -8 23.001 -8h22c8 0 16 0.5 24 1.5s14.833 3.16699 20.5 6.5s10 8.66602 13 15.999s3.83301 17.333 2.5 30h-82z" />
    <glyph glyph-name="Cacute" unicode="&#x106;" horiz-adv-x="657" 
d="M617 56c-8 -5.33301 -19.499 -11.834 -34.499 -19.501s-32.5 -15 -52.5 -22s-42.333 -12.833 -67 -17.5s-50.334 -7 -77.001 -7c-56 0 -105.5 7 -148.5 21s-79.167 35.667 -108.5 65s-51.5 67.166 -66.5 113.499s-22.5 101.833 -22.5 166.5s7.5 120.167 22.5 166.5
s37.167 84.166 66.5 113.499s65.5 51 108.5 65s92.5 21 148.5 21c28 0 54.333 -2.5 79 -7.5s47 -11 67 -18s37.167 -14.167 51.5 -21.5s25.5 -13.666 33.5 -18.999l-76 -187c-13.333 6 -27.5 11.167 -42.5 15.5s-29.833 8 -44.5 11s-28.5 5.16699 -41.5 6.5
s-23.833 2 -32.5 2c-19.333 0 -36.333 -1.5 -51 -4.5s-27.334 -9.5 -38.001 -19.5s-18.667 -24.833 -24 -44.5s-8 -46.167 -8 -79.5s2.66699 -59.666 8 -78.999s13.333 -34.166 24 -44.499s23.334 -17 38.001 -20s31.667 -4.5 51 -4.5c8.66699 0 19.5 0.666992 32.5 2
s26.833 3.5 41.5 6.5s29.5 6.66699 44.5 11s29.167 9.5 42.5 15.5zM290.001 749.999l-30 64l196 124l61 -129z" />
    <glyph glyph-name="cacute" unicode="&#x107;" horiz-adv-x="552" 
d="M512 42c-12 -7.33301 -24.335 -14.1709 -37.002 -20.5039s-26.5 -11.666 -41.5 -15.999s-31.833 -7.66602 -50.5 -9.99902s-40 -3.5 -64 -3.5c-49.333 0 -91.666 5.5 -126.999 16.5s-64.333 27.667 -87 50s-39.167 50.833 -49.5 85.5s-15.5 75.667 -15.5 123
s5.33301 88.333 16 123s27.334 63.167 50.001 85.5s51.667 38.833 87 49.5s77.666 16 126.999 16c26.667 0 49.834 -1.5 69.501 -4.5s37 -6.66699 52 -11s28 -9.5 39 -15.5l31.5 -18l-67 -164c-12.667 5.33301 -24 9.83301 -34 13.5s-19.5 6.5 -28.5 8.5
s-17.667 3.33301 -26 4s-17.5 1 -27.5 1c-22 0 -39.667 -1.66699 -53 -5s-23.333 -8.66602 -30 -15.999s-11 -16.5 -13 -27.5s-3 -24.167 -3 -39.5s1 -28.5 3 -39.5s6.33301 -20.167 13 -27.5s16.667 -12.666 30 -15.999s31 -5 53 -5c10 0 19.167 0.333008 27.5 1s17 2 26 4
s18.5 4.83301 28.5 8.5s21.333 8.16699 34 13.5zM218.998 569.995l-30 64l196 124l61 -129z" />
    <glyph glyph-name="Ccircumflex" unicode="&#x108;" horiz-adv-x="657" 
d="M617 56c-8 -5.33301 -19.499 -11.834 -34.499 -19.501s-32.5 -15 -52.5 -22s-42.333 -12.833 -67 -17.5s-50.334 -7 -77.001 -7c-56 0 -105.5 7 -148.5 21s-79.167 35.667 -108.5 65s-51.5 67.166 -66.5 113.499s-22.5 101.833 -22.5 166.5s7.5 120.167 22.5 166.5
s37.167 84.166 66.5 113.499s65.5 51 108.5 65s92.5 21 148.5 21c28 0 54.333 -2.5 79 -7.5s47 -11 67 -18s37.167 -14.167 51.5 -21.5s25.5 -13.666 33.5 -18.999l-76 -187c-13.333 6 -27.5 11.167 -42.5 15.5s-29.833 8 -44.5 11s-28.5 5.16699 -41.5 6.5
s-23.833 2 -32.5 2c-19.333 0 -36.333 -1.5 -51 -4.5s-27.334 -9.5 -38.001 -19.5s-18.667 -24.833 -24 -44.5s-8 -46.167 -8 -79.5s2.66699 -59.666 8 -78.999s13.333 -34.166 24 -44.499s23.334 -17 38.001 -20s31.667 -4.5 51 -4.5c8.66699 0 19.5 0.666992 32.5 2
s26.833 3.5 41.5 6.5s29.5 6.66699 44.5 11s29.167 9.5 42.5 15.5zM363.001 824.999l-126 -75l-61 129l187 59l187 -59l-61 -129z" />
    <glyph glyph-name="ccircumflex" unicode="&#x109;" horiz-adv-x="552" 
d="M512 42c-12 -7.33301 -24.335 -14.1709 -37.002 -20.5039s-26.5 -11.666 -41.5 -15.999s-31.833 -7.66602 -50.5 -9.99902s-40 -3.5 -64 -3.5c-49.333 0 -91.666 5.5 -126.999 16.5s-64.333 27.667 -87 50s-39.167 50.833 -49.5 85.5s-15.5 75.667 -15.5 123
s5.33301 88.333 16 123s27.334 63.167 50.001 85.5s51.667 38.833 87 49.5s77.666 16 126.999 16c26.667 0 49.834 -1.5 69.501 -4.5s37 -6.66699 52 -11s28 -9.5 39 -15.5l31.5 -18l-67 -164c-12.667 5.33301 -24 9.83301 -34 13.5s-19.5 6.5 -28.5 8.5
s-17.667 3.33301 -26 4s-17.5 1 -27.5 1c-22 0 -39.667 -1.66699 -53 -5s-23.333 -8.66602 -30 -15.999s-11 -16.5 -13 -27.5s-3 -24.167 -3 -39.5s1 -28.5 3 -39.5s6.33301 -20.167 13 -27.5s16.667 -12.666 30 -15.999s31 -5 53 -5c10 0 19.167 0.333008 27.5 1s17 2 26 4
s18.5 4.83301 28.5 8.5s21.333 8.16699 34 13.5zM298.998 644.995l-126 -75l-61 129l187 59l187 -59l-61 -129z" />
    <glyph glyph-name="Cdotaccent" unicode="&#x10a;" horiz-adv-x="657" 
d="M617 56c-8 -5.33301 -19.499 -11.834 -34.499 -19.501s-32.5 -15 -52.5 -22s-42.333 -12.833 -67 -17.5s-50.334 -7 -77.001 -7c-56 0 -105.5 7 -148.5 21s-79.167 35.667 -108.5 65s-51.5 67.166 -66.5 113.499s-22.5 101.833 -22.5 166.5s7.5 120.167 22.5 166.5
s37.167 84.166 66.5 113.499s65.5 51 108.5 65s92.5 21 148.5 21c28 0 54.333 -2.5 79 -7.5s47 -11 67 -18s37.167 -14.167 51.5 -21.5s25.5 -13.666 33.5 -18.999l-76 -187c-13.333 6 -27.5 11.167 -42.5 15.5s-29.833 8 -44.5 11s-28.5 5.16699 -41.5 6.5
s-23.833 2 -32.5 2c-19.333 0 -36.333 -1.5 -51 -4.5s-27.334 -9.5 -38.001 -19.5s-18.667 -24.833 -24 -44.5s-8 -46.167 -8 -79.5s2.66699 -59.666 8 -78.999s13.333 -34.166 24 -44.499s23.334 -17 38.001 -20s31.667 -4.5 51 -4.5c8.66699 0 19.5 0.666992 32.5 2
s26.833 3.5 41.5 6.5s29.5 6.66699 44.5 11s29.167 9.5 42.5 15.5zM363.001 749.999c-13.333 0 -25.666 1.16699 -36.999 3.5s-21.333 6.83301 -30 13.5s-15.5 16.167 -20.5 28.5s-7.5 28.833 -7.5 49.5s2.5 37.167 7.5 49.5s11.833 21.833 20.5 28.5s18.667 11.167 30 13.5
s23.666 3.5 36.999 3.5c12.667 0 24.834 -1.16699 36.501 -3.5s21.834 -6.83301 30.501 -13.5s15.5 -16.167 20.5 -28.5s7.5 -28.833 7.5 -49.5s-2.5 -37.167 -7.5 -49.5s-11.833 -21.833 -20.5 -28.5s-18.834 -11.167 -30.501 -13.5s-23.834 -3.5 -36.501 -3.5z" />
    <glyph glyph-name="cdotaccent" unicode="&#x10b;" horiz-adv-x="552" 
d="M512 42c-12 -7.33301 -24.335 -14.1709 -37.002 -20.5039s-26.5 -11.666 -41.5 -15.999s-31.833 -7.66602 -50.5 -9.99902s-40 -3.5 -64 -3.5c-49.333 0 -91.666 5.5 -126.999 16.5s-64.333 27.667 -87 50s-39.167 50.833 -49.5 85.5s-15.5 75.667 -15.5 123
s5.33301 88.333 16 123s27.334 63.167 50.001 85.5s51.667 38.833 87 49.5s77.666 16 126.999 16c26.667 0 49.834 -1.5 69.501 -4.5s37 -6.66699 52 -11s28 -9.5 39 -15.5l31.5 -18l-67 -164c-12.667 5.33301 -24 9.83301 -34 13.5s-19.5 6.5 -28.5 8.5
s-17.667 3.33301 -26 4s-17.5 1 -27.5 1c-22 0 -39.667 -1.66699 -53 -5s-23.333 -8.66602 -30 -15.999s-11 -16.5 -13 -27.5s-3 -24.167 -3 -39.5s1 -28.5 3 -39.5s6.33301 -20.167 13 -27.5s16.667 -12.666 30 -15.999s31 -5 53 -5c10 0 19.167 0.333008 27.5 1s17 2 26 4
s18.5 4.83301 28.5 8.5s21.333 8.16699 34 13.5zM303.998 569.995c-13.333 0 -25.666 1.16699 -36.999 3.5s-21.333 6.83301 -30 13.5s-15.5 16.167 -20.5 28.5s-7.5 28.833 -7.5 49.5s2.5 37.167 7.5 49.5s11.833 21.833 20.5 28.5s18.667 11.167 30 13.5
s23.666 3.5 36.999 3.5c12.667 0 24.834 -1.16699 36.501 -3.5s21.834 -6.83301 30.501 -13.5s15.5 -16.167 20.5 -28.5s7.5 -28.833 7.5 -49.5s-2.5 -37.167 -7.5 -49.5s-11.833 -21.833 -20.5 -28.5s-18.834 -11.167 -30.501 -13.5s-23.834 -3.5 -36.501 -3.5z" />
    <glyph glyph-name="Ccaron" unicode="&#x10c;" horiz-adv-x="657" 
d="M617 56c-8 -5.33301 -19.499 -11.834 -34.499 -19.501s-32.5 -15 -52.5 -22s-42.333 -12.833 -67 -17.5s-50.334 -7 -77.001 -7c-56 0 -105.5 7 -148.5 21s-79.167 35.667 -108.5 65s-51.5 67.166 -66.5 113.499s-22.5 101.833 -22.5 166.5s7.5 120.167 22.5 166.5
s37.167 84.166 66.5 113.499s65.5 51 108.5 65s92.5 21 148.5 21c28 0 54.333 -2.5 79 -7.5s47 -11 67 -18s37.167 -14.167 51.5 -21.5s25.5 -13.666 33.5 -18.999l-76 -187c-13.333 6 -27.5 11.167 -42.5 15.5s-29.833 8 -44.5 11s-28.5 5.16699 -41.5 6.5
s-23.833 2 -32.5 2c-19.333 0 -36.333 -1.5 -51 -4.5s-27.334 -9.5 -38.001 -19.5s-18.667 -24.833 -24 -44.5s-8 -46.167 -8 -79.5s2.66699 -59.666 8 -78.999s13.333 -34.166 24 -44.499s23.334 -17 38.001 -20s31.667 -4.5 51 -4.5c8.66699 0 19.5 0.666992 32.5 2
s26.833 3.5 41.5 6.5s29.5 6.66699 44.5 11s29.167 9.5 42.5 15.5zM374.001 749.999l-187 59l61 129l126 -75l126 75l61 -129z" />
    <glyph glyph-name="ccaron" unicode="&#x10d;" horiz-adv-x="552" 
d="M512 42c-12 -7.33301 -24.335 -14.1709 -37.002 -20.5039s-26.5 -11.666 -41.5 -15.999s-31.833 -7.66602 -50.5 -9.99902s-40 -3.5 -64 -3.5c-49.333 0 -91.666 5.5 -126.999 16.5s-64.333 27.667 -87 50s-39.167 50.833 -49.5 85.5s-15.5 75.667 -15.5 123
s5.33301 88.333 16 123s27.334 63.167 50.001 85.5s51.667 38.833 87 49.5s77.666 16 126.999 16c26.667 0 49.834 -1.5 69.501 -4.5s37 -6.66699 52 -11s28 -9.5 39 -15.5l31.5 -18l-67 -164c-12.667 5.33301 -24 9.83301 -34 13.5s-19.5 6.5 -28.5 8.5
s-17.667 3.33301 -26 4s-17.5 1 -27.5 1c-22 0 -39.667 -1.66699 -53 -5s-23.333 -8.66602 -30 -15.999s-11 -16.5 -13 -27.5s-3 -24.167 -3 -39.5s1 -28.5 3 -39.5s6.33301 -20.167 13 -27.5s16.667 -12.666 30 -15.999s31 -5 53 -5c10 0 19.167 0.333008 27.5 1s17 2 26 4
s18.5 4.83301 28.5 8.5s21.333 8.16699 34 13.5zM306.998 569.995l-187 59l61 129l126 -75l126 75l61 -129z" />
    <glyph glyph-name="Dcaron" unicode="&#x10e;" horiz-adv-x="710" 
d="M313 208c18 0 35.499 1.50098 52.499 4.50098s31.833 9.5 44.5 19.5s22.834 24.833 30.501 44.5s11.5 46.167 11.5 79.5s-3.83301 59.666 -11.5 78.999s-18.167 34 -31.5 44s-29 16.333 -47 19s-37 4 -57 4h-36v-294h44zM49.999 0.000976562l0.000976562 709.999h255
c60.667 0 113.834 -6.33301 159.501 -19s83.667 -33 114 -61s53.166 -64.5 68.499 -109.5s23 -99.833 23 -164.5s-7.16699 -119.667 -21.5 -165s-36 -82.166 -65 -110.499s-65.833 -48.833 -110.5 -61.5s-97.334 -19 -158.001 -19h-265zM294 750l-187 59l61 129l126 -75
l126 75l61 -129z" />
    <glyph glyph-name="dcaron" unicode="&#x10f;" horiz-adv-x="640" 
d="M495 0l-68.998 45.001c-10.667 -11.333 -20.834 -20.5 -30.501 -27.5s-19.667 -12.5 -30 -16.5s-21.333 -6.66699 -33 -8s-25.167 -2 -40.5 -2c-42.667 0 -79.667 5.16699 -111 15.5s-57.5 26.666 -78.5 48.999s-36.667 51.166 -47 86.499s-15.5 78 -15.5 128
c0 48.667 5 90 15 124s25.667 61.833 47 83.5s48.333 37.334 81 47.001s72 14.5 118 14.5c10.667 0 20 -0.333008 28 -1s15.833 -1.66699 23.5 -3s15.167 -3.33301 22.5 -6s15.666 -6 24.999 -10v191l21 9c26 11.333 51.167 19.333 75.5 24s50.5 7 78.5 7h15v-750h-95z
M356.002 181.001c11.333 0 20.166 2.16797 26.499 6.50098s10.833 10.166 13.5 17.499s4.16699 16 4.5 26s0.5 20.667 0.5 32s-0.166992 22.333 -0.5 33s-1.83301 20 -4.5 28s-7.16699 14.5 -13.5 19.5s-15.166 7.5 -26.499 7.5h-41
c-19.333 0 -34.666 -1.83301 -45.999 -5.5s-19.833 -9 -25.5 -16s-9.33398 -15.833 -11.001 -26.5s-2.5 -23 -2.5 -37s0.833008 -26.333 2.5 -37s5.33398 -19.5 11.001 -26.5s14.167 -12.333 25.5 -16s26.666 -5.5 45.999 -5.5h41zM638.002 706.002l30.0029 11.002
c13.333 5.33301 26.166 11 38.499 17s22.166 8 29.499 6l11 -3l5 4c-20 4.66699 -36.333 14.167 -49 28.5s-19 37.5 -19 69.5c0 20.667 2.83301 37.667 8.5 51s13.5 23.666 23.5 30.999s21.5 12.333 34.5 15s26.833 4 41.5 4c17.333 0 32.666 -1.66699 45.999 -5
s24.333 -9.33301 33 -18s15.167 -20.334 19.5 -35.001s6.5 -33.334 6.5 -56.001c0 -26 -4 -53.5 -12 -82.5s-24.667 -56.833 -50 -83.5c-24 -23.333 -48.667 -41.666 -74 -54.999s-52 -24 -80 -32z" />
    <glyph glyph-name="Dcroat" unicode="&#x110;" horiz-adv-x="710" 
d="M50 0l0.000976562 272.999h-50v163h50v274h255c60.667 0 113.834 -6.33301 159.501 -19s83.667 -33 114 -61s53.166 -64.5 68.499 -109.5s23 -99.833 23 -164.5s-7.16699 -119.667 -21.5 -165s-36 -82.166 -65 -110.499s-65.833 -48.833 -110.5 -61.5
s-97.334 -19 -158.001 -19h-265zM269.001 272.999l-0.000976562 -64.999h44c18 0 35.5 1.5 52.5 4.5s31.833 9.5 44.5 19.5s22.834 24.833 30.501 44.5s11.5 46.167 11.5 79.5s-3.83301 59.666 -11.5 78.999s-18.167 34 -31.5 44s-29 16.333 -47 19s-37 4 -57 4h-36v-66h67
v-163h-67z" />
    <glyph glyph-name="dcroat" unicode="&#x111;" horiz-adv-x="640" 
d="M495 0l-68.998 45.001c-10.667 -11.333 -20.834 -20.5 -30.501 -27.5s-19.667 -12.5 -30 -16.5s-21.333 -6.66699 -33 -8s-25.167 -2 -40.5 -2c-42.667 0 -79.667 5.16699 -111 15.5s-57.5 26.666 -78.5 48.999s-36.667 51.166 -47 86.499s-15.5 78 -15.5 128
c0 48.667 5 90 15 124s25.667 61.833 47 83.5s48.333 37.334 81 47.001s72 14.5 118 14.5c10.667 0 20 -0.333008 28 -1s15.833 -1.66699 23.5 -3s15.167 -3.33301 22.5 -6s15.666 -6 24.999 -10v48h-49v123h49v20l21 9c26 11.333 51.167 19.333 75.5 24s50.5 7 78.5 7h15
v-60h50v-123h-50v-567h-95zM356.002 181.001c11.333 0 20.166 2.16797 26.499 6.50098s10.833 10.166 13.5 17.499s4.16699 16 4.5 26s0.5 20.667 0.5 32s-0.166992 22.333 -0.5 33s-1.83301 20 -4.5 28s-7.16699 14.5 -13.5 19.5s-15.166 7.5 -26.499 7.5h-41
c-19.333 0 -34.666 -1.83301 -45.999 -5.5s-19.833 -9 -25.5 -16s-9.33398 -15.833 -11.001 -26.5s-2.5 -23 -2.5 -37s0.833008 -26.333 2.5 -37s5.33398 -19.5 11.001 -26.5s14.167 -12.333 25.5 -16s26.666 -5.5 45.999 -5.5h41z" />
    <glyph glyph-name="Emacron" unicode="&#x112;" horiz-adv-x="579" 
d="M50 0v710h479v-205h-259v-50h239v-200h-239v-50h259v-205h-479zM89 790v100h400v-100h-400z" />
    <glyph glyph-name="emacron" unicode="&#x113;" horiz-adv-x="590" 
d="M539 30c-10 -4 -22.6719 -8.33691 -38.0049 -13.0039s-32.666 -9 -51.999 -13s-40.5 -7.5 -63.5 -10.5s-47.5 -4.5 -73.5 -4.5c-90 0 -157.833 21.5 -203.5 64.5s-68.5 113.167 -68.5 210.5c0 48.667 5.66699 90.334 17 125.001s27.833 63.167 49.5 85.5
s48.334 38.666 80.001 48.999s67.834 15.5 108.501 15.5s76.834 -5.16699 108.501 -15.5s58.334 -26.666 80.001 -48.999s38.167 -50.833 49.5 -85.5s17 -76.334 17 -125.001c-32 -17.333 -62.833 -28.166 -92.5 -32.499s-62.167 -6.5 -97.5 -6.5h-122
c0.666992 -11.333 3.16699 -20.166 7.5 -26.499s10 -11 17 -14s15 -4.66699 24 -5s18.5 -0.5 28.5 -0.5c16 0 30.667 0.5 44 1.5s26.5 2.33301 39.5 4s26.333 3.83398 40 6.50098s28.5 6.33398 44.5 11.001zM350.995 304.996c0.666992 14 -0.666992 24.668 -4 32.001
s-7.83301 12.666 -13.5 15.999s-11.667 5.16602 -18 5.49902s-11.833 0.5 -16.5 0.5c-8 0 -16 -0.5 -24 -1.5s-14.833 -3.16699 -20.5 -6.5s-10 -8.66602 -13 -15.999s-3.83301 -17.333 -2.5 -30h112zM94.9941 609.997v100h400v-100h-400z" />
    <glyph glyph-name="Ebreve" unicode="&#x114;" horiz-adv-x="579" 
d="M50 0v710h479v-205h-259v-50h239v-200h-239v-50h259v-205h-479zM470 803l-24.498 -14c-10.333 -6 -23 -11.833 -38 -17.5s-32.333 -10.667 -52 -15s-41.834 -6.5 -66.501 -6.5s-46.834 2.16699 -66.501 6.5s-37 9.33301 -52 15s-27.667 11.5 -38 17.5l-24.5 14l49 120
l56 -24c22 -9.33301 47.333 -14 76 -14s54 4.66699 76 14l56 24z" />
    <glyph glyph-name="ebreve" unicode="&#x115;" horiz-adv-x="590" 
d="M539 30c-10 -4 -22.6719 -8.33691 -38.0049 -13.0039s-32.666 -9 -51.999 -13s-40.5 -7.5 -63.5 -10.5s-47.5 -4.5 -73.5 -4.5c-90 0 -157.833 21.5 -203.5 64.5s-68.5 113.167 -68.5 210.5c0 48.667 5.66699 90.334 17 125.001s27.833 63.167 49.5 85.5
s48.334 38.666 80.001 48.999s67.834 15.5 108.501 15.5s76.834 -5.16699 108.501 -15.5s58.334 -26.666 80.001 -48.999s38.167 -50.833 49.5 -85.5s17 -76.334 17 -125.001c-32 -17.333 -62.833 -28.166 -92.5 -32.499s-62.167 -6.5 -97.5 -6.5h-122
c0.666992 -11.333 3.16699 -20.166 7.5 -26.499s10 -11 17 -14s15 -4.66699 24 -5s18.5 -0.5 28.5 -0.5c16 0 30.667 0.5 44 1.5s26.5 2.33301 39.5 4s26.333 3.83398 40 6.50098s28.5 6.33398 44.5 11.001zM350.995 304.996c0.666992 14 -0.666992 24.668 -4 32.001
s-7.83301 12.666 -13.5 15.999s-11.667 5.16602 -18 5.49902s-11.833 0.5 -16.5 0.5c-8 0 -16 -0.5 -24 -1.5s-14.833 -3.16699 -20.5 -6.5s-10 -8.66602 -13 -15.999s-3.83301 -17.333 -2.5 -30h112zM475.994 622.997l-24.498 -14c-10.333 -6 -23 -11.833 -38 -17.5
s-32.333 -10.667 -52 -15s-41.834 -6.5 -66.501 -6.5s-46.834 2.16699 -66.501 6.5s-37 9.33301 -52 15s-27.667 11.5 -38 17.5l-24.5 14l49 120l56 -24c22 -9.33301 47.333 -14 76 -14s54 4.66699 76 14l56 24z" />
    <glyph glyph-name="Edotaccent" unicode="&#x116;" horiz-adv-x="579" 
d="M50 0v710h479v-205h-259v-50h239v-200h-239v-50h259v-205h-479zM289 750c-13.333 0 -25.666 1.16699 -36.999 3.5s-21.333 6.83301 -30 13.5s-15.5 16.167 -20.5 28.5s-7.5 28.833 -7.5 49.5s2.5 37.167 7.5 49.5s11.833 21.833 20.5 28.5s18.667 11.167 30 13.5
s23.666 3.5 36.999 3.5c12.667 0 24.834 -1.16699 36.501 -3.5s21.834 -6.83301 30.501 -13.5s15.5 -16.167 20.5 -28.5s7.5 -28.833 7.5 -49.5s-2.5 -37.167 -7.5 -49.5s-11.833 -21.833 -20.5 -28.5s-18.834 -11.167 -30.501 -13.5s-23.834 -3.5 -36.501 -3.5z" />
    <glyph glyph-name="edotaccent" unicode="&#x117;" horiz-adv-x="590" 
d="M539 30c-10 -4 -22.6719 -8.33691 -38.0049 -13.0039s-32.666 -9 -51.999 -13s-40.5 -7.5 -63.5 -10.5s-47.5 -4.5 -73.5 -4.5c-90 0 -157.833 21.5 -203.5 64.5s-68.5 113.167 -68.5 210.5c0 48.667 5.66699 90.334 17 125.001s27.833 63.167 49.5 85.5
s48.334 38.666 80.001 48.999s67.834 15.5 108.501 15.5s76.834 -5.16699 108.501 -15.5s58.334 -26.666 80.001 -48.999s38.167 -50.833 49.5 -85.5s17 -76.334 17 -125.001c-32 -17.333 -62.833 -28.166 -92.5 -32.499s-62.167 -6.5 -97.5 -6.5h-122
c0.666992 -11.333 3.16699 -20.166 7.5 -26.499s10 -11 17 -14s15 -4.66699 24 -5s18.5 -0.5 28.5 -0.5c16 0 30.667 0.5 44 1.5s26.5 2.33301 39.5 4s26.333 3.83398 40 6.50098s28.5 6.33398 44.5 11.001zM350.995 304.996c0.666992 14 -0.666992 24.668 -4 32.001
s-7.83301 12.666 -13.5 15.999s-11.667 5.16602 -18 5.49902s-11.833 0.5 -16.5 0.5c-8 0 -16 -0.5 -24 -1.5s-14.833 -3.16699 -20.5 -6.5s-10 -8.66602 -13 -15.999s-3.83301 -17.333 -2.5 -30h112zM294.994 569.997c-13.333 0 -25.666 1.16699 -36.999 3.5
s-21.333 6.83301 -30 13.5s-15.5 16.167 -20.5 28.5s-7.5 28.833 -7.5 49.5s2.5 37.167 7.5 49.5s11.833 21.833 20.5 28.5s18.667 11.167 30 13.5s23.666 3.5 36.999 3.5c12.667 0 24.834 -1.16699 36.501 -3.5s21.834 -6.83301 30.501 -13.5s15.5 -16.167 20.5 -28.5
s7.5 -28.833 7.5 -49.5s-2.5 -37.167 -7.5 -49.5s-11.833 -21.833 -20.5 -28.5s-18.834 -11.167 -30.501 -13.5s-23.834 -3.5 -36.501 -3.5z" />
    <glyph glyph-name="Eogonek" unicode="&#x118;" horiz-adv-x="579" 
d="M525 -220c-9.33301 -6 -19.668 -10.8301 -31.001 -14.4971s-26.666 -5.5 -45.999 -5.5c-40 0 -68.667 8.83301 -86 26.5s-26 45.5 -26 83.5c0 18.667 2.33301 34.167 7 46.5s11.667 22.666 21 30.999s21 15.5 35 21.5l49 20c4 1.33301 8.66699 2.66602 14 3.99902
s11 3.66602 17 6.99902h-429v710h479v-205h-259v-50h239v-200h-239v-50h259v-211c0 -17.333 -3.5 -31.5 -10.5 -42.5s-19.167 -19.5 -36.5 -25.5l-30 -11c-17.333 -6 -28.333 -12 -33 -18s-7 -15 -7 -27c0 -12.667 2.16699 -21.667 6.5 -27s15.5 -8 33.5 -8
c7.33301 0 14.333 0.666992 21 2s15 4 25 8z" />
    <glyph glyph-name="eogonek" unicode="&#x119;" horiz-adv-x="590" 
d="M498 -215c-9.33301 -6 -19.667 -10.8379 -31 -14.5049s-26.666 -5.5 -45.999 -5.5c-40 0 -68.667 8.66699 -86 26s-26 44.666 -26 81.999c0 18.667 2.16699 34.167 6.5 46.5s11.166 22.833 20.499 31.5s21 16.334 35 23.001s30.667 13.667 50 21
c14 5.33301 19.333 8 16 8s-12 -1 -26 -3s-31.667 -4.33301 -53 -7s-43.333 -4 -66 -4c-38 0 -72.5 5.16699 -103.5 15.5s-57.5 26.833 -79.5 49.5s-39 51.5 -51 86.5s-18 77.5 -18 127.5c0 95.333 22.333 164.333 67 207s107.667 64 189 64
c40.667 0 76.667 -5.16699 108 -15.5s57.833 -26.666 79.5 -48.999s38.167 -50.833 49.5 -85.5s17 -76.334 17 -125.001c-32 -17.333 -62.833 -28.166 -92.5 -32.499s-62.167 -6.5 -97.5 -6.5h-122c0.666992 -11.333 3.16699 -20.166 7.5 -26.499s10 -11 17 -14
s15 -4.66699 24 -5s18.5 -0.5 28.5 -0.5c16 0 30.667 0.5 44 1.5s26.5 2.33301 39.5 4s26.333 3.83398 40 6.50098s28.5 6.33398 44.5 11.001l64 -200l-27 -17.5l-33.5 -22l-34 -22.5c-11 -7.33301 -20.167 -13.666 -27.5 -18.999
c-9.33301 -6.66699 -16.666 -12.334 -21.999 -17.001s-9.33301 -8.66699 -12 -12s-4.33398 -6.66602 -5.00098 -9.99902s-1 -7.33301 -1 -12c0 -10 2.16699 -17.5 6.5 -22.5s15.5 -7.5 33.5 -7.5c7.33301 0 14.333 0.666992 21 2s15 4 25 8zM350.999 304.995
c0.666992 14 -0.665039 24.668 -3.99805 32.001s-7.83301 12.666 -13.5 15.999s-11.667 5.16602 -18 5.49902s-11.833 0.5 -16.5 0.5c-8.66699 0 -16.834 -0.5 -24.501 -1.5s-14.5 -3.16699 -20.5 -6.5s-10.333 -8.66602 -13 -15.999s-3.33398 -17.333 -2.00098 -30h112z
" />
    <glyph glyph-name="Ecaron" unicode="&#x11a;" horiz-adv-x="579" 
d="M50 0v710h479v-205h-259v-50h239v-200h-239v-50h259v-205h-479zM289 750l-187 59l61 129l126 -75l126 75l61 -129z" />
    <glyph glyph-name="ecaron" unicode="&#x11b;" horiz-adv-x="590" 
d="M539 30c-10 -4 -22.6719 -8.33691 -38.0049 -13.0039s-32.666 -9 -51.999 -13s-40.5 -7.5 -63.5 -10.5s-47.5 -4.5 -73.5 -4.5c-90 0 -157.833 21.5 -203.5 64.5s-68.5 113.167 -68.5 210.5c0 48.667 5.66699 90.334 17 125.001s27.833 63.167 49.5 85.5
s48.334 38.666 80.001 48.999s67.834 15.5 108.501 15.5s76.834 -5.16699 108.501 -15.5s58.334 -26.666 80.001 -48.999s38.167 -50.833 49.5 -85.5s17 -76.334 17 -125.001c-32 -17.333 -62.833 -28.166 -92.5 -32.499s-62.167 -6.5 -97.5 -6.5h-122
c0.666992 -11.333 3.16699 -20.166 7.5 -26.499s10 -11 17 -14s15 -4.66699 24 -5s18.5 -0.5 28.5 -0.5c16 0 30.667 0.5 44 1.5s26.5 2.33301 39.5 4s26.333 3.83398 40 6.50098s28.5 6.33398 44.5 11.001zM350.995 304.996c0.666992 14 -0.666992 24.668 -4 32.001
s-7.83301 12.666 -13.5 15.999s-11.667 5.16602 -18 5.49902s-11.833 0.5 -16.5 0.5c-8 0 -16 -0.5 -24 -1.5s-14.833 -3.16699 -20.5 -6.5s-10 -8.66602 -13 -15.999s-3.83301 -17.333 -2.5 -30h112zM294.994 569.997l-187 59l61 129l126 -75l126 75l61 -129z" />
    <glyph glyph-name="Gcircumflex" unicode="&#x11c;" horiz-adv-x="714" 
d="M662 55c-8.66699 -5.33301 -21.501 -11.834 -38.501 -19.501s-37 -14.834 -60 -21.501s-48 -12.167 -75 -16.5s-54.5 -6.5 -82.5 -6.5c-61.333 0 -114.833 7 -160.5 21s-83.667 35.667 -114 65s-53.166 67.166 -68.499 113.499s-23 101.833 -23 166.5s7.66699 120 23 166
s38.5 83.833 69.5 113.5s69.667 51.334 116 65.001s100.833 20.5 163.5 20.5c28 0 54.333 -2.5 79 -7.5s47 -11 67 -18s37.167 -14.167 51.5 -21.5s25.5 -13.666 33.5 -18.999l-76 -187c-13.333 6 -27.5 11.167 -42.5 15.5s-29.833 8 -44.5 11s-28.5 5.16699 -41.5 6.5
s-23.833 2 -32.5 2c-20.667 0 -39.834 -1.33301 -57.501 -4s-33.167 -9 -46.5 -19s-23.833 -24.833 -31.5 -44.5s-11.5 -46.167 -11.5 -79.5s3.83301 -59.666 11.5 -78.999s18.167 -34 31.5 -44s28.833 -16.5 46.5 -19.5s36.834 -4.5 57.501 -4.5v-2
c6.66699 0 15 0.333008 25 1s21 1.66699 33 3v58h-58v170h258v-384zM376.999 824.999l-126 -75l-61 129l187 59l187 -59l-61 -129z" />
    <glyph glyph-name="gcircumflex" unicode="&#x11d;" horiz-adv-x="640" 
d="M155 -16c12 -5.33301 25.4971 -9.66699 40.4971 -13s30 -6 45 -8s29 -3.5 42 -4.5s23.167 -1.5 30.5 -1.5c32.667 0 54.834 4.83301 66.501 14.5s18.167 25.834 19.5 48.501c-18 -8 -33.667 -13.167 -47 -15.5s-30.333 -3.5 -51 -3.5c-46 0 -85.333 4.33301 -118 13
s-59.667 23.167 -81 43.5s-37 47 -47 80s-15 73.833 -15 122.5c0 50 5.16699 92.667 15.5 128s26 64.166 47 86.499s47.167 38.666 78.5 48.999s68.333 15.5 111 15.5c15.333 0 28.833 -0.833008 40.5 -2.5s22.667 -4.5 33 -8.5s20.333 -9.5 30 -16.5
s19.834 -15.833 30.501 -26.5l69 45h95v-486c0 -95.333 -20.833 -164.833 -62.5 -208.5s-108.5 -65.5 -200.5 -65.5c-24 0 -47.833 1.33301 -71.5 4s-46.167 6.33398 -67.5 11.001s-40.666 10 -57.999 16s-31.333 12.333 -42 19zM355.997 178.999
c11.333 0 20.166 2.50098 26.499 7.50098s10.833 11.5 13.5 19.5s4.16699 17.333 4.5 28s0.5 21.667 0.5 33s-0.166992 22 -0.5 32s-1.83301 18.667 -4.5 26s-7.16699 13.166 -13.5 17.499s-15.166 6.5 -26.499 6.5h-41c-19.333 0 -34.666 -0.833008 -45.999 -2.5
s-19.833 -5.33398 -25.5 -11.001s-9.33398 -14.167 -11.001 -25.5s-2.5 -26.666 -2.5 -45.999s0.833008 -34.666 2.5 -45.999s5.33398 -19.833 11.001 -25.5s14.167 -9.33398 25.5 -11.001s26.666 -2.5 45.999 -2.5h41zM319.997 645l-126 -75l-61 129l187 59l187 -59
l-61 -129z" />
    <glyph glyph-name="Gbreve" unicode="&#x11e;" horiz-adv-x="714" 
d="M662 55c-8.66699 -5.33301 -21.501 -11.834 -38.501 -19.501s-37 -14.834 -60 -21.501s-48 -12.167 -75 -16.5s-54.5 -6.5 -82.5 -6.5c-61.333 0 -114.833 7 -160.5 21s-83.667 35.667 -114 65s-53.166 67.166 -68.499 113.499s-23 101.833 -23 166.5s7.66699 120 23 166
s38.5 83.833 69.5 113.5s69.667 51.334 116 65.001s100.833 20.5 163.5 20.5c28 0 54.333 -2.5 79 -7.5s47 -11 67 -18s37.167 -14.167 51.5 -21.5s25.5 -13.666 33.5 -18.999l-76 -187c-13.333 6 -27.5 11.167 -42.5 15.5s-29.833 8 -44.5 11s-28.5 5.16699 -41.5 6.5
s-23.833 2 -32.5 2c-20.667 0 -39.834 -1.33301 -57.501 -4s-33.167 -9 -46.5 -19s-23.833 -24.833 -31.5 -44.5s-11.5 -46.167 -11.5 -79.5s3.83301 -59.666 11.5 -78.999s18.167 -34 31.5 -44s28.833 -16.5 46.5 -19.5s36.834 -4.5 57.501 -4.5v-2
c6.66699 0 15 0.333008 25 1s21 1.66699 33 3v58h-58v170h258v-384zM572.999 802.999l-24.498 -14c-10.333 -6 -23 -11.833 -38 -17.5s-32.333 -10.667 -52 -15s-41.834 -6.5 -66.501 -6.5s-46.834 2.16699 -66.501 6.5s-37 9.33301 -52 15s-27.667 11.5 -38 17.5l-24.5 14
l49 120l56 -24c22 -9.33301 47.333 -14 76 -14s54 4.66699 76 14l56 24z" />
    <glyph glyph-name="gbreve" unicode="&#x11f;" horiz-adv-x="640" 
d="M155 -16c12 -5.33301 25.4971 -9.66699 40.4971 -13s30 -6 45 -8s29 -3.5 42 -4.5s23.167 -1.5 30.5 -1.5c32.667 0 54.834 4.83301 66.501 14.5s18.167 25.834 19.5 48.501c-18 -8 -33.667 -13.167 -47 -15.5s-30.333 -3.5 -51 -3.5c-46 0 -85.333 4.33301 -118 13
s-59.667 23.167 -81 43.5s-37 47 -47 80s-15 73.833 -15 122.5c0 50 5.16699 92.667 15.5 128s26 64.166 47 86.499s47.167 38.666 78.5 48.999s68.333 15.5 111 15.5c15.333 0 28.833 -0.833008 40.5 -2.5s22.667 -4.5 33 -8.5s20.333 -9.5 30 -16.5
s19.834 -15.833 30.501 -26.5l69 45h95v-486c0 -95.333 -20.833 -164.833 -62.5 -208.5s-108.5 -65.5 -200.5 -65.5c-24 0 -47.833 1.33301 -71.5 4s-46.167 6.33398 -67.5 11.001s-40.666 10 -57.999 16s-31.333 12.333 -42 19zM355.997 178.999
c11.333 0 20.166 2.50098 26.499 7.50098s10.833 11.5 13.5 19.5s4.16699 17.333 4.5 28s0.5 21.667 0.5 33s-0.166992 22 -0.5 32s-1.83301 18.667 -4.5 26s-7.16699 13.166 -13.5 17.499s-15.166 6.5 -26.499 6.5h-41c-19.333 0 -34.666 -0.833008 -45.999 -2.5
s-19.833 -5.33398 -25.5 -11.001s-9.33398 -14.167 -11.001 -25.5s-2.5 -26.666 -2.5 -45.999s0.833008 -34.666 2.5 -45.999s5.33398 -19.833 11.001 -25.5s14.167 -9.33398 25.5 -11.001s26.666 -2.5 45.999 -2.5h41zM500.997 623l-24.498 -14
c-10.333 -6 -23 -11.833 -38 -17.5s-32.333 -10.667 -52 -15s-41.834 -6.5 -66.501 -6.5s-46.834 2.16699 -66.501 6.5s-37 9.33301 -52 15s-27.667 11.5 -38 17.5l-24.5 14l49 120l56 -24c22 -9.33301 47.333 -14 76 -14s54 4.66699 76 14l56 24z" />
    <glyph glyph-name="Gdotaccent" unicode="&#x120;" horiz-adv-x="714" 
d="M662 55c-8.66699 -5.33301 -21.501 -11.834 -38.501 -19.501s-37 -14.834 -60 -21.501s-48 -12.167 -75 -16.5s-54.5 -6.5 -82.5 -6.5c-61.333 0 -114.833 7 -160.5 21s-83.667 35.667 -114 65s-53.166 67.166 -68.499 113.499s-23 101.833 -23 166.5s7.66699 120 23 166
s38.5 83.833 69.5 113.5s69.667 51.334 116 65.001s100.833 20.5 163.5 20.5c28 0 54.333 -2.5 79 -7.5s47 -11 67 -18s37.167 -14.167 51.5 -21.5s25.5 -13.666 33.5 -18.999l-76 -187c-13.333 6 -27.5 11.167 -42.5 15.5s-29.833 8 -44.5 11s-28.5 5.16699 -41.5 6.5
s-23.833 2 -32.5 2c-20.667 0 -39.834 -1.33301 -57.501 -4s-33.167 -9 -46.5 -19s-23.833 -24.833 -31.5 -44.5s-11.5 -46.167 -11.5 -79.5s3.83301 -59.666 11.5 -78.999s18.167 -34 31.5 -44s28.833 -16.5 46.5 -19.5s36.834 -4.5 57.501 -4.5v-2
c6.66699 0 15 0.333008 25 1s21 1.66699 33 3v58h-58v170h258v-384zM375.999 749.999c-13.333 0 -25.666 1.16699 -36.999 3.5s-21.333 6.83301 -30 13.5s-15.5 16.167 -20.5 28.5s-7.5 28.833 -7.5 49.5s2.5 37.167 7.5 49.5s11.833 21.833 20.5 28.5
s18.667 11.167 30 13.5s23.666 3.5 36.999 3.5c12.667 0 24.834 -1.16699 36.501 -3.5s21.834 -6.83301 30.501 -13.5s15.5 -16.167 20.5 -28.5s7.5 -28.833 7.5 -49.5s-2.5 -37.167 -7.5 -49.5s-11.833 -21.833 -20.5 -28.5s-18.834 -11.167 -30.501 -13.5
s-23.834 -3.5 -36.501 -3.5z" />
    <glyph glyph-name="gdotaccent" unicode="&#x121;" horiz-adv-x="640" 
d="M155 -16c12 -5.33301 25.4971 -9.66699 40.4971 -13s30 -6 45 -8s29 -3.5 42 -4.5s23.167 -1.5 30.5 -1.5c32.667 0 54.834 4.83301 66.501 14.5s18.167 25.834 19.5 48.501c-18 -8 -33.667 -13.167 -47 -15.5s-30.333 -3.5 -51 -3.5c-46 0 -85.333 4.33301 -118 13
s-59.667 23.167 -81 43.5s-37 47 -47 80s-15 73.833 -15 122.5c0 50 5.16699 92.667 15.5 128s26 64.166 47 86.499s47.167 38.666 78.5 48.999s68.333 15.5 111 15.5c15.333 0 28.833 -0.833008 40.5 -2.5s22.667 -4.5 33 -8.5s20.333 -9.5 30 -16.5
s19.834 -15.833 30.501 -26.5l69 45h95v-486c0 -95.333 -20.833 -164.833 -62.5 -208.5s-108.5 -65.5 -200.5 -65.5c-24 0 -47.833 1.33301 -71.5 4s-46.167 6.33398 -67.5 11.001s-40.666 10 -57.999 16s-31.333 12.333 -42 19zM355.997 178.999
c11.333 0 20.166 2.50098 26.499 7.50098s10.833 11.5 13.5 19.5s4.16699 17.333 4.5 28s0.5 21.667 0.5 33s-0.166992 22 -0.5 32s-1.83301 18.667 -4.5 26s-7.16699 13.166 -13.5 17.499s-15.166 6.5 -26.499 6.5h-41c-19.333 0 -34.666 -0.833008 -45.999 -2.5
s-19.833 -5.33398 -25.5 -11.001s-9.33398 -14.167 -11.001 -25.5s-2.5 -26.666 -2.5 -45.999s0.833008 -34.666 2.5 -45.999s5.33398 -19.833 11.001 -25.5s14.167 -9.33398 25.5 -11.001s26.666 -2.5 45.999 -2.5h41zM319.997 570c-13.333 0 -25.666 1.16699 -36.999 3.5
s-21.333 6.83301 -30 13.5s-15.5 16.167 -20.5 28.5s-7.5 28.833 -7.5 49.5s2.5 37.167 7.5 49.5s11.833 21.833 20.5 28.5s18.667 11.167 30 13.5s23.666 3.5 36.999 3.5c12.667 0 24.834 -1.16699 36.501 -3.5s21.834 -6.83301 30.501 -13.5s15.5 -16.167 20.5 -28.5
s7.5 -28.833 7.5 -49.5s-2.5 -37.167 -7.5 -49.5s-11.833 -21.833 -20.5 -28.5s-18.834 -11.167 -30.501 -13.5s-23.834 -3.5 -36.501 -3.5z" />
    <glyph glyph-name="Hcircumflex" unicode="&#x124;" horiz-adv-x="728" 
d="M458 0v250h-188v-250h-220v710h220v-250h188v250h220v-710h-220zM364 825l-126 -75l-61 129l187 59l187 -59l-61 -129z" />
    <glyph glyph-name="hcircumflex" unicode="&#x125;" horiz-adv-x="620" 
d="M390 0v266.001c0 14 -0.833008 26.333 -2.5 37s-5.33398 19.5 -11.001 26.5s-14.167 12.333 -25.5 16s-26.666 5.5 -45.999 5.5h-21c-11.333 0 -20.166 -2.5 -26.499 -7.5s-10.833 -11.5 -13.5 -19.5s-4.16699 -17.333 -4.5 -28s-0.5 -21.667 -0.5 -33v-263h-189v710
l21 9c26 11.333 51.167 19.333 75.5 24s50.5 7 78.5 7h15v-231c18.667 8 33.667 13.333 45 16s22.666 4 33.999 4c46 0 85.333 -4.83301 118 -14.5s59.667 -25.334 81 -47.001s37 -49.5 47 -83.5s15 -75.333 15 -124v-270h-190zM460 645.001l-126 -75l-61 129l187 59
l187 -59l-61 -129z" />
    <glyph glyph-name="Itilde" unicode="&#x128;" horiz-adv-x="320" 
d="M50 0v710h220v-710h-220zM298 803c-8.66699 -12 -20.334 -21.499 -35.001 -28.499s-30 -10.5 -46 -10.5c-10 0 -21.167 1.66699 -33.5 5s-26.166 8.66602 -41.499 15.999l-19.5 9c-5.66699 2.66699 -10.167 4 -13.5 4c-2.66699 0 -5.16699 -1 -7.5 -3
s-4.5 -4.33301 -6.5 -7l-29 -35l-70 86l29 40c8.66699 11.333 20 20.666 34 27.999s29.667 11 47 11c14.667 0 28.167 -2.16699 40.5 -6.5s23.833 -9.16602 34.5 -14.499l20 -9c6 -2.66699 10.333 -4 13 -4c2 0 4.33301 1 7 3s5 4.33301 7 7l29 35l69 -86z" />
    <glyph glyph-name="itilde" unicode="&#x129;" horiz-adv-x="290" 
d="M50 0v490l21 9c26 11.333 51.167 19.333 75.5 24s50.5 7 78.5 7h15v-530h-190zM283 623c-8.66699 -12 -20.334 -21.499 -35.001 -28.499s-30 -10.5 -46 -10.5c-10 0 -21.167 1.66699 -33.5 5s-26.166 8.66602 -41.499 15.999l-19.5 9c-5.66699 2.66699 -10.167 4 -13.5 4
c-2.66699 0 -5.16699 -1 -7.5 -3s-4.5 -4.33301 -6.5 -7l-29 -35l-70 86l29 40c8.66699 11.333 20 20.666 34 27.999s29.667 11 47 11c14.667 0 28.167 -2.16699 40.5 -6.5s23.833 -9.16602 34.5 -14.499l20 -9c6 -2.66699 10.333 -4 13 -4c2 0 4.33301 1 7 3s5 4.33301 7 7
l29 35l69 -86z" />
    <glyph glyph-name="Imacron" unicode="&#x12a;" horiz-adv-x="320" 
d="M50 0v710h220v-710h-220zM-39 790v100h400v-100h-400z" />
    <glyph glyph-name="imacron" unicode="&#x12b;" horiz-adv-x="290" 
d="M50 0v490l21 9c26 11.333 51.167 19.333 75.5 24s50.5 7 78.5 7h15v-530h-190zM-54 610v100h400v-100h-400z" />
    <glyph glyph-name="Ibreve" unicode="&#x12c;" horiz-adv-x="320" 
d="M50 0v710h220v-710h-220zM342 803l-24.498 -14c-10.333 -6 -23 -11.833 -38 -17.5s-32.333 -10.667 -52 -15s-41.834 -6.5 -66.501 -6.5s-46.834 2.16699 -66.501 6.5s-37 9.33301 -52 15s-27.667 11.5 -38 17.5l-24.5 14l49 120l56 -24c22 -9.33301 47.333 -14 76 -14
s54 4.66699 76 14l56 24z" />
    <glyph glyph-name="ibreve" unicode="&#x12d;" horiz-adv-x="290" 
d="M50 0v490l21 9c26 11.333 51.167 19.333 75.5 24s50.5 7 78.5 7h15v-530h-190zM327 623l-24.498 -14c-10.333 -6 -23 -11.833 -38 -17.5s-32.333 -10.667 -52 -15s-41.834 -6.5 -66.501 -6.5s-46.834 2.16699 -66.501 6.5s-37 9.33301 -52 15s-27.667 11.5 -38 17.5
l-24.5 14l49 120l56 -24c22 -9.33301 47.333 -14 76 -14s54 4.66699 76 14l56 24z" />
    <glyph glyph-name="Iogonek" unicode="&#x12e;" horiz-adv-x="320" 
d="M266 -220c-9.33301 -6 -19.668 -10.8301 -31.001 -14.4971s-26.666 -5.5 -45.999 -5.5c-40 0 -68.667 8.83301 -86 26.5s-26 45.5 -26 83.5c0 18.667 2.33301 34.167 7 46.5s11.667 22.666 21 30.999s21 15.5 35 21.5l49 20c4 1.33301 8.66699 2.66602 14 3.99902
s11 3.66602 17 6.99902h-170v710h220v-716c0 -17.333 -3.5 -31.5 -10.5 -42.5s-19.167 -19.5 -36.5 -25.5l-30 -11c-17.333 -6 -28.333 -12 -33 -18s-7 -15 -7 -27c0 -12.667 2.16699 -21.667 6.5 -27s15.5 -8 33.5 -8c7.33301 0 14.333 0.666992 21 2s15 4 25 8z" />
    <glyph glyph-name="iogonek" unicode="&#x12f;" horiz-adv-x="290" 
d="M238 -220c-9.33301 -6 -19.6689 -10.8301 -31.002 -14.4971s-26.666 -5.5 -45.999 -5.5c-40 0 -68.667 8.83301 -86 26.5s-26 45.5 -26 83.5c0 18.667 2.33301 34.167 7 46.5s11.667 22.666 21 30.999s21 15.5 35 21.5l49 20c4 1.33301 8.66699 2.66602 14 3.99902
s11 3.66602 17 6.99902h-142v490l21 9c26 11.333 51.167 19.333 75.5 24s50.5 7 78.5 7h15v-536c0 -17.333 -3.16699 -31.5 -9.5 -42.5s-18.166 -19.5 -35.499 -25.5l-30 -11c-17.333 -6 -28.333 -12 -33 -18s-7 -15 -7 -27c0 -12.667 2.16699 -21.667 6.5 -27
s15.5 -8 33.5 -8c7.33301 0 14.333 0.666992 21 2s15 4 25 8zM144.997 550.003c-13.333 0 -25.666 1.16699 -36.999 3.5s-21.333 6.83301 -30 13.5s-15.5 16.167 -20.5 28.5s-7.5 28.833 -7.5 49.5s2.5 37.167 7.5 49.5s11.833 21.833 20.5 28.5s18.667 11.167 30 13.5
s23.666 3.5 36.999 3.5c12.667 0 24.834 -1.16699 36.501 -3.5s21.834 -6.83301 30.501 -13.5s15.5 -16.167 20.5 -28.5s7.5 -28.833 7.5 -49.5s-2.5 -37.167 -7.5 -49.5s-11.833 -21.833 -20.5 -28.5s-18.834 -11.167 -30.501 -13.5s-23.834 -3.5 -36.501 -3.5z" />
    <glyph glyph-name="Idotaccent" unicode="&#x130;" horiz-adv-x="320" 
d="M50 0v710h220v-710h-220zM160 750c-13.333 0 -25.666 1.16699 -36.999 3.5s-21.333 6.83301 -30 13.5s-15.5 16.167 -20.5 28.5s-7.5 28.833 -7.5 49.5s2.5 37.167 7.5 49.5s11.833 21.833 20.5 28.5s18.667 11.167 30 13.5s23.666 3.5 36.999 3.5
c12.667 0 24.834 -1.16699 36.501 -3.5s21.834 -6.83301 30.501 -13.5s15.5 -16.167 20.5 -28.5s7.5 -28.833 7.5 -49.5s-2.5 -37.167 -7.5 -49.5s-11.833 -21.833 -20.5 -28.5s-18.834 -11.167 -30.501 -13.5s-23.834 -3.5 -36.501 -3.5z" />
    <glyph glyph-name="dotlessi" unicode="&#x131;" horiz-adv-x="290" 
d="M50 0v490l21 9c26 11.333 51.167 19.333 75.5 24s50.5 7 78.5 7h15v-530h-190z" />
    <glyph glyph-name="IJ" unicode="&#x132;" horiz-adv-x="802" 
d="M50 0v710h220v-710h-220zM532 710h219.999v-491c0 -45.333 -6.66699 -82.833 -20 -112.5s-30.5 -53.167 -51.5 -70.5s-44.5 -29.5 -70.5 -36.5s-51.667 -10.5 -77 -10.5c-48 0 -87.833 4.5 -119.5 13.5s-59.5 21.167 -83.5 36.5l69 188
c24.667 -11.333 45.334 -18.666 62.001 -21.999s34.667 -5 54 -5c6.66699 0 11.167 1.66699 13.5 5s3.5 6.66602 3.5 9.99902v495z" />
    <glyph glyph-name="ij" unicode="&#x133;" horiz-adv-x="557" 
d="M50 0v490l21 9c26 11.333 51.167 19.333 75.5 24s50.5 7 78.5 7h15v-530h-190zM145 550c-13.333 0 -25.666 1.16699 -36.999 3.5s-21.333 6.83301 -30 13.5s-15.5 16.167 -20.5 28.5s-7.5 28.833 -7.5 49.5s2.5 37.167 7.5 49.5s11.833 21.833 20.5 28.5
s18.667 11.167 30 13.5s23.666 3.5 36.999 3.5c12.667 0 24.834 -1.16699 36.501 -3.5s21.834 -6.83301 30.501 -13.5s15.5 -16.167 20.5 -28.5s7.5 -28.833 7.5 -49.5s-2.5 -37.167 -7.5 -49.5s-11.833 -21.833 -20.5 -28.5s-18.834 -11.167 -30.501 -13.5
s-23.834 -3.5 -36.501 -3.5zM242 -29c9.33301 -4.66699 16.5 -7.66699 21.5 -9s11.833 -2 20.5 -2c6.66699 0 12.167 0.5 16.5 1.5s7.83301 3.33301 10.5 7s4.5 9.16699 5.5 16.5s1.5 17.333 1.5 30v475l21 9c26 11.333 51.167 19.333 75.5 24s50.5 7 78.5 7h15v-515
c0 -48.667 -4.16699 -88.834 -12.5 -120.501s-20.666 -56.667 -36.999 -75s-37 -31.166 -62 -38.499s-53.833 -11 -86.5 -11c-24.667 0 -46.834 2.33301 -66.501 7s-42.5 14.667 -68.5 30zM413 550c-13.333 0 -25.666 1.16699 -36.999 3.5s-21.333 6.83301 -30 13.5
s-15.5 16.167 -20.5 28.5s-7.5 28.833 -7.5 49.5s2.5 37.167 7.5 49.5s11.833 21.833 20.5 28.5s18.667 11.167 30 13.5s23.666 3.5 36.999 3.5c12.667 0 24.834 -1.16699 36.501 -3.5s21.834 -6.83301 30.501 -13.5s15.5 -16.167 20.5 -28.5s7.5 -28.833 7.5 -49.5
s-2.5 -37.167 -7.5 -49.5s-11.833 -21.833 -20.5 -28.5s-18.834 -11.167 -30.501 -13.5s-23.834 -3.5 -36.501 -3.5z" />
    <glyph glyph-name="Jcircumflex" unicode="&#x134;" horiz-adv-x="482" 
d="M212 710h219.999v-491c0 -45.333 -6.66699 -82.833 -20 -112.5s-30.5 -53.167 -51.5 -70.5s-44.5 -29.5 -70.5 -36.5s-51.667 -10.5 -77 -10.5c-48 0 -87.833 4.5 -119.5 13.5s-59.5 21.167 -83.5 36.5l69 188c24.667 -11.333 45.334 -18.666 62.001 -21.999
s34.667 -5 54 -5c6.66699 0 11.167 1.66699 13.5 5s3.5 6.66602 3.5 9.99902v495zM296.999 825l-126 -75l-61 129l187 59l187 -59l-61 -129z" />
    <glyph glyph-name="jcircumflex" unicode="&#x135;" horiz-adv-x="357" 
d="M42 -29c9.33301 -4.66699 16.5 -7.66699 21.5 -9s11.833 -2 20.5 -2c6.66699 0 12.167 0.5 16.5 1.5s7.83301 3.33301 10.5 7s4.5 9.16699 5.5 16.5s1.5 17.333 1.5 30v475l21 9c26 11.333 51.167 19.333 75.5 24s50.5 7 78.5 7h15v-515
c0 -48.667 -4.16699 -88.834 -12.5 -120.501s-20.666 -56.667 -36.999 -75s-37 -31.166 -62 -38.499s-53.833 -11 -86.5 -11c-24.667 0 -46.834 2.33301 -66.501 7s-42.5 14.667 -68.5 30zM213 645l-126 -75l-61 129l187 59l187 -59l-61 -129z" />
    <glyph glyph-name="kgreenlandic" unicode="&#x138;" horiz-adv-x="611" 
d="M365 0l-105 175h-20v-175h-190v530h190v-174h20l107 174h229l-184 -265l184 -265h-231z" />
    <glyph glyph-name="Lacute" unicode="&#x139;" horiz-adv-x="498" 
d="M50 0v710h220v-500h218v-210h-438zM150 750l-30 64l196 124l61 -129z" />
    <glyph glyph-name="lacute" unicode="&#x13a;" horiz-adv-x="383" 
d="M383 27c-26 -15.333 -48.833 -25.333 -68.5 -30s-41.834 -7 -66.501 -7c-33.333 0 -62.333 3.66699 -87 11s-45.167 20.166 -61.5 38.499s-28.666 43.333 -36.999 75s-12.5 71.834 -12.5 120.501v475l21 9c26 11.333 51.167 19.333 75.5 24s50.5 7 78.5 7h15v-515
c0 -12.667 0.5 -22.667 1.5 -30s2.83301 -12.833 5.5 -16.5s6.16699 -6 10.5 -7s9.83301 -1.5 16.5 -1.5c8.66699 0 15.5 0.666992 20.5 2s12.167 4.33301 21.5 9zM136 771l-30 64l196 124l61 -129z" />
    <glyph glyph-name="Lcaron" unicode="&#x13d;" horiz-adv-x="498" 
d="M50 0v710h220v-500h218v-210h-438zM296 706l30.0029 11.002c13.333 5.33301 26.166 11 38.499 17s22.166 8 29.499 6l11 -3l5 4c-20 4.66699 -36.333 14.167 -49 28.5s-19 37.5 -19 69.5c0 20.667 2.83301 37.667 8.5 51s13.5 23.666 23.5 30.999s21.5 12.333 34.5 15
s26.833 4 41.5 4c17.333 0 32.666 -1.66699 45.999 -5s24.333 -9.33301 33 -18s15.167 -20.334 19.5 -35.001s6.5 -33.334 6.5 -56.001c0 -26 -4 -53.5 -12 -82.5s-24.667 -56.833 -50 -83.5c-24 -23.333 -48.667 -41.666 -74 -54.999s-52 -24 -80 -32z" />
    <glyph glyph-name="lcaron" unicode="&#x13e;" horiz-adv-x="383" 
d="M383 27c-26 -15.333 -48.833 -25.333 -68.5 -30s-41.834 -7 -66.501 -7c-33.333 0 -62.333 3.66699 -87 11s-45.167 20.166 -61.5 38.499s-28.666 43.333 -36.999 75s-12.5 71.834 -12.5 120.501v475l21 9c26 11.333 51.167 19.333 75.5 24s50.5 7 78.5 7h15v-515
c0 -12.667 0.5 -22.667 1.5 -30s2.83301 -12.833 5.5 -16.5s6.16699 -6 10.5 -7s9.83301 -1.5 16.5 -1.5c8.66699 0 15.5 0.666992 20.5 2s12.167 4.33301 21.5 9zM296 706l30.0029 11.002c13.333 5.33301 26.166 11 38.499 17s22.166 8 29.499 6l11 -3l5 4
c-20 4.66699 -36.333 14.167 -49 28.5s-19 37.5 -19 69.5c0 20.667 2.83301 37.667 8.5 51s13.5 23.666 23.5 30.999s21.5 12.333 34.5 15s26.833 4 41.5 4c17.333 0 32.666 -1.66699 45.999 -5s24.333 -9.33301 33 -18s15.167 -20.334 19.5 -35.001
s6.5 -33.334 6.5 -56.001c0 -26 -4 -53.5 -12 -82.5s-24.667 -56.833 -50 -83.5c-24 -23.333 -48.667 -41.666 -74 -54.999s-52 -24 -80 -32z" />
    <glyph glyph-name="Lslash" unicode="&#x141;" horiz-adv-x="589" 
d="M141 0v232l-70 -40l-61 106l131 75v337h220v-210l98 57l61 -106l-159 -92v-149h218v-210h-438z" />
    <glyph glyph-name="lslash" unicode="&#x142;" horiz-adv-x="425" 
d="M425 27c-26 -15.333 -48.833 -25.333 -68.5 -30s-41.834 -7 -66.501 -7c-33.333 0 -62.333 3.66699 -87 11s-45.167 20.166 -61.5 38.499s-28.666 43.333 -36.999 75s-12.5 71.834 -12.5 120.501v21l-50 -28l-61 106l111 63v313l21 9c26 11.333 51.167 19.333 75.5 24
s50.5 7 78.5 7h15v-244l88 51l61 -106l-149 -86v-130c0 -12.667 0.5 -22.667 1.5 -30s2.83301 -12.833 5.5 -16.5s6.16699 -6 10.5 -7s9.83301 -1.5 16.5 -1.5c8.66699 0 15.5 0.666992 20.5 2s12.167 4.33301 21.5 9z" />
    <glyph glyph-name="Nacute" unicode="&#x143;" horiz-adv-x="722" 
d="M501 0l-251 364l10 -85c3.33301 -28 5.83301 -54.5 7.5 -79.5s2.5 -51.5 2.5 -79.5v-120h-220v710h171l251 -367l-10 88c-3.33301 28 -5.83301 54.5 -7.5 79.5s-2.5 51.5 -2.5 79.5v120h220v-710h-171zM262 750l-30 64l196 124l61 -129z" />
    <glyph glyph-name="nacute" unicode="&#x144;" horiz-adv-x="620" 
d="M390 0l-0.00292969 266.001c0 19.333 -0.833008 34.666 -2.5 45.999s-5.33398 19.833 -11.001 25.5s-14.167 9.33398 -25.5 11.001s-26.666 2.5 -45.999 2.5h-21c-11.333 0 -20.166 -2.5 -26.499 -7.5s-10.833 -11.5 -13.5 -19.5s-4.16699 -17.333 -4.5 -28
s-0.5 -21.667 -0.5 -33v-263h-189v530h95l69 -45c10.667 11.333 20.334 20.666 29.001 27.999s17.334 13 26.001 17s18.167 6.83301 28.5 8.5s22.833 2.5 37.5 2.5c40 0 75.333 -5 106 -15s56.167 -26 76.5 -48s35.833 -50.5 46.5 -85.5s16 -77.167 16 -126.5v-266h-190z
M210.997 570.001l-30 64l196 124l61 -129z" />
    <glyph glyph-name="Ncaron" unicode="&#x147;" horiz-adv-x="722" 
d="M501 0l-251 364l10 -85c3.33301 -28 5.83301 -54.5 7.5 -79.5s2.5 -51.5 2.5 -79.5v-120h-220v710h171l251 -367l-10 88c-3.33301 28 -5.83301 54.5 -7.5 79.5s-2.5 51.5 -2.5 79.5v120h220v-710h-171zM361 750l-187 59l61 129l126 -75l126 75l61 -129z" />
    <glyph glyph-name="ncaron" unicode="&#x148;" horiz-adv-x="620" 
d="M390 0l-0.00292969 266.001c0 19.333 -0.833008 34.666 -2.5 45.999s-5.33398 19.833 -11.001 25.5s-14.167 9.33398 -25.5 11.001s-26.666 2.5 -45.999 2.5h-21c-11.333 0 -20.166 -2.5 -26.499 -7.5s-10.833 -11.5 -13.5 -19.5s-4.16699 -17.333 -4.5 -28
s-0.5 -21.667 -0.5 -33v-263h-189v530h95l69 -45c10.667 11.333 20.334 20.666 29.001 27.999s17.334 13 26.001 17s18.167 6.83301 28.5 8.5s22.833 2.5 37.5 2.5c40 0 75.333 -5 106 -15s56.167 -26 76.5 -48s35.833 -50.5 46.5 -85.5s16 -77.167 16 -126.5v-266h-190z
M309.997 570.001l-187 59l61 129l126 -75l126 75l61 -129z" />
    <glyph glyph-name="Omacron" unicode="&#x14c;" horiz-adv-x="771" 
d="M386 -10c-56 0 -105.5 7 -148.5 21s-79.167 35.667 -108.5 65s-51.5 67.166 -66.5 113.499s-22.5 101.833 -22.5 166.5s7.5 120.167 22.5 166.5s37.167 84.166 66.5 113.499s65.5 51 108.5 65s92.5 21 148.5 21s105.333 -7 148 -21s78.667 -35.667 108 -65
s51.5 -67.166 66.5 -113.499s22.5 -101.833 22.5 -166.5s-7.5 -120.167 -22.5 -166.5s-37.167 -84.166 -66.5 -113.499s-65.333 -51 -108 -65s-92 -21 -148 -21zM386 209c20 0 38 1.5 54 4.5s29.333 9.5 40 19.5s18.834 24.667 24.501 44s8.5 45.666 8.5 78.999
s-2.83301 59.833 -8.5 79.5s-13.834 34.5 -24.501 44.5s-24 16.333 -40 19s-34 4 -54 4c-20.667 0 -38.834 -1.33301 -54.501 -4s-28.834 -9 -39.501 -19s-18.834 -24.833 -24.501 -44.5s-8.5 -46.167 -8.5 -79.5s2.83301 -59.666 8.5 -78.999s13.834 -34 24.501 -44
s23.834 -16.5 39.501 -19.5s33.834 -4.5 54.501 -4.5zM185 790v100h400v-100h-400z" />
    <glyph glyph-name="omacron" unicode="&#x14d;" 
d="M315 -11c-91.333 0 -160 21.5 -206 64.5s-69 113.167 -69 210.5s23 167.5 69 210.5s114.667 64.5 206 64.5s160 -21.5 206 -64.5s69 -113.167 69 -210.5s-23 -167.5 -69 -210.5s-114.667 -64.5 -206 -64.5zM400 264c0 19.333 -2.16699 34.666 -6.5 45.999
s-10.333 19.833 -18 25.5s-16.667 9.33398 -27 11.001s-21.5 2.5 -33.5 2.5s-23.167 -0.833008 -33.5 -2.5s-19.333 -5.33398 -27 -11.001s-13.667 -14.167 -18 -25.5s-6.5 -26.666 -6.5 -45.999s2.16699 -34.666 6.5 -45.999s10.333 -19.833 18 -25.5
s16.667 -9.33398 27 -11.001s21.5 -2.5 33.5 -2.5s23.167 0.833008 33.5 2.5s19.333 5.33398 27 11.001s13.667 14.167 18 25.5s6.5 26.666 6.5 45.999zM115 610v100h400v-100h-400z" />
    <glyph glyph-name="Obreve" unicode="&#x14e;" horiz-adv-x="771" 
d="M386 -10c-56 0 -105.5 7 -148.5 21s-79.167 35.667 -108.5 65s-51.5 67.166 -66.5 113.499s-22.5 101.833 -22.5 166.5s7.5 120.167 22.5 166.5s37.167 84.166 66.5 113.499s65.5 51 108.5 65s92.5 21 148.5 21s105.333 -7 148 -21s78.667 -35.667 108 -65
s51.5 -67.166 66.5 -113.499s22.5 -101.833 22.5 -166.5s-7.5 -120.167 -22.5 -166.5s-37.167 -84.166 -66.5 -113.499s-65.333 -51 -108 -65s-92 -21 -148 -21zM386 209c20 0 38 1.5 54 4.5s29.333 9.5 40 19.5s18.834 24.667 24.501 44s8.5 45.666 8.5 78.999
s-2.83301 59.833 -8.5 79.5s-13.834 34.5 -24.501 44.5s-24 16.333 -40 19s-34 4 -54 4c-20.667 0 -38.834 -1.33301 -54.501 -4s-28.834 -9 -39.501 -19s-18.834 -24.833 -24.501 -44.5s-8.5 -46.167 -8.5 -79.5s2.83301 -59.666 8.5 -78.999s13.834 -34 24.501 -44
s23.834 -16.5 39.501 -19.5s33.834 -4.5 54.501 -4.5zM566 803l-24.498 -14c-10.333 -6 -23 -11.833 -38 -17.5s-32.333 -10.667 -52 -15s-41.834 -6.5 -66.501 -6.5s-46.834 2.16699 -66.501 6.5s-37 9.33301 -52 15s-27.667 11.5 -38 17.5l-24.5 14l49 120l56 -24
c22 -9.33301 47.333 -14 76 -14s54 4.66699 76 14l56 24z" />
    <glyph glyph-name="obreve" unicode="&#x14f;" 
d="M315 -11c-91.333 0 -160 21.5 -206 64.5s-69 113.167 -69 210.5s23 167.5 69 210.5s114.667 64.5 206 64.5s160 -21.5 206 -64.5s69 -113.167 69 -210.5s-23 -167.5 -69 -210.5s-114.667 -64.5 -206 -64.5zM400 264c0 19.333 -2.16699 34.666 -6.5 45.999
s-10.333 19.833 -18 25.5s-16.667 9.33398 -27 11.001s-21.5 2.5 -33.5 2.5s-23.167 -0.833008 -33.5 -2.5s-19.333 -5.33398 -27 -11.001s-13.667 -14.167 -18 -25.5s-6.5 -26.666 -6.5 -45.999s2.16699 -34.666 6.5 -45.999s10.333 -19.833 18 -25.5
s16.667 -9.33398 27 -11.001s21.5 -2.5 33.5 -2.5s23.167 0.833008 33.5 2.5s19.333 5.33398 27 11.001s13.667 14.167 18 25.5s6.5 26.666 6.5 45.999zM496 623l-24.498 -14c-10.333 -6 -23 -11.833 -38 -17.5s-32.333 -10.667 -52 -15s-41.834 -6.5 -66.501 -6.5
s-46.834 2.16699 -66.501 6.5s-37 9.33301 -52 15s-27.667 11.5 -38 17.5l-24.5 14l49 120l56 -24c22 -9.33301 47.333 -14 76 -14s54 4.66699 76 14l56 24z" />
    <glyph glyph-name="Ohungarumlaut" unicode="&#x150;" horiz-adv-x="771" 
d="M386 -10c-56 0 -105.5 7 -148.5 21s-79.167 35.667 -108.5 65s-51.5 67.166 -66.5 113.499s-22.5 101.833 -22.5 166.5s7.5 120.167 22.5 166.5s37.167 84.166 66.5 113.499s65.5 51 108.5 65s92.5 21 148.5 21s105.333 -7 148 -21s78.667 -35.667 108 -65
s51.5 -67.166 66.5 -113.499s22.5 -101.833 22.5 -166.5s-7.5 -120.167 -22.5 -166.5s-37.167 -84.166 -66.5 -113.499s-65.333 -51 -108 -65s-92 -21 -148 -21zM386 209c20 0 38 1.5 54 4.5s29.333 9.5 40 19.5s18.834 24.667 24.501 44s8.5 45.666 8.5 78.999
s-2.83301 59.833 -8.5 79.5s-13.834 34.5 -24.501 44.5s-24 16.333 -40 19s-34 4 -54 4c-20.667 0 -38.834 -1.33301 -54.501 -4s-28.834 -9 -39.501 -19s-18.834 -24.833 -24.501 -44.5s-8.5 -46.167 -8.5 -79.5s2.83301 -59.666 8.5 -78.999s13.834 -34 24.501 -44
s23.834 -16.5 39.501 -19.5s33.834 -4.5 54.501 -4.5zM151 750l-30 64l196 124l61 -129zM423 750l-30 64l196 124l61 -129z" />
    <glyph glyph-name="ohungarumlaut" unicode="&#x151;" 
d="M315 -11c-91.333 0 -160 21.5 -206 64.5s-69 113.167 -69 210.5s23 167.5 69 210.5s114.667 64.5 206 64.5s160 -21.5 206 -64.5s69 -113.167 69 -210.5s-23 -167.5 -69 -210.5s-114.667 -64.5 -206 -64.5zM400 264c0 19.333 -2.16699 34.666 -6.5 45.999
s-10.333 19.833 -18 25.5s-16.667 9.33398 -27 11.001s-21.5 2.5 -33.5 2.5s-23.167 -0.833008 -33.5 -2.5s-19.333 -5.33398 -27 -11.001s-13.667 -14.167 -18 -25.5s-6.5 -26.666 -6.5 -45.999s2.16699 -34.666 6.5 -45.999s10.333 -19.833 18 -25.5
s16.667 -9.33398 27 -11.001s21.5 -2.5 33.5 -2.5s23.167 0.833008 33.5 2.5s19.333 5.33398 27 11.001s13.667 14.167 18 25.5s6.5 26.666 6.5 45.999zM80 570l-30 64l196 124l61 -129zM352 570l-30 64l196 124l61 -129z" />
    <glyph glyph-name="OE" unicode="&#x152;" horiz-adv-x="1033" 
d="M504 0v2.00195c-36 -8 -75.333 -12 -118 -12c-56 0 -105.5 7 -148.5 21s-79.167 35.667 -108.5 65s-51.5 67.166 -66.5 113.499s-22.5 101.833 -22.5 166.5s7.5 120.167 22.5 166.5s37.167 84.166 66.5 113.499s65.5 51 108.5 65s92.5 21 148.5 21
c44 0 83.333 -4.33301 118 -13v1h479v-205h-259v-50h239v-200h-239v-50h259v-205h-479zM386 209.002c20 0 38 1.5 54 4.5s29.333 9.5 40 19.5s18.834 24.667 24.501 44s8.5 45.666 8.5 78.999s-2.83301 59.833 -8.5 79.5s-13.834 34.5 -24.501 44.5s-24 16.333 -40 19
s-34 4 -54 4c-20.667 0 -38.834 -1.33301 -54.501 -4s-28.834 -9 -39.501 -19s-18.834 -24.833 -24.501 -44.5s-8.5 -46.167 -8.5 -79.5s2.83301 -59.666 8.5 -78.999s13.834 -34 24.501 -44s23.834 -16.5 39.501 -19.5s33.834 -4.5 54.501 -4.5z" />
    <glyph glyph-name="oe" unicode="&#x153;" horiz-adv-x="940" 
d="M889 30c-10 -4 -22.6699 -8.33594 -38.0029 -13.0029s-32.666 -9 -51.999 -13s-40.5 -7.5 -63.5 -10.5s-47.5 -4.5 -73.5 -4.5c-36 0 -68.333 3.16699 -97 9.5s-54 16.5 -76 30.5c-22 -14 -47.5 -24.167 -76.5 -30.5s-61.5 -9.5 -97.5 -9.5
c-91.333 0 -160 21.5 -206 64.5s-69 113.167 -69 210.5s23 167.5 69 210.5s114.667 64.5 206 64.5c72.667 0 130.334 -13 173.001 -39c20 13.333 43.167 23.166 69.5 29.499s55.5 9.5 87.5 9.5c40.667 0 76.834 -5.16699 108.501 -15.5s58.334 -26.666 80.001 -48.999
s38.167 -50.833 49.5 -85.5s17 -76.334 17 -125.001c-32 -17.333 -62.833 -28.166 -92.5 -32.499s-62.167 -6.5 -97.5 -6.5h-122c1.33301 -11.333 4.16602 -20.166 8.49902 -26.499s10 -11 17 -14s14.833 -4.66699 23.5 -5s18 -0.5 28 -0.5c16 0 30.667 0.5 44 1.5
s26.5 2.33301 39.5 4s26.333 3.83398 40 6.50098s28.5 6.33398 44.5 11.001zM399.997 263.997c0 19.333 -2.16699 34.666 -6.5 45.999s-10.333 19.833 -18 25.5s-16.667 9.33398 -27 11.001s-21.5 2.5 -33.5 2.5s-23.167 -0.833008 -33.5 -2.5s-19.333 -5.33398 -27 -11.001
s-13.667 -14.167 -18 -25.5s-6.5 -26.666 -6.5 -45.999s2.16699 -34.666 6.5 -45.999s10.333 -19.833 18 -25.5s16.667 -9.33398 27 -11.001s21.5 -2.5 33.5 -2.5s23.167 0.833008 33.5 2.5s19.333 5.33398 27 11.001s13.667 14.167 18 25.5s6.5 26.666 6.5 45.999z
M699.997 304.997c0.666992 14 -0.666992 24.668 -4 32.001s-7.83301 12.666 -13.5 15.999s-11.667 5.16602 -18 5.49902s-11.833 0.5 -16.5 0.5c-8 0 -16 -0.5 -24 -1.5s-14.833 -3.16699 -20.5 -6.5s-10 -8.66602 -13 -15.999s-3.83301 -17.333 -2.5 -30h112z" />
    <glyph glyph-name="Racute" unicode="&#x154;" horiz-adv-x="685" 
d="M411 0l-84 225h-57v-225h-220v710h342c30 0 59.167 -1.5 87.5 -4.5s53.666 -12.333 75.999 -28s40.333 -40 54 -73s20.5 -79.5 20.5 -139.5c0 -54.667 -8.16699 -98 -24.5 -130s-37.166 -56.667 -62.499 -74l102 -261h-234zM360 415c6.66699 0 13.167 0.333008 19.5 1
s11.666 2.66699 15.999 6s7.83301 8.33301 10.5 15s4 16 4 28s-1.33301 21.333 -4 28s-6.16699 11.667 -10.5 15s-9.66602 5.33301 -15.999 6s-12.833 1 -19.5 1h-90v-100h90zM244 750l-30 64l196 124l61 -129z" />
    <glyph glyph-name="racute" unicode="&#x155;" horiz-adv-x="390" 
d="M50 0l-0.000976562 530h95l69 -45c11.333 13.333 27.333 25.666 48 36.999s44.667 17 72 17c11.333 0 20.333 -1 27 -3s13 -4 19 -6l-30 -181h-65c-11.333 0 -20.166 -2.16699 -26.499 -6.5s-10.833 -10.166 -13.5 -17.499s-4.16699 -16 -4.5 -26s-0.5 -20.667 -0.5 -32
v-267h-190zM163.999 570l-30 64l196 124l61 -129z" />
    <glyph glyph-name="Rcaron" unicode="&#x158;" horiz-adv-x="685" 
d="M411 0l-84 225h-57v-225h-220v710h342c30 0 59.167 -1.5 87.5 -4.5s53.666 -12.333 75.999 -28s40.333 -40 54 -73s20.5 -79.5 20.5 -139.5c0 -54.667 -8.16699 -98 -24.5 -130s-37.166 -56.667 -62.499 -74l102 -261h-234zM360 415c6.66699 0 13.167 0.333008 19.5 1
s11.666 2.66699 15.999 6s7.83301 8.33301 10.5 15s4 16 4 28s-1.33301 21.333 -4 28s-6.16699 11.667 -10.5 15s-9.66602 5.33301 -15.999 6s-12.833 1 -19.5 1h-90v-100h90zM342 750l-187 59l61 129l126 -75l126 75l61 -129z" />
    <glyph glyph-name="rcaron" unicode="&#x159;" horiz-adv-x="390" 
d="M50 0l-0.000976562 530h95l69 -45c11.333 13.333 27.333 25.666 48 36.999s44.667 17 72 17c11.333 0 20.333 -1 27 -3s13 -4 19 -6l-30 -181h-65c-11.333 0 -20.166 -2.16699 -26.499 -6.5s-10.833 -10.166 -13.5 -17.499s-4.16699 -16 -4.5 -26s-0.5 -20.667 -0.5 -32
v-267h-190zM195.999 570l-187 59l61 129l126 -75l126 75l61 -129z" />
    <glyph glyph-name="Sacute" unicode="&#x15a;" horiz-adv-x="629" 
d="M116 234c12.667 -6 28.6709 -11.1689 48.0039 -15.502s38.833 -8 58.5 -11s38.167 -5.16699 55.5 -6.5s30.333 -2 39 -2c17.333 0 28.166 2.5 32.499 7.5s6.5 10.167 6.5 15.5c0 9.33301 -2.33301 16.333 -7 21s-10.667 8.33398 -18 11.001
c-10.667 4 -24.834 6.5 -42.501 7.5s-36.5 3.16699 -56.5 6.5s-40.167 8.83301 -60.5 16.5s-38.833 19.5 -55.5 35.5s-30.167 37.167 -40.5 63.5s-15.5 60.5 -15.5 102.5c0 34.667 4.33301 66.5 13 95.5s23.334 54 44.001 75s47.834 37.167 81.501 48.5s75.167 17 124.5 17
c27.333 0 54.333 -1.66699 81 -5s51.5 -7.66602 74.5 -12.999s43.167 -11.166 60.5 -17.499s30.666 -12.5 39.999 -18.5l-66 -187c-12.667 6 -28.167 11.167 -46.5 15.5s-37 8 -56 11s-37.333 4.83301 -55 5.5s-32.5 0 -44.5 -2c-11.333 -2 -18.833 -5 -22.5 -9
s-5.5 -9 -5.5 -15c0 -8 2.33301 -13.833 7 -17.5s10.667 -6.5 18 -8.5c10.667 -2.66699 25.167 -4.66699 43.5 -6s37.833 -3.83301 58.5 -7.5s41.667 -9.66699 63 -18s40.666 -20.833 57.999 -37.5s31.333 -38.334 42 -65.001s16 -60.667 16 -102
c0 -35.333 -4.66699 -67.5 -14 -96.5s-24.5 -54 -45.5 -75s-48.5 -37.167 -82.5 -48.5s-75.667 -17 -125 -17c-30.667 0 -61 2 -91 6s-57.833 9 -83.5 15s-47.834 12.5 -66.501 19.5s-32.334 13.167 -41.001 18.5zM236.004 749.998l-30 64l196 124l61 -129z" />
    <glyph glyph-name="sacute" unicode="&#x15b;" horiz-adv-x="520" 
d="M93 186c7.33301 -1.33301 16.8369 -3.66602 28.5039 -6.99902s25 -6.5 40 -9.5s30.833 -5.66699 47.5 -8s33.667 -3.5 51 -3.5c12.667 0 21.167 0.833008 25.5 2.5s6.5 4.16699 6.5 7.5s-1.16699 6.66602 -3.5 9.99902s-4.5 5.33301 -6.5 6
c-36 8.66699 -68.5 16 -97.5 22s-53.5 14.5 -73.5 25.5s-35.333 26.333 -46 46s-16 47.834 -16 84.501c0 34 4.66699 62.5 14 85.5s23 41.333 41 55s40.167 23.334 66.5 29.001s56.166 8.5 89.499 8.5c24 0 47.667 -1.16699 71 -3.5s45 -5.33301 65 -9
s37.667 -7.83398 53 -12.501s27 -9.33398 35 -14.001l-53 -153c-10.667 4.66699 -24.834 8.83398 -42.501 12.501s-35.5 6.66699 -53.5 9s-34.833 3.66602 -50.5 3.99902s-26.834 -0.166992 -33.501 -1.5c-5.33301 -1.33301 -8.83301 -3.16602 -10.5 -5.49902
s-2.5 -4.16602 -2.5 -5.49902c0 -2.66699 1.33301 -5.16699 4 -7.5s5 -3.83301 7 -4.5l98 -22c29.333 -6.66699 54.666 -15.834 75.999 -27.501s37.833 -27.667 49.5 -48s17.5 -48.833 17.5 -85.5c0 -34 -5 -62.167 -15 -84.5s-24.333 -40.333 -43 -54
s-41.167 -23.334 -67.5 -29.001s-55.833 -8.5 -88.5 -8.5c-26.667 0 -53 1.5 -79 4.5s-50.167 6.66699 -72.5 11s-41.833 9 -58.5 14s-28.667 9.5 -36 13.5zM161.004 570l-30 64l196 124l61 -129z" />
    <glyph glyph-name="Scircumflex" unicode="&#x15c;" horiz-adv-x="629" 
d="M116 234c12.667 -6 28.6709 -11.1689 48.0039 -15.502s38.833 -8 58.5 -11s38.167 -5.16699 55.5 -6.5s30.333 -2 39 -2c17.333 0 28.166 2.5 32.499 7.5s6.5 10.167 6.5 15.5c0 9.33301 -2.33301 16.333 -7 21s-10.667 8.33398 -18 11.001
c-10.667 4 -24.834 6.5 -42.501 7.5s-36.5 3.16699 -56.5 6.5s-40.167 8.83301 -60.5 16.5s-38.833 19.5 -55.5 35.5s-30.167 37.167 -40.5 63.5s-15.5 60.5 -15.5 102.5c0 34.667 4.33301 66.5 13 95.5s23.334 54 44.001 75s47.834 37.167 81.501 48.5s75.167 17 124.5 17
c27.333 0 54.333 -1.66699 81 -5s51.5 -7.66602 74.5 -12.999s43.167 -11.166 60.5 -17.499s30.666 -12.5 39.999 -18.5l-66 -187c-12.667 6 -28.167 11.167 -46.5 15.5s-37 8 -56 11s-37.333 4.83301 -55 5.5s-32.5 0 -44.5 -2c-11.333 -2 -18.833 -5 -22.5 -9
s-5.5 -9 -5.5 -15c0 -8 2.33301 -13.833 7 -17.5s10.667 -6.5 18 -8.5c10.667 -2.66699 25.167 -4.66699 43.5 -6s37.833 -3.83301 58.5 -7.5s41.667 -9.66699 63 -18s40.666 -20.833 57.999 -37.5s31.333 -38.334 42 -65.001s16 -60.667 16 -102
c0 -35.333 -4.66699 -67.5 -14 -96.5s-24.5 -54 -45.5 -75s-48.5 -37.167 -82.5 -48.5s-75.667 -17 -125 -17c-30.667 0 -61 2 -91 6s-57.833 9 -83.5 15s-47.834 12.5 -66.501 19.5s-32.334 13.167 -41.001 18.5zM329.004 824.998l-126 -75l-61 129l187 59l187 -59
l-61 -129z" />
    <glyph glyph-name="scircumflex" unicode="&#x15d;" horiz-adv-x="520" 
d="M93 186c7.33301 -1.33301 16.8369 -3.66602 28.5039 -6.99902s25 -6.5 40 -9.5s30.833 -5.66699 47.5 -8s33.667 -3.5 51 -3.5c12.667 0 21.167 0.833008 25.5 2.5s6.5 4.16699 6.5 7.5s-1.16699 6.66602 -3.5 9.99902s-4.5 5.33301 -6.5 6
c-36 8.66699 -68.5 16 -97.5 22s-53.5 14.5 -73.5 25.5s-35.333 26.333 -46 46s-16 47.834 -16 84.501c0 34 4.66699 62.5 14 85.5s23 41.333 41 55s40.167 23.334 66.5 29.001s56.166 8.5 89.499 8.5c24 0 47.667 -1.16699 71 -3.5s45 -5.33301 65 -9
s37.667 -7.83398 53 -12.501s27 -9.33398 35 -14.001l-53 -153c-10.667 4.66699 -24.834 8.83398 -42.501 12.501s-35.5 6.66699 -53.5 9s-34.833 3.66602 -50.5 3.99902s-26.834 -0.166992 -33.501 -1.5c-5.33301 -1.33301 -8.83301 -3.16602 -10.5 -5.49902
s-2.5 -4.16602 -2.5 -5.49902c0 -2.66699 1.33301 -5.16699 4 -7.5s5 -3.83301 7 -4.5l98 -22c29.333 -6.66699 54.666 -15.834 75.999 -27.501s37.833 -27.667 49.5 -48s17.5 -48.833 17.5 -85.5c0 -34 -5 -62.167 -15 -84.5s-24.333 -40.333 -43 -54
s-41.167 -23.334 -67.5 -29.001s-55.833 -8.5 -88.5 -8.5c-26.667 0 -53 1.5 -79 4.5s-50.167 6.66699 -72.5 11s-41.833 9 -58.5 14s-28.667 9.5 -36 13.5zM267.004 645l-126 -75l-61 129l187 59l187 -59l-61 -129z" />
    <glyph glyph-name="Scedilla" unicode="&#x15e;" horiz-adv-x="629" 
d="M276 -156c10 -4 18.3359 -6.66895 25.0029 -8.00195s14 -2 22 -2c17.333 0 28.166 1 32.499 3s6.5 9.33301 6.5 22c0 12 -2.16699 19.167 -6.5 21.5s-15.166 3.5 -32.499 3.5h-7h-23.5c-7 0 -12.833 1.5 -17.5 4.5s-7.83398 8 -9.50098 15s-1.5 17.167 0.5 30.5l7 56
c-26.667 2 -52.334 5.16699 -77.001 9.5s-47.334 9.16602 -68.001 14.499s-38.667 11 -54 17s-26.666 11.333 -33.999 16l76 187c12.667 -6 28.667 -11.167 48 -15.5s38.833 -8 58.5 -11s38.167 -5.16699 55.5 -6.5s30.333 -2 39 -2c17.333 0 28.166 2.5 32.499 7.5
s6.5 10.167 6.5 15.5c0 9.33301 -2.33301 16.333 -7 21s-10.667 8.33398 -18 11.001c-10.667 4 -24.834 6.5 -42.501 7.5s-36.5 3.16699 -56.5 6.5s-40.167 8.83301 -60.5 16.5s-38.833 19.5 -55.5 35.5s-30.167 37.167 -40.5 63.5s-15.5 60.5 -15.5 102.5
c0 34.667 4.33301 66.5 13 95.5s23.334 54 44.001 75s47.834 37.167 81.501 48.5s75.167 17 124.5 17c27.333 0 54.333 -1.66699 81 -5s51.5 -7.66602 74.5 -12.999s43.167 -11.166 60.5 -17.499s30.666 -12.5 39.999 -18.5l-66 -187c-12.667 6 -28.167 11.167 -46.5 15.5
s-37 8 -56 11s-37.333 4.83301 -55 5.5s-32.5 0 -44.5 -2c-11.333 -2 -18.833 -5 -22.5 -9s-5.5 -9 -5.5 -15c0 -8 2.33301 -13.833 7 -17.5s10.667 -6.5 18 -8.5c10.667 -2.66699 25.167 -4.66699 43.5 -6s37.833 -3.83301 58.5 -7.5s41.667 -9.66699 63 -18
s40.666 -20.833 57.999 -37.5s31.333 -38.334 42 -65.001s16 -60.667 16 -102c0 -34 -4.33301 -65 -13 -93s-22.667 -52.167 -42 -72.5s-44.333 -36.666 -75 -48.999s-68.334 -19.5 -113.001 -21.5l-4 -31c34 -2.66699 58.5 -11 73.5 -25s22.5 -38.667 22.5 -74
c0 -38 -8.5 -64.167 -25.5 -78.5s-45.5 -21.5 -85.5 -21.5c-19.333 0 -34.666 1.83301 -45.999 5.5s-21.666 8.5 -30.999 14.5z" />
    <glyph glyph-name="scedilla" unicode="&#x15f;" horiz-adv-x="520" 
d="M215 -156c10 -4 18.3359 -6.66797 25.0029 -8.00098s14 -2 22 -2c17.333 0 28.166 1 32.499 3s6.5 9.33301 6.5 22c0 12 -2.16699 19.167 -6.5 21.5s-15.166 3.5 -32.499 3.5h-7h-23.5c-7 0 -12.833 1.5 -17.5 4.5s-7.83398 8 -9.50098 15s-1.5 17.167 0.5 30.5l7 59
c-20.667 2 -40.667 4.5 -60 7.5s-37 6.33301 -53 10s-30 7.5 -42 11.5s-21 7.66699 -27 11l63 153c7.33301 -1.33301 16.833 -3.66602 28.5 -6.99902s25 -6.5 40 -9.5s30.833 -5.66699 47.5 -8s33.667 -3.5 51 -3.5c12.667 0 21.167 0.833008 25.5 2.5s6.5 4.16699 6.5 7.5
s-1.16699 6.66602 -3.5 9.99902s-4.5 5.33301 -6.5 6c-36 8.66699 -68.5 16 -97.5 22s-53.5 14.5 -73.5 25.5s-35.333 26.333 -46 46s-16 47.834 -16 84.501c0 34 4.66699 62.5 14 85.5s23 41.333 41 55s40.167 23.334 66.5 29.001s56.166 8.5 89.499 8.5
c24 0 47.667 -1.16699 71 -3.5s45 -5.33301 65 -9s37.667 -7.83398 53 -12.501s27 -9.33398 35 -14.001l-53 -153c-10.667 4.66699 -24.834 8.83398 -42.501 12.501s-35.5 6.66699 -53.5 9s-34.833 3.66602 -50.5 3.99902s-26.834 -0.166992 -33.501 -1.5
c-5.33301 -1.33301 -8.83301 -3.16602 -10.5 -5.49902s-2.5 -4.16602 -2.5 -5.49902c0 -2.66699 1.33301 -5.16699 4 -7.5s5 -3.83301 7 -4.5l98 -22c29.333 -6.66699 54.666 -15.834 75.999 -27.501s37.833 -27.667 49.5 -48s17.5 -48.833 17.5 -85.5
c0 -33.333 -4.83301 -61 -14.5 -83s-23.334 -39.833 -41.001 -53.5s-39.167 -23.5 -64.5 -29.5s-53.666 -9.33301 -84.999 -10l-4 -32c34 -2.66699 58.5 -11 73.5 -25s22.5 -38.667 22.5 -74c0 -38 -8.5 -64.167 -25.5 -78.5s-45.5 -21.5 -85.5 -21.5
c-19.333 0 -34.666 1.83301 -45.999 5.5s-21.666 8.5 -30.999 14.5z" />
    <glyph glyph-name="Scaron" unicode="&#x160;" horiz-adv-x="629" 
d="M116 234c12.667 -6 28.6709 -11.1689 48.0039 -15.502s38.833 -8 58.5 -11s38.167 -5.16699 55.5 -6.5s30.333 -2 39 -2c17.333 0 28.166 2.5 32.499 7.5s6.5 10.167 6.5 15.5c0 9.33301 -2.33301 16.333 -7 21s-10.667 8.33398 -18 11.001
c-10.667 4 -24.834 6.5 -42.501 7.5s-36.5 3.16699 -56.5 6.5s-40.167 8.83301 -60.5 16.5s-38.833 19.5 -55.5 35.5s-30.167 37.167 -40.5 63.5s-15.5 60.5 -15.5 102.5c0 34.667 4.33301 66.5 13 95.5s23.334 54 44.001 75s47.834 37.167 81.501 48.5s75.167 17 124.5 17
c27.333 0 54.333 -1.66699 81 -5s51.5 -7.66602 74.5 -12.999s43.167 -11.166 60.5 -17.499s30.666 -12.5 39.999 -18.5l-66 -187c-12.667 6 -28.167 11.167 -46.5 15.5s-37 8 -56 11s-37.333 4.83301 -55 5.5s-32.5 0 -44.5 -2c-11.333 -2 -18.833 -5 -22.5 -9
s-5.5 -9 -5.5 -15c0 -8 2.33301 -13.833 7 -17.5s10.667 -6.5 18 -8.5c10.667 -2.66699 25.167 -4.66699 43.5 -6s37.833 -3.83301 58.5 -7.5s41.667 -9.66699 63 -18s40.666 -20.833 57.999 -37.5s31.333 -38.334 42 -65.001s16 -60.667 16 -102
c0 -35.333 -4.66699 -67.5 -14 -96.5s-24.5 -54 -45.5 -75s-48.5 -37.167 -82.5 -48.5s-75.667 -17 -125 -17c-30.667 0 -61 2 -91 6s-57.833 9 -83.5 15s-47.834 12.5 -66.501 19.5s-32.334 13.167 -41.001 18.5zM314.004 749.998l-187 59l61 129l126 -75l126 75l61 -129z
" />
    <glyph glyph-name="scaron" unicode="&#x161;" horiz-adv-x="520" 
d="M93 186c7.33301 -1.33301 16.8369 -3.66602 28.5039 -6.99902s25 -6.5 40 -9.5s30.833 -5.66699 47.5 -8s33.667 -3.5 51 -3.5c12.667 0 21.167 0.833008 25.5 2.5s6.5 4.16699 6.5 7.5s-1.16699 6.66602 -3.5 9.99902s-4.5 5.33301 -6.5 6
c-36 8.66699 -68.5 16 -97.5 22s-53.5 14.5 -73.5 25.5s-35.333 26.333 -46 46s-16 47.834 -16 84.501c0 34 4.66699 62.5 14 85.5s23 41.333 41 55s40.167 23.334 66.5 29.001s56.166 8.5 89.499 8.5c24 0 47.667 -1.16699 71 -3.5s45 -5.33301 65 -9
s37.667 -7.83398 53 -12.501s27 -9.33398 35 -14.001l-53 -153c-10.667 4.66699 -24.834 8.83398 -42.501 12.501s-35.5 6.66699 -53.5 9s-34.833 3.66602 -50.5 3.99902s-26.834 -0.166992 -33.501 -1.5c-5.33301 -1.33301 -8.83301 -3.16602 -10.5 -5.49902
s-2.5 -4.16602 -2.5 -5.49902c0 -2.66699 1.33301 -5.16699 4 -7.5s5 -3.83301 7 -4.5l98 -22c29.333 -6.66699 54.666 -15.834 75.999 -27.501s37.833 -27.667 49.5 -48s17.5 -48.833 17.5 -85.5c0 -34 -5 -62.167 -15 -84.5s-24.333 -40.333 -43 -54
s-41.167 -23.334 -67.5 -29.001s-55.833 -8.5 -88.5 -8.5c-26.667 0 -53 1.5 -79 4.5s-50.167 6.66699 -72.5 11s-41.833 9 -58.5 14s-28.667 9.5 -36 13.5zM260.004 570l-187 59l61 129l126 -75l126 75l61 -129z" />
    <glyph glyph-name="uni0162" unicode="&#x162;" horiz-adv-x="558" 
d="M240 -156c10 -4 18.332 -6.66699 24.999 -8s14 -2 22 -2c17.333 0 28.166 1 32.499 3s6.5 9.33301 6.5 22c0 12 -2.16699 19.167 -6.5 21.5s-15.166 3.5 -32.499 3.5h-7h-23.5c-7 0 -12.833 1.5 -17.5 4.5s-7.83398 8 -9.50098 15s-1.5 17.167 0.5 30.5l8 66h-69v500
h-159v210h538v-210h-159v-500h-77l-6 -42c34 -2.66699 58.5 -11 73.5 -25s22.5 -38.667 22.5 -74c0 -38 -8.5 -64.167 -25.5 -78.5s-45.5 -21.5 -85.5 -21.5c-19.333 0 -34.666 1.83301 -45.999 5.5s-21.666 8.5 -30.999 14.5z" />
    <glyph glyph-name="uni0163" unicode="&#x163;" horiz-adv-x="447" 
d="M175 -156c10 -4 18.3311 -6.66797 24.998 -8.00098s14 -2 22 -2c17.333 0 28.166 1 32.499 3s6.5 9.33301 6.5 22c0 12 -2.16699 19.167 -6.5 21.5s-15.166 3.5 -32.499 3.5h-7h-23.5c-7 0 -12.833 1.5 -17.5 4.5s-7.83398 8 -9.50098 15s-1.5 17.167 0.5 30.5l10 78
c-34 16 -59.333 44.333 -76 85s-25 98.334 -25 173.001v90h-64v170h64v84l21 9c26 11.333 51.167 19.333 75.5 24s50.5 7 78.5 7h15v-124h142v-170h-142v-94c0 -17.333 0.333008 -31.166 1 -41.499s2.33398 -18.5 5.00098 -24.5s6.5 -10 11.5 -12s11.833 -3 20.5 -3
c11.333 0 21.5 1.66699 30.5 5s21.5 8.66602 37.5 15.999l67 -164c-25.333 -14 -51.5 -25.333 -78.5 -34s-57.5 -13 -91.5 -13h-10.5c-3.66699 0 -7.16699 0.333008 -10.5 1l-5 -38c34 -2.66699 58.5 -11 73.5 -25s22.5 -38.667 22.5 -74c0 -38 -8.5 -64.167 -25.5 -78.5
s-45.5 -21.5 -85.5 -21.5c-19.333 0 -34.666 1.83301 -45.999 5.5s-21.666 8.5 -30.999 14.5z" />
    <glyph glyph-name="Tcaron" unicode="&#x164;" horiz-adv-x="558" 
d="M169 0v500h-159v210h538v-210h-159v-500h-220zM279 750l-187 59l61 129l126 -75l126 75l61 -129z" />
    <glyph glyph-name="tcaron" unicode="&#x165;" horiz-adv-x="447" 
d="M437 42c-25.333 -14 -51.501 -25.3301 -78.501 -33.9971s-57.5 -13 -91.5 -13c-32 0 -60 4.66699 -84 14s-44 24.666 -60 45.999s-28.167 49.666 -36.5 84.999s-12.5 78.666 -12.5 129.999v90h-64v170h64v84l21 9c26 11.333 51.167 19.333 75.5 24s50.5 7 78.5 7h15v-124
h142v-170h-142v-94c0 -17.333 0.333008 -31.166 1 -41.499s2.33398 -18.5 5.00098 -24.5s6.5 -10 11.5 -12s11.833 -3 20.5 -3c11.333 0 21.5 1.66699 30.5 5s21.5 8.66602 37.5 15.999zM285.999 709.003l30.0029 11.002c13.333 5.33301 26.166 11 38.499 17
s22.166 8 29.499 6l11 -3l5 4c-20 4.66699 -36.333 14.167 -49 28.5s-19 37.5 -19 69.5c0 20.667 2.83301 37.667 8.5 51s13.5 23.666 23.5 30.999s21.5 12.333 34.5 15s26.833 4 41.5 4c17.333 0 32.666 -1.66699 45.999 -5s24.333 -9.33301 33 -18
s15.167 -20.334 19.5 -35.001s6.5 -33.334 6.5 -56.001c0 -26 -4 -53.5 -12 -82.5s-24.667 -56.833 -50 -83.5c-24 -23.333 -48.667 -41.666 -74 -54.999s-52 -24 -80 -32z" />
    <glyph glyph-name="Utilde" unicode="&#x168;" horiz-adv-x="738" 
d="M460 710h217.995v-419c0 -60 -8.16699 -109.5 -24.5 -148.5s-38.666 -69.833 -66.999 -92.5s-61.166 -38.5 -98.499 -47.5s-77 -13.5 -119 -13.5s-81.833 4.5 -119.5 13.5s-70.5 24.833 -98.5 47.5s-50.167 53.5 -66.5 92.5s-24.5 88.5 -24.5 148.5v419h218v-412
c0 -24.667 1.83301 -43.834 5.5 -57.501s9.33398 -23.667 17.001 -30s17 -10 28 -11s24.167 -1.5 39.5 -1.5c14.667 0 27.834 0.5 39.501 1.5s21.334 4.66699 29.001 11s13.5 16.333 17.5 30s6 32.834 6 57.501v412zM505.995 803
c-8.66699 -12 -20.334 -21.499 -35.001 -28.499s-30 -10.5 -46 -10.5c-10 0 -21.167 1.66699 -33.5 5s-26.166 8.66602 -41.499 15.999l-19.5 9c-5.66699 2.66699 -10.167 4 -13.5 4c-2.66699 0 -5.16699 -1 -7.5 -3s-4.5 -4.33301 -6.5 -7l-29 -35l-70 86l29 40
c8.66699 11.333 20 20.666 34 27.999s29.667 11 47 11c14.667 0 28.167 -2.16699 40.5 -6.5s23.833 -9.16602 34.5 -14.499l20 -9c6 -2.66699 10.333 -4 13 -4c2 0 4.33301 1 7 3s5 4.33301 7 7l29 35l69 -86z" />
    <glyph glyph-name="utilde" unicode="&#x169;" 
d="M485 0l-68.9971 45c-10 -11.333 -19.333 -20.5 -28 -27.5s-17.334 -12.667 -26.001 -17s-17.667 -7.33301 -27 -9s-20 -2.5 -32 -2.5c-43.333 0 -80.833 5.16699 -112.5 15.5s-57.834 26.5 -78.501 48.5s-36.167 50.333 -46.5 85s-15.5 76.667 -15.5 126v266h190v-266
c0 -19.333 0.833008 -34.666 2.5 -45.999s5.33398 -19.833 11.001 -25.5s14.167 -9.33398 25.5 -11.001s26.666 -2.5 45.999 -2.5h21c11.333 0 20.166 2.5 26.499 7.5s10.833 11.5 13.5 19.5s4.16699 17.333 4.5 28s0.5 21.667 0.5 33v263h189v-530h-95zM452.003 623
c-8.66699 -12 -20.334 -21.499 -35.001 -28.499s-30 -10.5 -46 -10.5c-10 0 -21.167 1.66699 -33.5 5s-26.166 8.66602 -41.499 15.999l-19.5 9c-5.66699 2.66699 -10.167 4 -13.5 4c-2.66699 0 -5.16699 -1 -7.5 -3s-4.5 -4.33301 -6.5 -7l-29 -35l-70 86l29 40
c8.66699 11.333 20 20.666 34 27.999s29.667 11 47 11c14.667 0 28.167 -2.16699 40.5 -6.5s23.833 -9.16602 34.5 -14.499l20 -9c6 -2.66699 10.333 -4 13 -4c2 0 4.33301 1 7 3s5 4.33301 7 7l29 35l69 -86z" />
    <glyph glyph-name="Umacron" unicode="&#x16a;" horiz-adv-x="738" 
d="M460 710h217.995v-419c0 -60 -8.16699 -109.5 -24.5 -148.5s-38.666 -69.833 -66.999 -92.5s-61.166 -38.5 -98.499 -47.5s-77 -13.5 -119 -13.5s-81.833 4.5 -119.5 13.5s-70.5 24.833 -98.5 47.5s-50.167 53.5 -66.5 92.5s-24.5 88.5 -24.5 148.5v419h218v-412
c0 -24.667 1.83301 -43.834 5.5 -57.501s9.33398 -23.667 17.001 -30s17 -10 28 -11s24.167 -1.5 39.5 -1.5c14.667 0 27.834 0.5 39.501 1.5s21.334 4.66699 29.001 11s13.5 16.333 17.5 30s6 32.834 6 57.501v412zM168.995 790v100h400v-100h-400z" />
    <glyph glyph-name="umacron" unicode="&#x16b;" 
d="M485 0l-68.9971 45c-10 -11.333 -19.333 -20.5 -28 -27.5s-17.334 -12.667 -26.001 -17s-17.667 -7.33301 -27 -9s-20 -2.5 -32 -2.5c-43.333 0 -80.833 5.16699 -112.5 15.5s-57.834 26.5 -78.501 48.5s-36.167 50.333 -46.5 85s-15.5 76.667 -15.5 126v266h190v-266
c0 -19.333 0.833008 -34.666 2.5 -45.999s5.33398 -19.833 11.001 -25.5s14.167 -9.33398 25.5 -11.001s26.666 -2.5 45.999 -2.5h21c11.333 0 20.166 2.5 26.499 7.5s10.833 11.5 13.5 19.5s4.16699 17.333 4.5 28s0.5 21.667 0.5 33v263h189v-530h-95zM115.003 610v100
h400v-100h-400z" />
    <glyph glyph-name="Ubreve" unicode="&#x16c;" horiz-adv-x="738" 
d="M460 710h217.995v-419c0 -60 -8.16699 -109.5 -24.5 -148.5s-38.666 -69.833 -66.999 -92.5s-61.166 -38.5 -98.499 -47.5s-77 -13.5 -119 -13.5s-81.833 4.5 -119.5 13.5s-70.5 24.833 -98.5 47.5s-50.167 53.5 -66.5 92.5s-24.5 88.5 -24.5 148.5v419h218v-412
c0 -24.667 1.83301 -43.834 5.5 -57.501s9.33398 -23.667 17.001 -30s17 -10 28 -11s24.167 -1.5 39.5 -1.5c14.667 0 27.834 0.5 39.501 1.5s21.334 4.66699 29.001 11s13.5 16.333 17.5 30s6 32.834 6 57.501v412zM549.995 803l-24.498 -14
c-10.333 -6 -23 -11.833 -38 -17.5s-32.333 -10.667 -52 -15s-41.834 -6.5 -66.501 -6.5s-46.834 2.16699 -66.501 6.5s-37 9.33301 -52 15s-27.667 11.5 -38 17.5l-24.5 14l49 120l56 -24c22 -9.33301 47.333 -14 76 -14s54 4.66699 76 14l56 24z" />
    <glyph glyph-name="ubreve" unicode="&#x16d;" 
d="M485 0l-68.9971 45c-10 -11.333 -19.333 -20.5 -28 -27.5s-17.334 -12.667 -26.001 -17s-17.667 -7.33301 -27 -9s-20 -2.5 -32 -2.5c-43.333 0 -80.833 5.16699 -112.5 15.5s-57.834 26.5 -78.501 48.5s-36.167 50.333 -46.5 85s-15.5 76.667 -15.5 126v266h190v-266
c0 -19.333 0.833008 -34.666 2.5 -45.999s5.33398 -19.833 11.001 -25.5s14.167 -9.33398 25.5 -11.001s26.666 -2.5 45.999 -2.5h21c11.333 0 20.166 2.5 26.499 7.5s10.833 11.5 13.5 19.5s4.16699 17.333 4.5 28s0.5 21.667 0.5 33v263h189v-530h-95zM496.003 623
l-24.498 -14c-10.333 -6 -23 -11.833 -38 -17.5s-32.333 -10.667 -52 -15s-41.834 -6.5 -66.501 -6.5s-46.834 2.16699 -66.501 6.5s-37 9.33301 -52 15s-27.667 11.5 -38 17.5l-24.5 14l49 120l56 -24c22 -9.33301 47.333 -14 76 -14s54 4.66699 76 14l56 24z" />
    <glyph glyph-name="Uring" unicode="&#x16e;" horiz-adv-x="738" 
d="M460 710h217.995v-419c0 -60 -8.16699 -109.5 -24.5 -148.5s-38.666 -69.833 -66.999 -92.5s-61.166 -38.5 -98.499 -47.5s-77 -13.5 -119 -13.5s-81.833 4.5 -119.5 13.5s-70.5 24.833 -98.5 47.5s-50.167 53.5 -66.5 92.5s-24.5 88.5 -24.5 148.5v419h218v-412
c0 -24.667 1.83301 -43.834 5.5 -57.501s9.33398 -23.667 17.001 -30s17 -10 28 -11s24.167 -1.5 39.5 -1.5c14.667 0 27.834 0.5 39.501 1.5s21.334 4.66699 29.001 11s13.5 16.333 17.5 30s6 32.834 6 57.501v412zM368.995 749c-10.667 0 -20.5 0.833008 -29.5 2.5
s-17 5.16699 -24 10.5s-12.5 13 -16.5 23s-6 23.333 -6 40s2 30 6 40s9.5 17.667 16.5 23s15 8.83301 24 10.5s18.833 2.5 29.5 2.5s20.5 -0.833008 29.5 -2.5s17 -5.16699 24 -10.5s12.5 -13 16.5 -23s6 -23.333 6 -40s-2 -30 -6 -40s-9.5 -17.667 -16.5 -23
s-15 -8.83301 -24 -10.5s-18.833 -2.5 -29.5 -2.5zM368.995 779c12.667 0 23.5 2.66699 32.5 8s13.5 18 13.5 38s-4.5 32.667 -13.5 38s-19.833 8 -32.5 8s-23.5 -2.66699 -32.5 -8s-13.5 -18 -13.5 -38s4.5 -32.667 13.5 -38s19.833 -8 32.5 -8z" />
    <glyph glyph-name="uring" unicode="&#x16f;" 
d="M485 0l-68.9971 45c-10 -11.333 -19.333 -20.5 -28 -27.5s-17.334 -12.667 -26.001 -17s-17.667 -7.33301 -27 -9s-20 -2.5 -32 -2.5c-43.333 0 -80.833 5.16699 -112.5 15.5s-57.834 26.5 -78.501 48.5s-36.167 50.333 -46.5 85s-15.5 76.667 -15.5 126v266h190v-266
c0 -19.333 0.833008 -34.666 2.5 -45.999s5.33398 -19.833 11.001 -25.5s14.167 -9.33398 25.5 -11.001s26.666 -2.5 45.999 -2.5h21c11.333 0 20.166 2.5 26.499 7.5s10.833 11.5 13.5 19.5s4.16699 17.333 4.5 28s0.5 21.667 0.5 33v263h189v-530h-95zM315.003 569
c-10.667 0 -20.5 0.833008 -29.5 2.5s-17 5.16699 -24 10.5s-12.5 13 -16.5 23s-6 23.333 -6 40s2 30 6 40s9.5 17.667 16.5 23s15 8.83301 24 10.5s18.833 2.5 29.5 2.5s20.5 -0.833008 29.5 -2.5s17 -5.16699 24 -10.5s12.5 -13 16.5 -23s6 -23.333 6 -40s-2 -30 -6 -40
s-9.5 -17.667 -16.5 -23s-15 -8.83301 -24 -10.5s-18.833 -2.5 -29.5 -2.5zM315.003 599c12.667 0 23.5 2.66699 32.5 8s13.5 18 13.5 38s-4.5 32.667 -13.5 38s-19.833 8 -32.5 8s-23.5 -2.66699 -32.5 -8s-13.5 -18 -13.5 -38s4.5 -32.667 13.5 -38s19.833 -8 32.5 -8z
" />
    <glyph glyph-name="Uhungarumlaut" unicode="&#x170;" horiz-adv-x="738" 
d="M460 710h217.995v-419c0 -60 -8.16699 -109.5 -24.5 -148.5s-38.666 -69.833 -66.999 -92.5s-61.166 -38.5 -98.499 -47.5s-77 -13.5 -119 -13.5s-81.833 4.5 -119.5 13.5s-70.5 24.833 -98.5 47.5s-50.167 53.5 -66.5 92.5s-24.5 88.5 -24.5 148.5v419h218v-412
c0 -24.667 1.83301 -43.834 5.5 -57.501s9.33398 -23.667 17.001 -30s17 -10 28 -11s24.167 -1.5 39.5 -1.5c14.667 0 27.834 0.5 39.501 1.5s21.334 4.66699 29.001 11s13.5 16.333 17.5 30s6 32.834 6 57.501v412zM133.995 750l-30 64l196 124l61 -129zM405.995 750
l-30 64l196 124l61 -129z" />
    <glyph glyph-name="uhungarumlaut" unicode="&#x171;" 
d="M485 0l-68.9971 45c-10 -11.333 -19.333 -20.5 -28 -27.5s-17.334 -12.667 -26.001 -17s-17.667 -7.33301 -27 -9s-20 -2.5 -32 -2.5c-43.333 0 -80.833 5.16699 -112.5 15.5s-57.834 26.5 -78.501 48.5s-36.167 50.333 -46.5 85s-15.5 76.667 -15.5 126v266h190v-266
c0 -19.333 0.833008 -34.666 2.5 -45.999s5.33398 -19.833 11.001 -25.5s14.167 -9.33398 25.5 -11.001s26.666 -2.5 45.999 -2.5h21c11.333 0 20.166 2.5 26.499 7.5s10.833 11.5 13.5 19.5s4.16699 17.333 4.5 28s0.5 21.667 0.5 33v263h189v-530h-95zM80.0029 570l-30 64
l196 124l61 -129zM352.003 570l-30 64l196 124l61 -129z" />
    <glyph glyph-name="Wcircumflex" unicode="&#x174;" horiz-adv-x="888" 
d="M532 0l-29.001 92c-10 34 -18.833 66.167 -26.5 96.5s-14.834 62.833 -21.501 97.5l-12 122l-12 -122c-6 -34.667 -12.833 -67.167 -20.5 -97.5s-16.5 -62.5 -26.5 -96.5l-28 -92h-209l-114 494c-8 34 -13.833 66.5 -17.5 97.5s-5.5 64.167 -5.5 99.5v19h199l17 -81
c7.33301 -34.667 13.5 -67.5 18.5 -98.5s9.83301 -63.833 14.5 -98.5l10 -134l14 135c6.66699 34.667 13.834 67.167 21.501 97.5l25.5 96.5l25 83h175l26 -84c10 -34 18.833 -66.167 26.5 -96.5s14.834 -62.833 21.501 -97.5l15 -134l10 133
c4.66699 34.667 9.5 67.5 14.5 98.5s11.167 63.833 18.5 98.5l16 82h200v-19c0 -35.333 -1.83301 -68.5 -5.5 -99.5s-9.5 -63.5 -17.5 -97.5l-115 -494h-208zM443.999 825l-126 -75l-61 129l187 59l187 -59l-61 -129z" />
    <glyph glyph-name="wcircumflex" unicode="&#x175;" horiz-adv-x="791" 
d="M462 0l-21.998 67c-7.33301 25.333 -13.833 49.5 -19.5 72.5s-11.167 47.167 -16.5 72.5l-9 92l-9 -92c-4.66699 -25.333 -9.83398 -49.5 -15.501 -72.5s-12.167 -47.167 -19.5 -72.5l-21 -67h-187l-115 368c-6 25.333 -10.5 49.833 -13.5 73.5s-4.5 48.5 -4.5 74.5v14
h180l12 -60c5.33301 -26 10 -50.667 14 -74s7.66699 -48 11 -74l8 -101l10 102l16 72.5c5.33301 23 11.666 47.167 18.999 72.5l19 62h191l20 -63c7.33301 -25.333 13.833 -49.333 19.5 -72s11.167 -47 16.5 -73l11 -101l8 100c3.33301 26 6.83301 50.667 10.5 74
s8.16699 48 13.5 74l12 61h180v-14c0 -26 -1.33301 -50.833 -4 -74.5s-7 -48.167 -13 -73.5l-116 -368h-186zM395.002 645l-126 -75l-61 129l187 59l187 -59l-61 -129z" />
    <glyph glyph-name="Ycircumflex" unicode="&#x176;" horiz-adv-x="614" 
d="M197 0l-0.000976562 221.001l-129 269l-21.5 45.5c-7 14.333 -13.167 28.666 -18.5 42.999s-9.66602 29.166 -12.999 44.499s-5 31.666 -5 48.999v38h179l39 -88c14.667 -32.667 26.667 -63.834 36 -93.501s18 -61.5 26 -95.5l17 -83l17 83c8 34 16.833 66 26.5 96
s21.5 61 35.5 93l38 88h180v-39c0 -17.333 -1.5 -33.666 -4.5 -48.999s-7.16699 -30.166 -12.5 -44.499s-11.5 -28.666 -18.5 -42.999l-22.5 -45.5l-129 -268v-221h-220zM306.999 825.001l-126 -75l-61 129l187 59l187 -59l-61 -129z" />
    <glyph glyph-name="ycircumflex" unicode="&#x177;" horiz-adv-x="558" 
d="M77 -50c6.66699 -3.33301 12 -5.16406 16 -5.49707s9.66699 -1.16602 17 -2.49902c4.66699 -0.666992 8.83398 -0.833984 12.501 -0.500977s7 1.66602 10 3.99902s6 6 9 11s6.16699 12.167 9.5 21.5l30 77l-128 271c-15.333 32 -26.333 63 -33 93s-10 62.667 -10 98v13
h157l65 -139c15.333 -32 26.5 -63 33.5 -93s11.167 -62.667 12.5 -98h2c1.33301 35.333 5.5 68 12.5 98s18.167 61 33.5 93l65 139h157v-13c0 -35.333 -3.33301 -68 -10 -98s-17.334 -61 -32.001 -93l-167 -361c-13.333 -28.667 -26 -54.334 -38 -77.001
s-25.5 -42 -40.5 -58s-32.5 -28.167 -52.5 -36.5s-44.667 -12.5 -74 -12.5c-16 0 -33.333 1.66699 -52 5s-37.667 10.666 -57 21.999zM279 645.002l-126 -75l-61 129l187 59l187 -59l-61 -129z" />
    <glyph glyph-name="Ydieresis" unicode="&#x178;" horiz-adv-x="634" 
d="M207 0l-0.000976562 221.001l-129 269l-21.5 45.5c-7 14.333 -13.167 28.666 -18.5 42.999s-9.66602 29.166 -12.999 44.499s-5 31.666 -5 48.999v38h179l39 -88c14.667 -32.667 26.667 -63.834 36 -93.501s18 -61.5 26 -95.5l17 -83l17 83c8 34 16.833 66 26.5 96
s21.5 61 35.5 93l38 88h180v-39c0 -17.333 -1.5 -33.666 -4.5 -48.999s-7.16699 -30.166 -12.5 -44.499s-11.5 -28.666 -18.5 -42.999l-22.5 -45.5l-129 -268v-221h-220zM419.999 748.001c-12.667 0 -24.5 1 -35.5 3s-20.667 6.16699 -29 12.5s-14.833 15.5 -19.5 27.5
s-7 28 -7 48s2.33301 36 7 48s11.167 21.167 19.5 27.5s18 10.5 29 12.5s22.833 3 35.5 3s24.5 -1 35.5 -3s20.667 -6.16699 29 -12.5s14.833 -15.5 19.5 -27.5s7 -28 7 -48s-2.33301 -36 -7 -48s-11.167 -21.167 -19.5 -27.5s-18 -10.5 -29 -12.5s-22.833 -3 -35.5 -3z
M212.999 748.001c-12.667 0 -24.5 1 -35.5 3s-20.667 6.16699 -29 12.5s-14.833 15.5 -19.5 27.5s-7 28 -7 48s2.33301 36 7 48s11.167 21.167 19.5 27.5s18 10.5 29 12.5s22.833 3 35.5 3s24.5 -1 35.5 -3s20.667 -6.16699 29 -12.5s14.833 -15.5 19.5 -27.5s7 -28 7 -48
s-2.33301 -36 -7 -48s-11.167 -21.167 -19.5 -27.5s-18 -10.5 -29 -12.5s-22.833 -3 -35.5 -3z" />
    <glyph glyph-name="Zacute" unicode="&#x179;" horiz-adv-x="666" 
d="M50 0v48c0 35.333 4.66699 67.166 14 95.499s24 56.833 44 85.5l195 271h-245v210h542v-49c0 -35.333 -4.5 -67.166 -13.5 -95.499s-23.833 -56.833 -44.5 -85.5l-194 -270h268v-210h-566zM254 750l-30 64l196 124l61 -129z" />
    <glyph glyph-name="zacute" unicode="&#x17a;" horiz-adv-x="537" 
d="M40 0v85c0 12.667 2.66699 24 8 34s11.666 19.667 18.999 29l176 212h-203v170h457v-85c0 -12.667 -2.66699 -24 -8 -34s-11.666 -19.667 -18.999 -29l-176 -212h203v-170h-457zM170 570l-30 64l196 124l61 -129z" />
    <glyph glyph-name="Zdotaccent" unicode="&#x17b;" horiz-adv-x="666" 
d="M50 0v48c0 35.333 4.66699 67.166 14 95.499s24 56.833 44 85.5l195 271h-245v210h542v-49c0 -35.333 -4.5 -67.166 -13.5 -95.499s-23.833 -56.833 -44.5 -85.5l-194 -270h268v-210h-566zM333 750c-13.333 0 -25.666 1.16699 -36.999 3.5s-21.333 6.83301 -30 13.5
s-15.5 16.167 -20.5 28.5s-7.5 28.833 -7.5 49.5s2.5 37.167 7.5 49.5s11.833 21.833 20.5 28.5s18.667 11.167 30 13.5s23.666 3.5 36.999 3.5c12.667 0 24.834 -1.16699 36.501 -3.5s21.834 -6.83301 30.501 -13.5s15.5 -16.167 20.5 -28.5s7.5 -28.833 7.5 -49.5
s-2.5 -37.167 -7.5 -49.5s-11.833 -21.833 -20.5 -28.5s-18.834 -11.167 -30.501 -13.5s-23.834 -3.5 -36.501 -3.5z" />
    <glyph glyph-name="zdotaccent" unicode="&#x17c;" horiz-adv-x="537" 
d="M40 0v85c0 12.667 2.66699 24 8 34s11.666 19.667 18.999 29l176 212h-203v170h457v-85c0 -12.667 -2.66699 -24 -8 -34s-11.666 -19.667 -18.999 -29l-176 -212h203v-170h-457zM268 570c-13.333 0 -25.666 1.16699 -36.999 3.5s-21.333 6.83301 -30 13.5
s-15.5 16.167 -20.5 28.5s-7.5 28.833 -7.5 49.5s2.5 37.167 7.5 49.5s11.833 21.833 20.5 28.5s18.667 11.167 30 13.5s23.666 3.5 36.999 3.5c12.667 0 24.834 -1.16699 36.501 -3.5s21.834 -6.83301 30.501 -13.5s15.5 -16.167 20.5 -28.5s7.5 -28.833 7.5 -49.5
s-2.5 -37.167 -7.5 -49.5s-11.833 -21.833 -20.5 -28.5s-18.834 -11.167 -30.501 -13.5s-23.834 -3.5 -36.501 -3.5z" />
    <glyph glyph-name="Zcaron" unicode="&#x17d;" horiz-adv-x="666" 
d="M50 0v48c0 35.333 4.66699 67.166 14 95.499s24 56.833 44 85.5l195 271h-245v210h542v-49c0 -35.333 -4.5 -67.166 -13.5 -95.499s-23.833 -56.833 -44.5 -85.5l-194 -270h268v-210h-566zM333 750l-187 59l61 129l126 -75l126 75l61 -129z" />
    </font>
</defs>
</svg>
