<?xml version="1.0" standalone="no"?>
<!DOCTYPE svg PUBLIC "-//W3C//DTD SVG 1.1//EN" "http://www.w3.org/Graphics/SVG/1.1/DTD/svg11.dtd" >
<svg xmlns="http://www.w3.org/2000/svg">
<metadata></metadata>
<defs>
<font id="universalis_adf_stdregular" horiz-adv-x="526" >
<font-face units-per-em="1000" ascent="750" descent="-250" />
<missing-glyph horiz-adv-x="300" />
<glyph unicode="AE" horiz-adv-x="572" d="M285 513l-99 -260h200zM850 0h-370l-68 181h-256l-69 -181h-82l280 711l4 -11h308l30 -73h-308l69 -179h310l29 -73h-306l115 -304h286z" />
<glyph unicode="ae" horiz-adv-x="814" d="M108 352l-33 58q73 48 156 48q66 0 97.5 -15t75.5 -59q70 74 153 74h5h4q89 0 143 -56.5t62 -154.5v-25v-2h-346q0 -70 41 -119t102 -49h8q80 0 133 62l47 -42q-60 -81 -189 -83q-123 1 -179 107q-35 -106 -183 -106q-78 0 -121.5 36t-43.5 103q0 153 208 153h106v7 q0 50 -34.5 78t-96.5 28q-72 -2 -115 -43zM433 283h261q-9 57 -45 84t-86 27q-44 0 -83 -36t-47 -75zM354 220h-75q-92 0 -126.5 -18.5t-34.5 -67.5q0 -40 25.5 -63t71.5 -23q62 0 100.5 44t38.5 116v12z" />
<glyph unicode="OE" horiz-adv-x="1043" d="M366 645q-111 0 -183 -80.5t-72 -217.5q0 -135 71 -216t184 -81q108 0 178 72t76 201v43q-6 127 -76 203t-178 76zM620 590v110h387v-73h-310v-179h310v-73h-310v-304h318v-71h-395v104q-88 -116 -254 -116q-150 0 -238.5 97t-88.5 262t89.5 264.5t237.5 99.5 q163 0 254 -121z" />
<glyph unicode="oe" horiz-adv-x="885" d="M788 114l47 -42q-60 -81 -189 -83q-61 0 -111 30.5t-80 82.5q-66 -113 -185 -113q-94 0 -160.5 67t-66.5 165q0 99 66.5 168t160.5 69q122 0 184 -108q29 52 77.5 80t109.5 28h4q89 0 143 -56.5t62 -154.5v-25v-2h-351q0 -69 43.5 -118.5t104.5 -49.5h8q80 0 133 62z M271 394q-61 0 -104.5 -51.5t-43.5 -121.5t43.5 -119.5t104.5 -49.5t104 49.5t43 119.5t-43.5 121.5t-103.5 51.5zM507 283h266q-9 57 -45 84t-86 27q-45 0 -86 -36.5t-49 -74.5z" />
<glyph unicode="fj" horiz-adv-x="528" d="M459 448v-673h-75v616h-208v-391h-76v391h-72v57h72v140q0 76 36 118.5t108 43.5h77v-61h-73q-39 0 -54.5 -23t-17.5 -69v-149h283zM422 675q21 0 36 -15t15 -36t-15 -35.5t-36 -14.5t-35.5 14.5t-14.5 35.5t14.5 36t35.5 15z" />
<glyph unicode="ffj" horiz-adv-x="786" d="M312 750v-62h-72q-39 0 -54.5 -24t-17.5 -70v-146h202v140q0 76 36 118.5t108 43.5h77v-62h-73q-40 0 -55 -22.5t-17 -68.5v-149h283v-673h-75v616h-208v-391h-76v391h-202v-391h-76v391h-72v57h72v138q0 161 149 164h71zM692 675q21 0 36 -15t15 -36t-15 -35.5 t-36 -14.5t-35.5 14.5t-14.5 35.5t14.5 36t35.5 15z" />
<glyph unicode="ft" horiz-adv-x="544" d="M376 391h-200v-391h-76v391h-72v57h72v138q0 161 149 164h71v-62h-72q-39 0 -54.5 -24t-17.5 -70v-146h200v177h75v-177h62v-57h-62v-391h-75v391z" />
<glyph unicode="ff" horiz-adv-x="560" d="M312 750v-62h-72q-39 0 -54.5 -24t-17.5 -70v-146h205v136q0 163 149 166h66v-62h-67q-39 0 -54.5 -24.5t-17.5 -71.5v-144h85v-57h-85v-391h-76v391h-205v-391h-76v391h-72v57h72v138q0 161 149 164h71z" />
<glyph unicode="fi" horiz-adv-x="528" d="M459 448v-448h-75v391h-208v-391h-76v391h-72v57h72v140q0 76 36 118.5t108 43.5h77v-61h-73q-39 0 -54.5 -23t-17.5 -69v-149h283zM422 675q21 0 36 -15t15 -36t-15 -35.5t-36 -14.5t-35.5 14.5t-14.5 35.5t14.5 36t35.5 15z" />
<glyph unicode="fl" horiz-adv-x="528" d="M249 750h210v-750h-75v688h-136q-39 0 -54.5 -24.5t-17.5 -71.5v-144h85v-57h-85v-391h-76v391h-72v57h72v136q0 163 149 166z" />
<glyph unicode="ffi" horiz-adv-x="786" d="M312 750v-62h-72q-39 0 -54.5 -24t-17.5 -70v-146h202v140q0 76 36 118.5t108 43.5h77v-62h-73q-40 0 -55 -22.5t-17 -68.5v-149h283v-448h-75v391h-208v-391h-76v391h-202v-391h-76v391h-72v57h72v138q0 161 149 164h71zM692 675q21 0 36 -15t15 -36t-15 -35.5 t-36 -14.5t-35.5 14.5t-14.5 35.5t14.5 36t35.5 15z" />
<glyph unicode="ffl" horiz-adv-x="809" d="M320 750v-62h-72q-39 0 -54.5 -24t-17.5 -70v-146h205v136q0 163 149 166h210v-750h-75v688h-136q-39 0 -54.5 -24.5t-17.5 -71.5v-144h85v-57h-85v-391h-76v391h-205v-391h-76v391h-72v57h72v138q0 161 149 164h71z" />
<glyph unicode=" "  horiz-adv-x="300" />
<glyph unicode="&#x09;" horiz-adv-x="300" />
<glyph unicode="&#xa0;" horiz-adv-x="300" />
<glyph unicode="!" horiz-adv-x="293" d="M104 700h85v-333l-5 -156h-75l-5 156v333zM147 89q21 0 36 -15t15 -36t-15 -35.5t-36 -14.5t-35.5 14.5t-14.5 35.5t14.5 36t35.5 15z" />
<glyph unicode="&#x22;" horiz-adv-x="363" d="M138 700v-252h-69v252h69zM294 700v-252h-70v252h70z" />
<glyph unicode="#" horiz-adv-x="606" d="M378 395h-119l-35 -147h121zM317 646l-43 -183h120l44 183h65l-43 -183h129v-68h-145l-33 -147h130v-67h-146l-42 -181h-67l43 181h-121l-41 -181h-67l43 181h-129v67h144l34 147h-131v68h147l44 183h65z" />
<glyph unicode="$" horiz-adv-x="449" d="M244 -125h-41v122q-99 0 -173 62l40 56q42 -31 65 -40t68 -10v194q-86 14 -123 54t-39 108q0 72 43.5 115t118.5 47v117h41v-115q60 -2 136 -54l-38 -60q-36 29 -57 35q-17 6 -41 7v-180q93 -15 137 -55t44 -112q0 -77 -46.5 -120.5t-134.5 -48.5v-122zM203 341v172 q-40 -1 -64 -25t-24 -62q2 -36 22 -56.5t66 -28.5zM244 248v-182q105 14 105 91q0 73 -105 91z" />
<glyph unicode="%" horiz-adv-x="835" d="M649 244q-39 0 -67.5 -28t-28.5 -67q0 -40 28.5 -68t68.5 -28q39 0 67.5 28t28.5 66q0 41 -28 69t-69 28zM574 665h63l-375 -678h-63zM649 310q68 0 115.5 -47.5t47.5 -115.5q0 -65 -48.5 -112.5t-113.5 -47.5q-67 0 -114.5 47.5t-47.5 114.5q0 66 47.5 113.5t113.5 47.5 zM185 665q68 0 115 -47.5t47 -116.5q0 -65 -47.5 -113t-113.5 -48q-67 0 -115 48t-48 115t47.5 114.5t114.5 47.5zM185 599q-40 0 -68 -28t-28 -68q0 -39 28.5 -67.5t68.5 -28.5q39 0 67 28t28 67q0 41 -28 69t-68 28z" />
<glyph unicode="&#x26;" horiz-adv-x="601" d="M424 0v3q-80 -14 -144 -14q-116 0 -178 51.5t-62 148.5q0 63 34 106.5t93 57.5q-112 30 -112 144q0 80 55 125.5t148 45.5q52 0 114 -30l-35 -73q-40 29 -71 29q-63 0 -95.5 -28.5t-32.5 -78.5q0 -48 32.5 -74t92.5 -26h25v-74h-22q-68 0 -105.5 -33t-37.5 -91 q0 -63 40.5 -95.5t118.5 -32.5q103 0 142 19v311h-62v57h62v116h76v-116h62v-57h-62v-391h-76z" />
<glyph unicode="'" horiz-adv-x="233" d="M197 677l-122 -183l-35 23l97 196z" />
<glyph unicode="(" horiz-adv-x="252" d="M230 700q-108 -207 -108 -418q0 -208 108 -402h-66q-123 200 -123 402q0 206 123 418h66z" />
<glyph unicode=")" horiz-adv-x="254" d="M22 700h66q123 -211 123 -418q0 -202 -123 -402h-66q108 193 108 402q0 220 -108 418z" />
<glyph unicode="*" horiz-adv-x="364" d="M329 632l-119 -68l119 -69l-19 -34l-110 71v-133h-39v133l-109 -71l-19 34l118 69l-118 68l19 36l109 -72v132h39v-132l110 72z" />
<glyph unicode="+" horiz-adv-x="429" d="M248 488v-170h159v-76h-159v-170h-70v170h-156v76h156v170h70z" />
<glyph unicode="," horiz-adv-x="214" d="M188 35l-122 -183l-35 23l97 196z" />
<glyph unicode="-" horiz-adv-x="359" d="M69 256h221v-66h-221v66z" />
<glyph unicode="." horiz-adv-x="218" d="M105 89q21 0 36 -15t15 -36t-15 -35.5t-36 -14.5t-35.5 14.5t-14.5 35.5t14.5 36t35.5 15z" />
<glyph unicode="/" horiz-adv-x="350" d="M260 750h71l-248 -832h-71z" />
<glyph unicode="0" horiz-adv-x="585" d="M291 647q-139 0 -139 -300t139 -300t139 300t-139 300zM291 711q102 0 157.5 -93t55.5 -271q0 -177 -55 -268t-158 -91t-157 90.5t-54 268.5t54 271t157 93z" />
<glyph unicode="1" horiz-adv-x="318" d="M213 700v-700h-80v621h-99l35 79h144z" />
<glyph unicode="2" horiz-adv-x="508" d="M146 72h296v-72h-387v72l236 273q74 88 74 164q0 59 -36.5 97.5t-95.5 38.5h-2q-44 0 -75 -26t-33 -60h-71q1 62 56 107.5t123 45.5q93 0 149.5 -53t56.5 -144v-3q0 -102 -70 -186z" />
<glyph unicode="3" horiz-adv-x="538" d="M42 141h81q11 -45 44.5 -69.5t83.5 -24.5q62 0 99 38.5t37 106.5q0 65 -34.5 104.5t-95.5 39.5v68q53 0 85 31.5t32 86.5q0 59 -32.5 92t-90.5 33q-47 0 -77.5 -23.5t-38.5 -66.5h-80q7 72 58.5 113t137.5 41q89 0 142 -47.5t53 -132.5q0 -59 -30 -100.5t-85 -58.5 q60 -16 94.5 -62.5t35.5 -117.5q0 -98 -54.5 -151t-155.5 -53q-187 0 -209 153z" />
<glyph unicode="4" horiz-adv-x="544" d="M330 485l-158 -260h158v260zM407 712v-487h90v-73h-90v-152h-77v152h-280v20l342 540h15z" />
<glyph unicode="5" horiz-adv-x="509" d="M164 700h275l-16 -71h-213l-53 -179q28 6 57 8q101 0 162 -63t61 -174q0 -112 -61.5 -172.5t-173.5 -60.5q-88 0 -160 78l40 56q55 -66 118 -69q76 0 120 44.5t44 123.5q0 78 -44.5 123.5t-119.5 45.5q-62 0 -134 -37z" />
<glyph unicode="6" horiz-adv-x="567" d="M284 458q94 0 159.5 -68.5t65.5 -167.5q0 -98 -65.5 -165.5t-159.5 -67.5t-160 67t-66 165q0 87 43 149l251 342l58 -36l-170 -229q5 3 21 7q11 4 23 4zM285 394q-60 0 -103.5 -51.5t-43.5 -121.5t43 -119.5t104 -49.5t104.5 49.5t43.5 119.5t-43.5 121.5t-104.5 51.5z " />
<glyph unicode="7" horiz-adv-x="465" d="M32 700h394l-235 -700h-80l210 626h-289v74z" />
<glyph unicode="8" horiz-adv-x="572" d="M285 338q-64 0 -100 -38t-36 -108q0 -68 36 -106.5t100 -38.5q63 0 99.5 38.5t36.5 106.5t-35.5 107t-100.5 39zM200 372q-51 14 -78 57t-27 105q0 83 49.5 130t140.5 47q89 0 140 -45.5t51 -131.5q0 -130 -106 -162q122 -32 125 -180q0 -98 -54 -151t-156 -53 t-156.5 51.5t-54.5 152.5q0 69 32.5 116.5t93.5 63.5zM167 525q0 -59 30.5 -91.5t87.5 -32.5q56 0 87 33t31 91q0 122 -118 122q-57 0 -87.5 -31t-30.5 -91z" />
<glyph unicode="9" horiz-adv-x="568" d="M283 241q-93 0 -159 68.5t-66 167.5q0 98 66 166t159 68q94 0 160 -67.5t66 -165.5q0 -89 -43 -149l-254 -342l-58 35l173 230q-21 -10 -44 -11zM282 305q60 0 103.5 51.5t43.5 121.5t-43 119.5t-104 49.5t-104.5 -49.5t-43.5 -119.5t43.5 -121.5t104.5 -51.5z" />
<glyph unicode=":" horiz-adv-x="217" d="M105 89q21 0 36 -15t15 -36t-15 -35.5t-36 -14.5t-35.5 14.5t-14.5 35.5t14.5 36t35.5 15zM105 418q21 0 36 -15t15 -36t-15 -35.5t-36 -14.5t-35.5 14.5t-14.5 35.5t14.5 36t35.5 15z" />
<glyph unicode=";" horiz-adv-x="223" d="M119 418q21 0 36 -15t15 -36t-15 -35.5t-36 -14.5t-35.5 14.5t-14.5 35.5t14.5 36t35.5 15zM188 35l-122 -183l-35 23l97 196z" />
<glyph unicode="&#x3c;" horiz-adv-x="586" d="M547 402l-424 -147l424 -146v-73l-527 186v67l527 186v-73z" />
<glyph unicode="=" horiz-adv-x="664" d="M69 371h526v-68h-526v68zM69 208h526v-68h-526v68z" />
<glyph unicode="&#x3e;" horiz-adv-x="588" d="M40 402v73l528 -186v-67l-528 -186v73l424 146z" />
<glyph unicode="?" horiz-adv-x="413" d="M113 547h-76q1 81 49.5 122.5t112.5 41.5q68 0 109.5 -36.5t44.5 -97.5q0 -17 -6.5 -35.5t-14.5 -32t-23 -31.5t-22.5 -26t-23.5 -24l-16 -15q-5 -5 -17 -18.5t-17 -19.5t-14 -17t-13 -18t-7.5 -16t-3.5 -17q0 -1 -0.5 -5t-0.5 -5q0 -21 10.5 -34.5t27.5 -13.5h3h8 q38 0 44 46h54q-2 -49 -30.5 -81.5t-77.5 -32.5h-4q-43 2 -78.5 35.5t-35.5 80.5q0 49 26.5 88t73.5 81q75 70 76 105q0 34 -18.5 50t-59.5 16q-33 0 -55 -23.5t-25 -66.5zM210 88q21 0 36 -15t15 -36t-15 -35.5t-36 -14.5t-35.5 14.5t-14.5 35.5t14.5 36t35.5 15z" />
<glyph unicode="@" horiz-adv-x="788" d="M288 222q0 -59 29 -93.5t81 -34.5q49 0 78.5 34.5t29.5 93.5q0 58 -29.5 92.5t-79.5 34.5q-48 0 -78 -33t-31 -94zM512 97q-48 -64 -130 -64q-70 0 -114.5 52.5t-44.5 136.5q0 82 44 135.5t115 53.5q84 0 130 -64v55h58v-308q60 10 93.5 56.5t35.5 121.5q0 121 -87 198.5 t-203 79.5q-138 0 -228.5 -96.5t-90.5 -229.5q0 -137 91 -228t220 -91q103 0 199 79l37 -46q-101 -82 -236 -85q-108 0 -193.5 52.5t-130 136.5t-44.5 182q0 163 110 270.5t265 107.5q142 0 245.5 -95.5t103.5 -233.5q0 -111 -65.5 -174.5t-179.5 -66.5v65z" />
<glyph unicode="A" horiz-adv-x="572" d="M285 513l-100 -260h201zM285 711l282 -711h-82l-68 181h-261l-69 -181h-82z" />
<glyph unicode="B" horiz-adv-x="545" d="M145 341v-274h140q71 0 106 33t35 104q0 137 -141 137h-140zM145 631v-223h130q129 0 129 111q0 109 -129 112h-130zM69 700h212q92 0 144.5 -45t52.5 -126q0 -131 -108 -150q63 -16 98.5 -64.5t35.5 -121.5q0 -93 -55.5 -143t-158.5 -50h-221v700z" />
<glyph unicode="C" horiz-adv-x="567" d="M536 648l-40 -55q-70 52 -150 52q-108 0 -167.5 -77t-59.5 -222q0 -143 57.5 -219t169.5 -76q80 0 145 48l44 -52q-83 -60 -194 -60q-139 0 -219.5 95.5t-80.5 263.5q0 169 80.5 267t219.5 98q106 0 195 -63z" />
<glyph unicode="D" horiz-adv-x="628" d="M146 634v-567h106q132 0 193.5 69t61.5 215t-61.5 214.5t-193.5 68.5h-106zM69 703h171q177 0 261 -84.5t84 -267.5q0 -182 -83.5 -266.5t-261.5 -84.5h-171v703z" />
<glyph unicode="E" horiz-adv-x="492" d="M69 700h387v-73h-310v-179h310v-73h-310v-304h318v-71h-395v700z" />
<glyph unicode="F" horiz-adv-x="444" d="M69 700h351v-73h-274v-179h274v-72h-274v-376h-77v700z" />
<glyph unicode="G" horiz-adv-x="626" d="M501 90v200h-137v70h213v-304q-94 -68 -229 -68q-145 0 -226 94.5t-81 266.5t81.5 267t225.5 95q115 0 210 -61l-41 -59q-75 54 -163 54q-236 0 -236 -296q0 -293 236 -293q96 0 147 34z" />
<glyph unicode="H" horiz-adv-x="606" d="M69 700h76v-289h315v289h77v-700h-77v338h-315v-338h-76v700z" />
<glyph unicode="I" horiz-adv-x="215" d="M69 700h77v-700h-77v700z" />
<glyph unicode="J" horiz-adv-x="279" d="M137 700h77v-475q0 -123 -42 -180t-136 -57h-30v69h22q60 0 84.5 37t24.5 131v475z" />
<glyph unicode="K" horiz-adv-x="557" d="M69 700h78v-302l286 302h101l-312 -325l334 -375h-103l-306 343v-343h-78v700z" />
<glyph unicode="L" horiz-adv-x="455" d="M69 700h77v-629h304v-71h-381v700z" />
<glyph unicode="M" horiz-adv-x="772" d="M562 700h6l189 -700h-82l-125 450l-166 -450l-163 450l-125 -450h-82l191 700h5l176 -487z" />
<glyph unicode="N" horiz-adv-x="602" d="M533 0h-9l-379 481v-481h-76v701h6l382 -486v485h76v-700z" />
<glyph unicode="O" horiz-adv-x="749" d="M374 645q-111 0 -183 -80.5t-72 -217.5q0 -135 71 -216t184 -81q111 0 182.5 80t71.5 217q0 135 -71 216.5t-183 81.5zM374 711q146 0 236 -99.5t90 -264.5t-88 -262t-238 -97t-238.5 97t-88.5 262t89.5 264.5t237.5 99.5z" />
<glyph unicode="P" horiz-adv-x="492" d="M146 631v-264h103q63 0 100.5 33t37.5 99q0 129 -138 132h-103zM69 700h180q215 0 215 -201q0 -100 -55.5 -149.5t-159.5 -49.5h-103v-300h-77v700z" />
<glyph unicode="Q" horiz-adv-x="733" d="M366 645q-111 0 -183 -80.5t-72 -217.5q0 -135 71 -216t184 -81q93 0 159 57l-107 133h82l68 -85q52 77 52 192q0 135 -71 216.5t-183 81.5zM614 97l78 -97h-82l-41 52q-83 -64 -203 -64q-150 0 -238.5 97t-88.5 262t89.5 264.5t237.5 99.5q146 0 236 -99.5t90 -264.5 q0 -155 -78 -250z" />
<glyph unicode="R" horiz-adv-x="499" d="M69 700h180h3q93 0 146 -49.5t53 -147.5q-5 -84 -39 -127.5t-94 -61.5l159 -314h-83l-156 300h-92v-300h-77v700zM146 631v-261h103q63 0 96 34t33 99q0 125 -129 128h-103z" />
<glyph unicode="S" horiz-adv-x="500" d="M444 626l-48 -56q-62 75 -131 75q-140 0 -141 -126q1 -47 27 -73.5t89 -40.5l51 -12q92 -21 134 -70t42 -134q0 -99 -59.5 -150t-174.5 -51q-45 0 -99.5 20.5t-95.5 55.5l50 62q66 -66 145 -71q157 0 157 126q0 55 -27 86t-95 46l-52 12q-86 20 -125.5 67t-40.5 122 q0 92 53 144.5t152 52.5q112 -1 189 -85z" />
<glyph unicode="T" horiz-adv-x="519" d="M10 700h499v-73h-211v-627h-76v627h-212v73z" />
<glyph unicode="U" horiz-adv-x="596" d="M63 700h77v-429q0 -117 37 -169.5t122 -52.5q84 0 122 52.5t38 169.5v429h74v-441q0 -271 -234 -271q-236 0 -236 271v441z" />
<glyph unicode="V" horiz-adv-x="582" d="M297 -10h-10l-276 710h80l203 -500l199 500h79z" />
<glyph unicode="W" horiz-adv-x="780" d="M217 -11h-9l-189 711h82l125 -447l163 447l166 -447l125 447h82l-188 -711h-9l-174 475z" />
<glyph unicode="X" horiz-adv-x="544" d="M36 700h82l158 -266l159 266h84l-203 -337l216 -363h-82l-180 302l-180 -302h-84l224 373z" />
<glyph unicode="Y" horiz-adv-x="525" d="M4 700h84l176 -292l175 292h82l-221 -364v-336h-75v336z" />
<glyph unicode="Z" horiz-adv-x="531" d="M24 700h481l-361 -629h370v-71h-499l360 626h-351v74z" />
<glyph unicode="[" horiz-adv-x="269" d="M69 700h175v-63h-99v-699h99v-63h-175v825z" />
<glyph unicode="\" horiz-adv-x="310" d="M83 597l214 -672h-71l-213 672h70z" />
<glyph unicode="]" horiz-adv-x="268" d="M199 700v-825h-174v63h99v699h-99v63h174z" />
<glyph unicode="^" horiz-adv-x="570" d="M325 597l223 -223h-83l-180 168l-182 -168h-81l222 223h81z" />
<glyph unicode="_" horiz-adv-x="430" d="M432 -135v-57h-437v57h437z" />
<glyph unicode="`" horiz-adv-x="260" d="M92 712l110 -157l-40 -30l-131 150z" />
<glyph unicode="a" d="M382 379v69h75v-448h-75v65q-45 -75 -147 -75q-84 0 -136.5 63.5t-52.5 168.5q0 106 52.5 171t136.5 65q101 0 147 -79zM124 222q0 -81 33.5 -127.5t94.5 -46.5t95.5 46.5t34.5 127.5t-34.5 127.5t-95.5 46.5q-59 0 -93.5 -46t-34.5 -128z" />
<glyph unicode="b" horiz-adv-x="528" d="M402 222q0 80 -34.5 127t-93.5 47t-94 -46t-35 -128q0 -80 33.5 -127t95.5 -47q59 0 93.5 47t34.5 127zM145 379q48 79 146 79q84 0 136 -65t52 -171q0 -104 -51.5 -168t-136.5 -64q-98 0 -146 75v-65h-76v750h76v-371z" />
<glyph unicode="c" horiz-adv-x="443" d="M269 458h8q81 0 141 -54l-50 -56q-43 46 -98 46q-61 0 -104.5 -51.5t-43.5 -121.5t43.5 -119.5t104.5 -49.5q57 0 98 44l50 -59q-75 -49 -135 -49q-3 0 -7 0.5t-7 0.5q-94 0 -160.5 67t-66.5 165q0 99 66.5 168t160.5 69z" />
<glyph unicode="d" d="M382 379v371h75v-750h-75v65q-45 -75 -147 -75q-84 0 -136.5 63.5t-52.5 168.5q0 106 52.5 171t136.5 65q101 0 147 -79zM124 222q0 -81 33.5 -127.5t94.5 -46.5t95.5 46.5t34.5 127.5t-34.5 127.5t-95.5 46.5q-59 0 -93.5 -46t-34.5 -128z" />
<glyph unicode="e" horiz-adv-x="504" d="M411 114l47 -42q-60 -81 -189 -83q-94 0 -159.5 67t-65.5 165q0 100 63.5 168.5t156.5 68.5h4q89 0 143 -56.5t62 -154.5v-25v-2h-351q0 -69 43.5 -118.5t104.5 -49.5h8q80 0 133 62zM130 283h266q-9 57 -45 84t-86 27q-45 0 -86 -36.5t-49 -74.5z" />
<glyph unicode="f" horiz-adv-x="283" d="M320 750v-62h-72q-39 0 -54.5 -24t-17.5 -70v-146h83v-57h-83v-391h-76v391h-72v57h72v138q0 161 149 164h71z" />
<glyph unicode="g" d="M382 229q0 79 -34 123t-96 44q-60 0 -93.5 -43.5t-33.5 -123.5t32.5 -124.5t94.5 -44.5t96 44.5t34 124.5zM457 0q0 -225 -212 -225h-12q-49 0 -94 17.5t-72 50.5l55 49q38 -56 112 -56q148 0 148 149v93q-44 -78 -147 -78q-84 0 -136.5 63t-52.5 166q0 102 52 165.5 t137 63.5q100 0 147 -79v69h75v-448z" />
<glyph unicode="h" horiz-adv-x="517" d="M454 270v-270h-76v267q0 125 -102 127q-61 0 -95 -37.5t-36 -104.5v-252h-76v750h76v-373q54 81 148 81q78 0 119.5 -47.5t41.5 -140.5z" />
<glyph unicode="i" horiz-adv-x="214" d="M69 448h76v-448h-76v448zM107 675q21 0 36 -15t15 -36t-15 -35.5t-36 -14.5t-35.5 14.5t-14.5 35.5t14.5 36t35.5 15z" />
<glyph unicode="j" horiz-adv-x="214" d="M69 448h76v-673h-76v673zM107 675q21 0 36 -15t15 -36t-15 -35.5t-36 -14.5t-35.5 14.5t-14.5 35.5t14.5 36t35.5 15z" />
<glyph unicode="k" horiz-adv-x="489" d="M69 750h76v-497l225 195h96l-244 -211l255 -237h-99l-233 218v-218h-76v750z" />
<glyph unicode="l" horiz-adv-x="214" d="M69 750h76v-750h-76v750z" />
<glyph unicode="m" horiz-adv-x="803" d="M430 361q53 97 159 97q72 0 111.5 -49t39.5 -139v-270h-76v267q0 127 -95 127q-58 0 -91.5 -37.5t-35.5 -104.5v-252h-75v267q0 127 -96 127q-58 0 -91 -38.5t-35 -103.5v-252h-76v448h76v-71q53 81 147 81q100 0 138 -97z" />
<glyph unicode="n" horiz-adv-x="517" d="M454 270v-270h-76v267q0 125 -102 127q-61 0 -95 -37.5t-36 -104.5v-252h-76v448h76v-71q54 81 148 81q78 0 119.5 -47.5t41.5 -140.5z" />
<glyph unicode="o" horiz-adv-x="538" d="M269 458q93 0 158.5 -68.5t65.5 -167.5q0 -98 -65.5 -165.5t-158.5 -67.5q-94 0 -160.5 67t-66.5 165q0 99 66.5 168t160.5 69zM270 394q-61 0 -104.5 -51.5t-43.5 -121.5t43.5 -119.5t104.5 -49.5t104 49.5t43 119.5t-43.5 121.5t-103.5 51.5z" />
<glyph unicode="p" horiz-adv-x="528" d="M145 65v-290h-76v673h76v-69q48 79 146 79q84 0 136 -65t52 -171q0 -104 -51.5 -168t-136.5 -64q-98 0 -146 75zM402 222q0 80 -34.5 127t-93.5 47t-94 -46t-35 -128q0 -80 33.5 -127t95.5 -47q59 0 93.5 47t34.5 127z" />
<glyph unicode="q" d="M124 222q0 -81 33.5 -127.5t94.5 -46.5t95.5 46.5t34.5 127.5t-34.5 127.5t-95.5 46.5q-59 0 -93.5 -46t-34.5 -128zM382 65q-46 -77 -147 -77q-84 0 -136.5 64.5t-52.5 169.5q0 106 52.5 171t136.5 65q101 0 147 -79v69h75v-673h-75v290z" />
<glyph unicode="r" horiz-adv-x="364" d="M353 444l-26 -68q-29 17 -50 17q-64 0 -97 -40.5t-35 -117.5v-235h-76v448h76v-71q47 81 155 81q28 0 53 -14z" />
<glyph unicode="s" horiz-adv-x="411" d="M355 400l-43 -49q-47 44 -96 44q-39 0 -63.5 -19.5t-24.5 -53.5q3 -50 103 -71q140 -36 140 -127v-2q0 -64 -43.5 -98.5t-130.5 -34.5q-42 0 -85 19t-70 52l55 47q40 -55 102 -55q52 0 73 11.5t22 44.5q0 37 -20 51.5t-72 27.5q-73 20 -107.5 49.5t-35.5 82.5 q0 63 43.5 101t116.5 38q72 0 136 -58z" />
<glyph unicode="t" horiz-adv-x="261" d="M168 625v-177h62v-57h-62v-391h-75v391h-62v57h62v177h75z" />
<glyph unicode="u" horiz-adv-x="510" d="M63 176v272h74v-269q0 -62 32.5 -94.5t86.5 -32.5q60 0 87 32.5t28 108.5v255h76v-272q0 -86 -50.5 -136.5t-135.5 -50.5h-5q-84 0 -138.5 49t-54.5 138z" />
<glyph unicode="v" horiz-adv-x="482" d="M247 -10h-12l-219 458h83l147 -302l137 302h84z" />
<glyph unicode="w" horiz-adv-x="698" d="M475 -10h-11l-116 277l-112 -277h-11l-206 458h83l136 -280l110 280l121 -291l128 291h85z" />
<glyph unicode="x" horiz-adv-x="483" d="M454 448l-166 -219l174 -229h-89l-132 175l-135 -175h-89l178 234l-161 214h88l121 -161l123 161h88z" />
<glyph unicode="y" horiz-adv-x="541" d="M397 229v219h75v-449q0 -224 -212 -224h-11q-48 0 -93.5 17.5t-73.5 50.5l55 49q38 -56 112 -56q148 0 148 149v75q-40 -71 -147 -71q-83 0 -136 67.5t-53 172.5v219h79v-219q0 -80 32.5 -125t94.5 -45q61 0 95.5 45t34.5 125z" />
<glyph unicode="z" horiz-adv-x="439" d="M44 448h358v-68l-283 -322h283v-58h-367v65l283 324h-274v59z" />
<glyph unicode="{" horiz-adv-x="356" d="M336 -82v-63h-25q-103 0 -137.5 31.5t-34.5 127.5v106q0 64 -21.5 90t-80.5 26h-27v64h27q58 0 80 25t22 91v106q0 98 34 130.5t138 32.5h25v-63h-28q-57 0 -75 -18.5t-19 -83.5v-109q0 -70 -18 -101t-64 -42q46 -13 64 -44t18 -99v-110q0 -59 17.5 -78t76.5 -19h28z" />
<glyph unicode="|" horiz-adv-x="207" d="M138 700v-850h-69v850h69z" />
<glyph unicode="}" horiz-adv-x="355" d="M20 -82h29q58 0 75 18.5t17 78.5v110q0 68 18 99t64 44q-45 11 -63.5 42t-18.5 101v109q0 63 -17.5 82.5t-74.5 19.5h-29v63h26q103 0 137 -32.5t34 -130.5v-106q0 -66 22 -91t81 -25h24v-64h-24q-59 0 -81 -24.5t-22 -91.5v-106q0 -96 -34 -127.5t-137 -31.5h-26v63z " />
<glyph unicode="~" horiz-adv-x="630" d="M573 327v-73q-77 -57 -157 -58q-55 0 -112 25q-55 29 -110 29q-70 0 -147 -64v71q83 59 157 59q56 0 111 -26q59 -28 110 -28q71 0 148 65z" />
<glyph unicode="&#xa1;" horiz-adv-x="291" d="M187 0h-83v321l5 165h73l5 -165v-321zM147 710q21 0 36 -15t15 -36t-15 -35.5t-36 -14.5t-35.5 14.5t-14.5 35.5t14.5 36t35.5 15z" />
<glyph unicode="&#xa2;" horiz-adv-x="423" d="M238 51v343q-61 -7 -94.5 -52.5t-33.5 -119.5q0 -73 33 -118.5t95 -52.5zM394 430v-69q-61 33 -115 34v-346q59 3 115 35v-69q-47 -20 -115 -25v-114h-41v116q-99 6 -153 66t-54 164q0 105 53 166t154 69v116h41v-116q68 -3 115 -27z" />
<glyph unicode="&#xa3;" horiz-adv-x="454" d="M456 584l-44 -50q-23 26 -33 35.5t-28 18.5t-40 9h-3q-51 0 -78 -36t-27 -125v-94h157v-64h-157v-205h228v-73h-407v73h97v205h-81v64h81v104q0 219 183 222q49 -2 89.5 -24t62.5 -60z" />
<glyph unicode="&#xa4;" horiz-adv-x="529" d="M362 436l85 92l47 -51l-86 -90q30 -51 30 -106t-32 -104l87 -91l-47 -51l-85 91q-47 -33 -97 -33q-53 0 -99 32l-84 -91l-46 51l84 91q-30 55 -30 105q0 56 31 104l-84 91l47 50l84 -91q45 33 97 33q51 0 98 -32zM373 282q0 47 -31.5 81.5t-77.5 34.5q-44 0 -77.5 -33.5 t-33.5 -82.5q0 -50 32 -85t79 -35q46 0 77.5 35t31.5 85z" />
<glyph unicode="&#xa5;" horiz-adv-x="505" d="M464 198h-169v-198h-83v198h-171v54h171v23l-34 69h-137v53h109l-131 260h79l155 -310l155 310h79l-131 -260h108v-53h-136l-34 -69v-23h170v-54z" />
<glyph unicode="&#xa6;" horiz-adv-x="206" d="M137 162v-301h-68v301h68zM137 573v-304h-68v304h68z" />
<glyph unicode="&#xa7;" horiz-adv-x="406" d="M148 411q-50 -41 -51 -80q0 -35 28 -63.5t131 -87.5q51 40 51 80q0 34 -30 64t-129 87zM333 642v-71q-70 33 -117 34q-38 0 -61.5 -17t-23.5 -50q0 -37 86 -90q103 -70 129.5 -97.5t26.5 -77.5q0 -77 -74 -125q45 -43 48 -99q0 -60 -42.5 -96.5t-112.5 -36.5 q-62 0 -128 24v70q64 -28 118 -31q89 0 89 67q0 42 -90 99l-11 7q-86 54 -112.5 84.5t-26.5 75.5q0 87 74 129q-45 36 -48 100q0 56 41 91.5t110 35.5q65 0 125 -26z" />
<glyph unicode="&#xa8;" horiz-adv-x="370" d="M99 640q20 0 34 -15t14 -36t-14 -36t-34 -15t-34 15t-14 36t14 36t34 15zM264 640q20 0 34 -15t14 -36t-14 -36t-34 -15t-34 15t-14 36t14 36t34 15z" />
<glyph unicode="&#xa9;" horiz-adv-x="712" d="M354 653q136 0 228 -98t92 -230q0 -135 -94 -230t-226 -95q-133 0 -225.5 96t-92.5 229q0 140 95.5 234t222.5 94zM354 607q-112 0 -193.5 -83.5t-81.5 -198.5q0 -117 82 -199t193 -82q118 0 197.5 83t79.5 198q0 84 -41 149.5t-103 98t-133 34.5zM484 499v-57 q-46 26 -113 29q-64 0 -100 -37.5t-36 -108.5q0 -70 37 -108.5t103 -38.5q57 0 109 28v-55q-53 -24 -118 -26q-91 0 -146.5 53.5t-55.5 146.5q0 91 54.5 144.5t147.5 53.5q64 0 118 -24z" />
<glyph unicode="&#xaa;" horiz-adv-x="402" d="M57 260h282v-55h-282v55zM338 513v-199h-62v50q-38 -59 -115 -59q-51 0 -82.5 29.5t-32.5 80.5q0 120 155 120h75v2q0 80 -94 80q-54 0 -111 -30v56q62 25 118 25q149 0 149 -155zM224 485q-65 0 -91.5 -14.5t-26.5 -48.5q0 -28 19.5 -45.5t56.5 -17.5q42 0 68 32t26 81 v13h-52z" />
<glyph unicode="&#xab;" horiz-adv-x="450" d="M396 423v-77l-124 -107l124 -108v-75l-192 166v33zM217 423v-77l-122 -107l122 -108v-75l-191 166v33z" />
<glyph unicode="&#xac;" horiz-adv-x="627" d="M32 344h526v-230h-69v162h-457v68z" />
<glyph unicode="&#xad;" horiz-adv-x="359" d="M69 256h221v-66h-221v66z" />
<glyph unicode="&#xae;" horiz-adv-x="539" d="M269 677q-82 0 -141 -63t-59 -149q0 -88 59.5 -149.5t140.5 -61.5q84 0 141.5 62.5t57.5 148.5q0 94 -59.5 152t-139.5 60zM269 711q98 0 165 -74t67 -172q0 -102 -68 -173t-164 -71q-97 0 -164 72t-67 172q0 105 69 175.5t162 70.5zM261 574h-39v-92h39q33 0 47.5 10 t14.5 36q0 25 -14.5 34.5t-47.5 11.5zM262 608q111 0 111 -79q0 -58 -64 -72q11 -2 43 -52l43 -74h-53l-41 71q-18 29 -29 37.5t-29 10.5h-21v-119h-49v277h89z" />
<glyph unicode="&#xaf;" horiz-adv-x="383" d="M69 610h245v-60h-245v60z" />
<glyph unicode="&#xb0;" horiz-adv-x="337" d="M168 619q-29 0 -50 -20.5t-21 -51.5q0 -29 20.5 -49.5t50.5 -20.5q29 0 49 19.5t20 50.5q0 28 -20 50t-49 22zM168 667q56 0 85.5 -36.5t31.5 -83.5q0 -47 -34 -82.5t-83 -35.5q-51 0 -84.5 34t-33.5 84q0 49 34 84.5t84 35.5z" />
<glyph unicode="&#xb1;" horiz-adv-x="451" d="M259 564v-170h159v-76h-159v-170h-70v170h-156v76h156v170h70zM33 73h385v-73h-385v73z" />
<glyph unicode="&#xb2;" horiz-adv-x="366" d="M108 363h210v-48h-284v48l170 147q50 47 50 79q0 27 -24.5 45t-64.5 18q-30 0 -51.5 -13t-23.5 -30h-57q0 39 39 67t92 30q68 0 109.5 -30.5t41.5 -82.5q0 -51 -51 -106z" />
<glyph unicode="&#xb3;" horiz-adv-x="388" d="M25 404h65q16 -47 88 -47q42 0 67 18t25 49t-24.5 49.5t-67.5 18.5v50q38 0 60.5 14.5t22.5 40.5t-22 40.5t-61 14.5q-68 0 -80 -44h-63q4 46 42.5 72t100.5 26q65 0 104.5 -27.5t39.5 -76.5q0 -65 -82 -84q43 -7 67 -32t25 -62q0 -55 -40 -85t-114 -30q-137 0 -153 95z " />
<glyph unicode="&#xb4;" horiz-adv-x="262" d="M160 710l68 -35l-144 -165l-44 33z" />
<glyph unicode="&#xb5;" horiz-adv-x="522" d="M69 -220v668h76v-279q0 -118 111 -118q122 0 122 135v262h77v-448h-77v50q-42 -60 -116 -60q-85 0 -117 59v-269h-76z" />
<glyph unicode="&#xb6;" horiz-adv-x="472" d="M219 657h184v-742h-58v688h-77v-688h-59v369q-87 8 -136 56t-49 130t53.5 134.5t141.5 52.5z" />
<glyph unicode="&#xb7;" horiz-adv-x="257" d="M127 360q31 0 53 -22t22 -53t-22 -53t-53 -22t-53 22t-22 53t22 53t53 22z" />
<glyph unicode="&#xb8;" horiz-adv-x="265" d="M36 -180l86 140h48l-68 -180z" />
<glyph unicode="&#xb9;" horiz-adv-x="231" d="M154 700v-385h-64v330h-71l27 55h108z" />
<glyph unicode="&#xba;" horiz-adv-x="416" d="M66 260h282v-55h-282v55zM207 668q73 0 115.5 -48t42.5 -135q0 -83 -42.5 -131.5t-115.5 -48.5q-72 0 -115.5 48.5t-43.5 131.5q0 84 42 133.5t117 49.5zM207 617q-43 0 -69 -35.5t-26 -96.5q0 -57 26 -92t69 -35t68.5 35.5t25.5 91.5q0 61 -25 96.5t-69 35.5z" />
<glyph unicode="&#xbb;" horiz-adv-x="450" d="M54 423l192 -168v-33l-192 -166v75l124 108l-124 107v77zM232 423l192 -168v-33l-192 -166v75l123 108l-123 107v77z" />
<glyph unicode="&#xbc;" horiz-adv-x="690" d="M553 254l-101 -123h101v123zM615 391v-260h64v-51h-64v-80h-62v80h-201zM455 668h63l-362 -679h-63zM145 668v-385h-64v330h-71l27 55h108z" />
<glyph unicode="&#xbd;" horiz-adv-x="713" d="M450 668h63l-362 -679h-63zM140 668v-385h-64v330h-71l27 55h108zM480 48h210v-48h-284v48l170 147q51 48 51 79q0 27 -25 45t-65 18q-30 0 -51.5 -13t-23.5 -30h-57q0 39 39.5 67t91.5 30q68 0 109.5 -30.5t41.5 -82.5q0 -51 -51 -106z" />
<glyph unicode="&#xbe;" horiz-adv-x="803" d="M665 254l-101 -123h101v123zM727 391v-260h65v-51h-65v-80h-62v80h-200zM580 668h62l-363 -679h-62zM-16 377h65q16 -47 88 -47q42 0 67 18t25 49t-24.5 49.5t-67.5 18.5v50q38 0 60.5 14.5t22.5 40.5t-22 40.5t-61 14.5q-68 0 -80 -44h-63q4 46 42.5 72t100.5 26 q65 0 104.5 -27.5t39.5 -76.5q0 -65 -82 -84q43 -7 67 -32t25 -62q0 -55 -40 -85t-114 -30q-137 0 -153 95z" />
<glyph unicode="&#xbf;" horiz-adv-x="413" d="M299 151h76q-1 -81 -49.5 -122.5t-112.5 -41.5q-68 0 -109.5 36.5t-44.5 97.5q0 17 6.5 35.5t14.5 32t23 31.5t22.5 26t23.5 24l16 15q5 5 17 18.5t17 19.5t14 17t13 18t7.5 16t3.5 17q0 1 0.5 5t0.5 5q0 21 -10.5 34.5t-27.5 13.5h-3h-8q-38 0 -44 -46h-54 q2 49 30.5 81.5t77.5 32.5h4q43 -2 78.5 -35.5t35.5 -80.5q0 -49 -26.5 -88t-73.5 -81q-75 -70 -76 -105q0 -34 18.5 -50t59.5 -16q33 0 55 23.5t25 66.5zM202 611q-21 0 -36 15t-15 36t15 35.5t36 14.5t35.5 -14.5t14.5 -35.5t-14.5 -36t-35.5 -15z" />
<glyph unicode="&#xc0;" horiz-adv-x="572" d="M285 513l-100 -260h201zM285 711l282 -711h-82l-68 181h-261l-69 -181h-82zM262 948l110 -157l-40 -30l-131 150z" />
<glyph unicode="&#xc1;" horiz-adv-x="572" d="M285 513l-100 -260h201zM285 711l282 -711h-82l-68 181h-261l-69 -181h-82zM312 961l68 -35l-144 -165l-44 33z" />
<glyph unicode="&#xc2;" horiz-adv-x="572" d="M285 513l-100 -260h201zM285 711l282 -711h-82l-68 181h-261l-69 -181h-82zM254 912h66l102 -128l-54 -23l-81 92l-81 -92l-55 23z" />
<glyph unicode="&#xc3;" horiz-adv-x="572" d="M285 513l-100 -260h201zM285 711l282 -711h-82l-68 181h-261l-69 -181h-82zM283 786q-47 31 -65 33h-2q-35 0 -68 -58l-39 30q48 83 105 84q38 0 73 -26q48 -32 64 -32h3q39 0 65 58l45 -30q-11 -32 -44 -58t-65 -26h-1h-4q-33 0 -67 25z" />
<glyph unicode="&#xc4;" horiz-adv-x="572" d="M285 513l-100 -260h201zM285 711l282 -711h-82l-68 181h-261l-69 -181h-82zM203 863q20 0 34 -15t14 -36t-14 -36t-34 -15t-34 15t-14 36t14 36t34 15zM368 863q20 0 34 -15t14 -36t-14 -36t-34 -15t-34 15t-14 36t14 36t34 15z" />
<glyph unicode="&#xc5;" horiz-adv-x="572" d="M339 837q0 21 -16 36t-38 15t-37 -14t-15 -37q0 -21 15 -36.5t37 -15.5q23 0 38.5 15t15.5 37zM382 837q0 -39 -28 -66t-69 -27q-39 0 -67 27t-28 66q0 38 27.5 66t67.5 28t67.5 -27t29.5 -67zM285 513l-100 -260h201zM285 711l282 -711h-82l-68 181h-261l-69 -181h-82z " />
<glyph unicode="&#xc7;" horiz-adv-x="567" d="M536 648l-41 -55q-69 52 -149 52q-108 0 -167.5 -77t-59.5 -222q0 -143 57.5 -219t169.5 -76q83 0 147 49l41 -53q-81 -60 -193 -60q-139 0 -219.5 95.5t-80.5 263.5q0 169 80.5 267t219.5 98q106 0 195 -63zM230 -180l86 140h48l-68 -180z" />
<glyph unicode="&#xc8;" horiz-adv-x="492" d="M69 700h387v-73h-310v-179h310v-73h-310v-304h318v-71h-395v700zM242 948l110 -157l-40 -30l-131 150z" />
<glyph unicode="&#xc9;" horiz-adv-x="492" d="M69 700h387v-73h-310v-179h310v-73h-310v-304h318v-71h-395v700zM293 961l68 -35l-144 -165l-44 33z" />
<glyph unicode="&#xca;" horiz-adv-x="492" d="M69 700h387v-73h-310v-179h310v-73h-310v-304h318v-71h-395v700zM234 912h66l102 -128l-54 -23l-81 92l-81 -92l-55 23z" />
<glyph unicode="&#xcb;" horiz-adv-x="492" d="M69 700h387v-73h-310v-179h310v-73h-310v-304h318v-71h-395v700zM184 863q20 0 34 -15t14 -36t-14 -36t-34 -15t-34 15t-14 36t14 36t34 15zM349 863q20 0 34 -15t14 -36t-14 -36t-34 -15t-34 15t-14 36t14 36t34 15z" />
<glyph unicode="&#xcc;" horiz-adv-x="215" d="M83 948l110 -157l-40 -30l-131 150zM69 700h77v-700h-77v700z" />
<glyph unicode="&#xcd;" horiz-adv-x="215" d="M134 961l68 -35l-144 -165l-44 33zM69 700h77v-700h-77v700z" />
<glyph unicode="&#xce;" horiz-adv-x="215" d="M75 912h66l102 -128l-54 -23l-81 92l-81 -92l-55 23zM69 700h77v-700h-77v700z" />
<glyph unicode="&#xcf;" horiz-adv-x="215" d="M25 863q20 0 34 -15t14 -36t-14 -36t-34 -15t-34 15t-14 36t14 36t34 15zM190 863q20 0 34 -15t14 -36t-14 -36t-34 -15t-34 15t-14 36t14 36t34 15zM69 700h77v-700h-77v700z" />
<glyph unicode="&#xd0;" horiz-adv-x="652" d="M23 339h70v318h170q177 0 261 -79.5t84 -249.5t-83.5 -249t-261.5 -79h-170v273h-70v66zM176 583v-244h67v-66h-67v-202h100q127 0 186 62t59 195q0 132 -59 193.5t-186 61.5h-100z" />
<glyph unicode="&#xd1;" horiz-adv-x="602" d="M533 0h-9l-379 486v-486h-76v701h6l382 -491v490h76v-700zM297 786q-47 31 -65 33h-2q-35 0 -68 -58l-39 30q48 83 105 84q38 0 73 -26q48 -32 64 -32h3q39 0 65 58l45 -30q-11 -32 -44 -58t-65 -26h-1h-4q-33 0 -67 25z" />
<glyph unicode="&#xd2;" horiz-adv-x="749" d="M374 645q-111 0 -183 -80.5t-72 -217.5q0 -135 71 -216t184 -81q111 0 182.5 80t71.5 217q0 135 -71 216.5t-183 81.5zM374 711q146 0 236 -99.5t90 -264.5t-88 -262t-238 -97t-238.5 97t-88.5 262t89.5 264.5t237.5 99.5zM349 948l110 -157l-40 -30l-131 150z" />
<glyph unicode="&#xd3;" horiz-adv-x="749" d="M374 645q-111 0 -183 -80.5t-72 -217.5q0 -135 71 -216t184 -81q111 0 182.5 80t71.5 217q0 135 -71 216.5t-183 81.5zM374 711q146 0 236 -99.5t90 -264.5t-88 -262t-238 -97t-238.5 97t-88.5 262t89.5 264.5t237.5 99.5zM399 961l68 -35l-144 -165l-44 33z" />
<glyph unicode="&#xd4;" horiz-adv-x="749" d="M374 645q-111 0 -183 -80.5t-72 -217.5q0 -135 71 -216t184 -81q111 0 182.5 80t71.5 217q0 135 -71 216.5t-183 81.5zM374 711q146 0 236 -99.5t90 -264.5t-88 -262t-238 -97t-238.5 97t-88.5 262t89.5 264.5t237.5 99.5zM341 912h66l102 -128l-54 -23l-81 92l-81 -92 l-55 23z" />
<glyph unicode="&#xd5;" horiz-adv-x="749" d="M374 645q-111 0 -183 -80.5t-72 -217.5q0 -135 71 -216t184 -81q111 0 182.5 80t71.5 217q0 135 -71 216.5t-183 81.5zM374 711q146 0 236 -99.5t90 -264.5t-88 -262t-238 -97t-238.5 97t-88.5 262t89.5 264.5t237.5 99.5zM370 786q-47 31 -65 33h-2q-35 0 -68 -58 l-39 30q48 83 105 84q38 0 73 -26q48 -32 64 -32h3q39 0 65 58l45 -30q-11 -32 -44 -58t-65 -26h-1h-4q-33 0 -67 25z" />
<glyph unicode="&#xd6;" horiz-adv-x="749" d="M374 645q-111 0 -183 -80.5t-72 -217.5q0 -135 71 -216t184 -81q111 0 182.5 80t71.5 217q0 135 -71 216.5t-183 81.5zM374 711q146 0 236 -99.5t90 -264.5t-88 -262t-238 -97t-238.5 97t-88.5 262t89.5 264.5t237.5 99.5zM291 863q20 0 34 -15t14 -36t-14 -36t-34 -15 t-34 15t-14 36t14 36t34 15zM456 863q20 0 34 -15t14 -36t-14 -36t-34 -15t-34 15t-14 36t14 36t34 15z" />
<glyph unicode="&#xd7;" horiz-adv-x="535" d="M505 484l-188 -203l188 -201l-49 -54l-188 202l-189 -202l-48 54l187 201l-187 203l48 52l189 -203l188 203z" />
<glyph unicode="&#xd8;" horiz-adv-x="749" d="M374 645q-111 0 -183 -80.5t-72 -217.5q0 -92 34.5 -160.5t94.5 -103.5l195 553q-33 9 -69 9zM310 58q28 -8 64 -8q111 0 182.5 80t71.5 217q0 90 -33 157.5t-91 104.5zM465 700l30 84h71l-38 -108q81 -43 126.5 -128.5t45.5 -200.5q0 -165 -88 -262t-238 -97 q-46 0 -85 10l-29 -82h-71l37 104q-85 39 -132 124t-47 203q0 165 89.5 264.5t237.5 99.5q53 0 91 -11z" />
<glyph unicode="&#xd9;" horiz-adv-x="596" d="M63 700h77v-429q0 -117 37 -169.5t122 -52.5q84 0 122 52.5t38 169.5v429h74v-441q0 -271 -234 -271q-236 0 -236 271v441zM274 948l110 -157l-40 -30l-131 150z" />
<glyph unicode="&#xda;" horiz-adv-x="596" d="M63 700h77v-429q0 -117 37 -169.5t122 -52.5q84 0 122 52.5t38 169.5v429h74v-441q0 -271 -234 -271q-236 0 -236 271v441zM324 961l68 -35l-144 -165l-44 33z" />
<glyph unicode="&#xdb;" horiz-adv-x="596" d="M63 700h77v-429q0 -117 37 -169.5t122 -52.5q84 0 122 52.5t38 169.5v429h74v-441q0 -271 -234 -271q-236 0 -236 271v441zM266 912h66l102 -128l-54 -23l-81 92l-81 -92l-55 23z" />
<glyph unicode="&#xdc;" horiz-adv-x="596" d="M63 700h77v-429q0 -117 37 -169.5t122 -52.5q84 0 122 52.5t38 169.5v429h74v-441q0 -271 -234 -271q-236 0 -236 271v441zM215 863q20 0 34 -15t14 -36t-14 -36t-34 -15t-34 15t-14 36t14 36t34 15zM380 863q20 0 34 -15t14 -36t-14 -36t-34 -15t-34 15t-14 36t14 36 t34 15z" />
<glyph unicode="&#xdd;" horiz-adv-x="525" d="M4 700h84l176 -292l175 292h82l-221 -364v-336h-75v336zM288 961l68 -35l-144 -165l-44 33z" />
<glyph unicode="&#xde;" horiz-adv-x="489" d="M69 700h80v-138h104q102 0 155 -49.5t53 -147.5q0 -193 -208 -197h-104v-168h-80v700zM149 488v-247h104q57 0 89 32t32 92q0 57 -31 90t-90 33h-104z" />
<glyph unicode="&#xdf;" horiz-adv-x="523" d="M73 446v69q0 89 49 142.5t138 53.5q70 0 123.5 -52t53.5 -141v-2v-85q-130 -8 -130 -69q0 -21 10.5 -35.5t39.5 -32.5l22 -17q63 -43 85.5 -83t22.5 -86q-2 -52 -45 -85.5t-112 -33.5q-88 0 -134 64l54 45q15 -18 39 -33.5t41 -15.5q79 0 79 73v7q0 38 -65 80l-37 25 q-40 26 -57.5 55t-17.5 71q0 53 31 78t99 40v38q0 50 -31.5 88t-72.5 38q-51 0 -78.5 -34t-29.5 -94v-514h-77v392h-29z" />
<glyph unicode="&#xe0;" d="M382 379v69h75v-448h-75v65q-45 -75 -147 -75q-84 0 -136.5 63.5t-52.5 168.5q0 106 52.5 171t136.5 65q101 0 147 -79zM124 222q0 -81 33.5 -127.5t94.5 -46.5t95.5 46.5t34.5 127.5t-34.5 127.5t-95.5 46.5q-59 0 -93.5 -46t-34.5 -128zM227 695l110 -157l-40 -30 l-131 150z" />
<glyph unicode="&#xe1;" d="M382 379v69h75v-448h-75v65q-45 -75 -147 -75q-84 0 -136.5 63.5t-52.5 168.5q0 106 52.5 171t136.5 65q101 0 147 -79zM124 222q0 -81 33.5 -127.5t94.5 -46.5t95.5 46.5t34.5 127.5t-34.5 127.5t-95.5 46.5q-59 0 -93.5 -46t-34.5 -128zM326 708l68 -35l-144 -165 l-44 33z" />
<glyph unicode="&#xe2;" d="M382 379v69h75v-448h-75v65q-45 -75 -147 -75q-84 0 -136.5 63.5t-52.5 168.5q0 106 52.5 171t136.5 65q101 0 147 -79zM124 222q0 -81 33.5 -127.5t94.5 -46.5t95.5 46.5t34.5 127.5t-34.5 127.5t-95.5 46.5q-59 0 -93.5 -46t-34.5 -128zM219 659h66l102 -128l-54 -23 l-81 92l-81 -92l-55 23z" />
<glyph unicode="&#xe3;" d="M382 379v69h75v-448h-75v65q-45 -75 -147 -75q-84 0 -136.5 63.5t-52.5 168.5q0 106 52.5 171t136.5 65q101 0 147 -79zM124 222q0 -81 33.5 -127.5t94.5 -46.5t95.5 46.5t34.5 127.5t-34.5 127.5t-95.5 46.5q-59 0 -93.5 -46t-34.5 -128zM248 533q-47 31 -65 33h-2 q-35 0 -68 -58l-39 30q48 83 105 84q38 0 73 -26q48 -32 64 -32h3q39 0 65 58l45 -30q-11 -32 -44 -58t-65 -26h-1h-4q-33 0 -67 25z" />
<glyph unicode="&#xe4;" d="M382 379v69h75v-448h-75v65q-45 -75 -147 -75q-84 0 -136.5 63.5t-52.5 168.5q0 106 52.5 171t136.5 65q101 0 147 -79zM124 222q0 -81 33.5 -127.5t94.5 -46.5t95.5 46.5t34.5 127.5t-34.5 127.5t-95.5 46.5q-59 0 -93.5 -46t-34.5 -128zM169 610q20 0 34 -15t14 -36 t-14 -36t-34 -15t-34 15t-14 36t14 36t34 15zM334 610q20 0 34 -15t14 -36t-14 -36t-34 -15t-34 15t-14 36t14 36t34 15z" />
<glyph unicode="&#xe5;" d="M382 379v69h75v-448h-75v65q-45 -75 -147 -75q-84 0 -136.5 63.5t-52.5 168.5q0 106 52.5 171t136.5 65q101 0 147 -79zM124 222q0 -81 33.5 -127.5t94.5 -46.5t95.5 46.5t34.5 127.5t-34.5 127.5t-95.5 46.5q-59 0 -93.5 -46t-34.5 -128zM305 601q0 21 -16 36t-38 15 t-37 -14t-15 -37q0 -21 15 -36.5t37 -15.5q23 0 38.5 15t15.5 37zM348 601q0 -39 -28 -66t-69 -27q-39 0 -67 27t-28 66q0 38 27.5 66t67.5 28t67.5 -27t29.5 -67z" />
<glyph unicode="&#xe7;" horiz-adv-x="443" d="M269 458h8q81 0 141 -54l-50 -56q-43 46 -98 46q-61 0 -104.5 -51.5t-43.5 -121.5t43.5 -119.5t104.5 -49.5q57 0 98 44l50 -59q-75 -49 -135 -49q-3 0 -7 0.5t-7 0.5q-94 0 -160.5 67t-66.5 165q0 99 66.5 168t160.5 69zM159 -180l86 140h48l-68 -180z" />
<glyph unicode="&#xe8;" horiz-adv-x="504" d="M411 114l47 -42q-60 -81 -189 -83q-94 0 -159.5 67t-65.5 165q0 100 63.5 168.5t156.5 68.5h4q89 0 143 -56.5t62 -154.5v-25v-2h-351q0 -69 43.5 -118.5t104.5 -49.5h8q80 0 133 62zM130 283h266q-9 57 -45 84t-86 27q-45 0 -86 -36.5t-49 -74.5zM234 695l110 -157 l-40 -30l-131 150z" />
<glyph unicode="&#xe9;" horiz-adv-x="504" d="M411 114l47 -42q-60 -81 -189 -83q-94 0 -159.5 67t-65.5 165q0 100 63.5 168.5t156.5 68.5h4q89 0 143 -56.5t62 -154.5v-25v-2h-351q0 -69 43.5 -118.5t104.5 -49.5h8q80 0 133 62zM130 283h266q-9 57 -45 84t-86 27q-45 0 -86 -36.5t-49 -74.5zM322 708l68 -35 l-144 -165l-44 33z" />
<glyph unicode="&#xea;" horiz-adv-x="504" d="M411 114l47 -42q-60 -81 -189 -83q-94 0 -159.5 67t-65.5 165q0 100 63.5 168.5t156.5 68.5h4q89 0 143 -56.5t62 -154.5v-25v-2h-351q0 -69 43.5 -118.5t104.5 -49.5h8q80 0 133 62zM130 283h266q-9 57 -45 84t-86 27q-45 0 -86 -36.5t-49 -74.5zM226 659h66l102 -128 l-54 -23l-81 92l-81 -92l-55 23z" />
<glyph unicode="&#xeb;" horiz-adv-x="504" d="M411 114l47 -42q-60 -81 -189 -83q-94 0 -159.5 67t-65.5 165q0 100 63.5 168.5t156.5 68.5h4q89 0 143 -56.5t62 -154.5v-25v-2h-351q0 -69 43.5 -118.5t104.5 -49.5h8q80 0 133 62zM130 283h266q-9 57 -45 84t-86 27q-45 0 -86 -36.5t-49 -74.5zM176 610q20 0 34 -15 t14 -36t-14 -36t-34 -15t-34 15t-14 36t14 36t34 15zM341 610q20 0 34 -15t14 -36t-14 -36t-34 -15t-34 15t-14 36t14 36t34 15z" />
<glyph unicode="&#xec;" horiz-adv-x="214" d="M82 695l110 -157l-40 -30l-130 150zM69 448h76v-448h-76v448z" />
<glyph unicode="&#xed;" horiz-adv-x="214" d="M133 708l68 -35l-144 -165l-44 33zM69 448h76v-448h-76v448z" />
<glyph unicode="&#xee;" horiz-adv-x="214" d="M74 659h66l102 -128l-54 -23l-80 92l-82 -92l-54 23zM69 448h76v-448h-76v448z" />
<glyph unicode="&#xef;" horiz-adv-x="214" d="M24 610q21 0 34.5 -15t13.5 -36t-13.5 -36t-34.5 -15q-20 0 -34 15t-14 36t14 36t34 15zM190 610q20 0 34 -15t14 -36t-14 -36t-34 -15q-21 0 -34.5 15t-13.5 36t13.5 36t34.5 15zM69 448h76v-448h-76v448z" />
<glyph unicode="&#xf0;" horiz-adv-x="515" d="M270 378q-68 0 -106.5 -43t-38.5 -122q0 -75 35 -119.5t95 -44.5q53 0 92.5 40t39.5 127q0 75 -33.5 118.5t-83.5 43.5zM368 455q53 -65 75.5 -119t22.5 -123q0 -101 -58 -162t-153 -61q-94 0 -152.5 61t-58.5 162q0 99 57 162t148 63q23 0 46 -4l-138 200l-130 -43 l-14 39l115 38l-64 82h88l46 -59l138 44l13 -38l-121 -39z" />
<glyph unicode="&#xf1;" horiz-adv-x="517" d="M454 270v-270h-76v267q0 125 -102 127q-61 0 -95 -37.5t-36 -104.5v-252h-76v448h76v-71q54 81 148 81q78 0 119.5 -47.5t41.5 -140.5zM258 533q-47 31 -65 33h-2q-35 0 -68 -58l-39 30q48 83 105 84q38 0 73 -26q48 -32 64 -32h3q39 0 65 58l45 -30q-11 -32 -44 -58 t-65 -26h-1h-4q-33 0 -67 25z" />
<glyph unicode="&#xf2;" horiz-adv-x="538" d="M269 458q93 0 158.5 -68.5t65.5 -167.5q0 -98 -65.5 -165.5t-158.5 -67.5q-94 0 -160.5 67t-66.5 165q0 99 66.5 168t160.5 69zM270 394q-61 0 -104.5 -51.5t-43.5 -121.5t43.5 -119.5t104.5 -49.5t104 49.5t43 119.5t-43.5 121.5t-103.5 51.5zM243 695l110 -157l-40 -30 l-131 150z" />
<glyph unicode="&#xf3;" horiz-adv-x="538" d="M269 458q93 0 158.5 -68.5t65.5 -167.5q0 -98 -65.5 -165.5t-158.5 -67.5q-94 0 -160.5 67t-66.5 165q0 99 66.5 168t160.5 69zM270 394q-61 0 -104.5 -51.5t-43.5 -121.5t43.5 -119.5t104.5 -49.5t104 49.5t43 119.5t-43.5 121.5t-103.5 51.5zM294 708l68 -35l-144 -165 l-44 33z" />
<glyph unicode="&#xf4;" horiz-adv-x="538" d="M269 458q93 0 158.5 -68.5t65.5 -167.5q0 -98 -65.5 -165.5t-158.5 -67.5q-94 0 -160.5 67t-66.5 165q0 99 66.5 168t160.5 69zM270 394q-61 0 -104.5 -51.5t-43.5 -121.5t43.5 -119.5t104.5 -49.5t104 49.5t43 119.5t-43.5 121.5t-103.5 51.5zM235 659h66l102 -128 l-54 -23l-81 92l-81 -92l-55 23z" />
<glyph unicode="&#xf5;" horiz-adv-x="538" d="M269 458q93 0 158.5 -68.5t65.5 -167.5q0 -98 -65.5 -165.5t-158.5 -67.5q-94 0 -160.5 67t-66.5 165q0 99 66.5 168t160.5 69zM270 394q-61 0 -104.5 -51.5t-43.5 -121.5t43.5 -119.5t104.5 -49.5t104 49.5t43 119.5t-43.5 121.5t-103.5 51.5zM264 533q-47 31 -65 33h-2 q-35 0 -68 -58l-39 30q48 83 105 84q38 0 73 -26q48 -32 64 -32h3q39 0 65 58l45 -30q-11 -32 -44 -58t-65 -26h-1h-4q-33 0 -67 25z" />
<glyph unicode="&#xf6;" horiz-adv-x="538" d="M269 458q93 0 158.5 -68.5t65.5 -167.5q0 -98 -65.5 -165.5t-158.5 -67.5q-94 0 -160.5 67t-66.5 165q0 99 66.5 168t160.5 69zM270 394q-61 0 -104.5 -51.5t-43.5 -121.5t43.5 -119.5t104.5 -49.5t104 49.5t43 119.5t-43.5 121.5t-103.5 51.5zM185 610q20 0 34 -15 t14 -36t-14 -36t-34 -15t-34 15t-14 36t14 36t34 15zM350 610q20 0 34 -15t14 -36t-14 -36t-34 -15t-34 15t-14 36t14 36t34 15z" />
<glyph unicode="&#xf7;" horiz-adv-x="495" d="M23 290h449v-69h-449v69zM246 130q21 0 36 -15t15 -36t-15 -35.5t-36 -14.5t-35.5 14.5t-14.5 35.5t14.5 36t35.5 15zM246 459q21 0 36 -15t15 -36t-15 -35.5t-36 -14.5t-35.5 14.5t-14.5 35.5t14.5 36t35.5 15z" />
<glyph unicode="&#xf8;" horiz-adv-x="538" d="M269 458q28 0 48 -5l12 47h53l-17 -64q58 -29 93 -86t35 -128q0 -98 -65.5 -165.5t-158.5 -67.5q-22 0 -33 2l-15 -52h-53l19 66q-65 25 -105 83.5t-40 132.5q0 99 66.5 168t160.5 69zM346 370l-92 -316q6 -2 16 -2q61 0 104 49.5t43 119.5q0 46 -19.5 85.5t-51.5 63.5z M206 70l93 321q-13 3 -29 3q-61 0 -104.5 -51.5t-43.5 -121.5q0 -49 23 -89t61 -62z" />
<glyph unicode="&#xf9;" horiz-adv-x="510" d="M63 176v272h74v-269q0 -62 32.5 -94.5t86.5 -32.5q60 0 87 32.5t28 108.5v255h76v-272q0 -86 -50.5 -136.5t-135.5 -50.5h-5q-84 0 -138.5 49t-54.5 138zM230 695l110 -157l-40 -30l-131 150z" />
<glyph unicode="&#xfa;" horiz-adv-x="510" d="M63 176v272h74v-269q0 -62 32.5 -94.5t86.5 -32.5q60 0 87 32.5t28 108.5v255h76v-272q0 -86 -50.5 -136.5t-135.5 -50.5h-5q-84 0 -138.5 49t-54.5 138zM281 708l68 -35l-144 -165l-44 33z" />
<glyph unicode="&#xfb;" horiz-adv-x="510" d="M63 176v272h74v-269q0 -62 32.5 -94.5t86.5 -32.5q60 0 87 32.5t28 108.5v255h76v-272q0 -86 -50.5 -136.5t-135.5 -50.5h-5q-84 0 -138.5 49t-54.5 138zM222 659h66l102 -128l-54 -23l-81 92l-81 -92l-55 23z" />
<glyph unicode="&#xfc;" horiz-adv-x="510" d="M63 176v272h74v-269q0 -62 32.5 -94.5t86.5 -32.5q60 0 87 32.5t28 108.5v255h76v-272q0 -86 -50.5 -136.5t-135.5 -50.5h-5q-84 0 -138.5 49t-54.5 138zM173 610q20 0 34 -15t14 -36t-14 -36t-34 -15t-34 15t-14 36t14 36t34 15zM338 610q20 0 34 -15t14 -36t-14 -36 t-34 -15t-34 15t-14 36t14 36t34 15z" />
<glyph unicode="&#xfd;" horiz-adv-x="541" d="M397 229v219h75v-449q0 -224 -212 -224h-11q-48 0 -93.5 17.5t-73.5 50.5l55 49q38 -56 112 -56q148 0 148 149v75q-40 -71 -147 -71q-83 0 -136 67.5t-53 172.5v219h79v-219q0 -80 32.5 -125t94.5 -45q61 0 95.5 45t34.5 125zM293 708l68 -35l-144 -165l-44 33z" />
<glyph unicode="&#xfe;" horiz-adv-x="528" d="M145 65v-290h-76v975h76v-371q48 79 146 79q84 0 136 -65t52 -171q0 -104 -51.5 -168t-136.5 -64q-98 0 -146 75zM402 222q0 80 -34.5 127t-93.5 47t-94 -46t-35 -128q0 -80 33.5 -127t95.5 -47q59 0 93.5 47t34.5 127z" />
<glyph unicode="&#xff;" horiz-adv-x="541" d="M397 229v219h75v-449q0 -224 -212 -224h-11q-48 0 -93.5 17.5t-73.5 50.5l55 49q38 -56 112 -56q148 0 148 149v75q-40 -71 -147 -71q-83 0 -136 67.5t-53 172.5v219h79v-219q0 -80 32.5 -125t94.5 -45q61 0 95.5 45t34.5 125zM184 610q20 0 34 -15t14 -36t-14 -36 t-34 -15t-34 15t-14 36t14 36t34 15zM349 610q20 0 34 -15t14 -36t-14 -36t-34 -15t-34 15t-14 36t14 36t34 15z" />
<glyph unicode="&#x131;" horiz-adv-x="214" d="M69 448h76v-448h-76v448z" />
<glyph unicode="&#x141;" horiz-adv-x="500" d="M104 700h84v-272l129 97l33 -50l-162 -120v-282h295v-73h-379v293l-60 -47l-32 48l92 71v335z" />
<glyph unicode="&#x142;" horiz-adv-x="277" d="M100 750h77v-369l50 37l31 -43l-81 -57v-318h-77v266l-49 -36l-31 43l80 56v421z" />
<glyph unicode="&#x160;" horiz-adv-x="500" d="M444 626l-48 -56q-62 75 -131 75q-140 0 -141 -126q1 -47 27 -73.5t89 -40.5l51 -12q92 -21 134 -70t42 -134q0 -99 -59.5 -150t-174.5 -51q-45 0 -99.5 20.5t-95.5 55.5l50 62q66 -66 145 -71q157 0 157 126q0 55 -27 86t-95 46l-52 12q-86 20 -125.5 67t-40.5 122 q0 92 53 144.5t152 52.5q112 -1 189 -85zM224 761l-94 116l50 21l74 -84l73 84l49 -21l-92 -116h-60z" />
<glyph unicode="&#x161;" horiz-adv-x="411" d="M355 400l-43 -49q-47 44 -96 44q-39 0 -63.5 -19.5t-24.5 -53.5q3 -50 103 -71q140 -36 140 -127v-2q0 -64 -43.5 -98.5t-130.5 -34.5q-42 0 -85 19t-70 52l55 47q40 -55 102 -55q52 0 73 11.5t22 44.5q0 37 -20 51.5t-72 27.5q-73 20 -107.5 49.5t-35.5 82.5 q0 63 43.5 101t116.5 38q72 0 136 -58zM178 508l-94 116l50 21l74 -84l73 84l49 -21l-92 -116h-60z" />
<glyph unicode="&#x178;" horiz-adv-x="525" d="M4 700h84l176 -292l175 292h82l-221 -364v-336h-75v336zM180 863q20 0 34 -15t14 -36t-14 -36t-34 -15t-34 15t-14 36t14 36t34 15zM345 863q20 0 34 -15t14 -36t-14 -36t-34 -15t-34 15t-14 36t14 36t34 15z" />
<glyph unicode="&#x17d;" horiz-adv-x="531" d="M24 700h481l-361 -629h370v-71h-499l360 626h-351v74zM235 761l-94 116l50 21l74 -84l73 84l49 -21l-92 -116h-60z" />
<glyph unicode="&#x17e;" horiz-adv-x="439" d="M44 448h358v-68l-283 -322h283v-58h-367v65l283 324h-274v59zM189 508l-94 116l50 21l74 -84l73 84l49 -21l-92 -116h-60z" />
<glyph unicode="&#x17f;" horiz-adv-x="439" d="M67 446v69q0 89 49 142.5t138 53.5q70 0 123 -51t54 -140h-75q-2 48 -33 85t-71 37q-51 0 -78.5 -34t-29.5 -94v-514h-77v392h-29z" />
<glyph unicode="&#x192;" horiz-adv-x="523" d="M507 611l-19 -53q-16 5 -38 7q-78 0 -96 -102l-24 -125h117v-57h-131l-51 -254q-23 -112 -62 -154.5t-115 -42.5q-39 0 -81 16l20 54q30 -12 57 -12q39 0 60.5 26t37.5 93l56 274h-101v57h114l26 132q14 73 55 113t103 40q41 0 72 -12z" />
<glyph unicode="&#x2c6;" horiz-adv-x="351" d="M143 675h66l102 -128l-54 -23l-81 92l-81 -92l-55 23z" />
<glyph unicode="&#x2c7;" horiz-adv-x="336" d="M138 538l-94 116l50 21l74 -84l73 84l49 -21l-92 -116h-60z" />
<glyph unicode="&#x2d8;" horiz-adv-x="368" d="M60 626l48 16q13 -60 73 -60h4q33 0 55 17t24 43l46 -18q-3 -39 -36.5 -67.5t-84.5 -28.5h-4q-50 0 -85.5 27.5t-39.5 70.5z" />
<glyph unicode="&#x2d9;" horiz-adv-x="222" d="M107 675q21 0 36 -15t15 -36t-15 -35.5t-36 -14.5t-35.5 14.5t-14.5 35.5t14.5 36t35.5 15z" />
<glyph unicode="&#x2da;" horiz-adv-x="298" d="M199 616q0 21 -16 36t-38 15t-37 -14t-15 -37q0 -21 15 -36.5t37 -15.5q23 0 38.5 15t15.5 37zM242 616q0 -39 -28 -66t-69 -27q-39 0 -67 27t-28 66q0 38 27.5 66t67.5 28t67.5 -27t29.5 -67z" />
<glyph unicode="&#x2db;" horiz-adv-x="252" d="M98 0h49q-37 -46 -37 -71q0 -37 45 -37q28 0 51 13v-54q-20 -5 -55 -7q-50 0 -74 16.5t-24 54.5q0 39 45 85z" />
<glyph unicode="&#x2dc;" horiz-adv-x="389" d="M185 580q-47 31 -65 33h-2q-35 0 -68 -58l-39 30q48 83 105 84q38 0 73 -26q48 -32 64 -32h3q39 0 65 58l45 -30q-11 -32 -44 -58t-65 -26h-1h-4q-33 0 -67 25z" />
<glyph unicode="&#x2dd;" horiz-adv-x="365" d="M196 677l-122 -183l-35 23l97 196zM331 677l-122 -183l-35 23l97 196z" />
<glyph unicode="&#x394;" horiz-adv-x="587" d="M293 554l-171 -477h342zM248 657h91l238 -657h-568z" />
<glyph unicode="&#x3a9;" horiz-adv-x="662" d="M619 77v-77h-247v77q73 42 113.5 115.5t40.5 162.5q0 105 -54 169t-142 64t-143 -64t-55 -169q0 -88 40.5 -162t114.5 -116v-77h-247v77h132q-124 114 -124 274q0 139 78 226.5t204 87.5q122 0 202.5 -87t80.5 -223q0 -86 -29 -151t-96 -127h131z" />
<glyph unicode="&#x3c0;" horiz-adv-x="546" d="M511 378h-74l-43 -215q-3 -16 -6 -29t-4.5 -18.5t-1.5 -12.5q0 -26 9.5 -36.5t31.5 -10.5q17 0 41 5l-12 -61q-11 -1 -46 -5q-98 0 -98 85q0 23 23 132l33 166h-134l-79 -378h-75l80 378h-17q-43 0 -50 -59h-66q10 75 39.5 102t98.5 27h364z" />
<glyph unicode="&#x2000;" horiz-adv-x="500" />
<glyph unicode="&#x2001;" horiz-adv-x="1000" />
<glyph unicode="&#x2002;" horiz-adv-x="500" />
<glyph unicode="&#x2003;" horiz-adv-x="1000" />
<glyph unicode="&#x2004;" horiz-adv-x="333" />
<glyph unicode="&#x2005;" horiz-adv-x="250" />
<glyph unicode="&#x2006;" horiz-adv-x="166" />
<glyph unicode="&#x2007;" horiz-adv-x="585" />
<glyph unicode="&#x2008;" horiz-adv-x="218" />
<glyph unicode="&#x2009;" horiz-adv-x="100" />
<glyph unicode="&#x200a;" horiz-adv-x="10" />
<glyph unicode="&#x2010;" horiz-adv-x="359" d="M69 190v66h221v-66h-221z" />
<glyph unicode="&#x2011;" horiz-adv-x="359" d="M69 190v66h221v-66h-221z" />
<glyph unicode="&#x2012;" horiz-adv-x="585" d="M69 190v66h447v-66h-447z" />
<glyph unicode="&#x2013;" horiz-adv-x="500" d="M69 190v66h362v-66h-362z" />
<glyph unicode="&#x2014;" horiz-adv-x="1000" d="M69 190v66h862v-66h-862z" />
<glyph unicode="&#x2015;" horiz-adv-x="2000" d="M69 190v66h1862v-66h-1862z" />
<glyph unicode="&#x2016;" horiz-adv-x="414" d="M345 700v-850h-69v850h69zM138 700v-850h-69v850h69z" />
<glyph unicode="&#x2018;" horiz-adv-x="225" d="M141 503h-86v69l67 128h53l-34 -128v-69z" />
<glyph unicode="&#x2019;" horiz-adv-x="220" d="M81 700h85v-61l-67 -128h-52l34 128v61z" />
<glyph unicode="&#x201a;" horiz-adv-x="221" d="M79 100h86v-69l-68 -125h-52l34 125v69z" />
<glyph unicode="&#x201b;" horiz-adv-x="244" d="M152 700v-69l33 -128h-54l-66 128v69h87z" />
<glyph unicode="&#x201c;" horiz-adv-x="393" d="M141 503h-86v69l67 128h53l-34 -128v-69zM309 503h-87v69l68 128h52l-33 -128v-69z" />
<glyph unicode="&#x201d;" horiz-adv-x="390" d="M80 700h86v-69l-67 -128h-53l34 128v69zM247 700h87v-69l-66 -128h-54l33 128v69z" />
<glyph unicode="&#x201e;" horiz-adv-x="389" d="M246 100h87v-69l-66 -125h-54l33 125v69zM79 100h86v-69l-68 -125h-52l34 125v69z" />
<glyph unicode="&#x201f;" horiz-adv-x="411" d="M319 700v-69l34 -128h-53l-67 128v69h86zM152 700v-69l33 -128h-54l-66 128v69h87z" />
<glyph unicode="&#x2020;" horiz-adv-x="392" d="M160 597h73v-169h150v-61h-150v-445h-73v445h-151v61h151v169z" />
<glyph unicode="&#x2021;" horiz-adv-x="419" d="M396 89h-150v-167h-72v167h-151v61h151v217h-151v61h151v169h72v-169h150v-61h-150v-217h150v-61z" />
<glyph unicode="&#x2022;" horiz-adv-x="350" d="M301 282q0 -54 -38 -93t-90 -39q-48 0 -85.5 38.5t-37.5 93.5q0 53 37 91.5t88 38.5t88.5 -38t37.5 -92z" />
<glyph unicode="&#x2023;" horiz-adv-x="500" d="M100 450l300 -175l-300 -182v357z" />
<glyph unicode="&#x2024;" horiz-adv-x="218" d="M105 89q21 0 36 -15t15 -36t-15 -35.5t-36 -14.5t-35.5 14.5t-14.5 35.5t14.5 36t35.5 15z" />
<glyph unicode="&#x2025;" horiz-adv-x="436" d="M323 89q21 0 36 -15t15 -36t-15 -35.5t-36 -14.5t-35.5 14.5t-14.5 35.5t14.5 36t35.5 15zM105 89q21 0 36 -15t15 -36t-15 -35.5t-36 -14.5t-35.5 14.5t-14.5 35.5t14.5 36t35.5 15z" />
<glyph unicode="&#x2026;" horiz-adv-x="654" d="M541 89q21 0 36 -15t15 -36t-15 -35.5t-36 -14.5t-35.5 14.5t-14.5 35.5t14.5 36t35.5 15zM323 89q21 0 36 -15t15 -36t-15 -35.5t-36 -14.5t-35.5 14.5t-14.5 35.5t14.5 36t35.5 15zM105 89q21 0 36 -15t15 -36t-15 -35.5t-36 -14.5t-35.5 14.5t-14.5 35.5t14.5 36 t35.5 15z" />
<glyph unicode="&#x2030;" horiz-adv-x="1211" d="M1027 244q-39 0 -67.5 -28t-28.5 -67q0 -40 28.5 -68t68.5 -28q39 0 67.5 28t28.5 66q0 41 -28 69t-69 28zM574 665h63l-375 -678h-63zM1027 310q68 0 115.5 -47.5t47.5 -115.5q0 -65 -48.5 -112.5t-113.5 -47.5q-67 0 -114.5 47.5t-47.5 114.5q0 66 47.5 113.5 t113.5 47.5zM185 665q68 0 115 -47.5t47 -116.5q0 -65 -47.5 -113t-113.5 -48q-67 0 -115 48t-48 115t47.5 114.5t114.5 47.5zM185 599q-40 0 -68 -28t-28 -68q0 -39 28.5 -67.5t68.5 -28.5q39 0 67 28t28 67q0 41 -28 69t-68 28zM649 310q68 0 115.5 -47.5t47.5 -115.5 q0 -65 -48.5 -112.5t-113.5 -47.5q-67 0 -114.5 47.5t-47.5 114.5q0 66 47.5 113.5t113.5 47.5zM649 244q-39 0 -67.5 -28t-28.5 -67q0 -40 28.5 -68t68.5 -28q39 0 67.5 28t28.5 66q0 41 -28 69t-69 28z" />
<glyph unicode="&#x2039;" horiz-adv-x="271" d="M217 423v-77l-122 -107l122 -108v-75l-191 166v33z" />
<glyph unicode="&#x203a;" horiz-adv-x="272" d="M54 423l192 -168v-33l-192 -166v75l124 108l-124 107v77z" />
<glyph unicode="&#x2044;" horiz-adv-x="300" d="M317 607h66l-381 -617h-63z" />
<glyph unicode="&#x20ac;" horiz-adv-x="534" d="M496 607l-39 -51q-48 41 -108 41q-64 0 -105.5 -43.5t-55.5 -127.5h237l-23 -53h-220q-4 -19 -4 -41q0 -14 4 -50h183l-24 -55h-153q13 -82 54.5 -126.5t106.5 -44.5q54 0 97 35l48 -44q-68 -58 -149 -58q-96 0 -159.5 62t-81.5 176h-86l22 55h58q-2 40 -2 57q0 24 2 34 h-80l22 53h64q17 113 81 177.5t160 64.5q79 0 151 -61z" />
<glyph unicode="&#x2113;" horiz-adv-x="374" d="M339 113l19 -17q-53 -105 -151 -105q-63 0 -94 37q-30 40 -30 148v79l-52 -40l-11 24l63 51v125q0 114 9.5 163t37.5 85q36 48 82 48q40 0 62 -35.5t22 -90.5q0 -79 -34 -144.5t-97 -132.5v-90q0 -91 19 -131.5t59 -40.5q53 0 96 67zM165 469v-115q37 45 59.5 107 t22.5 123q0 98 -40 98q-23 0 -32.5 -46t-9.5 -167z" />
<glyph unicode="&#x2116;" horiz-adv-x="993" d="M767 641q73 0 115.5 -48t42.5 -135q0 -83 -42.5 -131.5t-115.5 -48.5q-72 0 -115.5 48.5t-43.5 131.5q0 84 42 133.5t117 49.5zM767 590q-43 0 -69 -35.5t-26 -96.5q0 -57 26 -92t69 -35t68.5 35.5t25.5 91.5q0 61 -25 96.5t-69 35.5zM626 233h282v-55h-282v55zM69 711 l388 -501v490h76v-711l-388 497v-486h-76v711z" />
<glyph unicode="&#x2122;" horiz-adv-x="636" d="M358 700l71 -113l68 113h70v-255h-47v212l-79 -132h-23l-83 132v-212h-48v255h71zM241 700v-43h-83v-212h-46v212h-82v43h211z" />
<glyph unicode="&#x212e;" horiz-adv-x="780" d="M760 338h-587q-4 0 -4 -5v-196q0 -12 7 -22q93 -106 222 -106q68 0 129 32t104 87h53q-50 -64 -125.5 -101t-161.5 -37q-150 0 -256 104.5t-106 252.5q0 150 106 255.5t256 105.5q151 0 257 -105t106 -256v-9zM627 364v197q0 13 -9 24q-94 101 -220 101q-127 0 -221 -105 q-8 -10 -8 -24v-193q0 -6 4 -6h450q4 0 4 6z" />
<glyph unicode="&#x2202;" horiz-adv-x="428" d="M298 247q9 64 11 130q0 106 -60 106q-14 0 -51 -24t-45 -24q-14 0 -24 9t-10 22q0 25 29.5 43.5t70.5 20.5q74 0 118 -62.5t44 -167.5q0 -131 -58.5 -219.5t-146.5 -88.5q-62 0 -103.5 41.5t-41.5 107.5q0 78 44.5 130t111.5 52q41 0 67 -18t44 -58zM277 196 q0 47 -18 72.5t-50 25.5q-45 0 -74 -52t-29 -135q0 -93 69 -96q44 0 73 52t29 133z" />
<glyph unicode="&#x220f;" horiz-adv-x="645" d="M69 647h507v-819h-97v729h-312v-729h-98v819z" />
<glyph unicode="&#x2211;" horiz-adv-x="580" d="M36 647h517v-84h-395l276 -317l-284 -333h413v-85h-540v66l297 349l-284 326v78z" />
<glyph unicode="&#x2212;" horiz-adv-x="429" d="M22 318h385v-76h-385v76z" />
<glyph unicode="&#x2215;" horiz-adv-x="457" d="M432 700l-374 -700h-40l375 700h39z" />
<glyph unicode="&#x2219;" horiz-adv-x="257" d="M127 458q31 0 53 -22t22 -53t-22 -53t-53 -22t-53 22t-22 53t22 53t53 22z" />
<glyph unicode="&#x221a;" horiz-adv-x="576" d="M433 729h147v-41h-116l-244 -704h-27l-131 384l-51 -18l-9 35l115 42l104 -311z" />
<glyph unicode="&#x221e;" horiz-adv-x="610" d="M325 222q41 -71 110 -71q41 0 67.5 27t26.5 69q0 40 -24.5 67.5t-61.5 27.5q-33 0 -60.5 -27t-57.5 -93zM274 266q-37 69 -108 69q-43 0 -69 -26t-26 -68q0 -40 24 -67t61 -27q34 0 61.5 26.5t56.5 92.5zM304 192q-56 -104 -132 -104q-55 0 -93.5 44t-38.5 111 q0 69 34 113t90 44q38 0 69 -25t62 -80q54 106 132 106q55 0 93.5 -45t38.5 -111q0 -69 -33.5 -112t-88.5 -43q-40 0 -70 23t-63 79z" />
<glyph unicode="&#x222b;" horiz-adv-x="411" d="M115 -114q43 0 48 300q8 279 42.5 387.5t125.5 108.5q30 0 51.5 -18.5t21.5 -48.5q0 -22 -12.5 -36.5t-35.5 -14.5q-34 0 -46 32q-1 2 -2 12.5t-3 18.5t-6 8q-45 0 -51 -273q-5 -290 -39.5 -406.5t-127.5 -116.5q-34 0 -55 18t-21 47q0 23 13.5 37.5t41.5 14.5 q27 0 38 -26q1 -3 3.5 -14.5t5.5 -20.5t8 -9z" />
<glyph unicode="&#x2248;" horiz-adv-x="629" d="M572 404v-71q-81 -60 -156 -60q-33 0 -112 27q-60 28 -111 28q-73 0 -146 -64v71q77 58 156 59q56 0 112 -26q55 -28 111 -28q67 0 146 64zM572 248v-71q-80 -59 -156 -59q-36 0 -112 26q-60 28 -111 28q-73 0 -146 -64v72q78 58 156 58q59 0 112 -26q55 -28 111 -28 q67 0 146 64z" />
<glyph unicode="&#x2260;" horiz-adv-x="589" d="M32 371h316l105 127l51 -42l-71 -85h124v-68h-180l-80 -95h260v-68h-318l-106 -125l-50 41l71 84h-122v68h179l80 95h-259v68z" />
<glyph unicode="&#x2264;" horiz-adv-x="609" d="M560 406l-395 -111l395 -110v-71l-525 148v67l525 147v-70zM35 66h525v-66h-525v66z" />
<glyph unicode="&#x2265;" horiz-adv-x="609" d="M49 406v70l525 -147v-67l-525 -148v71l394 110zM574 66v-66h-525v66h525z" />
<glyph unicode="&#x25ca;" horiz-adv-x="437" d="M218 564l-156 -328l156 -328l159 328zM218 661l206 -425l-206 -425l-205 425z" />
<glyph unicode="&#x25fc;" horiz-adv-x="450" d="M0 450h450v-450h-450v450z" />
<glyph unicode="&#xe6a4;" horiz-adv-x="698" d="M614 625v-177h62v-57h-62v-391h-75v391h-62v57h62v87q0 48 -32.5 84t-70.5 36q-52 0 -82.5 -34t-32.5 -93v-6q0 -67 82 -118l-50 -56q-43 46 -98 46q-61 0 -104.5 -51.5t-43.5 -121.5t43.5 -119.5t104.5 -49.5q57 0 98 44l50 -59q-75 -49 -135 -49q-2 0 -7 0.5t-7 0.5 q-94 0 -160.5 67t-66.5 165q0 99 66.5 168t160.5 69q6 0 29 -6t25 -6q-23 10 -38.5 38.5t-17.5 55.5q0 77 49 124t137 47h2q35 0 61 -13.5t38.5 -29.5t31.5 -29.5t43 -13.5z" />
<glyph unicode="&#xe6a5;" horiz-adv-x="924" d="M15 60l55 47q40 -55 102 -55q52 0 73 11.5t22 44.5q0 37 -20 51.5t-72 27.5q-73 20 -107.5 49.5t-35.5 82.5q0 63 43.5 101t116.5 38q14 0 49 -11q-16 18 -27 48t-13 53v4q0 69 49 114t135 45h2q74 0 123 -48.5t51 -106.5v-177q48 79 146 79q64 0 108 -37t62 -88.5 t18 -110.5q0 -104 -51.5 -168t-136.5 -64q-98 0 -146 75v-290h-75v760q0 48 -32.5 84t-70.5 36q-52 0 -82.5 -34t-32.5 -93v-11q0 -74 60 -117l-43 -49q-47 44 -96 44q-39 0 -63.5 -19.5t-24.5 -53.5q3 -50 103 -71q140 -36 140 -127v-2q0 -64 -43.5 -98.5t-130.5 -34.5 q-42 0 -85 19t-70 52zM818 222q0 80 -34.5 127t-93.5 47t-94 -46t-35 -128q0 -80 33.5 -127t95.5 -47q59 0 93.5 47t34.5 127z" />
<glyph unicode="&#xe6b0;" horiz-adv-x="529" d="M361 391h-193v-391h-75v391h-62v57h62v177h75v-177h193v177h75v-177h62v-57h-62v-391h-75v391z" />
<glyph unicode="&#xf6c3;" horiz-adv-x="206" d="M173 -81l-102 -144l-35 23l77 157z" />
<glyph unicode="&#xfb05;" horiz-adv-x="515" d="M67 446v69q0 89 49 142.5t138 53.5q35 0 60 -9t37 -21.5t22 -25t23.5 -21.5t33.5 -9v-177h62v-57h-62v-391h-75v391h-62v57h62v87q-7 44 -36.5 75.5t-66.5 31.5q-51 0 -78.5 -34t-29.5 -94v-514h-77v392h-29z" />
<glyph unicode="&#xfb06;" horiz-adv-x="681" d="M42 60l55 47q40 -55 102 -55q52 0 73 11.5t22 44.5q0 37 -20 51.5t-72 27.5q-73 20 -107.5 49.5t-35.5 82.5q0 63 43.5 101t116.5 38q14 0 49 -11q-16 18 -27 48t-13 53v4q0 69 49 114t135 45h2q35 0 61 -13.5t39 -29.5t32 -29.5t41 -13.5h1v-177h62v-57h-62v-391h-75 v391h-62v57h62v87q0 48 -32.5 84t-70.5 36q-52 0 -82.5 -34t-32.5 -93v-11q0 -74 60 -117l-43 -49q-47 44 -96 44q-39 0 -63.5 -19.5t-24.5 -53.5q3 -50 103 -71q140 -36 140 -127v-2q0 -64 -43.5 -98.5t-130.5 -34.5q-42 0 -85 19t-70 52z" />
</font>
</defs>
</svg>
