<?xml version="1.0" encoding="utf-8"?>
<!-- Generator: Adobe Illustrator 17.1.0, SVG Export Plug-In . SVG Version: 6.00 Build 0)  -->
<!DOCTYPE svg PUBLIC "-//W3C//DTD SVG 1.1//EN" "http://www.w3.org/Graphics/SVG/1.1/DTD/svg11.dtd">
<svg version="1.1" xmlns="http://www.w3.org/2000/svg" xmlns:xlink="http://www.w3.org/1999/xlink" x="0px" y="0px"
	 viewBox="0 0 720 720" enable-background="new 0 0 720 720" xml:space="preserve">
<g id="Layer_1" display="none">
	<circle display="inline" fill="#1C75BC" stroke="#000000" stroke-miterlimit="10" cx="350.1" cy="362.3" r="305.3"/>
</g>
<g id="Layer_5">
</g>
<g id="Layer_4" display="none">
	<rect x="179" y="114" display="inline" fill="none" width="570" height="545"/>
	<text transform="matrix(1 0 0 1 179 548.7656)" display="inline" font-family="'Kartika-Bold'" font-size="600">J</text>
</g>
<g id="Layer_3">
	<polygon fill="#D1D3D4" points="546.5,286.5 464.9,286.9 367.4,355.5 367.7,355.8 240,444 278.5,482.4 421.5,383.8 421,383.3 	"/>
	<path fill="#5F9EA0" d="M350.3,233v279.5l-119.8-79.9c-4.2-2.8-9.7-2.7-13.8,0.1l-15.8,10.9l150.3,106.7l35.2,22.9V233H350.3z"/>
	<g>
		<linearGradient id="SVGID_1_" gradientUnits="userSpaceOnUse" x1="211.8038" y1="375.6306" x2="546.5" y2="375.6306">
			<stop  offset="0" style="stop-color:#EF3D25"/>
			<stop  offset="0.4652" style="stop-color:#F15A29"/>
			<stop  offset="0.9412" style="stop-color:#EF3D25"/>
		</linearGradient>
		<path fill="url(#SVGID_1_)" d="M386,572.3V504l72.2-47.3l-100.2-68l-100.1-68.5l-46-34.1L250,260l7.9-5.4L368.4,179l4.4,4.2
			l0.2-0.2l173.5,103.5l-25.6,24c-10.4,9.8-26.1,11.4-38.4,4L367.8,245l-62,42.4l107.1,73.8l131.5,88.2l-10.8,10.5L386,572.3z"/>
	</g>
	<g>
		<path fill="#5F9EA0" d="M401.3,197.9c-15.8,8.5-24.1,15.3-34.3,28.5c-10.2-13.1-18.4-20-34.3-28.5c15.8-8.5,24.1-15.3,34.3-28.5
			C377.2,182.6,385.5,189.4,401.3,197.9z"/>
		<path fill="none" stroke="#5F9EA0" stroke-width="20" stroke-miterlimit="10" d="M401.3,197.9c-15.8,8.5-24.1,15.3-34.3,28.5
			c-10.2-13.1-18.4-20-34.3-28.5c15.8-8.5,24.1-15.3,34.3-28.5C377.2,182.6,385.5,189.4,401.3,197.9z"/>
	</g>
</g>
</svg>
